%FSLAX45Y45*%
G04 Gerber Fmt 4.5, Leading zero omitted, Abs format (unit mm)*
G04 Created by KiCad (PCBNEW (5.1.4)-1) date 2021-11-29 21:01:01*
%MOMM*%
%LPD*%
G04 APERTURE LIST*
%ADD10C,0.100000*%
%ADD11C,0.200000*%
%ADD12C,0.300000*%
G04 APERTURE END LIST*
D10*
X21880000Y-6450000D02*
X11880000Y-6450000D01*
X21880000Y-12040000D02*
X21880000Y-6450000D01*
X11880000Y-12040000D02*
X21880000Y-12040000D01*
X11880000Y-12040000D02*
X11880000Y-6450000D01*
D11*
X12755000Y-10885000D02*
X12785000Y-10915000D01*
X12785000Y-10885000D02*
X12755000Y-10915000D01*
X13285000Y-6665000D02*
X13315000Y-6695000D01*
X13315000Y-6665000D02*
X13285000Y-6695000D01*
X14055000Y-10995000D02*
X14085000Y-11025000D01*
X14085000Y-10995000D02*
X14055000Y-11025000D01*
X14805001Y-10995000D02*
X14835001Y-11025000D01*
X14835001Y-10995000D02*
X14805001Y-11025000D01*
X15695000Y-10125000D02*
X15725000Y-10155000D01*
X15725000Y-10125000D02*
X15695000Y-10155000D01*
X15885000Y-10105000D02*
X15915000Y-10135000D01*
X15915000Y-10105000D02*
X15885000Y-10135000D01*
X15985000Y-6875000D02*
X16015000Y-6905000D01*
X16015000Y-6875000D02*
X15985000Y-6905000D01*
X16035000Y-10325000D02*
X16065000Y-10355000D01*
X16065000Y-10325000D02*
X16035000Y-10355000D01*
X16245000Y-9665000D02*
X16275000Y-9695000D01*
X16275000Y-9665000D02*
X16245000Y-9695000D01*
X16385000Y-7425000D02*
X16415000Y-7455000D01*
X16415000Y-7425000D02*
X16385000Y-7455000D01*
X16395000Y-9175000D02*
X16425000Y-9205000D01*
X16425000Y-9175000D02*
X16395000Y-9205000D01*
X16935000Y-10932499D02*
X16965000Y-10962499D01*
X16965000Y-10932499D02*
X16935000Y-10962499D01*
X17285000Y-10385000D02*
X17315000Y-10415000D01*
X17315000Y-10385000D02*
X17285000Y-10415000D01*
X17294999Y-10475000D02*
X17324999Y-10505000D01*
X17324999Y-10475000D02*
X17294999Y-10505000D01*
X17630000Y-9399000D02*
X17660000Y-9429000D01*
X17660000Y-9399000D02*
X17630000Y-9429000D01*
X17905000Y-10175000D02*
X17935000Y-10205000D01*
X17935000Y-10175000D02*
X17905000Y-10205000D01*
X18020000Y-8891000D02*
X18050000Y-8921000D01*
X18050000Y-8891000D02*
X18020000Y-8921000D01*
X18114025Y-9639999D02*
X18144025Y-9669999D01*
X18144025Y-9639999D02*
X18114025Y-9669999D01*
X18205000Y-9702500D02*
X18235000Y-9732500D01*
X18235000Y-9702500D02*
X18205000Y-9732500D01*
X18235000Y-9485000D02*
X18265000Y-9515000D01*
X18265000Y-9485000D02*
X18235000Y-9515000D01*
X18434999Y-10995000D02*
X18464999Y-11025000D01*
X18464999Y-10995000D02*
X18434999Y-11025000D01*
X18455000Y-9385000D02*
X18485000Y-9415000D01*
X18485000Y-9385000D02*
X18455000Y-9415000D01*
X18475001Y-10435000D02*
X18505001Y-10465000D01*
X18505001Y-10435000D02*
X18475001Y-10465000D01*
X18585000Y-10595000D02*
X18615000Y-10625000D01*
X18615000Y-10595000D02*
X18585000Y-10625000D01*
X18635000Y-8715000D02*
X18665000Y-8745000D01*
X18665000Y-8715000D02*
X18635000Y-8745000D01*
X18945000Y-9905000D02*
X18975000Y-9935000D01*
X18975000Y-9905000D02*
X18945000Y-9935000D01*
X18975000Y-8105000D02*
X19005000Y-8135000D01*
X19005000Y-8105000D02*
X18975000Y-8135000D01*
X18999999Y-9785000D02*
X19029999Y-9815000D01*
X19029999Y-9785000D02*
X18999999Y-9815000D01*
X19105000Y-9427500D02*
X19135000Y-9457500D01*
X19135000Y-9427500D02*
X19105000Y-9457500D01*
X19135000Y-9125000D02*
X19165000Y-9155000D01*
X19165000Y-9125000D02*
X19135000Y-9155000D01*
X19265000Y-7585000D02*
X19295000Y-7615000D01*
X19295000Y-7585000D02*
X19265000Y-7615000D01*
X19265000Y-8595000D02*
X19295000Y-8625000D01*
X19295000Y-8595000D02*
X19265000Y-8625000D01*
X19335000Y-7565000D02*
X19365000Y-7595000D01*
X19365000Y-7565000D02*
X19335000Y-7595000D01*
X19335000Y-7665000D02*
X19365000Y-7695000D01*
X19365000Y-7665000D02*
X19335000Y-7695000D01*
X19365000Y-10805000D02*
X19395000Y-10835000D01*
X19395000Y-10805000D02*
X19365000Y-10835000D01*
X19405000Y-7585000D02*
X19435000Y-7615000D01*
X19435000Y-7585000D02*
X19405000Y-7615000D01*
X19465000Y-10045000D02*
X19495000Y-10075000D01*
X19495000Y-10045000D02*
X19465000Y-10075000D01*
X19525000Y-8445000D02*
X19555000Y-8475000D01*
X19555000Y-8445000D02*
X19525000Y-8475000D01*
X19635000Y-10435000D02*
X19665000Y-10465000D01*
X19665000Y-10435000D02*
X19635000Y-10465000D01*
X20015000Y-10375000D02*
X20045000Y-10405000D01*
X20045000Y-10375000D02*
X20015000Y-10405000D01*
X20275000Y-7175000D02*
X20305000Y-7205000D01*
X20305000Y-7175000D02*
X20275000Y-7205000D01*
X20385000Y-8095000D02*
X20415000Y-8125000D01*
X20415000Y-8095000D02*
X20385000Y-8125000D01*
X15745000Y-7365000D02*
X15775000Y-7395000D01*
X15775000Y-7365000D02*
X15745000Y-7395000D01*
X15745000Y-7485000D02*
X15775000Y-7515000D01*
X15775000Y-7485000D02*
X15745000Y-7515000D01*
X15855000Y-7365000D02*
X15885000Y-7395000D01*
X15885000Y-7365000D02*
X15855000Y-7395000D01*
X15855000Y-7485000D02*
X15885000Y-7515000D01*
X15885000Y-7485000D02*
X15855000Y-7515000D01*
X15985000Y-7365000D02*
X16015000Y-7395000D01*
X16015000Y-7365000D02*
X15985000Y-7395000D01*
X15985000Y-7485000D02*
X16015000Y-7515000D01*
X16015000Y-7485000D02*
X15985000Y-7515000D01*
X16105000Y-7365000D02*
X16135000Y-7395000D01*
X16135000Y-7365000D02*
X16105000Y-7395000D01*
X16105000Y-7485000D02*
X16135000Y-7515000D01*
X16135000Y-7485000D02*
X16105000Y-7515000D01*
X12880000Y-10670000D02*
G75*
G03X12880000Y-10670000I-20000J0D01*
G01*
X18970000Y-9110000D02*
G75*
G03X18970000Y-9110000I-20000J0D01*
G01*
X19097499Y-10190000D02*
G75*
G03X19097499Y-10190000I-20000J0D01*
G01*
X19130000Y-9050000D02*
G75*
G03X19130000Y-9050000I-20000J0D01*
G01*
X19170000Y-10310000D02*
G75*
G03X19170000Y-10310000I-20000J0D01*
G01*
X19244549Y-10177951D02*
G75*
G03X19244549Y-10177951I-20000J0D01*
G01*
X19260000Y-9140000D02*
G75*
G03X19260000Y-9140000I-20000J0D01*
G01*
X20320000Y-8250000D02*
G75*
G03X20320000Y-8250000I-20000J0D01*
G01*
X13180000Y-7101900D02*
X13180000Y-7178100D01*
X13141900Y-7140000D02*
X13218100Y-7140000D01*
X13180000Y-7301900D02*
X13180000Y-7378100D01*
X13141900Y-7340000D02*
X13218100Y-7340000D01*
X13180000Y-7501900D02*
X13180000Y-7578100D01*
X13141900Y-7540000D02*
X13218100Y-7540000D01*
X13180000Y-7701900D02*
X13180000Y-7778100D01*
X13141900Y-7740000D02*
X13218100Y-7740000D01*
X13180000Y-7901900D02*
X13180000Y-7978100D01*
X13141900Y-7940000D02*
X13218100Y-7940000D01*
X13180000Y-8101900D02*
X13180000Y-8178100D01*
X13141900Y-8140000D02*
X13218100Y-8140000D01*
X13180000Y-8301900D02*
X13180000Y-8378100D01*
X13141900Y-8340000D02*
X13218100Y-8340000D01*
X13180000Y-8501900D02*
X13180000Y-8578100D01*
X13141900Y-8540000D02*
X13218100Y-8540000D01*
X13180000Y-8701900D02*
X13180000Y-8778100D01*
X13141900Y-8740000D02*
X13218100Y-8740000D01*
X13180000Y-8901900D02*
X13180000Y-8978100D01*
X13141900Y-8940000D02*
X13218100Y-8940000D01*
X13180000Y-9101900D02*
X13180000Y-9178100D01*
X13141900Y-9140000D02*
X13218100Y-9140000D01*
X13180000Y-9301900D02*
X13180000Y-9378100D01*
X13141900Y-9340000D02*
X13218100Y-9340000D01*
X13180000Y-9501900D02*
X13180000Y-9578100D01*
X13141900Y-9540000D02*
X13218100Y-9540000D01*
X13180000Y-9701900D02*
X13180000Y-9778100D01*
X13141900Y-9740000D02*
X13218100Y-9740000D01*
X13180000Y-9901900D02*
X13180000Y-9978100D01*
X13141900Y-9940000D02*
X13218100Y-9940000D01*
X13180000Y-10101900D02*
X13180000Y-10178100D01*
X13141900Y-10140000D02*
X13218100Y-10140000D01*
X13180000Y-10301900D02*
X13180000Y-10378100D01*
X13141900Y-10340000D02*
X13218100Y-10340000D01*
X13180000Y-10501900D02*
X13180000Y-10578100D01*
X13141900Y-10540000D02*
X13218100Y-10540000D01*
X13180000Y-10701900D02*
X13180000Y-10778100D01*
X13141900Y-10740000D02*
X13218100Y-10740000D01*
X13180000Y-10901900D02*
X13180000Y-10978100D01*
X13141900Y-10940000D02*
X13218100Y-10940000D01*
X20580000Y-7101900D02*
X20580000Y-7178100D01*
X20541900Y-7140000D02*
X20618100Y-7140000D01*
X20580000Y-7301900D02*
X20580000Y-7378100D01*
X20541900Y-7340000D02*
X20618100Y-7340000D01*
X20580000Y-7501900D02*
X20580000Y-7578100D01*
X20541900Y-7540000D02*
X20618100Y-7540000D01*
X20580000Y-7701900D02*
X20580000Y-7778100D01*
X20541900Y-7740000D02*
X20618100Y-7740000D01*
X20580000Y-7901900D02*
X20580000Y-7978100D01*
X20541900Y-7940000D02*
X20618100Y-7940000D01*
X20580000Y-8101900D02*
X20580000Y-8178100D01*
X20541900Y-8140000D02*
X20618100Y-8140000D01*
X20580000Y-8301900D02*
X20580000Y-8378100D01*
X20541900Y-8340000D02*
X20618100Y-8340000D01*
X20580000Y-8501900D02*
X20580000Y-8578100D01*
X20541900Y-8540000D02*
X20618100Y-8540000D01*
X20580000Y-8701900D02*
X20580000Y-8778100D01*
X20541900Y-8740000D02*
X20618100Y-8740000D01*
X20580000Y-8901900D02*
X20580000Y-8978100D01*
X20541900Y-8940000D02*
X20618100Y-8940000D01*
X20580000Y-9101900D02*
X20580000Y-9178100D01*
X20541900Y-9140000D02*
X20618100Y-9140000D01*
X20580000Y-9301900D02*
X20580000Y-9378100D01*
X20541900Y-9340000D02*
X20618100Y-9340000D01*
X20580000Y-9501900D02*
X20580000Y-9578100D01*
X20541900Y-9540000D02*
X20618100Y-9540000D01*
X20580000Y-9701900D02*
X20580000Y-9778100D01*
X20541900Y-9740000D02*
X20618100Y-9740000D01*
X20580000Y-9901900D02*
X20580000Y-9978100D01*
X20541900Y-9940000D02*
X20618100Y-9940000D01*
X20580000Y-10101900D02*
X20580000Y-10178100D01*
X20541900Y-10140000D02*
X20618100Y-10140000D01*
X20580000Y-10301900D02*
X20580000Y-10378100D01*
X20541900Y-10340000D02*
X20618100Y-10340000D01*
X20580000Y-10501900D02*
X20580000Y-10578100D01*
X20541900Y-10540000D02*
X20618100Y-10540000D01*
X20580000Y-10701900D02*
X20580000Y-10778100D01*
X20541900Y-10740000D02*
X20618100Y-10740000D01*
X20580000Y-10901900D02*
X20580000Y-10978100D01*
X20541900Y-10940000D02*
X20618100Y-10940000D01*
X18225356Y-8445356D02*
X18225356Y-8374644D01*
X18154644Y-8374644D01*
X18154644Y-8445356D01*
X18225356Y-8445356D01*
X18479356Y-8445356D02*
X18479356Y-8374644D01*
X18408644Y-8374644D01*
X18408644Y-8445356D01*
X18479356Y-8445356D01*
X21070000Y-9091000D02*
X21121000Y-9040000D01*
X21070000Y-8989000D01*
X21019000Y-9040000D01*
X21070000Y-9091000D01*
X21070000Y-9391000D02*
X21121000Y-9340000D01*
X21070000Y-9289000D01*
X21019000Y-9340000D01*
X21070000Y-9391000D01*
X12600000Y-10171000D02*
X12651000Y-10120000D01*
X12600000Y-10069000D01*
X12549000Y-10120000D01*
X12600000Y-10171000D01*
X12600000Y-10471000D02*
X12651000Y-10420000D01*
X12600000Y-10369000D01*
X12549000Y-10420000D01*
X12600000Y-10471000D01*
X21070000Y-6931000D02*
X21121000Y-6880000D01*
X21070000Y-6829000D01*
X21019000Y-6880000D01*
X21070000Y-6931000D01*
X21070000Y-7231000D02*
X21121000Y-7180000D01*
X21070000Y-7129000D01*
X21019000Y-7180000D01*
X21070000Y-7231000D01*
X14460000Y-11631000D02*
X14511000Y-11580000D01*
X14460000Y-11529000D01*
X14409000Y-11580000D01*
X14460000Y-11631000D01*
X14760000Y-11631000D02*
X14811000Y-11580000D01*
X14760000Y-11529000D01*
X14709000Y-11580000D01*
X14760000Y-11631000D01*
X13380000Y-11631000D02*
X13431000Y-11580000D01*
X13380000Y-11529000D01*
X13329000Y-11580000D01*
X13380000Y-11631000D01*
X13680000Y-11631000D02*
X13731000Y-11580000D01*
X13680000Y-11529000D01*
X13629000Y-11580000D01*
X13680000Y-11631000D01*
X17840000Y-11631000D02*
X17891000Y-11580000D01*
X17840000Y-11529000D01*
X17789000Y-11580000D01*
X17840000Y-11631000D01*
X18140000Y-11631000D02*
X18191000Y-11580000D01*
X18140000Y-11529000D01*
X18089000Y-11580000D01*
X18140000Y-11631000D01*
X12600000Y-6931000D02*
X12651000Y-6880000D01*
X12600000Y-6829000D01*
X12549000Y-6880000D01*
X12600000Y-6931000D01*
X12600000Y-7231000D02*
X12651000Y-7180000D01*
X12600000Y-7129000D01*
X12549000Y-7180000D01*
X12600000Y-7231000D01*
X18920000Y-11631000D02*
X18971000Y-11580000D01*
X18920000Y-11529000D01*
X18869000Y-11580000D01*
X18920000Y-11631000D01*
X19220000Y-11631000D02*
X19271000Y-11580000D01*
X19220000Y-11529000D01*
X19169000Y-11580000D01*
X19220000Y-11631000D01*
X17170000Y-8031000D02*
X17221000Y-7980000D01*
X17170000Y-7929000D01*
X17119000Y-7980000D01*
X17170000Y-8031000D01*
X17170000Y-8331000D02*
X17221000Y-8280000D01*
X17170000Y-8229000D01*
X17119000Y-8280000D01*
X17170000Y-8331000D01*
X12600000Y-9091000D02*
X12651000Y-9040000D01*
X12600000Y-8989000D01*
X12549000Y-9040000D01*
X12600000Y-9091000D01*
X12600000Y-9391000D02*
X12651000Y-9340000D01*
X12600000Y-9289000D01*
X12549000Y-9340000D01*
X12600000Y-9391000D01*
X21070000Y-8011000D02*
X21121000Y-7960000D01*
X21070000Y-7909000D01*
X21019000Y-7960000D01*
X21070000Y-8011000D01*
X21070000Y-8311000D02*
X21121000Y-8260000D01*
X21070000Y-8209000D01*
X21019000Y-8260000D01*
X21070000Y-8311000D01*
X12600000Y-8011000D02*
X12651000Y-7960000D01*
X12600000Y-7909000D01*
X12549000Y-7960000D01*
X12600000Y-8011000D01*
X12600000Y-8311000D02*
X12651000Y-8260000D01*
X12600000Y-8209000D01*
X12549000Y-8260000D01*
X12600000Y-8311000D01*
X21070000Y-10171000D02*
X21121000Y-10120000D01*
X21070000Y-10069000D01*
X21019000Y-10120000D01*
X21070000Y-10171000D01*
X21070000Y-10471000D02*
X21121000Y-10420000D01*
X21070000Y-10369000D01*
X21019000Y-10420000D01*
X21070000Y-10471000D01*
X12300000Y-11551000D02*
X12351000Y-11500000D01*
X12300000Y-11449000D01*
X12249000Y-11500000D01*
X12300000Y-11551000D01*
X12600000Y-11551000D02*
X12651000Y-11500000D01*
X12600000Y-11449000D01*
X12549000Y-11500000D01*
X12600000Y-11551000D01*
X15540000Y-11631000D02*
X15591000Y-11580000D01*
X15540000Y-11529000D01*
X15489000Y-11580000D01*
X15540000Y-11631000D01*
X15840000Y-11631000D02*
X15891000Y-11580000D01*
X15840000Y-11529000D01*
X15789000Y-11580000D01*
X15840000Y-11631000D01*
X20000000Y-11631000D02*
X20051000Y-11580000D01*
X20000000Y-11529000D01*
X19949000Y-11580000D01*
X20000000Y-11631000D01*
X20300000Y-11631000D02*
X20351000Y-11580000D01*
X20300000Y-11529000D01*
X20249000Y-11580000D01*
X20300000Y-11631000D01*
X17100000Y-7261000D02*
X17151000Y-7210000D01*
X17100000Y-7159000D01*
X17049000Y-7210000D01*
X17100000Y-7261000D01*
X17400000Y-7261000D02*
X17451000Y-7210000D01*
X17400000Y-7159000D01*
X17349000Y-7210000D01*
X17400000Y-7261000D01*
X17700000Y-7261000D02*
X17751000Y-7210000D01*
X17700000Y-7159000D01*
X17649000Y-7210000D01*
X17700000Y-7261000D01*
X18000000Y-7261000D02*
X18051000Y-7210000D01*
X18000000Y-7159000D01*
X17949000Y-7210000D01*
X18000000Y-7261000D01*
X18300000Y-7261000D02*
X18351000Y-7210000D01*
X18300000Y-7159000D01*
X18249000Y-7210000D01*
X18300000Y-7261000D01*
X18600000Y-7261000D02*
X18651000Y-7210000D01*
X18600000Y-7159000D01*
X18549000Y-7210000D01*
X18600000Y-7261000D01*
X18900000Y-7261000D02*
X18951000Y-7210000D01*
X18900000Y-7159000D01*
X18849000Y-7210000D01*
X18900000Y-7261000D01*
X19200000Y-7261000D02*
X19251000Y-7210000D01*
X19200000Y-7159000D01*
X19149000Y-7210000D01*
X19200000Y-7261000D01*
X19500000Y-7261000D02*
X19551000Y-7210000D01*
X19500000Y-7159000D01*
X19449000Y-7210000D01*
X19500000Y-7261000D01*
X21080000Y-11551000D02*
X21131000Y-11500000D01*
X21080000Y-11449000D01*
X21029000Y-11500000D01*
X21080000Y-11551000D01*
X21380000Y-11551000D02*
X21431000Y-11500000D01*
X21380000Y-11449000D01*
X21329000Y-11500000D01*
X21380000Y-11551000D01*
D12*
X12161428Y-12510714D02*
X12161428Y-12210714D01*
X12232857Y-12210714D01*
X12275714Y-12225000D01*
X12304286Y-12253571D01*
X12318571Y-12282143D01*
X12332857Y-12339286D01*
X12332857Y-12382143D01*
X12318571Y-12439286D01*
X12304286Y-12467857D01*
X12275714Y-12496429D01*
X12232857Y-12510714D01*
X12161428Y-12510714D01*
X12461428Y-12510714D02*
X12461428Y-12310714D01*
X12461428Y-12367857D02*
X12475714Y-12339286D01*
X12490000Y-12325000D01*
X12518571Y-12310714D01*
X12547143Y-12310714D01*
X12647143Y-12510714D02*
X12647143Y-12310714D01*
X12647143Y-12210714D02*
X12632857Y-12225000D01*
X12647143Y-12239286D01*
X12661428Y-12225000D01*
X12647143Y-12210714D01*
X12647143Y-12239286D01*
X12832857Y-12510714D02*
X12804286Y-12496429D01*
X12790000Y-12467857D01*
X12790000Y-12210714D01*
X12990000Y-12510714D02*
X12961428Y-12496429D01*
X12947143Y-12467857D01*
X12947143Y-12210714D01*
X13332857Y-12510714D02*
X13332857Y-12210714D01*
X13432857Y-12425000D01*
X13532857Y-12210714D01*
X13532857Y-12510714D01*
X13804286Y-12510714D02*
X13804286Y-12353571D01*
X13790000Y-12325000D01*
X13761428Y-12310714D01*
X13704286Y-12310714D01*
X13675714Y-12325000D01*
X13804286Y-12496429D02*
X13775714Y-12510714D01*
X13704286Y-12510714D01*
X13675714Y-12496429D01*
X13661428Y-12467857D01*
X13661428Y-12439286D01*
X13675714Y-12410714D01*
X13704286Y-12396429D01*
X13775714Y-12396429D01*
X13804286Y-12382143D01*
X13947143Y-12310714D02*
X13947143Y-12610714D01*
X13947143Y-12325000D02*
X13975714Y-12310714D01*
X14032857Y-12310714D01*
X14061428Y-12325000D01*
X14075714Y-12339286D01*
X14090000Y-12367857D01*
X14090000Y-12453571D01*
X14075714Y-12482143D01*
X14061428Y-12496429D01*
X14032857Y-12510714D01*
X13975714Y-12510714D01*
X13947143Y-12496429D01*
X14218571Y-12482143D02*
X14232857Y-12496429D01*
X14218571Y-12510714D01*
X14204286Y-12496429D01*
X14218571Y-12482143D01*
X14218571Y-12510714D01*
X14218571Y-12325000D02*
X14232857Y-12339286D01*
X14218571Y-12353571D01*
X14204286Y-12339286D01*
X14218571Y-12325000D01*
X14218571Y-12353571D01*
X11845000Y-12990000D02*
X11875000Y-13020000D01*
X11875000Y-12990000D02*
X11845000Y-13020000D01*
X12218571Y-12840714D02*
X12247143Y-12840714D01*
X12275714Y-12855000D01*
X12290000Y-12869286D01*
X12304286Y-12897857D01*
X12318571Y-12955000D01*
X12318571Y-13026429D01*
X12304286Y-13083571D01*
X12290000Y-13112143D01*
X12275714Y-13126429D01*
X12247143Y-13140714D01*
X12218571Y-13140714D01*
X12190000Y-13126429D01*
X12175714Y-13112143D01*
X12161428Y-13083571D01*
X12147143Y-13026429D01*
X12147143Y-12955000D01*
X12161428Y-12897857D01*
X12175714Y-12869286D01*
X12190000Y-12855000D01*
X12218571Y-12840714D01*
X12447143Y-13112143D02*
X12461428Y-13126429D01*
X12447143Y-13140714D01*
X12432857Y-13126429D01*
X12447143Y-13112143D01*
X12447143Y-13140714D01*
X12561428Y-12840714D02*
X12747143Y-12840714D01*
X12647143Y-12955000D01*
X12690000Y-12955000D01*
X12718571Y-12969286D01*
X12732857Y-12983571D01*
X12747143Y-13012143D01*
X12747143Y-13083571D01*
X12732857Y-13112143D01*
X12718571Y-13126429D01*
X12690000Y-13140714D01*
X12604286Y-13140714D01*
X12575714Y-13126429D01*
X12561428Y-13112143D01*
X12932857Y-12840714D02*
X12961428Y-12840714D01*
X12990000Y-12855000D01*
X13004286Y-12869286D01*
X13018571Y-12897857D01*
X13032857Y-12955000D01*
X13032857Y-13026429D01*
X13018571Y-13083571D01*
X13004286Y-13112143D01*
X12990000Y-13126429D01*
X12961428Y-13140714D01*
X12932857Y-13140714D01*
X12904286Y-13126429D01*
X12890000Y-13112143D01*
X12875714Y-13083571D01*
X12861428Y-13026429D01*
X12861428Y-12955000D01*
X12875714Y-12897857D01*
X12890000Y-12869286D01*
X12904286Y-12855000D01*
X12932857Y-12840714D01*
X13161428Y-13140714D02*
X13161428Y-12940714D01*
X13161428Y-12969286D02*
X13175714Y-12955000D01*
X13204286Y-12940714D01*
X13247143Y-12940714D01*
X13275714Y-12955000D01*
X13290000Y-12983571D01*
X13290000Y-13140714D01*
X13290000Y-12983571D02*
X13304286Y-12955000D01*
X13332857Y-12940714D01*
X13375714Y-12940714D01*
X13404286Y-12955000D01*
X13418571Y-12983571D01*
X13418571Y-13140714D01*
X13561428Y-13140714D02*
X13561428Y-12940714D01*
X13561428Y-12969286D02*
X13575714Y-12955000D01*
X13604286Y-12940714D01*
X13647143Y-12940714D01*
X13675714Y-12955000D01*
X13690000Y-12983571D01*
X13690000Y-13140714D01*
X13690000Y-12983571D02*
X13704286Y-12955000D01*
X13732857Y-12940714D01*
X13775714Y-12940714D01*
X13804286Y-12955000D01*
X13818571Y-12983571D01*
X13818571Y-13140714D01*
X14404286Y-12826429D02*
X14147143Y-13212143D01*
X14790000Y-12840714D02*
X14818571Y-12840714D01*
X14847143Y-12855000D01*
X14861428Y-12869286D01*
X14875714Y-12897857D01*
X14890000Y-12955000D01*
X14890000Y-13026429D01*
X14875714Y-13083571D01*
X14861428Y-13112143D01*
X14847143Y-13126429D01*
X14818571Y-13140714D01*
X14790000Y-13140714D01*
X14761428Y-13126429D01*
X14747143Y-13112143D01*
X14732857Y-13083571D01*
X14718571Y-13026429D01*
X14718571Y-12955000D01*
X14732857Y-12897857D01*
X14747143Y-12869286D01*
X14761428Y-12855000D01*
X14790000Y-12840714D01*
X15018571Y-13112143D02*
X15032857Y-13126429D01*
X15018571Y-13140714D01*
X15004286Y-13126429D01*
X15018571Y-13112143D01*
X15018571Y-13140714D01*
X15218571Y-12840714D02*
X15247143Y-12840714D01*
X15275714Y-12855000D01*
X15290000Y-12869286D01*
X15304286Y-12897857D01*
X15318571Y-12955000D01*
X15318571Y-13026429D01*
X15304286Y-13083571D01*
X15290000Y-13112143D01*
X15275714Y-13126429D01*
X15247143Y-13140714D01*
X15218571Y-13140714D01*
X15190000Y-13126429D01*
X15175714Y-13112143D01*
X15161428Y-13083571D01*
X15147143Y-13026429D01*
X15147143Y-12955000D01*
X15161428Y-12897857D01*
X15175714Y-12869286D01*
X15190000Y-12855000D01*
X15218571Y-12840714D01*
X15604286Y-13140714D02*
X15432857Y-13140714D01*
X15518571Y-13140714D02*
X15518571Y-12840714D01*
X15490000Y-12883571D01*
X15461428Y-12912143D01*
X15432857Y-12926429D01*
X15718571Y-12869286D02*
X15732857Y-12855000D01*
X15761428Y-12840714D01*
X15832857Y-12840714D01*
X15861428Y-12855000D01*
X15875714Y-12869286D01*
X15890000Y-12897857D01*
X15890000Y-12926429D01*
X15875714Y-12969286D01*
X15704286Y-13140714D01*
X15890000Y-13140714D01*
X16004286Y-12840714D02*
X16004286Y-12897857D01*
X16118571Y-12840714D02*
X16118571Y-12897857D01*
X16561428Y-13255000D02*
X16547143Y-13240714D01*
X16518571Y-13197857D01*
X16504286Y-13169286D01*
X16490000Y-13126429D01*
X16475714Y-13055000D01*
X16475714Y-12997857D01*
X16490000Y-12926429D01*
X16504286Y-12883571D01*
X16518571Y-12855000D01*
X16547143Y-12812143D01*
X16561428Y-12797857D01*
X16818571Y-12840714D02*
X16675714Y-12840714D01*
X16661428Y-12983571D01*
X16675714Y-12969286D01*
X16704286Y-12955000D01*
X16775714Y-12955000D01*
X16804286Y-12969286D01*
X16818571Y-12983571D01*
X16832857Y-13012143D01*
X16832857Y-13083571D01*
X16818571Y-13112143D01*
X16804286Y-13126429D01*
X16775714Y-13140714D01*
X16704286Y-13140714D01*
X16675714Y-13126429D01*
X16661428Y-13112143D01*
X17018571Y-12840714D02*
X17047143Y-12840714D01*
X17075714Y-12855000D01*
X17090000Y-12869286D01*
X17104286Y-12897857D01*
X17118571Y-12955000D01*
X17118571Y-13026429D01*
X17104286Y-13083571D01*
X17090000Y-13112143D01*
X17075714Y-13126429D01*
X17047143Y-13140714D01*
X17018571Y-13140714D01*
X16990000Y-13126429D01*
X16975714Y-13112143D01*
X16961428Y-13083571D01*
X16947143Y-13026429D01*
X16947143Y-12955000D01*
X16961428Y-12897857D01*
X16975714Y-12869286D01*
X16990000Y-12855000D01*
X17018571Y-12840714D01*
X17475714Y-13140714D02*
X17475714Y-12840714D01*
X17604286Y-13140714D02*
X17604286Y-12983571D01*
X17590000Y-12955000D01*
X17561428Y-12940714D01*
X17518571Y-12940714D01*
X17490000Y-12955000D01*
X17475714Y-12969286D01*
X17790000Y-13140714D02*
X17761428Y-13126429D01*
X17747143Y-13112143D01*
X17732857Y-13083571D01*
X17732857Y-12997857D01*
X17747143Y-12969286D01*
X17761428Y-12955000D01*
X17790000Y-12940714D01*
X17832857Y-12940714D01*
X17861428Y-12955000D01*
X17875714Y-12969286D01*
X17890000Y-12997857D01*
X17890000Y-13083571D01*
X17875714Y-13112143D01*
X17861428Y-13126429D01*
X17832857Y-13140714D01*
X17790000Y-13140714D01*
X18061428Y-13140714D02*
X18032857Y-13126429D01*
X18018571Y-13097857D01*
X18018571Y-12840714D01*
X18290000Y-13126429D02*
X18261428Y-13140714D01*
X18204286Y-13140714D01*
X18175714Y-13126429D01*
X18161428Y-13097857D01*
X18161428Y-12983571D01*
X18175714Y-12955000D01*
X18204286Y-12940714D01*
X18261428Y-12940714D01*
X18290000Y-12955000D01*
X18304286Y-12983571D01*
X18304286Y-13012143D01*
X18161428Y-13040714D01*
X18418571Y-13126429D02*
X18447143Y-13140714D01*
X18504286Y-13140714D01*
X18532857Y-13126429D01*
X18547143Y-13097857D01*
X18547143Y-13083571D01*
X18532857Y-13055000D01*
X18504286Y-13040714D01*
X18461428Y-13040714D01*
X18432857Y-13026429D01*
X18418571Y-12997857D01*
X18418571Y-12983571D01*
X18432857Y-12955000D01*
X18461428Y-12940714D01*
X18504286Y-12940714D01*
X18532857Y-12955000D01*
X18647143Y-13255000D02*
X18661428Y-13240714D01*
X18690000Y-13197857D01*
X18704286Y-13169286D01*
X18718571Y-13126429D01*
X18732857Y-13055000D01*
X18732857Y-12997857D01*
X18718571Y-12926429D01*
X18704286Y-12883571D01*
X18690000Y-12855000D01*
X18661428Y-12812143D01*
X18647143Y-12797857D01*
X11875000Y-13401000D02*
G75*
G03X11875000Y-13401000I-20000J0D01*
G01*
X12218571Y-13236714D02*
X12247143Y-13236714D01*
X12275714Y-13251000D01*
X12290000Y-13265286D01*
X12304286Y-13293857D01*
X12318571Y-13351000D01*
X12318571Y-13422429D01*
X12304286Y-13479571D01*
X12290000Y-13508143D01*
X12275714Y-13522429D01*
X12247143Y-13536714D01*
X12218571Y-13536714D01*
X12190000Y-13522429D01*
X12175714Y-13508143D01*
X12161428Y-13479571D01*
X12147143Y-13422429D01*
X12147143Y-13351000D01*
X12161428Y-13293857D01*
X12175714Y-13265286D01*
X12190000Y-13251000D01*
X12218571Y-13236714D01*
X12447143Y-13508143D02*
X12461428Y-13522429D01*
X12447143Y-13536714D01*
X12432857Y-13522429D01*
X12447143Y-13508143D01*
X12447143Y-13536714D01*
X12718571Y-13336714D02*
X12718571Y-13536714D01*
X12647143Y-13222429D02*
X12575714Y-13436714D01*
X12761428Y-13436714D01*
X12932857Y-13236714D02*
X12961428Y-13236714D01*
X12990000Y-13251000D01*
X13004286Y-13265286D01*
X13018571Y-13293857D01*
X13032857Y-13351000D01*
X13032857Y-13422429D01*
X13018571Y-13479571D01*
X13004286Y-13508143D01*
X12990000Y-13522429D01*
X12961428Y-13536714D01*
X12932857Y-13536714D01*
X12904286Y-13522429D01*
X12890000Y-13508143D01*
X12875714Y-13479571D01*
X12861428Y-13422429D01*
X12861428Y-13351000D01*
X12875714Y-13293857D01*
X12890000Y-13265286D01*
X12904286Y-13251000D01*
X12932857Y-13236714D01*
X13161428Y-13536714D02*
X13161428Y-13336714D01*
X13161428Y-13365286D02*
X13175714Y-13351000D01*
X13204286Y-13336714D01*
X13247143Y-13336714D01*
X13275714Y-13351000D01*
X13290000Y-13379571D01*
X13290000Y-13536714D01*
X13290000Y-13379571D02*
X13304286Y-13351000D01*
X13332857Y-13336714D01*
X13375714Y-13336714D01*
X13404286Y-13351000D01*
X13418571Y-13379571D01*
X13418571Y-13536714D01*
X13561428Y-13536714D02*
X13561428Y-13336714D01*
X13561428Y-13365286D02*
X13575714Y-13351000D01*
X13604286Y-13336714D01*
X13647143Y-13336714D01*
X13675714Y-13351000D01*
X13690000Y-13379571D01*
X13690000Y-13536714D01*
X13690000Y-13379571D02*
X13704286Y-13351000D01*
X13732857Y-13336714D01*
X13775714Y-13336714D01*
X13804286Y-13351000D01*
X13818571Y-13379571D01*
X13818571Y-13536714D01*
X14404286Y-13222429D02*
X14147143Y-13608143D01*
X14790000Y-13236714D02*
X14818571Y-13236714D01*
X14847143Y-13251000D01*
X14861428Y-13265286D01*
X14875714Y-13293857D01*
X14890000Y-13351000D01*
X14890000Y-13422429D01*
X14875714Y-13479571D01*
X14861428Y-13508143D01*
X14847143Y-13522429D01*
X14818571Y-13536714D01*
X14790000Y-13536714D01*
X14761428Y-13522429D01*
X14747143Y-13508143D01*
X14732857Y-13479571D01*
X14718571Y-13422429D01*
X14718571Y-13351000D01*
X14732857Y-13293857D01*
X14747143Y-13265286D01*
X14761428Y-13251000D01*
X14790000Y-13236714D01*
X15018571Y-13508143D02*
X15032857Y-13522429D01*
X15018571Y-13536714D01*
X15004286Y-13522429D01*
X15018571Y-13508143D01*
X15018571Y-13536714D01*
X15218571Y-13236714D02*
X15247143Y-13236714D01*
X15275714Y-13251000D01*
X15290000Y-13265286D01*
X15304286Y-13293857D01*
X15318571Y-13351000D01*
X15318571Y-13422429D01*
X15304286Y-13479571D01*
X15290000Y-13508143D01*
X15275714Y-13522429D01*
X15247143Y-13536714D01*
X15218571Y-13536714D01*
X15190000Y-13522429D01*
X15175714Y-13508143D01*
X15161428Y-13479571D01*
X15147143Y-13422429D01*
X15147143Y-13351000D01*
X15161428Y-13293857D01*
X15175714Y-13265286D01*
X15190000Y-13251000D01*
X15218571Y-13236714D01*
X15604286Y-13536714D02*
X15432857Y-13536714D01*
X15518571Y-13536714D02*
X15518571Y-13236714D01*
X15490000Y-13279571D01*
X15461428Y-13308143D01*
X15432857Y-13322429D01*
X15861428Y-13236714D02*
X15804286Y-13236714D01*
X15775714Y-13251000D01*
X15761428Y-13265286D01*
X15732857Y-13308143D01*
X15718571Y-13365286D01*
X15718571Y-13479571D01*
X15732857Y-13508143D01*
X15747143Y-13522429D01*
X15775714Y-13536714D01*
X15832857Y-13536714D01*
X15861428Y-13522429D01*
X15875714Y-13508143D01*
X15890000Y-13479571D01*
X15890000Y-13408143D01*
X15875714Y-13379571D01*
X15861428Y-13365286D01*
X15832857Y-13351000D01*
X15775714Y-13351000D01*
X15747143Y-13365286D01*
X15732857Y-13379571D01*
X15718571Y-13408143D01*
X16004286Y-13236714D02*
X16004286Y-13293857D01*
X16118571Y-13236714D02*
X16118571Y-13293857D01*
X16561428Y-13651000D02*
X16547143Y-13636714D01*
X16518571Y-13593857D01*
X16504286Y-13565286D01*
X16490000Y-13522429D01*
X16475714Y-13451000D01*
X16475714Y-13393857D01*
X16490000Y-13322429D01*
X16504286Y-13279571D01*
X16518571Y-13251000D01*
X16547143Y-13208143D01*
X16561428Y-13193857D01*
X16718571Y-13365286D02*
X16690000Y-13351000D01*
X16675714Y-13336714D01*
X16661428Y-13308143D01*
X16661428Y-13293857D01*
X16675714Y-13265286D01*
X16690000Y-13251000D01*
X16718571Y-13236714D01*
X16775714Y-13236714D01*
X16804286Y-13251000D01*
X16818571Y-13265286D01*
X16832857Y-13293857D01*
X16832857Y-13308143D01*
X16818571Y-13336714D01*
X16804286Y-13351000D01*
X16775714Y-13365286D01*
X16718571Y-13365286D01*
X16690000Y-13379571D01*
X16675714Y-13393857D01*
X16661428Y-13422429D01*
X16661428Y-13479571D01*
X16675714Y-13508143D01*
X16690000Y-13522429D01*
X16718571Y-13536714D01*
X16775714Y-13536714D01*
X16804286Y-13522429D01*
X16818571Y-13508143D01*
X16832857Y-13479571D01*
X16832857Y-13422429D01*
X16818571Y-13393857D01*
X16804286Y-13379571D01*
X16775714Y-13365286D01*
X17190000Y-13536714D02*
X17190000Y-13236714D01*
X17318571Y-13536714D02*
X17318571Y-13379571D01*
X17304286Y-13351000D01*
X17275714Y-13336714D01*
X17232857Y-13336714D01*
X17204286Y-13351000D01*
X17190000Y-13365286D01*
X17504286Y-13536714D02*
X17475714Y-13522429D01*
X17461428Y-13508143D01*
X17447143Y-13479571D01*
X17447143Y-13393857D01*
X17461428Y-13365286D01*
X17475714Y-13351000D01*
X17504286Y-13336714D01*
X17547143Y-13336714D01*
X17575714Y-13351000D01*
X17590000Y-13365286D01*
X17604286Y-13393857D01*
X17604286Y-13479571D01*
X17590000Y-13508143D01*
X17575714Y-13522429D01*
X17547143Y-13536714D01*
X17504286Y-13536714D01*
X17775714Y-13536714D02*
X17747143Y-13522429D01*
X17732857Y-13493857D01*
X17732857Y-13236714D01*
X18004286Y-13522429D02*
X17975714Y-13536714D01*
X17918571Y-13536714D01*
X17890000Y-13522429D01*
X17875714Y-13493857D01*
X17875714Y-13379571D01*
X17890000Y-13351000D01*
X17918571Y-13336714D01*
X17975714Y-13336714D01*
X18004286Y-13351000D01*
X18018571Y-13379571D01*
X18018571Y-13408143D01*
X17875714Y-13436714D01*
X18132857Y-13522429D02*
X18161428Y-13536714D01*
X18218571Y-13536714D01*
X18247143Y-13522429D01*
X18261428Y-13493857D01*
X18261428Y-13479571D01*
X18247143Y-13451000D01*
X18218571Y-13436714D01*
X18175714Y-13436714D01*
X18147143Y-13422429D01*
X18132857Y-13393857D01*
X18132857Y-13379571D01*
X18147143Y-13351000D01*
X18175714Y-13336714D01*
X18218571Y-13336714D01*
X18247143Y-13351000D01*
X18361428Y-13651000D02*
X18375714Y-13636714D01*
X18404286Y-13593857D01*
X18418571Y-13565286D01*
X18432857Y-13522429D01*
X18447143Y-13451000D01*
X18447143Y-13393857D01*
X18432857Y-13322429D01*
X18418571Y-13279571D01*
X18404286Y-13251000D01*
X18375714Y-13208143D01*
X18361428Y-13193857D01*
X11836900Y-13758900D02*
X11836900Y-13835100D01*
X11798800Y-13797000D02*
X11875000Y-13797000D01*
X12218571Y-13632714D02*
X12247143Y-13632714D01*
X12275714Y-13647000D01*
X12290000Y-13661286D01*
X12304286Y-13689857D01*
X12318571Y-13747000D01*
X12318571Y-13818429D01*
X12304286Y-13875571D01*
X12290000Y-13904143D01*
X12275714Y-13918429D01*
X12247143Y-13932714D01*
X12218571Y-13932714D01*
X12190000Y-13918429D01*
X12175714Y-13904143D01*
X12161428Y-13875571D01*
X12147143Y-13818429D01*
X12147143Y-13747000D01*
X12161428Y-13689857D01*
X12175714Y-13661286D01*
X12190000Y-13647000D01*
X12218571Y-13632714D01*
X12447143Y-13904143D02*
X12461428Y-13918429D01*
X12447143Y-13932714D01*
X12432857Y-13918429D01*
X12447143Y-13904143D01*
X12447143Y-13932714D01*
X12561428Y-13632714D02*
X12761428Y-13632714D01*
X12632857Y-13932714D01*
X13004286Y-13632714D02*
X12947143Y-13632714D01*
X12918571Y-13647000D01*
X12904286Y-13661286D01*
X12875714Y-13704143D01*
X12861428Y-13761286D01*
X12861428Y-13875571D01*
X12875714Y-13904143D01*
X12890000Y-13918429D01*
X12918571Y-13932714D01*
X12975714Y-13932714D01*
X13004286Y-13918429D01*
X13018571Y-13904143D01*
X13032857Y-13875571D01*
X13032857Y-13804143D01*
X13018571Y-13775571D01*
X13004286Y-13761286D01*
X12975714Y-13747000D01*
X12918571Y-13747000D01*
X12890000Y-13761286D01*
X12875714Y-13775571D01*
X12861428Y-13804143D01*
X13161428Y-13932714D02*
X13161428Y-13732714D01*
X13161428Y-13761286D02*
X13175714Y-13747000D01*
X13204286Y-13732714D01*
X13247143Y-13732714D01*
X13275714Y-13747000D01*
X13290000Y-13775571D01*
X13290000Y-13932714D01*
X13290000Y-13775571D02*
X13304286Y-13747000D01*
X13332857Y-13732714D01*
X13375714Y-13732714D01*
X13404286Y-13747000D01*
X13418571Y-13775571D01*
X13418571Y-13932714D01*
X13561428Y-13932714D02*
X13561428Y-13732714D01*
X13561428Y-13761286D02*
X13575714Y-13747000D01*
X13604286Y-13732714D01*
X13647143Y-13732714D01*
X13675714Y-13747000D01*
X13690000Y-13775571D01*
X13690000Y-13932714D01*
X13690000Y-13775571D02*
X13704286Y-13747000D01*
X13732857Y-13732714D01*
X13775714Y-13732714D01*
X13804286Y-13747000D01*
X13818571Y-13775571D01*
X13818571Y-13932714D01*
X14404286Y-13618429D02*
X14147143Y-14004143D01*
X14790000Y-13632714D02*
X14818571Y-13632714D01*
X14847143Y-13647000D01*
X14861428Y-13661286D01*
X14875714Y-13689857D01*
X14890000Y-13747000D01*
X14890000Y-13818429D01*
X14875714Y-13875571D01*
X14861428Y-13904143D01*
X14847143Y-13918429D01*
X14818571Y-13932714D01*
X14790000Y-13932714D01*
X14761428Y-13918429D01*
X14747143Y-13904143D01*
X14732857Y-13875571D01*
X14718571Y-13818429D01*
X14718571Y-13747000D01*
X14732857Y-13689857D01*
X14747143Y-13661286D01*
X14761428Y-13647000D01*
X14790000Y-13632714D01*
X15018571Y-13904143D02*
X15032857Y-13918429D01*
X15018571Y-13932714D01*
X15004286Y-13918429D01*
X15018571Y-13904143D01*
X15018571Y-13932714D01*
X15218571Y-13632714D02*
X15247143Y-13632714D01*
X15275714Y-13647000D01*
X15290000Y-13661286D01*
X15304286Y-13689857D01*
X15318571Y-13747000D01*
X15318571Y-13818429D01*
X15304286Y-13875571D01*
X15290000Y-13904143D01*
X15275714Y-13918429D01*
X15247143Y-13932714D01*
X15218571Y-13932714D01*
X15190000Y-13918429D01*
X15175714Y-13904143D01*
X15161428Y-13875571D01*
X15147143Y-13818429D01*
X15147143Y-13747000D01*
X15161428Y-13689857D01*
X15175714Y-13661286D01*
X15190000Y-13647000D01*
X15218571Y-13632714D01*
X15418571Y-13632714D02*
X15604286Y-13632714D01*
X15504286Y-13747000D01*
X15547143Y-13747000D01*
X15575714Y-13761286D01*
X15590000Y-13775571D01*
X15604286Y-13804143D01*
X15604286Y-13875571D01*
X15590000Y-13904143D01*
X15575714Y-13918429D01*
X15547143Y-13932714D01*
X15461428Y-13932714D01*
X15432857Y-13918429D01*
X15418571Y-13904143D01*
X15790000Y-13632714D02*
X15818571Y-13632714D01*
X15847143Y-13647000D01*
X15861428Y-13661286D01*
X15875714Y-13689857D01*
X15890000Y-13747000D01*
X15890000Y-13818429D01*
X15875714Y-13875571D01*
X15861428Y-13904143D01*
X15847143Y-13918429D01*
X15818571Y-13932714D01*
X15790000Y-13932714D01*
X15761428Y-13918429D01*
X15747143Y-13904143D01*
X15732857Y-13875571D01*
X15718571Y-13818429D01*
X15718571Y-13747000D01*
X15732857Y-13689857D01*
X15747143Y-13661286D01*
X15761428Y-13647000D01*
X15790000Y-13632714D01*
X16004286Y-13632714D02*
X16004286Y-13689857D01*
X16118571Y-13632714D02*
X16118571Y-13689857D01*
X16561428Y-14047000D02*
X16547143Y-14032714D01*
X16518571Y-13989857D01*
X16504286Y-13961286D01*
X16490000Y-13918429D01*
X16475714Y-13847000D01*
X16475714Y-13789857D01*
X16490000Y-13718429D01*
X16504286Y-13675571D01*
X16518571Y-13647000D01*
X16547143Y-13604143D01*
X16561428Y-13589857D01*
X16804286Y-13732714D02*
X16804286Y-13932714D01*
X16732857Y-13618429D02*
X16661428Y-13832714D01*
X16847143Y-13832714D01*
X17018571Y-13632714D02*
X17047143Y-13632714D01*
X17075714Y-13647000D01*
X17090000Y-13661286D01*
X17104286Y-13689857D01*
X17118571Y-13747000D01*
X17118571Y-13818429D01*
X17104286Y-13875571D01*
X17090000Y-13904143D01*
X17075714Y-13918429D01*
X17047143Y-13932714D01*
X17018571Y-13932714D01*
X16990000Y-13918429D01*
X16975714Y-13904143D01*
X16961428Y-13875571D01*
X16947143Y-13818429D01*
X16947143Y-13747000D01*
X16961428Y-13689857D01*
X16975714Y-13661286D01*
X16990000Y-13647000D01*
X17018571Y-13632714D01*
X17475714Y-13932714D02*
X17475714Y-13632714D01*
X17604286Y-13932714D02*
X17604286Y-13775571D01*
X17590000Y-13747000D01*
X17561428Y-13732714D01*
X17518571Y-13732714D01*
X17490000Y-13747000D01*
X17475714Y-13761286D01*
X17790000Y-13932714D02*
X17761428Y-13918429D01*
X17747143Y-13904143D01*
X17732857Y-13875571D01*
X17732857Y-13789857D01*
X17747143Y-13761286D01*
X17761428Y-13747000D01*
X17790000Y-13732714D01*
X17832857Y-13732714D01*
X17861428Y-13747000D01*
X17875714Y-13761286D01*
X17890000Y-13789857D01*
X17890000Y-13875571D01*
X17875714Y-13904143D01*
X17861428Y-13918429D01*
X17832857Y-13932714D01*
X17790000Y-13932714D01*
X18061428Y-13932714D02*
X18032857Y-13918429D01*
X18018571Y-13889857D01*
X18018571Y-13632714D01*
X18290000Y-13918429D02*
X18261428Y-13932714D01*
X18204286Y-13932714D01*
X18175714Y-13918429D01*
X18161428Y-13889857D01*
X18161428Y-13775571D01*
X18175714Y-13747000D01*
X18204286Y-13732714D01*
X18261428Y-13732714D01*
X18290000Y-13747000D01*
X18304286Y-13775571D01*
X18304286Y-13804143D01*
X18161428Y-13832714D01*
X18418571Y-13918429D02*
X18447143Y-13932714D01*
X18504286Y-13932714D01*
X18532857Y-13918429D01*
X18547143Y-13889857D01*
X18547143Y-13875571D01*
X18532857Y-13847000D01*
X18504286Y-13832714D01*
X18461428Y-13832714D01*
X18432857Y-13818429D01*
X18418571Y-13789857D01*
X18418571Y-13775571D01*
X18432857Y-13747000D01*
X18461428Y-13732714D01*
X18504286Y-13732714D01*
X18532857Y-13747000D01*
X18647143Y-14047000D02*
X18661428Y-14032714D01*
X18690000Y-13989857D01*
X18704286Y-13961286D01*
X18718571Y-13918429D01*
X18732857Y-13847000D01*
X18732857Y-13789857D01*
X18718571Y-13718429D01*
X18704286Y-13675571D01*
X18690000Y-13647000D01*
X18661428Y-13604143D01*
X18647143Y-13589857D01*
X11860356Y-14228356D02*
X11860356Y-14157644D01*
X11789644Y-14157644D01*
X11789644Y-14228356D01*
X11860356Y-14228356D01*
X12318571Y-14328714D02*
X12147143Y-14328714D01*
X12232857Y-14328714D02*
X12232857Y-14028714D01*
X12204286Y-14071571D01*
X12175714Y-14100143D01*
X12147143Y-14114429D01*
X12447143Y-14300143D02*
X12461428Y-14314429D01*
X12447143Y-14328714D01*
X12432857Y-14314429D01*
X12447143Y-14300143D01*
X12447143Y-14328714D01*
X12647143Y-14028714D02*
X12675714Y-14028714D01*
X12704286Y-14043000D01*
X12718571Y-14057286D01*
X12732857Y-14085857D01*
X12747143Y-14143000D01*
X12747143Y-14214429D01*
X12732857Y-14271571D01*
X12718571Y-14300143D01*
X12704286Y-14314429D01*
X12675714Y-14328714D01*
X12647143Y-14328714D01*
X12618571Y-14314429D01*
X12604286Y-14300143D01*
X12590000Y-14271571D01*
X12575714Y-14214429D01*
X12575714Y-14143000D01*
X12590000Y-14085857D01*
X12604286Y-14057286D01*
X12618571Y-14043000D01*
X12647143Y-14028714D01*
X12932857Y-14028714D02*
X12961428Y-14028714D01*
X12990000Y-14043000D01*
X13004286Y-14057286D01*
X13018571Y-14085857D01*
X13032857Y-14143000D01*
X13032857Y-14214429D01*
X13018571Y-14271571D01*
X13004286Y-14300143D01*
X12990000Y-14314429D01*
X12961428Y-14328714D01*
X12932857Y-14328714D01*
X12904286Y-14314429D01*
X12890000Y-14300143D01*
X12875714Y-14271571D01*
X12861428Y-14214429D01*
X12861428Y-14143000D01*
X12875714Y-14085857D01*
X12890000Y-14057286D01*
X12904286Y-14043000D01*
X12932857Y-14028714D01*
X13161428Y-14328714D02*
X13161428Y-14128714D01*
X13161428Y-14157286D02*
X13175714Y-14143000D01*
X13204286Y-14128714D01*
X13247143Y-14128714D01*
X13275714Y-14143000D01*
X13290000Y-14171571D01*
X13290000Y-14328714D01*
X13290000Y-14171571D02*
X13304286Y-14143000D01*
X13332857Y-14128714D01*
X13375714Y-14128714D01*
X13404286Y-14143000D01*
X13418571Y-14171571D01*
X13418571Y-14328714D01*
X13561428Y-14328714D02*
X13561428Y-14128714D01*
X13561428Y-14157286D02*
X13575714Y-14143000D01*
X13604286Y-14128714D01*
X13647143Y-14128714D01*
X13675714Y-14143000D01*
X13690000Y-14171571D01*
X13690000Y-14328714D01*
X13690000Y-14171571D02*
X13704286Y-14143000D01*
X13732857Y-14128714D01*
X13775714Y-14128714D01*
X13804286Y-14143000D01*
X13818571Y-14171571D01*
X13818571Y-14328714D01*
X14404286Y-14014429D02*
X14147143Y-14400143D01*
X14790000Y-14028714D02*
X14818571Y-14028714D01*
X14847143Y-14043000D01*
X14861428Y-14057286D01*
X14875714Y-14085857D01*
X14890000Y-14143000D01*
X14890000Y-14214429D01*
X14875714Y-14271571D01*
X14861428Y-14300143D01*
X14847143Y-14314429D01*
X14818571Y-14328714D01*
X14790000Y-14328714D01*
X14761428Y-14314429D01*
X14747143Y-14300143D01*
X14732857Y-14271571D01*
X14718571Y-14214429D01*
X14718571Y-14143000D01*
X14732857Y-14085857D01*
X14747143Y-14057286D01*
X14761428Y-14043000D01*
X14790000Y-14028714D01*
X15018571Y-14300143D02*
X15032857Y-14314429D01*
X15018571Y-14328714D01*
X15004286Y-14314429D01*
X15018571Y-14300143D01*
X15018571Y-14328714D01*
X15218571Y-14028714D02*
X15247143Y-14028714D01*
X15275714Y-14043000D01*
X15290000Y-14057286D01*
X15304286Y-14085857D01*
X15318571Y-14143000D01*
X15318571Y-14214429D01*
X15304286Y-14271571D01*
X15290000Y-14300143D01*
X15275714Y-14314429D01*
X15247143Y-14328714D01*
X15218571Y-14328714D01*
X15190000Y-14314429D01*
X15175714Y-14300143D01*
X15161428Y-14271571D01*
X15147143Y-14214429D01*
X15147143Y-14143000D01*
X15161428Y-14085857D01*
X15175714Y-14057286D01*
X15190000Y-14043000D01*
X15218571Y-14028714D01*
X15418571Y-14028714D02*
X15604286Y-14028714D01*
X15504286Y-14143000D01*
X15547143Y-14143000D01*
X15575714Y-14157286D01*
X15590000Y-14171571D01*
X15604286Y-14200143D01*
X15604286Y-14271571D01*
X15590000Y-14300143D01*
X15575714Y-14314429D01*
X15547143Y-14328714D01*
X15461428Y-14328714D01*
X15432857Y-14314429D01*
X15418571Y-14300143D01*
X15747143Y-14328714D02*
X15804286Y-14328714D01*
X15832857Y-14314429D01*
X15847143Y-14300143D01*
X15875714Y-14257286D01*
X15890000Y-14200143D01*
X15890000Y-14085857D01*
X15875714Y-14057286D01*
X15861428Y-14043000D01*
X15832857Y-14028714D01*
X15775714Y-14028714D01*
X15747143Y-14043000D01*
X15732857Y-14057286D01*
X15718571Y-14085857D01*
X15718571Y-14157286D01*
X15732857Y-14185857D01*
X15747143Y-14200143D01*
X15775714Y-14214429D01*
X15832857Y-14214429D01*
X15861428Y-14200143D01*
X15875714Y-14185857D01*
X15890000Y-14157286D01*
X16004286Y-14028714D02*
X16004286Y-14085857D01*
X16118571Y-14028714D02*
X16118571Y-14085857D01*
X16561428Y-14443000D02*
X16547143Y-14428714D01*
X16518571Y-14385857D01*
X16504286Y-14357286D01*
X16490000Y-14314429D01*
X16475714Y-14243000D01*
X16475714Y-14185857D01*
X16490000Y-14114429D01*
X16504286Y-14071571D01*
X16518571Y-14043000D01*
X16547143Y-14000143D01*
X16561428Y-13985857D01*
X16661428Y-14057286D02*
X16675714Y-14043000D01*
X16704286Y-14028714D01*
X16775714Y-14028714D01*
X16804286Y-14043000D01*
X16818571Y-14057286D01*
X16832857Y-14085857D01*
X16832857Y-14114429D01*
X16818571Y-14157286D01*
X16647143Y-14328714D01*
X16832857Y-14328714D01*
X17190000Y-14328714D02*
X17190000Y-14028714D01*
X17318571Y-14328714D02*
X17318571Y-14171571D01*
X17304286Y-14143000D01*
X17275714Y-14128714D01*
X17232857Y-14128714D01*
X17204286Y-14143000D01*
X17190000Y-14157286D01*
X17504286Y-14328714D02*
X17475714Y-14314429D01*
X17461428Y-14300143D01*
X17447143Y-14271571D01*
X17447143Y-14185857D01*
X17461428Y-14157286D01*
X17475714Y-14143000D01*
X17504286Y-14128714D01*
X17547143Y-14128714D01*
X17575714Y-14143000D01*
X17590000Y-14157286D01*
X17604286Y-14185857D01*
X17604286Y-14271571D01*
X17590000Y-14300143D01*
X17575714Y-14314429D01*
X17547143Y-14328714D01*
X17504286Y-14328714D01*
X17775714Y-14328714D02*
X17747143Y-14314429D01*
X17732857Y-14285857D01*
X17732857Y-14028714D01*
X18004286Y-14314429D02*
X17975714Y-14328714D01*
X17918571Y-14328714D01*
X17890000Y-14314429D01*
X17875714Y-14285857D01*
X17875714Y-14171571D01*
X17890000Y-14143000D01*
X17918571Y-14128714D01*
X17975714Y-14128714D01*
X18004286Y-14143000D01*
X18018571Y-14171571D01*
X18018571Y-14200143D01*
X17875714Y-14228714D01*
X18132857Y-14314429D02*
X18161428Y-14328714D01*
X18218571Y-14328714D01*
X18247143Y-14314429D01*
X18261428Y-14285857D01*
X18261428Y-14271571D01*
X18247143Y-14243000D01*
X18218571Y-14228714D01*
X18175714Y-14228714D01*
X18147143Y-14214429D01*
X18132857Y-14185857D01*
X18132857Y-14171571D01*
X18147143Y-14143000D01*
X18175714Y-14128714D01*
X18218571Y-14128714D01*
X18247143Y-14143000D01*
X18361428Y-14443000D02*
X18375714Y-14428714D01*
X18404286Y-14385857D01*
X18418571Y-14357286D01*
X18432857Y-14314429D01*
X18447143Y-14243000D01*
X18447143Y-14185857D01*
X18432857Y-14114429D01*
X18418571Y-14071571D01*
X18404286Y-14043000D01*
X18375714Y-14000143D01*
X18361428Y-13985857D01*
X11824000Y-14640000D02*
X11875000Y-14589000D01*
X11824000Y-14538000D01*
X11773000Y-14589000D01*
X11824000Y-14640000D01*
X12318571Y-14724714D02*
X12147143Y-14724714D01*
X12232857Y-14724714D02*
X12232857Y-14424714D01*
X12204286Y-14467571D01*
X12175714Y-14496143D01*
X12147143Y-14510429D01*
X12447143Y-14696143D02*
X12461428Y-14710429D01*
X12447143Y-14724714D01*
X12432857Y-14710429D01*
X12447143Y-14696143D01*
X12447143Y-14724714D01*
X12647143Y-14424714D02*
X12675714Y-14424714D01*
X12704286Y-14439000D01*
X12718571Y-14453286D01*
X12732857Y-14481857D01*
X12747143Y-14539000D01*
X12747143Y-14610429D01*
X12732857Y-14667571D01*
X12718571Y-14696143D01*
X12704286Y-14710429D01*
X12675714Y-14724714D01*
X12647143Y-14724714D01*
X12618571Y-14710429D01*
X12604286Y-14696143D01*
X12590000Y-14667571D01*
X12575714Y-14610429D01*
X12575714Y-14539000D01*
X12590000Y-14481857D01*
X12604286Y-14453286D01*
X12618571Y-14439000D01*
X12647143Y-14424714D01*
X12861428Y-14453286D02*
X12875714Y-14439000D01*
X12904286Y-14424714D01*
X12975714Y-14424714D01*
X13004286Y-14439000D01*
X13018571Y-14453286D01*
X13032857Y-14481857D01*
X13032857Y-14510429D01*
X13018571Y-14553286D01*
X12847143Y-14724714D01*
X13032857Y-14724714D01*
X13161428Y-14724714D02*
X13161428Y-14524714D01*
X13161428Y-14553286D02*
X13175714Y-14539000D01*
X13204286Y-14524714D01*
X13247143Y-14524714D01*
X13275714Y-14539000D01*
X13290000Y-14567571D01*
X13290000Y-14724714D01*
X13290000Y-14567571D02*
X13304286Y-14539000D01*
X13332857Y-14524714D01*
X13375714Y-14524714D01*
X13404286Y-14539000D01*
X13418571Y-14567571D01*
X13418571Y-14724714D01*
X13561428Y-14724714D02*
X13561428Y-14524714D01*
X13561428Y-14553286D02*
X13575714Y-14539000D01*
X13604286Y-14524714D01*
X13647143Y-14524714D01*
X13675714Y-14539000D01*
X13690000Y-14567571D01*
X13690000Y-14724714D01*
X13690000Y-14567571D02*
X13704286Y-14539000D01*
X13732857Y-14524714D01*
X13775714Y-14524714D01*
X13804286Y-14539000D01*
X13818571Y-14567571D01*
X13818571Y-14724714D01*
X14404286Y-14410429D02*
X14147143Y-14796143D01*
X14790000Y-14424714D02*
X14818571Y-14424714D01*
X14847143Y-14439000D01*
X14861428Y-14453286D01*
X14875714Y-14481857D01*
X14890000Y-14539000D01*
X14890000Y-14610429D01*
X14875714Y-14667571D01*
X14861428Y-14696143D01*
X14847143Y-14710429D01*
X14818571Y-14724714D01*
X14790000Y-14724714D01*
X14761428Y-14710429D01*
X14747143Y-14696143D01*
X14732857Y-14667571D01*
X14718571Y-14610429D01*
X14718571Y-14539000D01*
X14732857Y-14481857D01*
X14747143Y-14453286D01*
X14761428Y-14439000D01*
X14790000Y-14424714D01*
X15018571Y-14696143D02*
X15032857Y-14710429D01*
X15018571Y-14724714D01*
X15004286Y-14710429D01*
X15018571Y-14696143D01*
X15018571Y-14724714D01*
X15218571Y-14424714D02*
X15247143Y-14424714D01*
X15275714Y-14439000D01*
X15290000Y-14453286D01*
X15304286Y-14481857D01*
X15318571Y-14539000D01*
X15318571Y-14610429D01*
X15304286Y-14667571D01*
X15290000Y-14696143D01*
X15275714Y-14710429D01*
X15247143Y-14724714D01*
X15218571Y-14724714D01*
X15190000Y-14710429D01*
X15175714Y-14696143D01*
X15161428Y-14667571D01*
X15147143Y-14610429D01*
X15147143Y-14539000D01*
X15161428Y-14481857D01*
X15175714Y-14453286D01*
X15190000Y-14439000D01*
X15218571Y-14424714D01*
X15575714Y-14524714D02*
X15575714Y-14724714D01*
X15504286Y-14410429D02*
X15432857Y-14624714D01*
X15618571Y-14624714D01*
X15790000Y-14424714D02*
X15818571Y-14424714D01*
X15847143Y-14439000D01*
X15861428Y-14453286D01*
X15875714Y-14481857D01*
X15890000Y-14539000D01*
X15890000Y-14610429D01*
X15875714Y-14667571D01*
X15861428Y-14696143D01*
X15847143Y-14710429D01*
X15818571Y-14724714D01*
X15790000Y-14724714D01*
X15761428Y-14710429D01*
X15747143Y-14696143D01*
X15732857Y-14667571D01*
X15718571Y-14610429D01*
X15718571Y-14539000D01*
X15732857Y-14481857D01*
X15747143Y-14453286D01*
X15761428Y-14439000D01*
X15790000Y-14424714D01*
X16004286Y-14424714D02*
X16004286Y-14481857D01*
X16118571Y-14424714D02*
X16118571Y-14481857D01*
X16561428Y-14839000D02*
X16547143Y-14824714D01*
X16518571Y-14781857D01*
X16504286Y-14753286D01*
X16490000Y-14710429D01*
X16475714Y-14639000D01*
X16475714Y-14581857D01*
X16490000Y-14510429D01*
X16504286Y-14467571D01*
X16518571Y-14439000D01*
X16547143Y-14396143D01*
X16561428Y-14381857D01*
X16804286Y-14524714D02*
X16804286Y-14724714D01*
X16732857Y-14410429D02*
X16661428Y-14624714D01*
X16847143Y-14624714D01*
X16932857Y-14424714D02*
X17118571Y-14424714D01*
X17018571Y-14539000D01*
X17061428Y-14539000D01*
X17090000Y-14553286D01*
X17104286Y-14567571D01*
X17118571Y-14596143D01*
X17118571Y-14667571D01*
X17104286Y-14696143D01*
X17090000Y-14710429D01*
X17061428Y-14724714D01*
X16975714Y-14724714D01*
X16947143Y-14710429D01*
X16932857Y-14696143D01*
X17475714Y-14724714D02*
X17475714Y-14424714D01*
X17604286Y-14724714D02*
X17604286Y-14567571D01*
X17590000Y-14539000D01*
X17561428Y-14524714D01*
X17518571Y-14524714D01*
X17490000Y-14539000D01*
X17475714Y-14553286D01*
X17790000Y-14724714D02*
X17761428Y-14710429D01*
X17747143Y-14696143D01*
X17732857Y-14667571D01*
X17732857Y-14581857D01*
X17747143Y-14553286D01*
X17761428Y-14539000D01*
X17790000Y-14524714D01*
X17832857Y-14524714D01*
X17861428Y-14539000D01*
X17875714Y-14553286D01*
X17890000Y-14581857D01*
X17890000Y-14667571D01*
X17875714Y-14696143D01*
X17861428Y-14710429D01*
X17832857Y-14724714D01*
X17790000Y-14724714D01*
X18061428Y-14724714D02*
X18032857Y-14710429D01*
X18018571Y-14681857D01*
X18018571Y-14424714D01*
X18290000Y-14710429D02*
X18261428Y-14724714D01*
X18204286Y-14724714D01*
X18175714Y-14710429D01*
X18161428Y-14681857D01*
X18161428Y-14567571D01*
X18175714Y-14539000D01*
X18204286Y-14524714D01*
X18261428Y-14524714D01*
X18290000Y-14539000D01*
X18304286Y-14567571D01*
X18304286Y-14596143D01*
X18161428Y-14624714D01*
X18418571Y-14710429D02*
X18447143Y-14724714D01*
X18504286Y-14724714D01*
X18532857Y-14710429D01*
X18547143Y-14681857D01*
X18547143Y-14667571D01*
X18532857Y-14639000D01*
X18504286Y-14624714D01*
X18461428Y-14624714D01*
X18432857Y-14610429D01*
X18418571Y-14581857D01*
X18418571Y-14567571D01*
X18432857Y-14539000D01*
X18461428Y-14524714D01*
X18504286Y-14524714D01*
X18532857Y-14539000D01*
X18647143Y-14839000D02*
X18661428Y-14824714D01*
X18690000Y-14781857D01*
X18704286Y-14753286D01*
X18718571Y-14710429D01*
X18732857Y-14639000D01*
X18732857Y-14581857D01*
X18718571Y-14510429D01*
X18704286Y-14467571D01*
X18690000Y-14439000D01*
X18661428Y-14396143D01*
X18647143Y-14381857D01*
M02*
