M48
; DRILL file {KiCad (5.1.4)-1} date 11/29/2021 9:01:00 PM
; FORMAT={-:-/ absolute / metric / decimal}
; #@! TF.CreationDate,2021-11-29T21:01:00-05:00
; #@! TF.GenerationSoftware,Kicad,Pcbnew,(5.1.4)-1
; #@! TF.FileFunction,Plated,1,2,PTH
FMAT,2
METRIC
T1C0.300
T2C0.400
T3C0.762
T4C1.000
T5C1.020
%
G90
G05
T1
X127.7Y-109.0
X133.0Y-66.8
X140.7Y-110.1
X148.2Y-110.1
X157.1Y-101.4
X159.0Y-101.2
X160.0Y-68.9
X160.5Y-103.4
X162.6Y-96.8
X164.0Y-74.4
X164.1Y-91.9
X169.5Y-109.475
X173.0Y-104.0
X173.1Y-104.9
X176.45Y-94.14
X179.2Y-101.9
X180.35Y-89.06
X181.29Y-96.55
X182.2Y-97.175
X182.5Y-95.0
X184.5Y-110.1
X184.7Y-94.0
X184.9Y-104.5
X186.0Y-106.1
X186.5Y-87.3
X189.6Y-99.2
X189.9Y-81.2
X190.15Y-98.0
X191.2Y-94.425
X191.5Y-91.4
X192.8Y-76.0
X192.8Y-86.1
X193.5Y-75.8
X193.5Y-76.8
X193.8Y-108.2
X194.2Y-76.0
X194.8Y-100.6
X195.4Y-84.6
X196.5Y-104.5
X200.3Y-103.9
X202.9Y-71.9
X204.0Y-81.1
X157.6Y-73.8
X157.6Y-75.0
X158.7Y-73.8
X158.7Y-75.0
X160.0Y-73.8
X160.0Y-75.0
X161.2Y-73.8
X161.2Y-75.0
T2
X128.6Y-106.7
X189.5Y-91.1
X190.775Y-101.9
X191.1Y-90.5
X191.5Y-103.1
X192.245Y-101.78
X192.4Y-91.4
X203.0Y-82.5
T3
X131.8Y-71.4
X131.8Y-73.4
X131.8Y-75.4
X131.8Y-77.4
X131.8Y-79.4
X131.8Y-81.4
X131.8Y-83.4
X131.8Y-85.4
X131.8Y-87.4
X131.8Y-89.4
X131.8Y-91.4
X131.8Y-93.4
X131.8Y-95.4
X131.8Y-97.4
X131.8Y-99.4
X131.8Y-101.4
X131.8Y-103.4
X131.8Y-105.4
X131.8Y-107.4
X131.8Y-109.4
X205.8Y-71.4
X205.8Y-73.4
X205.8Y-75.4
X205.8Y-77.4
X205.8Y-79.4
X205.8Y-81.4
X205.8Y-83.4
X205.8Y-85.4
X205.8Y-87.4
X205.8Y-89.4
X205.8Y-91.4
X205.8Y-93.4
X205.8Y-95.4
X205.8Y-97.4
X205.8Y-99.4
X205.8Y-101.4
X205.8Y-103.4
X205.8Y-105.4
X205.8Y-107.4
X205.8Y-109.4
T4
X181.9Y-84.1
X184.44Y-84.1
T5
X210.7Y-90.4
X210.7Y-93.4
X126.0Y-101.2
X126.0Y-104.2
X210.7Y-68.8
X210.7Y-71.8
X144.6Y-115.8
X147.6Y-115.8
X133.8Y-115.8
X136.8Y-115.8
X178.4Y-115.8
X181.4Y-115.8
X126.0Y-68.8
X126.0Y-71.8
X189.2Y-115.8
X192.2Y-115.8
X171.7Y-79.8
X171.7Y-82.8
X126.0Y-90.4
X126.0Y-93.4
X210.7Y-79.6
X210.7Y-82.6
X126.0Y-79.6
X126.0Y-82.6
X210.7Y-101.2
X210.7Y-104.2
X123.0Y-115.0
X126.0Y-115.0
X155.4Y-115.8
X158.4Y-115.8
X200.0Y-115.8
X203.0Y-115.8
X171.0Y-72.1
X174.0Y-72.1
X177.0Y-72.1
X180.0Y-72.1
X183.0Y-72.1
X186.0Y-72.1
X189.0Y-72.1
X192.0Y-72.1
X195.0Y-72.1
X210.8Y-115.0
X213.8Y-115.0
T0
M30
