M48
; DRILL file {KiCad (5.1.4)-1} date 11/29/2021 9:01:00 PM
; FORMAT={-:-/ absolute / metric / decimal}
; #@! TF.CreationDate,2021-11-29T21:01:00-05:00
; #@! TF.GenerationSoftware,Kicad,Pcbnew,(5.1.4)-1
; #@! TF.FileFunction,NonPlated,1,2,NPTH
FMAT,2
METRIC
T1C1.270
%
G90
G05
T1
X212.66Y-87.4
X212.66Y-96.4
X124.04Y-98.2
X124.04Y-107.2
X212.66Y-65.8
X212.66Y-74.8
X141.6Y-117.76
X150.6Y-117.76
X130.8Y-117.76
X139.8Y-117.76
X175.4Y-117.76
X184.4Y-117.76
X124.04Y-65.8
X124.04Y-74.8
X186.2Y-117.76
X195.2Y-117.76
X173.66Y-76.8
X173.66Y-85.8
X124.04Y-87.4
X124.04Y-96.4
X212.66Y-76.6
X212.66Y-85.6
X124.04Y-76.6
X124.04Y-85.6
X212.66Y-98.2
X212.66Y-107.2
X120.0Y-113.04
X129.0Y-113.04
X152.4Y-117.76
X161.4Y-117.76
X197.0Y-117.76
X206.0Y-117.76
X168.0Y-70.14
X198.0Y-70.14
X207.8Y-113.04
X216.8Y-113.04
T0
M30
