%FSLAX45Y45*%
G04 Gerber Fmt 4.5, Leading zero omitted, Abs format (unit mm)*
G04 Created by KiCad (PCBNEW (5.1.4)-1) date 2021-11-29 21:01:01*
%MOMM*%
%LPD*%
G04 APERTURE LIST*
%ADD10C,0.100000*%
%ADD11C,0.200000*%
%ADD12C,0.300000*%
G04 APERTURE END LIST*
D10*
X21880000Y-6450000D02*
X11880000Y-6450000D01*
X21880000Y-12040000D02*
X21880000Y-6450000D01*
X11880000Y-12040000D02*
X21880000Y-12040000D01*
X11880000Y-12040000D02*
X11880000Y-6450000D01*
D11*
X21202500Y-8676500D02*
X21329500Y-8803500D01*
X21329500Y-8676500D02*
X21202500Y-8803500D01*
X21202500Y-9576500D02*
X21329500Y-9703500D01*
X21329500Y-9576500D02*
X21202500Y-9703500D01*
X12340500Y-9756500D02*
X12467500Y-9883500D01*
X12467500Y-9756500D02*
X12340500Y-9883500D01*
X12340500Y-10656500D02*
X12467500Y-10783500D01*
X12467500Y-10656500D02*
X12340500Y-10783500D01*
X21202500Y-6516500D02*
X21329500Y-6643500D01*
X21329500Y-6516500D02*
X21202500Y-6643500D01*
X21202500Y-7416500D02*
X21329500Y-7543500D01*
X21329500Y-7416500D02*
X21202500Y-7543500D01*
X14096500Y-11712500D02*
X14223500Y-11839500D01*
X14223500Y-11712500D02*
X14096500Y-11839500D01*
X14996500Y-11712500D02*
X15123500Y-11839500D01*
X15123500Y-11712500D02*
X14996500Y-11839500D01*
X13016500Y-11712500D02*
X13143500Y-11839500D01*
X13143500Y-11712500D02*
X13016500Y-11839500D01*
X13916500Y-11712500D02*
X14043500Y-11839500D01*
X14043500Y-11712500D02*
X13916500Y-11839500D01*
X17476500Y-11712500D02*
X17603500Y-11839500D01*
X17603500Y-11712500D02*
X17476500Y-11839500D01*
X18376500Y-11712500D02*
X18503500Y-11839500D01*
X18503500Y-11712500D02*
X18376500Y-11839500D01*
X12340500Y-6516500D02*
X12467500Y-6643500D01*
X12467500Y-6516500D02*
X12340500Y-6643500D01*
X12340500Y-7416500D02*
X12467500Y-7543500D01*
X12467500Y-7416500D02*
X12340500Y-7543500D01*
X18556500Y-11712500D02*
X18683500Y-11839500D01*
X18683500Y-11712500D02*
X18556500Y-11839500D01*
X19456500Y-11712500D02*
X19583500Y-11839500D01*
X19583500Y-11712500D02*
X19456500Y-11839500D01*
X17302500Y-7616500D02*
X17429500Y-7743500D01*
X17429500Y-7616500D02*
X17302500Y-7743500D01*
X17302500Y-8516500D02*
X17429500Y-8643500D01*
X17429500Y-8516500D02*
X17302500Y-8643500D01*
X12340500Y-8676500D02*
X12467500Y-8803500D01*
X12467500Y-8676500D02*
X12340500Y-8803500D01*
X12340500Y-9576500D02*
X12467500Y-9703500D01*
X12467500Y-9576500D02*
X12340500Y-9703500D01*
X21202500Y-7596500D02*
X21329500Y-7723500D01*
X21329500Y-7596500D02*
X21202500Y-7723500D01*
X21202500Y-8496500D02*
X21329500Y-8623500D01*
X21329500Y-8496500D02*
X21202500Y-8623500D01*
X12340500Y-7596500D02*
X12467500Y-7723500D01*
X12467500Y-7596500D02*
X12340500Y-7723500D01*
X12340500Y-8496500D02*
X12467500Y-8623500D01*
X12467500Y-8496500D02*
X12340500Y-8623500D01*
X21202500Y-9756500D02*
X21329500Y-9883500D01*
X21329500Y-9756500D02*
X21202500Y-9883500D01*
X21202500Y-10656500D02*
X21329500Y-10783500D01*
X21329500Y-10656500D02*
X21202500Y-10783500D01*
X11936500Y-11240500D02*
X12063500Y-11367500D01*
X12063500Y-11240500D02*
X11936500Y-11367500D01*
X12836500Y-11240500D02*
X12963500Y-11367500D01*
X12963500Y-11240500D02*
X12836500Y-11367500D01*
X15176500Y-11712500D02*
X15303500Y-11839500D01*
X15303500Y-11712500D02*
X15176500Y-11839500D01*
X16076500Y-11712500D02*
X16203500Y-11839500D01*
X16203500Y-11712500D02*
X16076500Y-11839500D01*
X19636500Y-11712500D02*
X19763500Y-11839500D01*
X19763500Y-11712500D02*
X19636500Y-11839500D01*
X20536500Y-11712500D02*
X20663500Y-11839500D01*
X20663500Y-11712500D02*
X20536500Y-11839500D01*
X16736500Y-6950500D02*
X16863500Y-7077500D01*
X16863500Y-6950500D02*
X16736500Y-7077500D01*
X19736500Y-6950500D02*
X19863500Y-7077500D01*
X19863500Y-6950500D02*
X19736500Y-7077500D01*
X20716500Y-11240500D02*
X20843500Y-11367500D01*
X20843500Y-11240500D02*
X20716500Y-11367500D01*
X21616500Y-11240500D02*
X21743500Y-11367500D01*
X21743500Y-11240500D02*
X21616500Y-11367500D01*
D12*
X12161428Y-12510714D02*
X12161428Y-12210714D01*
X12232857Y-12210714D01*
X12275714Y-12225000D01*
X12304286Y-12253571D01*
X12318571Y-12282143D01*
X12332857Y-12339286D01*
X12332857Y-12382143D01*
X12318571Y-12439286D01*
X12304286Y-12467857D01*
X12275714Y-12496429D01*
X12232857Y-12510714D01*
X12161428Y-12510714D01*
X12461428Y-12510714D02*
X12461428Y-12310714D01*
X12461428Y-12367857D02*
X12475714Y-12339286D01*
X12490000Y-12325000D01*
X12518571Y-12310714D01*
X12547143Y-12310714D01*
X12647143Y-12510714D02*
X12647143Y-12310714D01*
X12647143Y-12210714D02*
X12632857Y-12225000D01*
X12647143Y-12239286D01*
X12661428Y-12225000D01*
X12647143Y-12210714D01*
X12647143Y-12239286D01*
X12832857Y-12510714D02*
X12804286Y-12496429D01*
X12790000Y-12467857D01*
X12790000Y-12210714D01*
X12990000Y-12510714D02*
X12961428Y-12496429D01*
X12947143Y-12467857D01*
X12947143Y-12210714D01*
X13332857Y-12510714D02*
X13332857Y-12210714D01*
X13432857Y-12425000D01*
X13532857Y-12210714D01*
X13532857Y-12510714D01*
X13804286Y-12510714D02*
X13804286Y-12353571D01*
X13790000Y-12325000D01*
X13761428Y-12310714D01*
X13704286Y-12310714D01*
X13675714Y-12325000D01*
X13804286Y-12496429D02*
X13775714Y-12510714D01*
X13704286Y-12510714D01*
X13675714Y-12496429D01*
X13661428Y-12467857D01*
X13661428Y-12439286D01*
X13675714Y-12410714D01*
X13704286Y-12396429D01*
X13775714Y-12396429D01*
X13804286Y-12382143D01*
X13947143Y-12310714D02*
X13947143Y-12610714D01*
X13947143Y-12325000D02*
X13975714Y-12310714D01*
X14032857Y-12310714D01*
X14061428Y-12325000D01*
X14075714Y-12339286D01*
X14090000Y-12367857D01*
X14090000Y-12453571D01*
X14075714Y-12482143D01*
X14061428Y-12496429D01*
X14032857Y-12510714D01*
X13975714Y-12510714D01*
X13947143Y-12496429D01*
X14218571Y-12482143D02*
X14232857Y-12496429D01*
X14218571Y-12510714D01*
X14204286Y-12496429D01*
X14218571Y-12482143D01*
X14218571Y-12510714D01*
X14218571Y-12325000D02*
X14232857Y-12339286D01*
X14218571Y-12353571D01*
X14204286Y-12339286D01*
X14218571Y-12325000D01*
X14218571Y-12353571D01*
X11748000Y-12941500D02*
X11875000Y-13068500D01*
X11875000Y-12941500D02*
X11748000Y-13068500D01*
X12318571Y-13140714D02*
X12147143Y-13140714D01*
X12232857Y-13140714D02*
X12232857Y-12840714D01*
X12204286Y-12883571D01*
X12175714Y-12912143D01*
X12147143Y-12926429D01*
X12447143Y-13112143D02*
X12461428Y-13126429D01*
X12447143Y-13140714D01*
X12432857Y-13126429D01*
X12447143Y-13112143D01*
X12447143Y-13140714D01*
X12575714Y-12869286D02*
X12590000Y-12855000D01*
X12618571Y-12840714D01*
X12690000Y-12840714D01*
X12718571Y-12855000D01*
X12732857Y-12869286D01*
X12747143Y-12897857D01*
X12747143Y-12926429D01*
X12732857Y-12969286D01*
X12561428Y-13140714D01*
X12747143Y-13140714D01*
X12847143Y-12840714D02*
X13047143Y-12840714D01*
X12918571Y-13140714D01*
X13161428Y-13140714D02*
X13161428Y-12940714D01*
X13161428Y-12969286D02*
X13175714Y-12955000D01*
X13204286Y-12940714D01*
X13247143Y-12940714D01*
X13275714Y-12955000D01*
X13290000Y-12983571D01*
X13290000Y-13140714D01*
X13290000Y-12983571D02*
X13304286Y-12955000D01*
X13332857Y-12940714D01*
X13375714Y-12940714D01*
X13404286Y-12955000D01*
X13418571Y-12983571D01*
X13418571Y-13140714D01*
X13561428Y-13140714D02*
X13561428Y-12940714D01*
X13561428Y-12969286D02*
X13575714Y-12955000D01*
X13604286Y-12940714D01*
X13647143Y-12940714D01*
X13675714Y-12955000D01*
X13690000Y-12983571D01*
X13690000Y-13140714D01*
X13690000Y-12983571D02*
X13704286Y-12955000D01*
X13732857Y-12940714D01*
X13775714Y-12940714D01*
X13804286Y-12955000D01*
X13818571Y-12983571D01*
X13818571Y-13140714D01*
X14404286Y-12826429D02*
X14147143Y-13212143D01*
X14790000Y-12840714D02*
X14818571Y-12840714D01*
X14847143Y-12855000D01*
X14861428Y-12869286D01*
X14875714Y-12897857D01*
X14890000Y-12955000D01*
X14890000Y-13026429D01*
X14875714Y-13083571D01*
X14861428Y-13112143D01*
X14847143Y-13126429D01*
X14818571Y-13140714D01*
X14790000Y-13140714D01*
X14761428Y-13126429D01*
X14747143Y-13112143D01*
X14732857Y-13083571D01*
X14718571Y-13026429D01*
X14718571Y-12955000D01*
X14732857Y-12897857D01*
X14747143Y-12869286D01*
X14761428Y-12855000D01*
X14790000Y-12840714D01*
X15018571Y-13112143D02*
X15032857Y-13126429D01*
X15018571Y-13140714D01*
X15004286Y-13126429D01*
X15018571Y-13112143D01*
X15018571Y-13140714D01*
X15218571Y-12840714D02*
X15247143Y-12840714D01*
X15275714Y-12855000D01*
X15290000Y-12869286D01*
X15304286Y-12897857D01*
X15318571Y-12955000D01*
X15318571Y-13026429D01*
X15304286Y-13083571D01*
X15290000Y-13112143D01*
X15275714Y-13126429D01*
X15247143Y-13140714D01*
X15218571Y-13140714D01*
X15190000Y-13126429D01*
X15175714Y-13112143D01*
X15161428Y-13083571D01*
X15147143Y-13026429D01*
X15147143Y-12955000D01*
X15161428Y-12897857D01*
X15175714Y-12869286D01*
X15190000Y-12855000D01*
X15218571Y-12840714D01*
X15590000Y-12840714D02*
X15447143Y-12840714D01*
X15432857Y-12983571D01*
X15447143Y-12969286D01*
X15475714Y-12955000D01*
X15547143Y-12955000D01*
X15575714Y-12969286D01*
X15590000Y-12983571D01*
X15604286Y-13012143D01*
X15604286Y-13083571D01*
X15590000Y-13112143D01*
X15575714Y-13126429D01*
X15547143Y-13140714D01*
X15475714Y-13140714D01*
X15447143Y-13126429D01*
X15432857Y-13112143D01*
X15790000Y-12840714D02*
X15818571Y-12840714D01*
X15847143Y-12855000D01*
X15861428Y-12869286D01*
X15875714Y-12897857D01*
X15890000Y-12955000D01*
X15890000Y-13026429D01*
X15875714Y-13083571D01*
X15861428Y-13112143D01*
X15847143Y-13126429D01*
X15818571Y-13140714D01*
X15790000Y-13140714D01*
X15761428Y-13126429D01*
X15747143Y-13112143D01*
X15732857Y-13083571D01*
X15718571Y-13026429D01*
X15718571Y-12955000D01*
X15732857Y-12897857D01*
X15747143Y-12869286D01*
X15761428Y-12855000D01*
X15790000Y-12840714D01*
X16004286Y-12840714D02*
X16004286Y-12897857D01*
X16118571Y-12840714D02*
X16118571Y-12897857D01*
X16561428Y-13255000D02*
X16547143Y-13240714D01*
X16518571Y-13197857D01*
X16504286Y-13169286D01*
X16490000Y-13126429D01*
X16475714Y-13055000D01*
X16475714Y-12997857D01*
X16490000Y-12926429D01*
X16504286Y-12883571D01*
X16518571Y-12855000D01*
X16547143Y-12812143D01*
X16561428Y-12797857D01*
X16647143Y-12840714D02*
X16832857Y-12840714D01*
X16732857Y-12955000D01*
X16775714Y-12955000D01*
X16804286Y-12969286D01*
X16818571Y-12983571D01*
X16832857Y-13012143D01*
X16832857Y-13083571D01*
X16818571Y-13112143D01*
X16804286Y-13126429D01*
X16775714Y-13140714D01*
X16690000Y-13140714D01*
X16661428Y-13126429D01*
X16647143Y-13112143D01*
X17090000Y-12840714D02*
X17032857Y-12840714D01*
X17004286Y-12855000D01*
X16990000Y-12869286D01*
X16961428Y-12912143D01*
X16947143Y-12969286D01*
X16947143Y-13083571D01*
X16961428Y-13112143D01*
X16975714Y-13126429D01*
X17004286Y-13140714D01*
X17061428Y-13140714D01*
X17090000Y-13126429D01*
X17104286Y-13112143D01*
X17118571Y-13083571D01*
X17118571Y-13012143D01*
X17104286Y-12983571D01*
X17090000Y-12969286D01*
X17061428Y-12955000D01*
X17004286Y-12955000D01*
X16975714Y-12969286D01*
X16961428Y-12983571D01*
X16947143Y-13012143D01*
X17475714Y-13140714D02*
X17475714Y-12840714D01*
X17604286Y-13140714D02*
X17604286Y-12983571D01*
X17590000Y-12955000D01*
X17561428Y-12940714D01*
X17518571Y-12940714D01*
X17490000Y-12955000D01*
X17475714Y-12969286D01*
X17790000Y-13140714D02*
X17761428Y-13126429D01*
X17747143Y-13112143D01*
X17732857Y-13083571D01*
X17732857Y-12997857D01*
X17747143Y-12969286D01*
X17761428Y-12955000D01*
X17790000Y-12940714D01*
X17832857Y-12940714D01*
X17861428Y-12955000D01*
X17875714Y-12969286D01*
X17890000Y-12997857D01*
X17890000Y-13083571D01*
X17875714Y-13112143D01*
X17861428Y-13126429D01*
X17832857Y-13140714D01*
X17790000Y-13140714D01*
X18061428Y-13140714D02*
X18032857Y-13126429D01*
X18018571Y-13097857D01*
X18018571Y-12840714D01*
X18290000Y-13126429D02*
X18261428Y-13140714D01*
X18204286Y-13140714D01*
X18175714Y-13126429D01*
X18161428Y-13097857D01*
X18161428Y-12983571D01*
X18175714Y-12955000D01*
X18204286Y-12940714D01*
X18261428Y-12940714D01*
X18290000Y-12955000D01*
X18304286Y-12983571D01*
X18304286Y-13012143D01*
X18161428Y-13040714D01*
X18418571Y-13126429D02*
X18447143Y-13140714D01*
X18504286Y-13140714D01*
X18532857Y-13126429D01*
X18547143Y-13097857D01*
X18547143Y-13083571D01*
X18532857Y-13055000D01*
X18504286Y-13040714D01*
X18461428Y-13040714D01*
X18432857Y-13026429D01*
X18418571Y-12997857D01*
X18418571Y-12983571D01*
X18432857Y-12955000D01*
X18461428Y-12940714D01*
X18504286Y-12940714D01*
X18532857Y-12955000D01*
X18647143Y-13255000D02*
X18661428Y-13240714D01*
X18690000Y-13197857D01*
X18704286Y-13169286D01*
X18718571Y-13126429D01*
X18732857Y-13055000D01*
X18732857Y-12997857D01*
X18718571Y-12926429D01*
X18704286Y-12883571D01*
X18690000Y-12855000D01*
X18661428Y-12812143D01*
X18647143Y-12797857D01*
X19190000Y-13255000D02*
X19175714Y-13240714D01*
X19147143Y-13197857D01*
X19132857Y-13169286D01*
X19118571Y-13126429D01*
X19104286Y-13055000D01*
X19104286Y-12997857D01*
X19118571Y-12926429D01*
X19132857Y-12883571D01*
X19147143Y-12855000D01*
X19175714Y-12812143D01*
X19190000Y-12797857D01*
X19304286Y-12940714D02*
X19304286Y-13140714D01*
X19304286Y-12969286D02*
X19318571Y-12955000D01*
X19347143Y-12940714D01*
X19390000Y-12940714D01*
X19418571Y-12955000D01*
X19432857Y-12983571D01*
X19432857Y-13140714D01*
X19618571Y-13140714D02*
X19590000Y-13126429D01*
X19575714Y-13112143D01*
X19561428Y-13083571D01*
X19561428Y-12997857D01*
X19575714Y-12969286D01*
X19590000Y-12955000D01*
X19618571Y-12940714D01*
X19661428Y-12940714D01*
X19690000Y-12955000D01*
X19704286Y-12969286D01*
X19718571Y-12997857D01*
X19718571Y-13083571D01*
X19704286Y-13112143D01*
X19690000Y-13126429D01*
X19661428Y-13140714D01*
X19618571Y-13140714D01*
X19804286Y-12940714D02*
X19918571Y-12940714D01*
X19847143Y-12840714D02*
X19847143Y-13097857D01*
X19861428Y-13126429D01*
X19890000Y-13140714D01*
X19918571Y-13140714D01*
X20247143Y-12940714D02*
X20247143Y-13240714D01*
X20247143Y-12955000D02*
X20275714Y-12940714D01*
X20332857Y-12940714D01*
X20361428Y-12955000D01*
X20375714Y-12969286D01*
X20390000Y-12997857D01*
X20390000Y-13083571D01*
X20375714Y-13112143D01*
X20361428Y-13126429D01*
X20332857Y-13140714D01*
X20275714Y-13140714D01*
X20247143Y-13126429D01*
X20561428Y-13140714D02*
X20532857Y-13126429D01*
X20518571Y-13097857D01*
X20518571Y-12840714D01*
X20804286Y-13140714D02*
X20804286Y-12983571D01*
X20790000Y-12955000D01*
X20761428Y-12940714D01*
X20704286Y-12940714D01*
X20675714Y-12955000D01*
X20804286Y-13126429D02*
X20775714Y-13140714D01*
X20704286Y-13140714D01*
X20675714Y-13126429D01*
X20661428Y-13097857D01*
X20661428Y-13069286D01*
X20675714Y-13040714D01*
X20704286Y-13026429D01*
X20775714Y-13026429D01*
X20804286Y-13012143D01*
X20904286Y-12940714D02*
X21018571Y-12940714D01*
X20947143Y-12840714D02*
X20947143Y-13097857D01*
X20961428Y-13126429D01*
X20990000Y-13140714D01*
X21018571Y-13140714D01*
X21232857Y-13126429D02*
X21204286Y-13140714D01*
X21147143Y-13140714D01*
X21118571Y-13126429D01*
X21104286Y-13097857D01*
X21104286Y-12983571D01*
X21118571Y-12955000D01*
X21147143Y-12940714D01*
X21204286Y-12940714D01*
X21232857Y-12955000D01*
X21247143Y-12983571D01*
X21247143Y-13012143D01*
X21104286Y-13040714D01*
X21504286Y-13140714D02*
X21504286Y-12840714D01*
X21504286Y-13126429D02*
X21475714Y-13140714D01*
X21418571Y-13140714D01*
X21390000Y-13126429D01*
X21375714Y-13112143D01*
X21361428Y-13083571D01*
X21361428Y-12997857D01*
X21375714Y-12969286D01*
X21390000Y-12955000D01*
X21418571Y-12940714D01*
X21475714Y-12940714D01*
X21504286Y-12955000D01*
X21618571Y-13255000D02*
X21632857Y-13240714D01*
X21661428Y-13197857D01*
X21675714Y-13169286D01*
X21690000Y-13126429D01*
X21704286Y-13055000D01*
X21704286Y-12997857D01*
X21690000Y-12926429D01*
X21675714Y-12883571D01*
X21661428Y-12855000D01*
X21632857Y-12812143D01*
X21618571Y-12797857D01*
M02*
