%TF.GenerationSoftware,KiCad,Pcbnew,(6.0.2)*%
%TF.CreationDate,2022-04-06T15:05:21-04:00*%
%TF.ProjectId,SteeringHardware,53746565-7269-46e6-9748-617264776172,rev?*%
%TF.SameCoordinates,Original*%
%TF.FileFunction,Copper,L1,Top*%
%TF.FilePolarity,Positive*%
%FSLAX46Y46*%
G04 Gerber Fmt 4.6, Leading zero omitted, Abs format (unit mm)*
G04 Created by KiCad (PCBNEW (6.0.2)) date 2022-04-06 15:05:21*
%MOMM*%
%LPD*%
G01*
G04 APERTURE LIST*
G04 Aperture macros list*
%AMRoundRect*
0 Rectangle with rounded corners*
0 $1 Rounding radius*
0 $2 $3 $4 $5 $6 $7 $8 $9 X,Y pos of 4 corners*
0 Add a 4 corners polygon primitive as box body*
4,1,4,$2,$3,$4,$5,$6,$7,$8,$9,$2,$3,0*
0 Add four circle primitives for the rounded corners*
1,1,$1+$1,$2,$3*
1,1,$1+$1,$4,$5*
1,1,$1+$1,$6,$7*
1,1,$1+$1,$8,$9*
0 Add four rect primitives between the rounded corners*
20,1,$1+$1,$2,$3,$4,$5,0*
20,1,$1+$1,$4,$5,$6,$7,0*
20,1,$1+$1,$6,$7,$8,$9,0*
20,1,$1+$1,$8,$9,$2,$3,0*%
G04 Aperture macros list end*
%TA.AperFunction,SMDPad,CuDef*%
%ADD10R,1.200000X0.300000*%
%TD*%
%TA.AperFunction,SMDPad,CuDef*%
%ADD11R,2.400000X1.600000*%
%TD*%
%TA.AperFunction,SMDPad,CuDef*%
%ADD12R,1.600000X2.400000*%
%TD*%
%TA.AperFunction,ComponentPad*%
%ADD13RoundRect,0.250001X0.759999X-0.499999X0.759999X0.499999X-0.759999X0.499999X-0.759999X-0.499999X0*%
%TD*%
%TA.AperFunction,ComponentPad*%
%ADD14O,2.020000X1.500000*%
%TD*%
%TA.AperFunction,ComponentPad*%
%ADD15R,1.700000X1.700000*%
%TD*%
%TA.AperFunction,ComponentPad*%
%ADD16O,1.700000X1.700000*%
%TD*%
%TA.AperFunction,ComponentPad*%
%ADD17C,0.600000*%
%TD*%
%TA.AperFunction,SMDPad,CuDef*%
%ADD18R,4.500000X2.950000*%
%TD*%
%TA.AperFunction,ViaPad*%
%ADD19C,0.400000*%
%TD*%
%TA.AperFunction,ViaPad*%
%ADD20C,0.600000*%
%TD*%
%TA.AperFunction,Conductor*%
%ADD21C,0.250000*%
%TD*%
G04 APERTURE END LIST*
D10*
%TO.P,U101,1,LEDK*%
%TO.N,/LED_K*%
X152525000Y-103250000D03*
%TO.P,U101,2,LEDA*%
%TO.N,Net-(R3-Pad2)*%
X152525000Y-102750000D03*
%TO.P,U101,3,LEDA*%
%TO.N,Net-(R4-Pad2)*%
X152525000Y-102250000D03*
%TO.P,U101,4,LEDA*%
%TO.N,Net-(R5-Pad2)*%
X152525000Y-101750000D03*
%TO.P,U101,5,LEDA*%
%TO.N,Net-(R6-Pad2)*%
X152525000Y-101250000D03*
%TO.P,U101,6,IM0*%
%TO.N,Net-(JP1-Pad2)*%
X152525000Y-100750000D03*
%TO.P,U101,7,IM1*%
%TO.N,Net-(JP2-Pad2)*%
X152525000Y-100250000D03*
%TO.P,U101,8,IM2*%
%TO.N,Net-(JP3-Pad2)*%
X152525000Y-99750000D03*
%TO.P,U101,9,IM3*%
%TO.N,Net-(JP4-Pad2)*%
X152525000Y-99250000D03*
%TO.P,U101,10,Reset*%
%TO.N,/LCD_RST*%
X152525000Y-98750000D03*
%TO.P,U101,11,VSYNC*%
%TO.N,unconnected-(U101-Pad11)*%
X152525000Y-98250000D03*
%TO.P,U101,12,HSYNC*%
%TO.N,unconnected-(U101-Pad12)*%
X152525000Y-97750000D03*
%TO.P,U101,13,DOTCLK*%
%TO.N,unconnected-(U101-Pad13)*%
X152525000Y-97250000D03*
%TO.P,U101,14,DE*%
%TO.N,unconnected-(U101-Pad14)*%
X152525000Y-96750000D03*
%TO.P,U101,15,DB17*%
%TO.N,unconnected-(U101-Pad15)*%
X152525000Y-96250000D03*
%TO.P,U101,16,DB16*%
%TO.N,unconnected-(U101-Pad16)*%
X152525000Y-95750000D03*
%TO.P,U101,17,DB15*%
%TO.N,unconnected-(U101-Pad17)*%
X152525000Y-95250000D03*
%TO.P,U101,18,DB14*%
%TO.N,unconnected-(U101-Pad18)*%
X152525000Y-94750000D03*
%TO.P,U101,19,DB13*%
%TO.N,unconnected-(U101-Pad19)*%
X152525000Y-94250000D03*
%TO.P,U101,20,DB12*%
%TO.N,unconnected-(U101-Pad20)*%
X152525000Y-93750000D03*
%TO.P,U101,21,DB11*%
%TO.N,unconnected-(U101-Pad21)*%
X152525000Y-93250000D03*
%TO.P,U101,22,DB10*%
%TO.N,unconnected-(U101-Pad22)*%
X152525000Y-92750000D03*
%TO.P,U101,23,DB9*%
%TO.N,unconnected-(U101-Pad23)*%
X152525000Y-92250000D03*
%TO.P,U101,24,DB8*%
%TO.N,unconnected-(U101-Pad24)*%
X152525000Y-91750000D03*
%TO.P,U101,25,DB7*%
%TO.N,/LCD_DATA7*%
X152525000Y-91250000D03*
%TO.P,U101,26,DB6*%
%TO.N,/LCD_DATA6*%
X152525000Y-90750000D03*
%TO.P,U101,27,DB5*%
%TO.N,/LCD_DATA5*%
X152525000Y-90250000D03*
%TO.P,U101,28,DB4*%
%TO.N,/LCD_DATA4*%
X152525000Y-89750000D03*
%TO.P,U101,29,DB3*%
%TO.N,/LCD_DATA3*%
X152525000Y-89250000D03*
%TO.P,U101,30,DB2*%
%TO.N,/LCD_DATA2*%
X152525000Y-88750000D03*
%TO.P,U101,31,DB1*%
%TO.N,/LCD_DATA1*%
X152525000Y-88250000D03*
%TO.P,U101,32,DB0*%
%TO.N,/LCD_DATA0*%
X152525000Y-87750000D03*
%TO.P,U101,33,SDO*%
%TO.N,unconnected-(U101-Pad33)*%
X152525000Y-87250000D03*
%TO.P,U101,34,SDI*%
%TO.N,unconnected-(U101-Pad34)*%
X152525000Y-86750000D03*
%TO.P,U101,35,#RD*%
%TO.N,/LCD_READ*%
X152525000Y-86250000D03*
%TO.P,U101,36,#WR*%
%TO.N,/LCD_WRITE*%
X152525000Y-85750000D03*
%TO.P,U101,37,RS*%
%TO.N,/LCD_C{slash}D*%
X152525000Y-85250000D03*
%TO.P,U101,38,#CS*%
%TO.N,/LCD_CS*%
X152525000Y-84750000D03*
%TO.P,U101,39,TE*%
%TO.N,unconnected-(U101-Pad39)*%
X152525000Y-84250000D03*
%TO.P,U101,40,IOVCC*%
%TO.N,+3V3*%
X152525000Y-83750000D03*
%TO.P,U101,41,IOVCC*%
X152525000Y-83250000D03*
%TO.P,U101,42,VCI*%
X152525000Y-82750000D03*
%TO.P,U101,43,GND*%
%TO.N,GND*%
X152525000Y-82250000D03*
%TO.P,U101,44,XR*%
%TO.N,/LCD_X-*%
X152525000Y-81750000D03*
%TO.P,U101,45,YD*%
%TO.N,/LCD_Y-*%
X152525000Y-81250000D03*
%TO.P,U101,46,XL*%
%TO.N,/LCD_X+*%
X152525000Y-80750000D03*
%TO.P,U101,47,YU*%
%TO.N,/LCD_Y+*%
X152525000Y-80250000D03*
%TO.P,U101,48,GND*%
%TO.N,GND*%
X152525000Y-79750000D03*
%TO.P,U101,49,GND*%
X152525000Y-79250000D03*
%TO.P,U101,50,GND*%
X152525000Y-78750000D03*
D11*
%TO.P,U101,MP*%
%TO.N,N/C*%
X149825000Y-104850000D03*
D12*
X149425000Y-105250000D03*
D11*
X149825000Y-76950000D03*
D12*
X149425000Y-76550000D03*
%TD*%
D13*
%TO.P,J3,1,Pin_1*%
%TO.N,/CAN+*%
X199900000Y-100600000D03*
D14*
%TO.P,J3,2,Pin_2*%
%TO.N,/CAN-*%
X199900000Y-97600000D03*
%TO.P,J3,3,Pin_3*%
%TO.N,GND*%
X199900000Y-94600000D03*
%TO.P,J3,4,Pin_4*%
%TO.N,unconnected-(J3-Pad4)*%
X199900000Y-91600000D03*
%TO.P,J3,5,Pin_5*%
%TO.N,unconnected-(J3-Pad5)*%
X199900000Y-88600000D03*
%TO.P,J3,6,Pin_6*%
%TO.N,GND*%
X199900000Y-85600000D03*
%TO.P,J3,7,Pin_7*%
%TO.N,+12V*%
X199900000Y-82600000D03*
%TO.P,J3,8,Pin_8*%
%TO.N,unconnected-(J3-Pad8)*%
X199900000Y-79600000D03*
%TO.P,J3,9,Pin_9*%
%TO.N,GND*%
X199900000Y-76600000D03*
%TD*%
D15*
%TO.P,JP301,1,A*%
%TO.N,+3V3*%
X187775000Y-92900000D03*
D16*
%TO.P,JP301,2,B*%
%TO.N,Net-(JP301-Pad2)*%
X185235000Y-92900000D03*
%TD*%
D17*
%TO.P,U201,9,GNDPAD*%
%TO.N,GND*%
X157600000Y-71150000D03*
X158900000Y-72350000D03*
X156500000Y-71150000D03*
X156500000Y-72350000D03*
X157600000Y-72350000D03*
X158900000Y-71150000D03*
X160100000Y-72350000D03*
D18*
X158300000Y-71750000D03*
D17*
X160100000Y-71150000D03*
%TD*%
D13*
%TO.P,J104,1,Pin_1*%
%TO.N,/RT*%
X214085000Y-82800000D03*
D14*
%TO.P,J104,2,Pin_2*%
%TO.N,GND*%
X214085000Y-79800000D03*
%TD*%
D13*
%TO.P,J106,1,Pin_1*%
%TO.N,/LT*%
X135035000Y-82800000D03*
D14*
%TO.P,J106,2,Pin_2*%
%TO.N,GND*%
X135035000Y-79800000D03*
%TD*%
D13*
%TO.P,J105,1,Pin_1*%
%TO.N,+12V*%
X135035000Y-71900000D03*
D14*
%TO.P,J105,2,Pin_2*%
%TO.N,/LT_LED*%
X135035000Y-68900000D03*
%TD*%
D13*
%TO.P,J103,1,Pin_1*%
%TO.N,+12V*%
X214060000Y-71900000D03*
D14*
%TO.P,J103,2,Pin_2*%
%TO.N,/RT_LED*%
X214060000Y-68900000D03*
%TD*%
D19*
%TO.N,GND*%
X173575000Y-106875000D03*
X164025000Y-91350000D03*
D20*
X176175000Y-99675000D03*
D19*
X177700000Y-88300000D03*
X147300000Y-73450000D03*
X150225000Y-73600000D03*
D20*
X207250000Y-90450000D03*
X182100000Y-74650000D03*
D19*
X172100000Y-82100000D03*
X160675000Y-86375000D03*
D20*
X149300000Y-94800000D03*
X181875000Y-109000000D03*
X183375000Y-101900000D03*
X173475000Y-98600000D03*
D19*
X172025000Y-105300000D03*
D20*
X172975000Y-114250000D03*
X150775000Y-85575000D03*
X181700000Y-90575000D03*
X161800000Y-101925000D03*
D19*
X165525000Y-92800000D03*
D20*
X193650000Y-87925000D03*
D19*
X165510000Y-99580000D03*
X171425000Y-106975000D03*
X143300000Y-73400000D03*
D20*
X150725000Y-83750000D03*
X186525000Y-80325000D03*
D19*
X163825000Y-99575000D03*
X168750000Y-89800000D03*
D20*
X191550000Y-67225000D03*
X155225000Y-108650000D03*
X182525000Y-95300000D03*
D19*
X174525000Y-84600000D03*
X166625000Y-87675000D03*
X165975000Y-101675000D03*
X184675000Y-99700000D03*
X170725000Y-106175000D03*
D20*
X206600000Y-94000000D03*
X165075000Y-108700000D03*
X209150000Y-110025000D03*
X141600000Y-82675000D03*
X156375000Y-97200000D03*
%TO.N,+3V3*%
X180050000Y-102850000D03*
D19*
X158375000Y-104300000D03*
X166500000Y-92750000D03*
X177725000Y-89230000D03*
X166480000Y-99580000D03*
X169800000Y-75800000D03*
X154000000Y-83300000D03*
X176910000Y-81450000D03*
X172025000Y-104345000D03*
%TO.N,/LT*%
X175600000Y-93800000D03*
%TO.N,/RT*%
X187725000Y-104775000D03*
%TO.N,/HAZ*%
X204450000Y-112900000D03*
X170250000Y-92400000D03*
%TO.N,/Cruise_Toggle*%
X174850000Y-105225000D03*
X205875000Y-115675000D03*
%TO.N,/Cruise_INC*%
X170400000Y-104450000D03*
X176225000Y-100950000D03*
%TO.N,/Cruise_DEC*%
X174250000Y-93300000D03*
X204450000Y-111800000D03*
%TO.N,/ECO_Toggle*%
X147650000Y-115525000D03*
X172087143Y-94128899D03*
%TO.N,/Horn*%
X174425000Y-103650000D03*
X144650000Y-115425000D03*
%TO.N,/Headlights*%
X170909224Y-93787538D03*
X146275000Y-111600000D03*
%TO.N,+5V*%
X167400000Y-84341772D03*
X167500000Y-82100000D03*
X184700000Y-98400000D03*
%TO.N,/LCD_CS*%
X162532269Y-92192953D03*
D20*
%TO.N,/LT_LED_EN*%
X148275000Y-67950000D03*
D19*
X174725000Y-89225000D03*
%TO.N,+12V*%
X158962500Y-67237500D03*
%TO.N,/MCU/NRST*%
X176100000Y-92300000D03*
X181975000Y-85375000D03*
D20*
%TO.N,Net-(JP1-Pad2)*%
X146750000Y-104350000D03*
%TO.N,Net-(JP2-Pad2)*%
X146750000Y-101750000D03*
%TO.N,Net-(JP3-Pad2)*%
X146750000Y-99150000D03*
%TO.N,Net-(JP4-Pad2)*%
X146750000Y-96550000D03*
D19*
%TO.N,/LED_K*%
X161947500Y-105490000D03*
D20*
%TO.N,Net-(R3-Pad2)*%
X156725000Y-104300000D03*
%TO.N,Net-(R4-Pad2)*%
X156725000Y-102700000D03*
%TO.N,Net-(R5-Pad2)*%
X156725000Y-101100000D03*
%TO.N,Net-(R6-Pad2)*%
X156725000Y-99500000D03*
D19*
%TO.N,/LCD_RST*%
X161182675Y-99744486D03*
%TO.N,/LCD_DATA7*%
X161305230Y-99125285D03*
%TO.N,/LCD_DATA6*%
X161470878Y-98549122D03*
%TO.N,/LCD_DATA5*%
X161600503Y-97936991D03*
%TO.N,/LCD_DATA4*%
X161665930Y-97260662D03*
%TO.N,/LCD_DATA3*%
X161774083Y-96627059D03*
%TO.N,/LCD_DATA2*%
X161920664Y-96031884D03*
%TO.N,/LCD_DATA1*%
X161991412Y-95360876D03*
%TO.N,/LCD_DATA0*%
X162061146Y-94688854D03*
%TO.N,/LCD_READ*%
X162197024Y-94082976D03*
%TO.N,/LCD_WRITE*%
X162325071Y-93469267D03*
%TO.N,/LCD_C{slash}D*%
X162448780Y-92851220D03*
%TO.N,/ECO_ON_EN*%
X170257409Y-95225000D03*
X146200000Y-109900000D03*
%TO.N,/Headlights_ON_EN*%
X142700000Y-109925000D03*
X170332389Y-93624242D03*
%TD*%
D21*
%TO.N,+3V3*%
X161760000Y-104300000D02*
X158375000Y-104300000D01*
X152525000Y-82750000D02*
X152525000Y-83250000D01*
X187775000Y-92900000D02*
X187775000Y-88650000D01*
X152575000Y-83300000D02*
X152525000Y-83250000D01*
X176910000Y-81435000D02*
X176910000Y-81450000D01*
X154000000Y-83300000D02*
X152575000Y-83300000D01*
X176910000Y-81450000D02*
X176910000Y-88415000D01*
X180575000Y-81450000D02*
X176910000Y-81450000D01*
X166500000Y-99560000D02*
X166480000Y-99580000D01*
X178555000Y-104345000D02*
X180050000Y-102850000D01*
X176910000Y-88415000D02*
X177725000Y-89230000D01*
X172025000Y-104345000D02*
X178555000Y-104345000D01*
X152525000Y-83250000D02*
X152525000Y-83750000D01*
X171275000Y-75800000D02*
X176910000Y-81435000D01*
X166480000Y-99580000D02*
X161760000Y-104300000D01*
X169800000Y-75800000D02*
X171275000Y-75800000D01*
X187775000Y-88650000D02*
X180575000Y-81450000D01*
X166500000Y-92750000D02*
X166500000Y-99560000D01*
%TO.N,/LT*%
X174551245Y-92751245D02*
X175600000Y-93800000D01*
X135075000Y-82800000D02*
X142849511Y-75025489D01*
X156706227Y-75025489D02*
X174431983Y-92751245D01*
X135035000Y-82800000D02*
X135075000Y-82800000D01*
X174431983Y-92751245D02*
X174551245Y-92751245D01*
X142849511Y-75025489D02*
X156706227Y-75025489D01*
%TO.N,/RT*%
X214100000Y-94375000D02*
X214100000Y-82815000D01*
X214100000Y-82815000D02*
X214085000Y-82800000D01*
X187725000Y-104775000D02*
X203700000Y-104775000D01*
X203700000Y-104775000D02*
X214100000Y-94375000D01*
%TO.N,/HAZ*%
X191600000Y-112900000D02*
X171100000Y-92400000D01*
X204450000Y-112900000D02*
X191600000Y-112900000D01*
X171100000Y-92400000D02*
X170250000Y-92400000D01*
%TO.N,/Cruise_Toggle*%
X185300000Y-115675000D02*
X174850000Y-105225000D01*
X205875000Y-115675000D02*
X185300000Y-115675000D01*
%TO.N,/Cruise_INC*%
X173900000Y-100950000D02*
X170400000Y-104450000D01*
X176225000Y-100950000D02*
X173900000Y-100950000D01*
%TO.N,/Cruise_DEC*%
X204450000Y-111800000D02*
X192050000Y-111800000D01*
X192050000Y-111800000D02*
X174250000Y-94000000D01*
X174250000Y-94000000D02*
X174250000Y-93300000D01*
%TO.N,/ECO_Toggle*%
X156435718Y-115525000D02*
X147650000Y-115525000D01*
X172087143Y-99873575D02*
X156435718Y-115525000D01*
X172087143Y-94128899D02*
X172087143Y-99873575D01*
%TO.N,/Horn*%
X174425000Y-103650000D02*
X171978228Y-103650000D01*
X171978228Y-103650000D02*
X159453228Y-116175000D01*
X159453228Y-116175000D02*
X145400000Y-116175000D01*
X145400000Y-116175000D02*
X144650000Y-115425000D01*
%TO.N,/Headlights*%
X170781909Y-93914853D02*
X170781909Y-100543091D01*
X159725000Y-111600000D02*
X146275000Y-111600000D01*
X170909224Y-93787538D02*
X170781909Y-93914853D01*
X170781909Y-100543091D02*
X159725000Y-111600000D01*
%TO.N,+5V*%
X167400000Y-82200000D02*
X167500000Y-82100000D01*
X181458228Y-98400000D02*
X167400000Y-84341772D01*
X167400000Y-84341772D02*
X167400000Y-82200000D01*
X184700000Y-98400000D02*
X181458228Y-98400000D01*
%TO.N,/LCD_CS*%
X155089316Y-84750000D02*
X152525000Y-84750000D01*
X162532269Y-92192953D02*
X155089316Y-84750000D01*
%TO.N,/LT_LED_EN*%
X174725000Y-88550000D02*
X174725000Y-89225000D01*
X150266456Y-67950000D02*
X163891945Y-81575489D01*
X163891945Y-81575489D02*
X167750489Y-81575489D01*
X167750489Y-81575489D02*
X174725000Y-88550000D01*
X148275000Y-67950000D02*
X150266456Y-67950000D01*
%TO.N,+12V*%
X158962500Y-67237500D02*
X158775000Y-67050000D01*
X211060000Y-68900000D02*
X185575000Y-68900000D01*
X133050000Y-69915000D02*
X135035000Y-71900000D01*
X134400000Y-67050000D02*
X133050000Y-68400000D01*
X214060000Y-71900000D02*
X211060000Y-68900000D01*
X133050000Y-68400000D02*
X133050000Y-69915000D01*
X158775000Y-67050000D02*
X134400000Y-67050000D01*
X183912500Y-67237500D02*
X199275000Y-82600000D01*
X158962500Y-67237500D02*
X183912500Y-67237500D01*
%TO.N,/MCU/NRST*%
X176100000Y-92300000D02*
X181975000Y-86425000D01*
X181975000Y-86425000D02*
X181975000Y-85375000D01*
%TO.N,Net-(JP1-Pad2)*%
X152525000Y-100750000D02*
X150350000Y-100750000D01*
X150350000Y-100750000D02*
X146750000Y-104350000D01*
%TO.N,Net-(JP2-Pad2)*%
X148250000Y-100250000D02*
X146750000Y-101750000D01*
X152525000Y-100250000D02*
X148250000Y-100250000D01*
%TO.N,Net-(JP3-Pad2)*%
X147350000Y-99750000D02*
X146750000Y-99150000D01*
X152525000Y-99750000D02*
X147350000Y-99750000D01*
%TO.N,Net-(JP4-Pad2)*%
X149450000Y-99250000D02*
X146750000Y-96550000D01*
X152525000Y-99250000D02*
X149450000Y-99250000D01*
%TO.N,/LED_K*%
X154765000Y-105490000D02*
X161947500Y-105490000D01*
X152525000Y-103250000D02*
X154765000Y-105490000D01*
%TO.N,Net-(R3-Pad2)*%
X154980000Y-102750000D02*
X156530000Y-104300000D01*
X156530000Y-104300000D02*
X156725000Y-104300000D01*
X152525000Y-102750000D02*
X154980000Y-102750000D01*
%TO.N,Net-(R4-Pad2)*%
X156510000Y-102700000D02*
X156725000Y-102700000D01*
X152525000Y-102250000D02*
X156060000Y-102250000D01*
X156060000Y-102250000D02*
X156510000Y-102700000D01*
%TO.N,Net-(R5-Pad2)*%
X156075000Y-101750000D02*
X156725000Y-101100000D01*
X152525000Y-101750000D02*
X156075000Y-101750000D01*
%TO.N,Net-(R6-Pad2)*%
X154975000Y-101250000D02*
X156725000Y-99500000D01*
X152525000Y-101250000D02*
X154975000Y-101250000D01*
%TO.N,/LCD_RST*%
X160188189Y-98750000D02*
X152525000Y-98750000D01*
X161182675Y-99744486D02*
X160188189Y-98750000D01*
%TO.N,/LCD_DATA7*%
X153430000Y-91250000D02*
X152525000Y-91250000D01*
X161305230Y-99125230D02*
X153430000Y-91250000D01*
X161305230Y-99125285D02*
X161305230Y-99125230D01*
%TO.N,/LCD_DATA6*%
X153671756Y-90750000D02*
X152525000Y-90750000D01*
X161470878Y-98549122D02*
X153671756Y-90750000D01*
%TO.N,/LCD_DATA5*%
X152525000Y-90250000D02*
X153913512Y-90250000D01*
X153913512Y-90250000D02*
X161600503Y-97936991D01*
%TO.N,/LCD_DATA4*%
X161665930Y-97260662D02*
X154155268Y-89750000D01*
X154155268Y-89750000D02*
X152525000Y-89750000D01*
%TO.N,/LCD_DATA3*%
X161774083Y-96627059D02*
X154397024Y-89250000D01*
X154397024Y-89250000D02*
X152525000Y-89250000D01*
%TO.N,/LCD_DATA2*%
X154638780Y-88750000D02*
X152525000Y-88750000D01*
X161920664Y-96031884D02*
X154638780Y-88750000D01*
%TO.N,/LCD_DATA1*%
X154880536Y-88250000D02*
X152525000Y-88250000D01*
X161991412Y-95360876D02*
X154880536Y-88250000D01*
%TO.N,/LCD_DATA0*%
X162061146Y-94688854D02*
X155122292Y-87750000D01*
X155122292Y-87750000D02*
X152525000Y-87750000D01*
%TO.N,/LCD_READ*%
X162197024Y-94082976D02*
X154364048Y-86250000D01*
X154364048Y-86250000D02*
X152525000Y-86250000D01*
%TO.N,/LCD_WRITE*%
X154580315Y-85724511D02*
X153154511Y-85724511D01*
X162325071Y-93469267D02*
X154580315Y-85724511D01*
%TO.N,/LCD_C{slash}D*%
X154847560Y-85250000D02*
X162448780Y-92851220D01*
X152525000Y-85250000D02*
X154847560Y-85250000D01*
%TO.N,/ECO_ON_EN*%
X160060717Y-109900000D02*
X146200000Y-109900000D01*
X170332389Y-99628328D02*
X160060717Y-109900000D01*
X170257409Y-95225000D02*
X170332389Y-95299980D01*
X170332389Y-95299980D02*
X170332389Y-99628328D01*
%TO.N,/Headlights_ON_EN*%
X169283378Y-100041622D02*
X162025000Y-107300000D01*
X162025000Y-107300000D02*
X145325000Y-107300000D01*
X170332389Y-93624242D02*
X169283378Y-94673253D01*
X169283378Y-94673253D02*
X169283378Y-100041622D01*
X145325000Y-107300000D02*
X142700000Y-109925000D01*
%TD*%
%TA.AperFunction,Conductor*%
%TO.N,GND*%
G36*
X218559191Y-64718907D02*
G01*
X218595155Y-64768407D01*
X218600000Y-64799000D01*
X218600000Y-120101000D01*
X218581093Y-120159191D01*
X218531593Y-120195155D01*
X218501000Y-120200000D01*
X132099000Y-120200000D01*
X132040809Y-120181093D01*
X132004845Y-120131593D01*
X132000000Y-120101000D01*
X132000000Y-109925000D01*
X142294508Y-109925000D01*
X142295727Y-109932697D01*
X142311494Y-110032244D01*
X142314354Y-110050304D01*
X142317890Y-110057243D01*
X142317890Y-110057244D01*
X142363399Y-110146559D01*
X142371950Y-110163342D01*
X142461658Y-110253050D01*
X142468595Y-110256585D01*
X142468597Y-110256586D01*
X142567756Y-110307110D01*
X142574696Y-110310646D01*
X142582390Y-110311865D01*
X142582391Y-110311865D01*
X142692303Y-110329273D01*
X142700000Y-110330492D01*
X142707697Y-110329273D01*
X142817609Y-110311865D01*
X142817610Y-110311865D01*
X142825304Y-110310646D01*
X142832244Y-110307110D01*
X142931403Y-110256586D01*
X142931405Y-110256585D01*
X142938342Y-110253050D01*
X143028050Y-110163342D01*
X143036602Y-110146559D01*
X143082110Y-110057244D01*
X143082110Y-110057243D01*
X143085646Y-110050304D01*
X143088507Y-110032244D01*
X143090141Y-110021924D01*
X143117918Y-109967408D01*
X145430830Y-107654496D01*
X145485347Y-107626719D01*
X145500834Y-107625500D01*
X161635883Y-107625500D01*
X161694074Y-107644407D01*
X161730038Y-107693907D01*
X161730038Y-107755093D01*
X161705887Y-107794504D01*
X159954887Y-109545504D01*
X159900370Y-109573281D01*
X159884883Y-109574500D01*
X146467115Y-109574500D01*
X146422170Y-109563710D01*
X146332244Y-109517890D01*
X146332243Y-109517890D01*
X146325304Y-109514354D01*
X146317610Y-109513135D01*
X146317609Y-109513135D01*
X146207697Y-109495727D01*
X146200000Y-109494508D01*
X146192303Y-109495727D01*
X146082391Y-109513135D01*
X146082390Y-109513135D01*
X146074696Y-109514354D01*
X146067757Y-109517890D01*
X146067756Y-109517890D01*
X145968597Y-109568414D01*
X145968595Y-109568415D01*
X145961658Y-109571950D01*
X145871950Y-109661658D01*
X145868415Y-109668595D01*
X145868414Y-109668597D01*
X145855676Y-109693597D01*
X145814354Y-109774696D01*
X145813135Y-109782390D01*
X145813135Y-109782391D01*
X145795727Y-109892303D01*
X145794508Y-109900000D01*
X145795727Y-109907697D01*
X145808787Y-109990153D01*
X145814354Y-110025304D01*
X145817890Y-110032243D01*
X145817890Y-110032244D01*
X145861107Y-110117061D01*
X145871950Y-110138342D01*
X145961658Y-110228050D01*
X145968595Y-110231585D01*
X145968597Y-110231586D01*
X146067756Y-110282110D01*
X146074696Y-110285646D01*
X146082390Y-110286865D01*
X146082391Y-110286865D01*
X146192303Y-110304273D01*
X146200000Y-110305492D01*
X146207697Y-110304273D01*
X146317609Y-110286865D01*
X146317610Y-110286865D01*
X146325304Y-110285646D01*
X146422170Y-110236290D01*
X146467115Y-110225500D01*
X160042183Y-110225500D01*
X160050812Y-110225877D01*
X160089524Y-110229264D01*
X160127067Y-110219204D01*
X160135501Y-110217334D01*
X160165234Y-110212092D01*
X160165236Y-110212091D01*
X160173762Y-110210588D01*
X160181261Y-110206258D01*
X160186746Y-110204262D01*
X160192033Y-110201796D01*
X160200401Y-110199554D01*
X160232228Y-110177268D01*
X160239512Y-110172627D01*
X160273172Y-110153194D01*
X160298148Y-110123429D01*
X160303982Y-110117061D01*
X170287405Y-100133638D01*
X170341922Y-100105861D01*
X170402354Y-100115432D01*
X170445619Y-100158697D01*
X170456409Y-100203642D01*
X170456409Y-100367257D01*
X170437502Y-100425448D01*
X170427413Y-100437261D01*
X159619170Y-111245504D01*
X159564653Y-111273281D01*
X159549166Y-111274500D01*
X146542115Y-111274500D01*
X146497170Y-111263710D01*
X146407244Y-111217890D01*
X146407243Y-111217890D01*
X146400304Y-111214354D01*
X146392610Y-111213135D01*
X146392609Y-111213135D01*
X146282697Y-111195727D01*
X146275000Y-111194508D01*
X146267303Y-111195727D01*
X146157391Y-111213135D01*
X146157390Y-111213135D01*
X146149696Y-111214354D01*
X146142757Y-111217890D01*
X146142756Y-111217890D01*
X146043597Y-111268414D01*
X146043595Y-111268415D01*
X146036658Y-111271950D01*
X145946950Y-111361658D01*
X145943415Y-111368595D01*
X145943414Y-111368597D01*
X145894952Y-111463710D01*
X145889354Y-111474696D01*
X145869508Y-111600000D01*
X145870727Y-111607697D01*
X145881339Y-111674696D01*
X145889354Y-111725304D01*
X145892890Y-111732243D01*
X145892890Y-111732244D01*
X145931336Y-111807697D01*
X145946950Y-111838342D01*
X146036658Y-111928050D01*
X146043595Y-111931585D01*
X146043597Y-111931586D01*
X146068760Y-111944407D01*
X146149696Y-111985646D01*
X146157390Y-111986865D01*
X146157391Y-111986865D01*
X146267303Y-112004273D01*
X146275000Y-112005492D01*
X146282697Y-112004273D01*
X146392609Y-111986865D01*
X146392610Y-111986865D01*
X146400304Y-111985646D01*
X146497170Y-111936290D01*
X146542115Y-111925500D01*
X159335884Y-111925500D01*
X159394075Y-111944407D01*
X159430039Y-111993907D01*
X159430039Y-112055093D01*
X159405888Y-112094504D01*
X156329888Y-115170504D01*
X156275371Y-115198281D01*
X156259884Y-115199500D01*
X147917115Y-115199500D01*
X147872170Y-115188710D01*
X147782244Y-115142890D01*
X147782243Y-115142890D01*
X147775304Y-115139354D01*
X147767610Y-115138135D01*
X147767609Y-115138135D01*
X147657697Y-115120727D01*
X147650000Y-115119508D01*
X147642303Y-115120727D01*
X147532391Y-115138135D01*
X147532390Y-115138135D01*
X147524696Y-115139354D01*
X147517757Y-115142890D01*
X147517756Y-115142890D01*
X147418597Y-115193414D01*
X147418595Y-115193415D01*
X147411658Y-115196950D01*
X147321950Y-115286658D01*
X147318415Y-115293595D01*
X147318414Y-115293597D01*
X147289930Y-115349500D01*
X147264354Y-115399696D01*
X147244508Y-115525000D01*
X147264354Y-115650304D01*
X147267890Y-115657243D01*
X147267890Y-115657244D01*
X147292506Y-115705555D01*
X147302077Y-115765987D01*
X147274300Y-115820503D01*
X147219783Y-115848281D01*
X147204296Y-115849500D01*
X145575834Y-115849500D01*
X145517643Y-115830593D01*
X145505831Y-115820504D01*
X145067919Y-115382593D01*
X145040141Y-115328076D01*
X145036865Y-115307391D01*
X145036865Y-115307390D01*
X145035646Y-115299696D01*
X145032110Y-115292756D01*
X144981586Y-115193597D01*
X144981585Y-115193595D01*
X144978050Y-115186658D01*
X144888342Y-115096950D01*
X144881405Y-115093415D01*
X144881403Y-115093414D01*
X144782244Y-115042890D01*
X144782243Y-115042890D01*
X144775304Y-115039354D01*
X144767610Y-115038135D01*
X144767609Y-115038135D01*
X144657697Y-115020727D01*
X144650000Y-115019508D01*
X144642303Y-115020727D01*
X144532391Y-115038135D01*
X144532390Y-115038135D01*
X144524696Y-115039354D01*
X144517757Y-115042890D01*
X144517756Y-115042890D01*
X144418597Y-115093414D01*
X144418595Y-115093415D01*
X144411658Y-115096950D01*
X144321950Y-115186658D01*
X144318415Y-115193595D01*
X144318414Y-115193597D01*
X144267890Y-115292756D01*
X144264354Y-115299696D01*
X144263135Y-115307390D01*
X144263135Y-115307391D01*
X144249615Y-115392756D01*
X144244508Y-115425000D01*
X144264354Y-115550304D01*
X144267890Y-115557243D01*
X144267890Y-115557244D01*
X144315307Y-115650304D01*
X144321950Y-115663342D01*
X144411658Y-115753050D01*
X144418595Y-115756585D01*
X144418597Y-115756586D01*
X144517756Y-115807110D01*
X144524696Y-115810646D01*
X144532388Y-115811864D01*
X144532390Y-115811865D01*
X144553076Y-115815141D01*
X144607592Y-115842918D01*
X145156742Y-116392069D01*
X145162565Y-116398424D01*
X145187545Y-116428194D01*
X145221219Y-116447636D01*
X145228475Y-116452259D01*
X145260316Y-116474554D01*
X145268678Y-116476795D01*
X145273960Y-116479258D01*
X145279454Y-116481257D01*
X145286955Y-116485588D01*
X145325211Y-116492334D01*
X145325228Y-116492337D01*
X145333656Y-116494206D01*
X145362827Y-116502022D01*
X145362830Y-116502022D01*
X145371193Y-116504263D01*
X145409896Y-116500877D01*
X145418525Y-116500500D01*
X159434694Y-116500500D01*
X159443323Y-116500877D01*
X159482035Y-116504264D01*
X159519578Y-116494204D01*
X159528012Y-116492334D01*
X159557745Y-116487092D01*
X159557747Y-116487091D01*
X159566273Y-116485588D01*
X159573772Y-116481258D01*
X159579257Y-116479262D01*
X159584544Y-116476796D01*
X159592912Y-116474554D01*
X159624739Y-116452268D01*
X159632023Y-116447627D01*
X159632035Y-116447620D01*
X159665683Y-116428194D01*
X159690659Y-116398429D01*
X159696493Y-116392061D01*
X171535879Y-104552675D01*
X171590396Y-104524898D01*
X171650828Y-104534469D01*
X171687455Y-104571098D01*
X171688833Y-104570097D01*
X171693414Y-104576403D01*
X171696950Y-104583342D01*
X171786658Y-104673050D01*
X171793595Y-104676585D01*
X171793597Y-104676586D01*
X171881842Y-104721549D01*
X171899696Y-104730646D01*
X171907390Y-104731865D01*
X171907391Y-104731865D01*
X172017303Y-104749273D01*
X172025000Y-104750492D01*
X172032697Y-104749273D01*
X172142609Y-104731865D01*
X172142610Y-104731865D01*
X172150304Y-104730646D01*
X172247170Y-104681290D01*
X172292115Y-104670500D01*
X174643725Y-104670500D01*
X174701916Y-104689407D01*
X174737880Y-104738907D01*
X174737880Y-104800093D01*
X174701916Y-104849593D01*
X174688670Y-104857709D01*
X174618602Y-104893411D01*
X174618598Y-104893414D01*
X174611658Y-104896950D01*
X174521950Y-104986658D01*
X174518415Y-104993595D01*
X174518414Y-104993597D01*
X174470776Y-105087092D01*
X174464354Y-105099696D01*
X174463135Y-105107390D01*
X174463135Y-105107391D01*
X174454507Y-105161865D01*
X174444508Y-105225000D01*
X174464354Y-105350304D01*
X174521950Y-105463342D01*
X174611658Y-105553050D01*
X174618595Y-105556585D01*
X174618597Y-105556586D01*
X174717756Y-105607110D01*
X174724696Y-105610646D01*
X174732388Y-105611864D01*
X174732390Y-105611865D01*
X174753076Y-105615141D01*
X174807592Y-105642918D01*
X185056731Y-115892057D01*
X185062565Y-115898424D01*
X185087545Y-115928194D01*
X185121205Y-115947627D01*
X185128489Y-115952268D01*
X185160316Y-115974554D01*
X185168684Y-115976796D01*
X185173971Y-115979262D01*
X185179456Y-115981258D01*
X185186955Y-115985588D01*
X185195481Y-115987091D01*
X185195483Y-115987092D01*
X185225216Y-115992334D01*
X185233650Y-115994204D01*
X185271193Y-116004264D01*
X185309908Y-116000877D01*
X185318537Y-116000500D01*
X205607885Y-116000500D01*
X205652830Y-116011290D01*
X205749696Y-116060646D01*
X205757390Y-116061865D01*
X205757391Y-116061865D01*
X205867303Y-116079273D01*
X205875000Y-116080492D01*
X205882697Y-116079273D01*
X205992609Y-116061865D01*
X205992610Y-116061865D01*
X206000304Y-116060646D01*
X206007244Y-116057110D01*
X206106403Y-116006586D01*
X206106405Y-116006585D01*
X206113342Y-116003050D01*
X206203050Y-115913342D01*
X206213896Y-115892057D01*
X206257110Y-115807244D01*
X206257110Y-115807243D01*
X206260646Y-115800304D01*
X206280492Y-115675000D01*
X206260646Y-115549696D01*
X206203050Y-115436658D01*
X206113342Y-115346950D01*
X206106405Y-115343415D01*
X206106403Y-115343414D01*
X206007244Y-115292890D01*
X206007243Y-115292890D01*
X206000304Y-115289354D01*
X205992610Y-115288135D01*
X205992609Y-115288135D01*
X205882697Y-115270727D01*
X205875000Y-115269508D01*
X205867303Y-115270727D01*
X205757391Y-115288135D01*
X205757390Y-115288135D01*
X205749696Y-115289354D01*
X205742757Y-115292890D01*
X205742756Y-115292890D01*
X205652830Y-115338710D01*
X205607885Y-115349500D01*
X185475834Y-115349500D01*
X185417643Y-115330593D01*
X185405830Y-115320504D01*
X175267918Y-105182592D01*
X175240141Y-105128076D01*
X175236865Y-105107390D01*
X175236864Y-105107388D01*
X175235646Y-105099696D01*
X175229224Y-105087092D01*
X175181586Y-104993597D01*
X175181585Y-104993595D01*
X175178050Y-104986658D01*
X175088342Y-104896950D01*
X175081402Y-104893414D01*
X175081398Y-104893411D01*
X175011330Y-104857709D01*
X174968065Y-104814445D01*
X174958494Y-104754013D01*
X174986272Y-104699496D01*
X175040788Y-104671719D01*
X175056275Y-104670500D01*
X178536466Y-104670500D01*
X178545095Y-104670877D01*
X178583807Y-104674264D01*
X178593305Y-104671719D01*
X178621349Y-104664204D01*
X178629784Y-104662334D01*
X178659517Y-104657092D01*
X178659519Y-104657091D01*
X178668045Y-104655588D01*
X178675544Y-104651258D01*
X178681029Y-104649262D01*
X178686316Y-104646796D01*
X178694684Y-104644554D01*
X178726511Y-104622268D01*
X178733795Y-104617627D01*
X178767455Y-104598194D01*
X178792431Y-104568429D01*
X178798265Y-104562061D01*
X179980678Y-103379649D01*
X180035195Y-103351872D01*
X180052495Y-103350670D01*
X180070029Y-103350992D01*
X180105446Y-103351641D01*
X180105448Y-103351641D01*
X180112499Y-103351770D01*
X180119302Y-103349915D01*
X180119304Y-103349915D01*
X180201681Y-103327456D01*
X180250817Y-103314060D01*
X180372991Y-103239045D01*
X180406731Y-103201770D01*
X180464468Y-103137982D01*
X180469200Y-103132754D01*
X180531710Y-103003733D01*
X180535891Y-102978887D01*
X180554862Y-102866124D01*
X180554862Y-102866120D01*
X180555496Y-102862354D01*
X180555647Y-102850000D01*
X180535323Y-102708082D01*
X180488226Y-102604496D01*
X180478905Y-102583996D01*
X180478904Y-102583995D01*
X180475984Y-102577572D01*
X180382400Y-102468963D01*
X180262095Y-102390985D01*
X180124739Y-102349907D01*
X180041497Y-102349398D01*
X179988427Y-102349074D01*
X179988426Y-102349074D01*
X179981376Y-102349031D01*
X179974599Y-102350968D01*
X179974598Y-102350968D01*
X179850309Y-102386490D01*
X179850307Y-102386491D01*
X179843529Y-102388428D01*
X179722280Y-102464930D01*
X179717613Y-102470214D01*
X179717611Y-102470216D01*
X179632044Y-102567103D01*
X179632042Y-102567105D01*
X179627377Y-102572388D01*
X179566447Y-102702163D01*
X179565362Y-102709132D01*
X179565361Y-102709135D01*
X179552897Y-102789191D01*
X179544391Y-102843823D01*
X179545306Y-102850822D01*
X179545260Y-102854607D01*
X179525643Y-102912563D01*
X179516271Y-102923402D01*
X178449170Y-103990504D01*
X178394653Y-104018281D01*
X178379166Y-104019500D01*
X174847775Y-104019500D01*
X174789584Y-104000593D01*
X174753620Y-103951093D01*
X174753620Y-103889907D01*
X174759566Y-103875555D01*
X174807108Y-103782250D01*
X174807110Y-103782244D01*
X174810646Y-103775304D01*
X174823671Y-103693070D01*
X174829273Y-103657697D01*
X174830492Y-103650000D01*
X174813064Y-103539963D01*
X174811865Y-103532391D01*
X174811865Y-103532390D01*
X174810646Y-103524696D01*
X174801594Y-103506930D01*
X174756586Y-103418597D01*
X174756585Y-103418595D01*
X174753050Y-103411658D01*
X174663342Y-103321950D01*
X174656405Y-103318415D01*
X174656403Y-103318414D01*
X174557244Y-103267890D01*
X174557243Y-103267890D01*
X174550304Y-103264354D01*
X174542610Y-103263135D01*
X174542609Y-103263135D01*
X174432697Y-103245727D01*
X174425000Y-103244508D01*
X174417303Y-103245727D01*
X174307391Y-103263135D01*
X174307390Y-103263135D01*
X174299696Y-103264354D01*
X174292757Y-103267890D01*
X174292756Y-103267890D01*
X174202830Y-103313710D01*
X174157885Y-103324500D01*
X172224835Y-103324500D01*
X172166644Y-103305593D01*
X172130680Y-103256093D01*
X172130680Y-103194907D01*
X172154831Y-103155496D01*
X174005831Y-101304496D01*
X174060348Y-101276719D01*
X174075835Y-101275500D01*
X175957885Y-101275500D01*
X176002830Y-101286290D01*
X176099696Y-101335646D01*
X176107390Y-101336865D01*
X176107391Y-101336865D01*
X176217303Y-101354273D01*
X176225000Y-101355492D01*
X176232697Y-101354273D01*
X176342609Y-101336865D01*
X176342610Y-101336865D01*
X176350304Y-101335646D01*
X176408091Y-101306202D01*
X176456403Y-101281586D01*
X176456405Y-101281585D01*
X176463342Y-101278050D01*
X176553050Y-101188342D01*
X176570634Y-101153833D01*
X176607110Y-101082244D01*
X176607110Y-101082243D01*
X176610646Y-101075304D01*
X176630492Y-100950000D01*
X176610646Y-100824696D01*
X176563890Y-100732932D01*
X176556586Y-100718597D01*
X176556585Y-100718595D01*
X176553050Y-100711658D01*
X176463342Y-100621950D01*
X176456405Y-100618415D01*
X176456403Y-100618414D01*
X176357244Y-100567890D01*
X176357243Y-100567890D01*
X176350304Y-100564354D01*
X176342610Y-100563135D01*
X176342609Y-100563135D01*
X176232697Y-100545727D01*
X176225000Y-100544508D01*
X176217303Y-100545727D01*
X176107391Y-100563135D01*
X176107390Y-100563135D01*
X176099696Y-100564354D01*
X176092757Y-100567890D01*
X176092756Y-100567890D01*
X176058960Y-100585110D01*
X176031555Y-100599074D01*
X176002830Y-100613710D01*
X175957885Y-100624500D01*
X173918522Y-100624500D01*
X173909893Y-100624123D01*
X173879822Y-100621492D01*
X173871193Y-100620737D01*
X173833657Y-100630795D01*
X173825231Y-100632663D01*
X173816038Y-100634284D01*
X173786955Y-100639412D01*
X173779450Y-100643745D01*
X173773973Y-100645738D01*
X173768682Y-100648205D01*
X173760316Y-100650447D01*
X173728484Y-100672736D01*
X173721206Y-100677372D01*
X173695044Y-100692476D01*
X173695042Y-100692477D01*
X173687545Y-100696806D01*
X173679703Y-100706152D01*
X173662575Y-100726564D01*
X173656741Y-100732932D01*
X171997483Y-102392191D01*
X170357592Y-104032082D01*
X170303076Y-104059859D01*
X170282390Y-104063135D01*
X170282388Y-104063136D01*
X170274696Y-104064354D01*
X170267757Y-104067890D01*
X170267756Y-104067890D01*
X170168597Y-104118414D01*
X170168595Y-104118415D01*
X170161658Y-104121950D01*
X170071950Y-104211658D01*
X170068415Y-104218595D01*
X170068414Y-104218597D01*
X170018722Y-104316124D01*
X170014354Y-104324696D01*
X170013135Y-104332390D01*
X170013135Y-104332391D01*
X170007063Y-104370727D01*
X169994508Y-104450000D01*
X169995727Y-104457697D01*
X170012257Y-104562061D01*
X170014354Y-104575304D01*
X170017890Y-104582243D01*
X170017890Y-104582244D01*
X170068357Y-104681290D01*
X170071950Y-104688342D01*
X170161658Y-104778050D01*
X170168596Y-104781585D01*
X170168600Y-104781588D01*
X170191417Y-104793214D01*
X170234681Y-104836479D01*
X170244252Y-104896911D01*
X170216475Y-104951427D01*
X159347398Y-115820504D01*
X159292881Y-115848281D01*
X159277394Y-115849500D01*
X156810552Y-115849500D01*
X156752361Y-115830593D01*
X156716397Y-115781093D01*
X156716397Y-115719907D01*
X156740548Y-115680496D01*
X172304200Y-100116844D01*
X172310568Y-100111009D01*
X172316703Y-100105861D01*
X172340337Y-100086030D01*
X172359772Y-100052367D01*
X172364411Y-100045086D01*
X172375220Y-100029649D01*
X172386697Y-100013259D01*
X172388939Y-100004892D01*
X172391402Y-99999611D01*
X172393400Y-99994121D01*
X172397731Y-99986620D01*
X172404479Y-99948353D01*
X172406348Y-99939924D01*
X172414166Y-99910745D01*
X172416407Y-99902381D01*
X172413020Y-99863665D01*
X172412643Y-99855037D01*
X172412643Y-94411977D01*
X172431550Y-94353786D01*
X172481050Y-94317822D01*
X172542236Y-94317822D01*
X172581647Y-94341973D01*
X191356731Y-113117057D01*
X191362565Y-113123424D01*
X191387545Y-113153194D01*
X191421205Y-113172627D01*
X191428489Y-113177268D01*
X191460316Y-113199554D01*
X191468684Y-113201796D01*
X191473971Y-113204262D01*
X191479456Y-113206258D01*
X191486955Y-113210588D01*
X191495481Y-113212091D01*
X191495483Y-113212092D01*
X191525216Y-113217334D01*
X191533650Y-113219204D01*
X191571193Y-113229264D01*
X191579822Y-113228509D01*
X191585069Y-113228050D01*
X191609905Y-113225877D01*
X191618534Y-113225500D01*
X204182885Y-113225500D01*
X204227830Y-113236290D01*
X204324696Y-113285646D01*
X204332390Y-113286865D01*
X204332391Y-113286865D01*
X204442303Y-113304273D01*
X204450000Y-113305492D01*
X204457697Y-113304273D01*
X204567609Y-113286865D01*
X204567610Y-113286865D01*
X204575304Y-113285646D01*
X204582244Y-113282110D01*
X204681403Y-113231586D01*
X204681405Y-113231585D01*
X204688342Y-113228050D01*
X204778050Y-113138342D01*
X204788896Y-113117057D01*
X204832110Y-113032244D01*
X204832110Y-113032243D01*
X204835646Y-113025304D01*
X204855492Y-112900000D01*
X204835646Y-112774696D01*
X204778050Y-112661658D01*
X204688342Y-112571950D01*
X204681405Y-112568415D01*
X204681403Y-112568414D01*
X204582244Y-112517890D01*
X204582243Y-112517890D01*
X204575304Y-112514354D01*
X204567610Y-112513135D01*
X204567609Y-112513135D01*
X204457697Y-112495727D01*
X204450000Y-112494508D01*
X204442303Y-112495727D01*
X204332391Y-112513135D01*
X204332390Y-112513135D01*
X204324696Y-112514354D01*
X204317757Y-112517890D01*
X204317756Y-112517890D01*
X204227830Y-112563710D01*
X204182885Y-112574500D01*
X191775834Y-112574500D01*
X191717643Y-112555593D01*
X191705830Y-112545504D01*
X171343269Y-92182943D01*
X171337434Y-92176575D01*
X171324917Y-92161658D01*
X171312455Y-92146806D01*
X171278792Y-92127371D01*
X171271511Y-92122732D01*
X171267756Y-92120103D01*
X171239684Y-92100446D01*
X171231316Y-92098204D01*
X171226029Y-92095738D01*
X171220544Y-92093742D01*
X171213045Y-92089412D01*
X171204519Y-92087909D01*
X171204517Y-92087908D01*
X171174784Y-92082666D01*
X171166349Y-92080796D01*
X171137174Y-92072978D01*
X171128807Y-92070736D01*
X171103182Y-92072978D01*
X171090095Y-92074123D01*
X171081466Y-92074500D01*
X170517115Y-92074500D01*
X170472170Y-92063710D01*
X170382244Y-92017890D01*
X170382243Y-92017890D01*
X170375304Y-92014354D01*
X170367610Y-92013135D01*
X170367609Y-92013135D01*
X170257697Y-91995727D01*
X170250000Y-91994508D01*
X170242303Y-91995727D01*
X170132391Y-92013135D01*
X170132390Y-92013135D01*
X170124696Y-92014354D01*
X170117757Y-92017890D01*
X170117756Y-92017890D01*
X170018597Y-92068414D01*
X170018595Y-92068415D01*
X170011658Y-92071950D01*
X169921950Y-92161658D01*
X169918415Y-92168595D01*
X169918414Y-92168597D01*
X169906004Y-92192953D01*
X169864354Y-92274696D01*
X169863135Y-92282390D01*
X169863135Y-92282391D01*
X169853297Y-92344508D01*
X169844508Y-92400000D01*
X169845727Y-92407697D01*
X169862193Y-92511658D01*
X169864354Y-92525304D01*
X169867890Y-92532243D01*
X169867890Y-92532244D01*
X169908194Y-92611344D01*
X169921950Y-92638342D01*
X170011658Y-92728050D01*
X170018595Y-92731585D01*
X170018597Y-92731586D01*
X170069843Y-92757697D01*
X170124696Y-92785646D01*
X170132390Y-92786865D01*
X170132391Y-92786865D01*
X170242303Y-92804273D01*
X170250000Y-92805492D01*
X170257697Y-92804273D01*
X170367609Y-92786865D01*
X170367610Y-92786865D01*
X170375304Y-92785646D01*
X170472170Y-92736290D01*
X170517115Y-92725500D01*
X170924166Y-92725500D01*
X170982357Y-92744407D01*
X170994170Y-92754496D01*
X171879457Y-93639783D01*
X171907234Y-93694300D01*
X171897663Y-93754732D01*
X171861043Y-93791352D01*
X171862046Y-93792732D01*
X171855740Y-93797313D01*
X171848801Y-93800849D01*
X171759093Y-93890557D01*
X171755558Y-93897494D01*
X171755557Y-93897496D01*
X171705033Y-93996655D01*
X171701497Y-94003595D01*
X171700278Y-94011289D01*
X171700278Y-94011290D01*
X171691558Y-94066349D01*
X171681651Y-94128899D01*
X171682870Y-94136596D01*
X171699765Y-94243265D01*
X171701497Y-94254203D01*
X171705033Y-94261142D01*
X171705033Y-94261143D01*
X171750853Y-94351069D01*
X171761643Y-94396014D01*
X171761643Y-99697741D01*
X171742736Y-99755932D01*
X171732647Y-99767745D01*
X171276413Y-100223979D01*
X171221896Y-100251756D01*
X171161464Y-100242185D01*
X171118199Y-100198920D01*
X171107409Y-100153975D01*
X171107409Y-94193701D01*
X171126316Y-94135510D01*
X171144860Y-94116967D01*
X171147566Y-94115588D01*
X171237274Y-94025880D01*
X171243466Y-94013729D01*
X171291334Y-93919782D01*
X171291334Y-93919781D01*
X171294870Y-93912842D01*
X171296465Y-93902776D01*
X171313497Y-93795235D01*
X171314716Y-93787538D01*
X171307702Y-93743253D01*
X171296089Y-93669929D01*
X171296089Y-93669928D01*
X171294870Y-93662234D01*
X171290737Y-93654122D01*
X171240810Y-93556135D01*
X171240809Y-93556133D01*
X171237274Y-93549196D01*
X171147566Y-93459488D01*
X171140629Y-93455953D01*
X171140627Y-93455952D01*
X171041468Y-93405428D01*
X171041467Y-93405428D01*
X171034528Y-93401892D01*
X171026834Y-93400673D01*
X171026833Y-93400673D01*
X170916921Y-93383265D01*
X170909224Y-93382046D01*
X170901527Y-93383265D01*
X170791615Y-93400673D01*
X170791614Y-93400673D01*
X170783920Y-93401892D01*
X170776981Y-93405428D01*
X170776980Y-93405428D01*
X170776519Y-93405663D01*
X170776008Y-93405744D01*
X170769566Y-93407837D01*
X170769235Y-93406817D01*
X170716087Y-93415234D01*
X170661570Y-93387457D01*
X170660733Y-93386476D01*
X170660439Y-93385900D01*
X170570731Y-93296192D01*
X170563794Y-93292657D01*
X170563792Y-93292656D01*
X170464633Y-93242132D01*
X170464632Y-93242132D01*
X170457693Y-93238596D01*
X170449999Y-93237377D01*
X170449998Y-93237377D01*
X170340086Y-93219969D01*
X170332389Y-93218750D01*
X170324692Y-93219969D01*
X170214780Y-93237377D01*
X170214779Y-93237377D01*
X170207085Y-93238596D01*
X170200146Y-93242132D01*
X170200145Y-93242132D01*
X170100986Y-93292656D01*
X170100984Y-93292657D01*
X170094047Y-93296192D01*
X170004339Y-93385900D01*
X170000804Y-93392837D01*
X170000803Y-93392839D01*
X169950279Y-93491998D01*
X169946743Y-93498938D01*
X169945525Y-93506630D01*
X169945524Y-93506632D01*
X169942248Y-93527318D01*
X169914471Y-93581834D01*
X169066321Y-94429984D01*
X169059954Y-94435818D01*
X169030184Y-94460798D01*
X169010751Y-94494458D01*
X169006110Y-94501742D01*
X168983824Y-94533569D01*
X168981582Y-94541937D01*
X168979116Y-94547224D01*
X168977120Y-94552709D01*
X168972790Y-94560208D01*
X168971287Y-94568734D01*
X168971286Y-94568736D01*
X168966044Y-94598469D01*
X168964174Y-94606903D01*
X168954114Y-94644446D01*
X168954869Y-94653075D01*
X168957501Y-94683158D01*
X168957878Y-94691787D01*
X168957878Y-99865788D01*
X168938971Y-99923979D01*
X168928882Y-99935792D01*
X161919170Y-106945504D01*
X161864653Y-106973281D01*
X161849166Y-106974500D01*
X145343534Y-106974500D01*
X145334905Y-106974123D01*
X145304822Y-106971491D01*
X145296193Y-106970736D01*
X145287826Y-106972978D01*
X145258651Y-106980796D01*
X145250216Y-106982666D01*
X145220483Y-106987908D01*
X145220481Y-106987909D01*
X145211955Y-106989412D01*
X145204456Y-106993742D01*
X145198971Y-106995738D01*
X145193684Y-106998204D01*
X145185316Y-107000446D01*
X145155944Y-107021013D01*
X145153489Y-107022732D01*
X145146208Y-107027371D01*
X145112545Y-107046806D01*
X145106978Y-107053441D01*
X145087569Y-107076571D01*
X145081735Y-107082939D01*
X142657592Y-109507082D01*
X142603076Y-109534859D01*
X142582390Y-109538135D01*
X142582388Y-109538136D01*
X142574696Y-109539354D01*
X142567757Y-109542890D01*
X142567756Y-109542890D01*
X142468597Y-109593414D01*
X142468595Y-109593415D01*
X142461658Y-109596950D01*
X142371950Y-109686658D01*
X142314354Y-109799696D01*
X142313135Y-109807390D01*
X142313135Y-109807391D01*
X142297248Y-109907697D01*
X142294508Y-109925000D01*
X132000000Y-109925000D01*
X132000000Y-106469748D01*
X148424500Y-106469748D01*
X148436133Y-106528231D01*
X148480448Y-106594552D01*
X148546769Y-106638867D01*
X148556332Y-106640769D01*
X148556334Y-106640770D01*
X148579005Y-106645279D01*
X148605252Y-106650500D01*
X150244748Y-106650500D01*
X150270995Y-106645279D01*
X150293666Y-106640770D01*
X150293668Y-106640769D01*
X150303231Y-106638867D01*
X150369552Y-106594552D01*
X150413867Y-106528231D01*
X150425500Y-106469748D01*
X150425500Y-105949500D01*
X150444407Y-105891309D01*
X150493907Y-105855345D01*
X150524500Y-105850500D01*
X151044748Y-105850500D01*
X151070995Y-105845279D01*
X151093666Y-105840770D01*
X151093668Y-105840769D01*
X151103231Y-105838867D01*
X151169552Y-105794552D01*
X151213867Y-105728231D01*
X151218077Y-105707069D01*
X151224552Y-105674512D01*
X151225500Y-105669748D01*
X151225500Y-104030252D01*
X151220279Y-104004005D01*
X151215770Y-103981334D01*
X151215769Y-103981332D01*
X151213867Y-103971769D01*
X151169552Y-103905448D01*
X151103231Y-103861133D01*
X151093668Y-103859231D01*
X151093666Y-103859230D01*
X151070995Y-103854721D01*
X151044748Y-103849500D01*
X148605252Y-103849500D01*
X148579005Y-103854721D01*
X148556334Y-103859230D01*
X148556332Y-103859231D01*
X148546769Y-103861133D01*
X148480448Y-103905448D01*
X148436133Y-103971769D01*
X148434231Y-103981332D01*
X148434230Y-103981334D01*
X148429721Y-104004005D01*
X148424500Y-104030252D01*
X148424500Y-106469748D01*
X132000000Y-106469748D01*
X132000000Y-104343823D01*
X146244391Y-104343823D01*
X146245306Y-104350820D01*
X146245306Y-104350821D01*
X146246814Y-104362354D01*
X146262980Y-104485979D01*
X146265821Y-104492435D01*
X146265821Y-104492436D01*
X146314261Y-104602523D01*
X146320720Y-104617203D01*
X146359288Y-104663085D01*
X146408431Y-104721549D01*
X146408434Y-104721551D01*
X146412970Y-104726948D01*
X146418841Y-104730856D01*
X146418842Y-104730857D01*
X146431143Y-104739045D01*
X146532313Y-104806390D01*
X146625958Y-104835646D01*
X146662425Y-104847039D01*
X146662426Y-104847039D01*
X146669157Y-104849142D01*
X146740828Y-104850456D01*
X146805445Y-104851641D01*
X146805447Y-104851641D01*
X146812499Y-104851770D01*
X146819302Y-104849915D01*
X146819304Y-104849915D01*
X146930834Y-104819508D01*
X146950817Y-104814060D01*
X147072991Y-104739045D01*
X147080403Y-104730857D01*
X147164468Y-104637982D01*
X147169200Y-104632754D01*
X147231710Y-104503733D01*
X147235607Y-104480575D01*
X147254862Y-104366124D01*
X147254862Y-104366120D01*
X147255496Y-104362354D01*
X147255647Y-104350000D01*
X147256136Y-104350006D01*
X147270601Y-104293164D01*
X147284299Y-104276027D01*
X150455830Y-101104496D01*
X150510347Y-101076719D01*
X150525834Y-101075500D01*
X151625500Y-101075500D01*
X151683691Y-101094407D01*
X151719655Y-101143907D01*
X151724500Y-101174500D01*
X151724500Y-101419748D01*
X151725448Y-101424512D01*
X151736133Y-101478231D01*
X151732836Y-101478887D01*
X151736203Y-101521664D01*
X151736133Y-101521769D01*
X151724500Y-101580252D01*
X151724500Y-101919748D01*
X151733015Y-101962555D01*
X151736133Y-101978231D01*
X151732836Y-101978887D01*
X151736203Y-102021664D01*
X151736133Y-102021769D01*
X151724500Y-102080252D01*
X151724500Y-102419748D01*
X151734539Y-102470216D01*
X151736133Y-102478231D01*
X151732836Y-102478887D01*
X151736203Y-102521664D01*
X151736133Y-102521769D01*
X151724500Y-102580252D01*
X151724500Y-102919748D01*
X151732655Y-102960746D01*
X151736133Y-102978231D01*
X151732836Y-102978887D01*
X151736203Y-103021664D01*
X151736133Y-103021769D01*
X151724500Y-103080252D01*
X151724500Y-103419748D01*
X151736133Y-103478231D01*
X151780448Y-103544552D01*
X151846769Y-103588867D01*
X151856332Y-103590769D01*
X151856334Y-103590770D01*
X151874987Y-103594480D01*
X151905252Y-103600500D01*
X152374166Y-103600500D01*
X152432357Y-103619407D01*
X152444170Y-103629496D01*
X153485173Y-104670500D01*
X154521742Y-105707069D01*
X154527565Y-105713424D01*
X154552545Y-105743194D01*
X154560042Y-105747523D01*
X154560044Y-105747524D01*
X154586206Y-105762628D01*
X154593484Y-105767264D01*
X154625316Y-105789553D01*
X154633682Y-105791795D01*
X154638973Y-105794262D01*
X154644450Y-105796255D01*
X154651955Y-105800588D01*
X154681038Y-105805716D01*
X154690231Y-105807337D01*
X154698657Y-105809205D01*
X154736193Y-105819263D01*
X154774896Y-105815877D01*
X154783525Y-105815500D01*
X161680385Y-105815500D01*
X161725330Y-105826290D01*
X161822196Y-105875646D01*
X161829890Y-105876865D01*
X161829891Y-105876865D01*
X161939803Y-105894273D01*
X161947500Y-105895492D01*
X161955197Y-105894273D01*
X162065109Y-105876865D01*
X162065110Y-105876865D01*
X162072804Y-105875646D01*
X162122156Y-105850500D01*
X162178903Y-105821586D01*
X162178905Y-105821585D01*
X162185842Y-105818050D01*
X162275550Y-105728342D01*
X162280481Y-105718666D01*
X162329610Y-105622244D01*
X162329610Y-105622243D01*
X162333146Y-105615304D01*
X162352992Y-105490000D01*
X162333146Y-105364696D01*
X162275550Y-105251658D01*
X162185842Y-105161950D01*
X162178905Y-105158415D01*
X162178903Y-105158414D01*
X162079744Y-105107890D01*
X162079743Y-105107890D01*
X162072804Y-105104354D01*
X162065110Y-105103135D01*
X162065109Y-105103135D01*
X161955197Y-105085727D01*
X161947500Y-105084508D01*
X161939803Y-105085727D01*
X161829891Y-105103135D01*
X161829890Y-105103135D01*
X161822196Y-105104354D01*
X161815257Y-105107890D01*
X161815256Y-105107890D01*
X161725330Y-105153710D01*
X161680385Y-105164500D01*
X154940835Y-105164500D01*
X154882644Y-105145593D01*
X154870831Y-105135504D01*
X154101451Y-104366124D01*
X153329806Y-103594480D01*
X153302029Y-103539963D01*
X153308346Y-103486591D01*
X153308452Y-103486335D01*
X153313867Y-103478231D01*
X153325500Y-103419748D01*
X153325500Y-103174500D01*
X153344407Y-103116309D01*
X153393907Y-103080345D01*
X153424500Y-103075500D01*
X154804166Y-103075500D01*
X154862357Y-103094407D01*
X154874170Y-103104496D01*
X156250249Y-104480575D01*
X156270861Y-104510707D01*
X156291461Y-104557523D01*
X156295720Y-104567203D01*
X156333453Y-104612092D01*
X156383431Y-104671549D01*
X156383434Y-104671551D01*
X156387970Y-104676948D01*
X156393841Y-104680856D01*
X156393842Y-104680857D01*
X156402868Y-104686865D01*
X156507313Y-104756390D01*
X156587969Y-104781588D01*
X156637425Y-104797039D01*
X156637426Y-104797039D01*
X156644157Y-104799142D01*
X156715828Y-104800456D01*
X156780445Y-104801641D01*
X156780447Y-104801641D01*
X156787499Y-104801770D01*
X156794302Y-104799915D01*
X156794304Y-104799915D01*
X156869503Y-104779413D01*
X156925817Y-104764060D01*
X157047991Y-104689045D01*
X157055011Y-104681290D01*
X157139468Y-104587982D01*
X157144200Y-104582754D01*
X157206710Y-104453733D01*
X157210326Y-104432244D01*
X157229862Y-104316124D01*
X157229862Y-104316120D01*
X157230496Y-104312354D01*
X157230647Y-104300000D01*
X157969508Y-104300000D01*
X157970727Y-104307697D01*
X157978779Y-104358533D01*
X157989354Y-104425304D01*
X157992890Y-104432243D01*
X157992890Y-104432244D01*
X158036107Y-104517061D01*
X158046950Y-104538342D01*
X158136658Y-104628050D01*
X158143595Y-104631585D01*
X158143597Y-104631586D01*
X158242756Y-104682110D01*
X158249696Y-104685646D01*
X158257390Y-104686865D01*
X158257391Y-104686865D01*
X158367303Y-104704273D01*
X158375000Y-104705492D01*
X158382697Y-104704273D01*
X158492609Y-104686865D01*
X158492610Y-104686865D01*
X158500304Y-104685646D01*
X158508632Y-104681403D01*
X158560866Y-104654788D01*
X158597170Y-104636290D01*
X158642115Y-104625500D01*
X161741466Y-104625500D01*
X161750095Y-104625877D01*
X161788807Y-104629264D01*
X161799462Y-104626409D01*
X161826349Y-104619204D01*
X161834784Y-104617334D01*
X161864517Y-104612092D01*
X161864519Y-104612091D01*
X161873045Y-104610588D01*
X161880544Y-104606258D01*
X161886029Y-104604262D01*
X161891316Y-104601796D01*
X161899684Y-104599554D01*
X161931511Y-104577268D01*
X161938795Y-104572627D01*
X161972455Y-104553194D01*
X161997431Y-104523429D01*
X162003265Y-104517061D01*
X166522408Y-99997918D01*
X166576924Y-99970141D01*
X166597610Y-99966865D01*
X166597612Y-99966864D01*
X166605304Y-99965646D01*
X166615657Y-99960371D01*
X166711403Y-99911586D01*
X166711405Y-99911585D01*
X166718342Y-99908050D01*
X166808050Y-99818342D01*
X166812485Y-99809639D01*
X166862110Y-99712244D01*
X166862110Y-99712243D01*
X166865646Y-99705304D01*
X166867292Y-99694915D01*
X166884273Y-99587697D01*
X166885492Y-99580000D01*
X166884273Y-99572303D01*
X166866865Y-99462391D01*
X166866865Y-99462390D01*
X166865646Y-99454696D01*
X166836290Y-99397081D01*
X166825500Y-99352137D01*
X166825500Y-93017115D01*
X166836290Y-92972170D01*
X166882110Y-92882244D01*
X166882110Y-92882243D01*
X166885646Y-92875304D01*
X166888242Y-92858917D01*
X166904273Y-92757697D01*
X166905492Y-92750000D01*
X166902576Y-92731586D01*
X166886865Y-92632391D01*
X166886865Y-92632390D01*
X166885646Y-92624696D01*
X166882110Y-92617756D01*
X166831586Y-92518597D01*
X166831585Y-92518595D01*
X166828050Y-92511658D01*
X166738342Y-92421950D01*
X166731405Y-92418415D01*
X166731403Y-92418414D01*
X166632244Y-92367890D01*
X166632243Y-92367890D01*
X166625304Y-92364354D01*
X166617610Y-92363135D01*
X166617609Y-92363135D01*
X166507697Y-92345727D01*
X166500000Y-92344508D01*
X166492303Y-92345727D01*
X166382391Y-92363135D01*
X166382390Y-92363135D01*
X166374696Y-92364354D01*
X166367757Y-92367890D01*
X166367756Y-92367890D01*
X166268597Y-92418414D01*
X166268595Y-92418415D01*
X166261658Y-92421950D01*
X166171950Y-92511658D01*
X166168415Y-92518595D01*
X166168414Y-92518597D01*
X166117890Y-92617756D01*
X166114354Y-92624696D01*
X166113135Y-92632390D01*
X166113135Y-92632391D01*
X166097424Y-92731586D01*
X166094508Y-92750000D01*
X166095727Y-92757697D01*
X166111759Y-92858917D01*
X166114354Y-92875304D01*
X166117890Y-92882243D01*
X166117890Y-92882244D01*
X166163710Y-92972170D01*
X166174500Y-93017115D01*
X166174500Y-99280526D01*
X166155931Y-99337677D01*
X166151950Y-99341658D01*
X166144292Y-99356688D01*
X166115238Y-99413710D01*
X166094354Y-99454696D01*
X166093136Y-99462388D01*
X166093135Y-99462390D01*
X166089859Y-99483076D01*
X166062082Y-99537592D01*
X161654170Y-103945504D01*
X161599653Y-103973281D01*
X161584166Y-103974500D01*
X158642115Y-103974500D01*
X158597170Y-103963710D01*
X158507244Y-103917890D01*
X158507243Y-103917890D01*
X158500304Y-103914354D01*
X158492610Y-103913135D01*
X158492609Y-103913135D01*
X158382697Y-103895727D01*
X158375000Y-103894508D01*
X158367303Y-103895727D01*
X158257391Y-103913135D01*
X158257390Y-103913135D01*
X158249696Y-103914354D01*
X158242757Y-103917890D01*
X158242756Y-103917890D01*
X158143597Y-103968414D01*
X158143595Y-103968415D01*
X158136658Y-103971950D01*
X158046950Y-104061658D01*
X158043415Y-104068595D01*
X158043414Y-104068597D01*
X158013424Y-104127456D01*
X157989354Y-104174696D01*
X157988135Y-104182390D01*
X157988135Y-104182391D01*
X157984372Y-104206152D01*
X157969508Y-104300000D01*
X157230647Y-104300000D01*
X157210323Y-104158082D01*
X157174263Y-104078771D01*
X157153905Y-104033996D01*
X157153904Y-104033995D01*
X157150984Y-104027572D01*
X157057400Y-103918963D01*
X156937095Y-103840985D01*
X156799739Y-103799907D01*
X156716497Y-103799398D01*
X156663427Y-103799074D01*
X156663426Y-103799074D01*
X156656376Y-103799031D01*
X156649599Y-103800968D01*
X156649598Y-103800968D01*
X156582496Y-103820146D01*
X156521350Y-103817957D01*
X156485287Y-103794961D01*
X155434830Y-102744504D01*
X155407053Y-102689987D01*
X155416624Y-102629555D01*
X155459889Y-102586290D01*
X155504834Y-102575500D01*
X155884166Y-102575500D01*
X155942357Y-102594407D01*
X155954170Y-102604496D01*
X156265963Y-102916289D01*
X156286574Y-102946420D01*
X156292878Y-102960746D01*
X156292881Y-102960750D01*
X156295720Y-102967203D01*
X156308792Y-102982754D01*
X156383431Y-103071549D01*
X156383434Y-103071551D01*
X156387970Y-103076948D01*
X156393841Y-103080856D01*
X156393842Y-103080857D01*
X156400231Y-103085110D01*
X156507313Y-103156390D01*
X156607920Y-103187821D01*
X156637425Y-103197039D01*
X156637426Y-103197039D01*
X156644157Y-103199142D01*
X156715828Y-103200456D01*
X156780445Y-103201641D01*
X156780447Y-103201641D01*
X156787499Y-103201770D01*
X156794302Y-103199915D01*
X156794304Y-103199915D01*
X156869503Y-103179413D01*
X156925817Y-103164060D01*
X157047991Y-103089045D01*
X157055403Y-103080857D01*
X157139468Y-102987982D01*
X157144200Y-102982754D01*
X157206710Y-102853733D01*
X157208378Y-102843823D01*
X157229862Y-102716124D01*
X157229862Y-102716120D01*
X157230496Y-102712354D01*
X157230647Y-102700000D01*
X157210323Y-102558082D01*
X157150984Y-102427572D01*
X157090582Y-102357472D01*
X157062005Y-102324307D01*
X157062004Y-102324306D01*
X157057400Y-102318963D01*
X156937095Y-102240985D01*
X156799739Y-102199907D01*
X156716497Y-102199398D01*
X156663427Y-102199074D01*
X156663426Y-102199074D01*
X156656376Y-102199031D01*
X156566940Y-102224592D01*
X156505796Y-102222403D01*
X156469733Y-102199407D01*
X156347830Y-102077504D01*
X156320053Y-102022987D01*
X156329624Y-101962555D01*
X156347830Y-101937496D01*
X156655677Y-101629649D01*
X156710194Y-101601872D01*
X156727494Y-101600670D01*
X156744439Y-101600981D01*
X156780446Y-101601641D01*
X156780448Y-101601641D01*
X156787499Y-101601770D01*
X156794302Y-101599915D01*
X156794304Y-101599915D01*
X156883900Y-101575488D01*
X156925817Y-101564060D01*
X157047991Y-101489045D01*
X157057186Y-101478887D01*
X157139468Y-101387982D01*
X157144200Y-101382754D01*
X157206710Y-101253733D01*
X157216786Y-101193848D01*
X157229862Y-101116124D01*
X157229862Y-101116120D01*
X157230496Y-101112354D01*
X157230647Y-101100000D01*
X157210323Y-100958082D01*
X157150984Y-100827572D01*
X157069437Y-100732932D01*
X157062005Y-100724307D01*
X157062004Y-100724306D01*
X157057400Y-100718963D01*
X156937095Y-100640985D01*
X156799739Y-100599907D01*
X156716497Y-100599398D01*
X156663427Y-100599074D01*
X156663426Y-100599074D01*
X156656376Y-100599031D01*
X156649599Y-100600968D01*
X156649598Y-100600968D01*
X156525309Y-100636490D01*
X156525307Y-100636491D01*
X156518529Y-100638428D01*
X156397280Y-100714930D01*
X156392613Y-100720214D01*
X156392611Y-100720216D01*
X156307044Y-100817103D01*
X156307042Y-100817105D01*
X156302377Y-100822388D01*
X156299381Y-100828770D01*
X156299380Y-100828771D01*
X156296927Y-100833996D01*
X156241447Y-100952163D01*
X156219391Y-101093823D01*
X156220306Y-101100822D01*
X156220260Y-101104608D01*
X156200643Y-101162564D01*
X156191271Y-101173403D01*
X155969170Y-101395504D01*
X155914653Y-101423281D01*
X155899166Y-101424500D01*
X155499834Y-101424500D01*
X155441643Y-101405593D01*
X155405679Y-101356093D01*
X155405679Y-101294907D01*
X155429830Y-101255496D01*
X156655677Y-100029649D01*
X156710194Y-100001872D01*
X156727494Y-100000670D01*
X156744439Y-100000981D01*
X156780446Y-100001641D01*
X156780448Y-100001641D01*
X156787499Y-100001770D01*
X156794302Y-99999915D01*
X156794304Y-99999915D01*
X156885055Y-99975173D01*
X156925817Y-99964060D01*
X157047991Y-99889045D01*
X157118269Y-99811403D01*
X157139468Y-99787982D01*
X157144200Y-99782754D01*
X157206710Y-99653733D01*
X157211229Y-99626877D01*
X157229862Y-99516124D01*
X157229862Y-99516120D01*
X157230496Y-99512354D01*
X157230647Y-99500000D01*
X157210323Y-99358082D01*
X157150984Y-99227572D01*
X157149428Y-99225766D01*
X157134544Y-99168630D01*
X157156868Y-99111663D01*
X157208414Y-99078697D01*
X157233370Y-99075500D01*
X160012355Y-99075500D01*
X160070546Y-99094407D01*
X160082359Y-99104496D01*
X160764757Y-99786894D01*
X160792534Y-99841410D01*
X160797029Y-99869790D01*
X160800565Y-99876729D01*
X160800565Y-99876730D01*
X160850725Y-99975173D01*
X160854625Y-99982828D01*
X160944333Y-100072536D01*
X160951270Y-100076071D01*
X160951272Y-100076072D01*
X161031292Y-100116844D01*
X161057371Y-100130132D01*
X161065065Y-100131351D01*
X161065066Y-100131351D01*
X161174978Y-100148759D01*
X161182675Y-100149978D01*
X161190372Y-100148759D01*
X161300284Y-100131351D01*
X161300285Y-100131351D01*
X161307979Y-100130132D01*
X161334058Y-100116844D01*
X161414078Y-100076072D01*
X161414080Y-100076071D01*
X161421017Y-100072536D01*
X161510725Y-99982828D01*
X161514626Y-99975173D01*
X161564785Y-99876730D01*
X161564785Y-99876729D01*
X161568321Y-99869790D01*
X161575598Y-99823848D01*
X161586948Y-99752183D01*
X161588167Y-99744486D01*
X161584686Y-99722509D01*
X161569540Y-99626877D01*
X161569540Y-99626876D01*
X161568321Y-99619182D01*
X161552279Y-99587697D01*
X161536642Y-99557008D01*
X161527071Y-99496576D01*
X161554848Y-99442059D01*
X161633280Y-99363627D01*
X161639122Y-99352163D01*
X161687340Y-99257529D01*
X161687340Y-99257528D01*
X161690876Y-99250589D01*
X161694522Y-99227572D01*
X161709503Y-99132982D01*
X161710722Y-99125285D01*
X161707429Y-99104496D01*
X161692095Y-99007677D01*
X161692095Y-99007676D01*
X161690876Y-98999981D01*
X161687338Y-98993037D01*
X161684931Y-98985630D01*
X161686531Y-98985110D01*
X161678420Y-98933880D01*
X161706201Y-98879365D01*
X161708102Y-98877742D01*
X161709220Y-98877172D01*
X161798928Y-98787464D01*
X161807717Y-98770216D01*
X161852988Y-98681366D01*
X161852988Y-98681365D01*
X161856524Y-98674426D01*
X161860240Y-98650968D01*
X161875151Y-98556819D01*
X161876370Y-98549122D01*
X161870444Y-98511704D01*
X161857743Y-98431513D01*
X161857743Y-98431512D01*
X161856524Y-98423818D01*
X161852988Y-98416879D01*
X161852987Y-98416875D01*
X161829618Y-98371010D01*
X161820047Y-98310578D01*
X161847824Y-98256062D01*
X161928553Y-98175333D01*
X161938327Y-98156152D01*
X161982613Y-98069235D01*
X161982613Y-98069234D01*
X161986149Y-98062295D01*
X161988809Y-98045504D01*
X162004776Y-97944688D01*
X162005995Y-97936991D01*
X161986149Y-97811687D01*
X161928553Y-97698649D01*
X161923043Y-97693139D01*
X161920901Y-97690191D01*
X161901993Y-97632000D01*
X161920900Y-97573809D01*
X161930989Y-97561995D01*
X161993980Y-97499004D01*
X162004231Y-97478887D01*
X162048040Y-97392906D01*
X162048040Y-97392905D01*
X162051576Y-97385966D01*
X162054523Y-97367363D01*
X162070203Y-97268359D01*
X162071422Y-97260662D01*
X162051576Y-97135358D01*
X162048040Y-97128418D01*
X162048038Y-97128412D01*
X162010175Y-97054103D01*
X162000603Y-96993671D01*
X162028380Y-96939154D01*
X162102133Y-96865401D01*
X162123941Y-96822602D01*
X162156193Y-96759303D01*
X162156193Y-96759302D01*
X162159729Y-96752363D01*
X162169221Y-96692436D01*
X162178356Y-96634756D01*
X162179575Y-96627059D01*
X162159729Y-96501755D01*
X162144270Y-96471415D01*
X162134698Y-96410983D01*
X162162475Y-96356465D01*
X162248714Y-96270226D01*
X162297588Y-96174307D01*
X162302774Y-96164128D01*
X162302774Y-96164127D01*
X162306310Y-96157188D01*
X162316605Y-96092191D01*
X162324937Y-96039581D01*
X162326156Y-96031884D01*
X162306310Y-95906580D01*
X162248714Y-95793542D01*
X162245116Y-95789944D01*
X162226633Y-95733051D01*
X162245543Y-95674861D01*
X162255629Y-95663051D01*
X162319462Y-95599218D01*
X162326651Y-95585110D01*
X162373522Y-95493120D01*
X162373522Y-95493119D01*
X162377058Y-95486180D01*
X162379096Y-95473317D01*
X162395685Y-95368573D01*
X162396904Y-95360876D01*
X162390305Y-95319211D01*
X162378277Y-95243267D01*
X162378277Y-95243266D01*
X162377058Y-95235572D01*
X162371671Y-95225000D01*
X162322998Y-95129473D01*
X162322997Y-95129471D01*
X162319462Y-95122534D01*
X162315167Y-95118239D01*
X162296527Y-95060873D01*
X162315434Y-95002683D01*
X162325523Y-94990869D01*
X162389196Y-94927196D01*
X162395467Y-94914890D01*
X162443256Y-94821098D01*
X162443256Y-94821097D01*
X162446792Y-94814158D01*
X162450477Y-94790896D01*
X162465419Y-94696551D01*
X162466638Y-94688854D01*
X162454975Y-94615214D01*
X162448011Y-94571245D01*
X162448011Y-94571244D01*
X162446792Y-94563550D01*
X162441822Y-94553795D01*
X162424107Y-94519028D01*
X162414536Y-94458596D01*
X162442313Y-94404079D01*
X162525074Y-94321318D01*
X162582670Y-94208280D01*
X162586183Y-94186103D01*
X162601297Y-94090673D01*
X162602516Y-94082976D01*
X162592374Y-94018941D01*
X162583889Y-93965367D01*
X162583889Y-93965366D01*
X162582670Y-93957672D01*
X162579134Y-93950733D01*
X162579133Y-93950729D01*
X162554699Y-93902776D01*
X162545127Y-93842344D01*
X162572904Y-93787826D01*
X162653121Y-93707609D01*
X162659903Y-93694300D01*
X162707181Y-93601511D01*
X162707181Y-93601510D01*
X162710717Y-93594571D01*
X162712216Y-93585110D01*
X162729344Y-93476964D01*
X162730563Y-93469267D01*
X162727281Y-93448545D01*
X162711936Y-93351658D01*
X162711936Y-93351657D01*
X162710717Y-93343963D01*
X162695274Y-93313655D01*
X162679817Y-93283318D01*
X162670246Y-93222886D01*
X162698023Y-93168369D01*
X162776830Y-93089562D01*
X162787513Y-93068597D01*
X162830890Y-92983464D01*
X162830890Y-92983463D01*
X162834426Y-92976524D01*
X162842318Y-92926699D01*
X162853053Y-92858917D01*
X162854272Y-92851220D01*
X162853053Y-92843523D01*
X162835645Y-92733611D01*
X162835645Y-92733610D01*
X162834426Y-92725916D01*
X162776830Y-92612878D01*
X162779842Y-92611344D01*
X162765471Y-92567221D01*
X162784337Y-92509017D01*
X162794467Y-92497147D01*
X162860319Y-92431295D01*
X162864739Y-92422622D01*
X162914379Y-92325197D01*
X162914379Y-92325196D01*
X162917915Y-92318257D01*
X162924815Y-92274696D01*
X162936542Y-92200650D01*
X162937761Y-92192953D01*
X162934869Y-92174696D01*
X162919134Y-92075344D01*
X162919134Y-92075343D01*
X162917915Y-92067649D01*
X162912057Y-92056152D01*
X162863855Y-91961550D01*
X162863854Y-91961548D01*
X162860319Y-91954611D01*
X162770611Y-91864903D01*
X162763674Y-91861368D01*
X162763672Y-91861367D01*
X162664513Y-91810843D01*
X162664512Y-91810843D01*
X162657573Y-91807307D01*
X162649881Y-91806089D01*
X162649879Y-91806088D01*
X162629193Y-91802812D01*
X162574677Y-91775035D01*
X155332585Y-84532943D01*
X155326750Y-84526575D01*
X155322717Y-84521769D01*
X155301771Y-84496806D01*
X155268108Y-84477371D01*
X155260827Y-84472732D01*
X155252749Y-84467076D01*
X155229000Y-84450446D01*
X155220632Y-84448204D01*
X155215345Y-84445738D01*
X155209860Y-84443742D01*
X155202361Y-84439412D01*
X155193835Y-84437909D01*
X155193833Y-84437908D01*
X155164100Y-84432666D01*
X155155665Y-84430796D01*
X155126490Y-84422978D01*
X155118123Y-84420736D01*
X155109494Y-84421491D01*
X155079411Y-84424123D01*
X155070782Y-84424500D01*
X153424500Y-84424500D01*
X153366309Y-84405593D01*
X153330345Y-84356093D01*
X153325500Y-84325500D01*
X153325500Y-84080252D01*
X153313867Y-84021769D01*
X153317164Y-84021113D01*
X153313797Y-83978336D01*
X153313867Y-83978231D01*
X153325500Y-83919748D01*
X153325500Y-83724500D01*
X153344407Y-83666309D01*
X153393907Y-83630345D01*
X153424500Y-83625500D01*
X153732885Y-83625500D01*
X153777830Y-83636290D01*
X153874696Y-83685646D01*
X153882390Y-83686865D01*
X153882391Y-83686865D01*
X153992303Y-83704273D01*
X154000000Y-83705492D01*
X154007697Y-83704273D01*
X154117609Y-83686865D01*
X154117610Y-83686865D01*
X154125304Y-83685646D01*
X154163255Y-83666309D01*
X154231403Y-83631586D01*
X154231405Y-83631585D01*
X154238342Y-83628050D01*
X154328050Y-83538342D01*
X154335813Y-83523108D01*
X154382110Y-83432244D01*
X154382110Y-83432243D01*
X154385646Y-83425304D01*
X154387296Y-83414890D01*
X154404273Y-83307697D01*
X154405492Y-83300000D01*
X154398977Y-83258864D01*
X154386865Y-83182391D01*
X154386865Y-83182390D01*
X154385646Y-83174696D01*
X154350789Y-83106286D01*
X154331586Y-83068597D01*
X154331585Y-83068595D01*
X154328050Y-83061658D01*
X154238342Y-82971950D01*
X154231405Y-82968415D01*
X154231403Y-82968414D01*
X154132244Y-82917890D01*
X154132243Y-82917890D01*
X154125304Y-82914354D01*
X154117610Y-82913135D01*
X154117609Y-82913135D01*
X154007697Y-82895727D01*
X154000000Y-82894508D01*
X153992303Y-82895727D01*
X153882391Y-82913135D01*
X153882390Y-82913135D01*
X153874696Y-82914354D01*
X153867757Y-82917890D01*
X153867756Y-82917890D01*
X153777830Y-82963710D01*
X153732885Y-82974500D01*
X153424500Y-82974500D01*
X153366309Y-82955593D01*
X153330345Y-82906093D01*
X153325500Y-82875500D01*
X153325500Y-82580252D01*
X153313867Y-82521769D01*
X153316944Y-82521157D01*
X153313551Y-82478067D01*
X153313396Y-82478036D01*
X153313505Y-82477487D01*
X153313406Y-82476229D01*
X153314307Y-82473456D01*
X153324052Y-82424462D01*
X153325000Y-82414840D01*
X153325000Y-82370680D01*
X153320878Y-82357995D01*
X153316757Y-82355000D01*
X151740680Y-82355000D01*
X151727995Y-82359122D01*
X151725000Y-82363243D01*
X151725000Y-82414840D01*
X151725948Y-82424462D01*
X151736604Y-82478036D01*
X151733151Y-82478723D01*
X151736499Y-82521221D01*
X151736133Y-82521769D01*
X151724500Y-82580252D01*
X151724500Y-82919748D01*
X151725448Y-82924512D01*
X151736133Y-82978231D01*
X151732836Y-82978887D01*
X151736203Y-83021664D01*
X151736133Y-83021769D01*
X151724500Y-83080252D01*
X151724500Y-83419748D01*
X151726986Y-83432244D01*
X151736133Y-83478231D01*
X151732836Y-83478887D01*
X151736203Y-83521664D01*
X151736133Y-83521769D01*
X151724500Y-83580252D01*
X151724500Y-83919748D01*
X151725448Y-83924512D01*
X151736133Y-83978231D01*
X151732836Y-83978887D01*
X151736203Y-84021664D01*
X151736133Y-84021769D01*
X151724500Y-84080252D01*
X151724500Y-84419748D01*
X151733914Y-84467076D01*
X151736133Y-84478231D01*
X151732836Y-84478887D01*
X151736203Y-84521664D01*
X151736133Y-84521769D01*
X151724500Y-84580252D01*
X151724500Y-84919748D01*
X151734398Y-84969508D01*
X151736133Y-84978231D01*
X151732836Y-84978887D01*
X151736203Y-85021664D01*
X151736133Y-85021769D01*
X151724500Y-85080252D01*
X151724500Y-85419748D01*
X151736133Y-85478231D01*
X151732836Y-85478887D01*
X151736203Y-85521664D01*
X151736133Y-85521769D01*
X151724500Y-85580252D01*
X151724500Y-85919748D01*
X151736133Y-85978231D01*
X151732836Y-85978887D01*
X151736203Y-86021664D01*
X151736133Y-86021769D01*
X151724500Y-86080252D01*
X151724500Y-86419748D01*
X151731275Y-86453807D01*
X151736133Y-86478231D01*
X151732836Y-86478887D01*
X151736203Y-86521664D01*
X151736133Y-86521769D01*
X151724500Y-86580252D01*
X151724500Y-86919748D01*
X151725448Y-86924512D01*
X151736133Y-86978231D01*
X151732836Y-86978887D01*
X151736203Y-87021664D01*
X151736133Y-87021769D01*
X151724500Y-87080252D01*
X151724500Y-87419748D01*
X151725448Y-87424512D01*
X151736133Y-87478231D01*
X151732836Y-87478887D01*
X151736203Y-87521664D01*
X151736133Y-87521769D01*
X151724500Y-87580252D01*
X151724500Y-87919748D01*
X151736133Y-87978231D01*
X151732836Y-87978887D01*
X151736203Y-88021664D01*
X151736133Y-88021769D01*
X151724500Y-88080252D01*
X151724500Y-88419748D01*
X151730950Y-88452174D01*
X151736133Y-88478231D01*
X151732836Y-88478887D01*
X151736203Y-88521664D01*
X151736133Y-88521769D01*
X151724500Y-88580252D01*
X151724500Y-88919748D01*
X151725448Y-88924512D01*
X151736133Y-88978231D01*
X151732836Y-88978887D01*
X151736203Y-89021664D01*
X151736133Y-89021769D01*
X151724500Y-89080252D01*
X151724500Y-89419748D01*
X151727333Y-89433991D01*
X151736133Y-89478231D01*
X151732836Y-89478887D01*
X151736203Y-89521664D01*
X151736133Y-89521769D01*
X151724500Y-89580252D01*
X151724500Y-89919748D01*
X151725448Y-89924512D01*
X151736133Y-89978231D01*
X151732836Y-89978887D01*
X151736203Y-90021664D01*
X151736133Y-90021769D01*
X151724500Y-90080252D01*
X151724500Y-90419748D01*
X151725448Y-90424512D01*
X151736133Y-90478231D01*
X151732836Y-90478887D01*
X151736203Y-90521664D01*
X151736133Y-90521769D01*
X151724500Y-90580252D01*
X151724500Y-90919748D01*
X151736133Y-90978231D01*
X151732836Y-90978887D01*
X151736203Y-91021664D01*
X151736133Y-91021769D01*
X151724500Y-91080252D01*
X151724500Y-91419748D01*
X151731281Y-91453837D01*
X151736133Y-91478231D01*
X151732836Y-91478887D01*
X151736203Y-91521664D01*
X151736133Y-91521769D01*
X151724500Y-91580252D01*
X151724500Y-91919748D01*
X151731435Y-91954611D01*
X151736133Y-91978231D01*
X151732836Y-91978887D01*
X151736203Y-92021664D01*
X151736133Y-92021769D01*
X151724500Y-92080252D01*
X151724500Y-92419748D01*
X151730105Y-92447927D01*
X151736133Y-92478231D01*
X151732836Y-92478887D01*
X151736203Y-92521664D01*
X151736133Y-92521769D01*
X151724500Y-92580252D01*
X151724500Y-92919748D01*
X151733484Y-92964914D01*
X151736133Y-92978231D01*
X151732836Y-92978887D01*
X151736203Y-93021664D01*
X151736133Y-93021769D01*
X151724500Y-93080252D01*
X151724500Y-93419748D01*
X151732405Y-93459488D01*
X151736133Y-93478231D01*
X151732836Y-93478887D01*
X151736203Y-93521664D01*
X151736133Y-93521769D01*
X151724500Y-93580252D01*
X151724500Y-93919748D01*
X151730617Y-93950500D01*
X151736133Y-93978231D01*
X151732836Y-93978887D01*
X151736203Y-94021664D01*
X151736133Y-94021769D01*
X151724500Y-94080252D01*
X151724500Y-94419748D01*
X151732665Y-94460798D01*
X151736133Y-94478231D01*
X151732836Y-94478887D01*
X151736203Y-94521664D01*
X151736133Y-94521769D01*
X151724500Y-94580252D01*
X151724500Y-94919748D01*
X151735156Y-94973317D01*
X151736133Y-94978231D01*
X151732836Y-94978887D01*
X151736203Y-95021664D01*
X151736133Y-95021769D01*
X151724500Y-95080252D01*
X151724500Y-95419748D01*
X151725448Y-95424512D01*
X151736133Y-95478231D01*
X151732836Y-95478887D01*
X151736203Y-95521664D01*
X151736133Y-95521769D01*
X151724500Y-95580252D01*
X151724500Y-95919748D01*
X151725448Y-95924512D01*
X151736133Y-95978231D01*
X151732836Y-95978887D01*
X151736203Y-96021664D01*
X151736133Y-96021769D01*
X151724500Y-96080252D01*
X151724500Y-96419748D01*
X151725448Y-96424512D01*
X151736133Y-96478231D01*
X151732836Y-96478887D01*
X151736203Y-96521664D01*
X151736133Y-96521769D01*
X151724500Y-96580252D01*
X151724500Y-96919748D01*
X151731534Y-96955109D01*
X151736133Y-96978231D01*
X151732836Y-96978887D01*
X151736203Y-97021664D01*
X151736133Y-97021769D01*
X151724500Y-97080252D01*
X151724500Y-97419748D01*
X151731281Y-97453837D01*
X151736133Y-97478231D01*
X151732836Y-97478887D01*
X151736203Y-97521664D01*
X151736133Y-97521769D01*
X151724500Y-97580252D01*
X151724500Y-97919748D01*
X151725448Y-97924512D01*
X151736133Y-97978231D01*
X151732836Y-97978887D01*
X151736203Y-98021664D01*
X151736133Y-98021769D01*
X151724500Y-98080252D01*
X151724500Y-98419748D01*
X151727333Y-98433991D01*
X151736133Y-98478231D01*
X151732836Y-98478887D01*
X151736203Y-98521664D01*
X151736133Y-98521769D01*
X151724500Y-98580252D01*
X151724500Y-98825500D01*
X151705593Y-98883691D01*
X151656093Y-98919655D01*
X151625500Y-98924500D01*
X149625834Y-98924500D01*
X149567643Y-98905593D01*
X149555830Y-98895504D01*
X147284599Y-96624273D01*
X147256822Y-96569756D01*
X147255942Y-96557639D01*
X147255849Y-96557645D01*
X147255600Y-96553826D01*
X147255647Y-96550000D01*
X147235323Y-96408082D01*
X147175984Y-96277572D01*
X147082400Y-96168963D01*
X146962095Y-96090985D01*
X146824739Y-96049907D01*
X146741497Y-96049398D01*
X146688427Y-96049074D01*
X146688426Y-96049074D01*
X146681376Y-96049031D01*
X146674599Y-96050968D01*
X146674598Y-96050968D01*
X146550309Y-96086490D01*
X146550307Y-96086491D01*
X146543529Y-96088428D01*
X146422280Y-96164930D01*
X146417613Y-96170214D01*
X146417611Y-96170216D01*
X146332044Y-96267103D01*
X146332042Y-96267105D01*
X146327377Y-96272388D01*
X146266447Y-96402163D01*
X146265362Y-96409132D01*
X146265361Y-96409135D01*
X146254812Y-96476892D01*
X146244391Y-96543823D01*
X146262980Y-96685979D01*
X146265821Y-96692435D01*
X146265821Y-96692436D01*
X146292190Y-96752363D01*
X146320720Y-96817203D01*
X146355402Y-96858462D01*
X146408431Y-96921549D01*
X146408434Y-96921551D01*
X146412970Y-96926948D01*
X146418841Y-96930856D01*
X146418842Y-96930857D01*
X146434284Y-96941136D01*
X146532313Y-97006390D01*
X146632920Y-97037821D01*
X146662425Y-97047039D01*
X146662426Y-97047039D01*
X146669157Y-97049142D01*
X146712520Y-97049937D01*
X146751109Y-97050645D01*
X146808944Y-97070616D01*
X146819298Y-97079624D01*
X148995170Y-99255496D01*
X149022947Y-99310013D01*
X149013376Y-99370445D01*
X148970111Y-99413710D01*
X148925166Y-99424500D01*
X147525834Y-99424500D01*
X147467643Y-99405593D01*
X147455830Y-99395504D01*
X147284599Y-99224273D01*
X147256822Y-99169756D01*
X147255942Y-99157639D01*
X147255849Y-99157645D01*
X147255600Y-99153826D01*
X147255647Y-99150000D01*
X147235323Y-99008082D01*
X147195118Y-98919655D01*
X147178905Y-98883996D01*
X147178904Y-98883995D01*
X147175984Y-98877572D01*
X147098342Y-98787464D01*
X147087005Y-98774307D01*
X147087004Y-98774306D01*
X147082400Y-98768963D01*
X146962095Y-98690985D01*
X146824739Y-98649907D01*
X146741497Y-98649398D01*
X146688427Y-98649074D01*
X146688426Y-98649074D01*
X146681376Y-98649031D01*
X146674599Y-98650968D01*
X146674598Y-98650968D01*
X146550309Y-98686490D01*
X146550307Y-98686491D01*
X146543529Y-98688428D01*
X146508407Y-98710588D01*
X146478808Y-98729264D01*
X146422280Y-98764930D01*
X146417613Y-98770214D01*
X146417611Y-98770216D01*
X146332044Y-98867103D01*
X146332042Y-98867105D01*
X146327377Y-98872388D01*
X146266447Y-99002163D01*
X146244391Y-99143823D01*
X146245306Y-99150820D01*
X146245306Y-99150821D01*
X146255342Y-99227572D01*
X146262980Y-99285979D01*
X146265821Y-99292435D01*
X146265821Y-99292436D01*
X146311867Y-99397082D01*
X146320720Y-99417203D01*
X146350385Y-99452494D01*
X146408431Y-99521549D01*
X146408434Y-99521551D01*
X146412970Y-99526948D01*
X146532313Y-99606390D01*
X146632920Y-99637821D01*
X146662425Y-99647039D01*
X146662426Y-99647039D01*
X146669157Y-99649142D01*
X146712520Y-99649937D01*
X146751109Y-99650645D01*
X146808944Y-99670616D01*
X146819298Y-99679624D01*
X147106731Y-99967057D01*
X147112565Y-99973424D01*
X147137545Y-100003194D01*
X147169719Y-100021769D01*
X147171205Y-100022627D01*
X147178489Y-100027268D01*
X147210316Y-100049554D01*
X147218681Y-100051796D01*
X147223961Y-100054258D01*
X147229452Y-100056257D01*
X147236955Y-100060588D01*
X147273487Y-100067030D01*
X147275228Y-100067337D01*
X147283656Y-100069206D01*
X147312827Y-100077022D01*
X147312830Y-100077022D01*
X147321193Y-100079263D01*
X147359896Y-100075877D01*
X147368525Y-100075500D01*
X147725165Y-100075500D01*
X147783356Y-100094407D01*
X147819320Y-100143907D01*
X147819320Y-100205093D01*
X147795169Y-100244504D01*
X146819226Y-101220448D01*
X146764709Y-101248225D01*
X146748617Y-101249442D01*
X146688427Y-101249074D01*
X146688426Y-101249074D01*
X146681376Y-101249031D01*
X146674599Y-101250968D01*
X146674598Y-101250968D01*
X146550309Y-101286490D01*
X146550307Y-101286491D01*
X146543529Y-101288428D01*
X146422280Y-101364930D01*
X146417613Y-101370214D01*
X146417611Y-101370216D01*
X146332044Y-101467103D01*
X146332042Y-101467105D01*
X146327377Y-101472388D01*
X146266447Y-101602163D01*
X146265362Y-101609132D01*
X146265361Y-101609135D01*
X146254946Y-101676028D01*
X146244391Y-101743823D01*
X146245306Y-101750820D01*
X146245306Y-101750821D01*
X146246814Y-101762354D01*
X146262980Y-101885979D01*
X146265821Y-101892435D01*
X146265821Y-101892436D01*
X146303861Y-101978887D01*
X146320720Y-102017203D01*
X146328689Y-102026683D01*
X146408431Y-102121549D01*
X146408434Y-102121551D01*
X146412970Y-102126948D01*
X146418841Y-102130856D01*
X146418842Y-102130857D01*
X146431143Y-102139045D01*
X146532313Y-102206390D01*
X146632920Y-102237821D01*
X146662425Y-102247039D01*
X146662426Y-102247039D01*
X146669157Y-102249142D01*
X146740828Y-102250456D01*
X146805445Y-102251641D01*
X146805447Y-102251641D01*
X146812499Y-102251770D01*
X146819302Y-102249915D01*
X146819304Y-102249915D01*
X146920215Y-102222403D01*
X146950817Y-102214060D01*
X147072991Y-102139045D01*
X147080403Y-102130857D01*
X147164468Y-102037982D01*
X147169200Y-102032754D01*
X147223951Y-101919748D01*
X147228634Y-101910082D01*
X147231710Y-101903733D01*
X147235875Y-101878982D01*
X147254862Y-101766124D01*
X147254862Y-101766120D01*
X147255496Y-101762354D01*
X147255647Y-101750000D01*
X147256137Y-101750006D01*
X147270600Y-101693166D01*
X147284299Y-101676028D01*
X148355831Y-100604496D01*
X148410348Y-100576719D01*
X148425835Y-100575500D01*
X149825166Y-100575500D01*
X149883357Y-100594407D01*
X149919321Y-100643907D01*
X149919321Y-100705093D01*
X149895170Y-100744504D01*
X146819226Y-103820448D01*
X146764709Y-103848225D01*
X146748617Y-103849442D01*
X146688427Y-103849074D01*
X146688426Y-103849074D01*
X146681376Y-103849031D01*
X146674599Y-103850968D01*
X146674598Y-103850968D01*
X146550309Y-103886490D01*
X146550307Y-103886491D01*
X146543529Y-103888428D01*
X146422280Y-103964930D01*
X146417613Y-103970214D01*
X146417611Y-103970216D01*
X146332044Y-104067103D01*
X146332042Y-104067105D01*
X146327377Y-104072388D01*
X146266447Y-104202163D01*
X146265362Y-104209132D01*
X146265361Y-104209135D01*
X146254806Y-104276929D01*
X146244391Y-104343823D01*
X132000000Y-104343823D01*
X132000000Y-85893070D01*
X136109500Y-85893070D01*
X136148200Y-86075142D01*
X136150308Y-86079876D01*
X136150309Y-86079880D01*
X136163714Y-86109988D01*
X136223910Y-86245189D01*
X136333320Y-86395779D01*
X136337169Y-86399245D01*
X136337173Y-86399249D01*
X136424892Y-86478231D01*
X136471649Y-86520331D01*
X136476139Y-86522923D01*
X136476140Y-86522924D01*
X136628361Y-86610809D01*
X136628363Y-86610810D01*
X136632851Y-86613401D01*
X136637780Y-86615002D01*
X136637781Y-86615003D01*
X136804948Y-86669319D01*
X136804952Y-86669320D01*
X136809880Y-86670921D01*
X136948589Y-86685500D01*
X137041411Y-86685500D01*
X137180120Y-86670921D01*
X137185048Y-86669320D01*
X137185052Y-86669319D01*
X137352219Y-86615003D01*
X137352220Y-86615002D01*
X137357149Y-86613401D01*
X137361637Y-86610810D01*
X137361639Y-86610809D01*
X137513860Y-86522924D01*
X137513861Y-86522923D01*
X137518351Y-86520331D01*
X137565108Y-86478231D01*
X137652827Y-86399249D01*
X137652831Y-86399245D01*
X137656680Y-86395779D01*
X137766090Y-86245189D01*
X137826286Y-86109988D01*
X137839691Y-86079880D01*
X137839692Y-86079876D01*
X137841800Y-86075142D01*
X137880500Y-85893070D01*
X137880500Y-85706930D01*
X137841800Y-85524858D01*
X137830733Y-85500000D01*
X137768198Y-85359545D01*
X137768197Y-85359543D01*
X137766090Y-85354811D01*
X137656680Y-85204221D01*
X137652831Y-85200755D01*
X137652827Y-85200751D01*
X137522207Y-85083141D01*
X137518351Y-85079669D01*
X137513860Y-85077076D01*
X137361639Y-84989191D01*
X137361637Y-84989190D01*
X137357149Y-84986599D01*
X137331395Y-84978231D01*
X137185052Y-84930681D01*
X137185048Y-84930680D01*
X137180120Y-84929079D01*
X137041411Y-84914500D01*
X136948589Y-84914500D01*
X136809880Y-84929079D01*
X136804952Y-84930680D01*
X136804948Y-84930681D01*
X136658605Y-84978231D01*
X136632851Y-84986599D01*
X136628363Y-84989190D01*
X136628361Y-84989191D01*
X136476140Y-85077076D01*
X136471649Y-85079669D01*
X136467793Y-85083141D01*
X136337173Y-85200751D01*
X136337169Y-85200755D01*
X136333320Y-85204221D01*
X136223910Y-85354811D01*
X136221803Y-85359543D01*
X136221802Y-85359545D01*
X136159268Y-85500000D01*
X136148200Y-85524858D01*
X136109500Y-85706930D01*
X136109500Y-85893070D01*
X132000000Y-85893070D01*
X132000000Y-79916411D01*
X133831792Y-79916411D01*
X133849351Y-80032512D01*
X133851834Y-80042184D01*
X133915012Y-80213897D01*
X133919383Y-80222860D01*
X134015799Y-80378363D01*
X134021889Y-80386271D01*
X134147604Y-80519211D01*
X134155157Y-80525731D01*
X134305037Y-80630677D01*
X134313741Y-80635542D01*
X134481671Y-80708212D01*
X134491171Y-80711225D01*
X134671461Y-80748890D01*
X134678990Y-80749867D01*
X134680214Y-80749931D01*
X134682824Y-80750000D01*
X134914320Y-80750000D01*
X134927005Y-80745878D01*
X134930000Y-80741757D01*
X134930000Y-80734320D01*
X135140000Y-80734320D01*
X135144122Y-80747005D01*
X135148243Y-80750000D01*
X135340725Y-80750000D01*
X135345722Y-80749747D01*
X135482022Y-80735902D01*
X135491791Y-80733897D01*
X135666391Y-80679180D01*
X135675558Y-80675251D01*
X135835595Y-80586542D01*
X135843776Y-80580856D01*
X135982701Y-80461783D01*
X135989588Y-80454550D01*
X136101721Y-80309988D01*
X136107019Y-80301510D01*
X136187794Y-80137355D01*
X136191275Y-80127996D01*
X136237393Y-79950944D01*
X136238921Y-79941072D01*
X136239990Y-79920661D01*
X136236537Y-79907774D01*
X136233526Y-79905335D01*
X136231717Y-79905000D01*
X135155680Y-79905000D01*
X135142995Y-79909122D01*
X135140000Y-79913243D01*
X135140000Y-80734320D01*
X134930000Y-80734320D01*
X134930000Y-79920680D01*
X134925878Y-79907995D01*
X134921757Y-79905000D01*
X133845746Y-79905000D01*
X133833061Y-79909122D01*
X133832306Y-79910161D01*
X133831792Y-79916411D01*
X132000000Y-79916411D01*
X132000000Y-79679339D01*
X133830010Y-79679339D01*
X133833463Y-79692226D01*
X133836474Y-79694665D01*
X133838283Y-79695000D01*
X134914320Y-79695000D01*
X134927005Y-79690878D01*
X134930000Y-79686757D01*
X134930000Y-79679320D01*
X135140000Y-79679320D01*
X135144122Y-79692005D01*
X135148243Y-79695000D01*
X136224254Y-79695000D01*
X136236939Y-79690878D01*
X136237694Y-79689839D01*
X136238208Y-79683589D01*
X136220649Y-79567488D01*
X136218166Y-79557816D01*
X136154988Y-79386103D01*
X136150617Y-79377140D01*
X136054201Y-79221637D01*
X136048111Y-79213729D01*
X135922396Y-79080789D01*
X135914843Y-79074269D01*
X135764963Y-78969323D01*
X135756259Y-78964458D01*
X135588329Y-78891788D01*
X135578829Y-78888775D01*
X135398539Y-78851110D01*
X135391010Y-78850133D01*
X135389786Y-78850069D01*
X135387176Y-78850000D01*
X135155680Y-78850000D01*
X135142995Y-78854122D01*
X135140000Y-78858243D01*
X135140000Y-79679320D01*
X134930000Y-79679320D01*
X134930000Y-78865680D01*
X134925878Y-78852995D01*
X134921757Y-78850000D01*
X134729275Y-78850000D01*
X134724278Y-78850253D01*
X134587978Y-78864098D01*
X134578209Y-78866103D01*
X134403609Y-78920820D01*
X134394442Y-78924749D01*
X134234405Y-79013458D01*
X134226224Y-79019144D01*
X134087299Y-79138217D01*
X134080412Y-79145450D01*
X133968279Y-79290012D01*
X133962981Y-79298490D01*
X133882206Y-79462645D01*
X133878725Y-79472004D01*
X133832607Y-79649056D01*
X133831079Y-79658928D01*
X133830010Y-79679339D01*
X132000000Y-79679339D01*
X132000000Y-76893070D01*
X136109500Y-76893070D01*
X136148200Y-77075142D01*
X136150308Y-77079876D01*
X136150309Y-77079880D01*
X136163714Y-77109988D01*
X136223910Y-77245189D01*
X136333320Y-77395779D01*
X136337169Y-77399245D01*
X136337173Y-77399249D01*
X136425946Y-77479180D01*
X136471649Y-77520331D01*
X136476139Y-77522923D01*
X136476140Y-77522924D01*
X136628361Y-77610809D01*
X136628363Y-77610810D01*
X136632851Y-77613401D01*
X136637780Y-77615002D01*
X136637781Y-77615003D01*
X136804948Y-77669319D01*
X136804952Y-77669320D01*
X136809880Y-77670921D01*
X136948589Y-77685500D01*
X137041411Y-77685500D01*
X137180120Y-77670921D01*
X137185048Y-77669320D01*
X137185052Y-77669319D01*
X137352219Y-77615003D01*
X137352220Y-77615002D01*
X137357149Y-77613401D01*
X137361637Y-77610810D01*
X137361639Y-77610809D01*
X137513860Y-77522924D01*
X137513861Y-77522923D01*
X137518351Y-77520331D01*
X137564054Y-77479180D01*
X137652827Y-77399249D01*
X137652831Y-77399245D01*
X137656680Y-77395779D01*
X137766090Y-77245189D01*
X137826286Y-77109988D01*
X137839691Y-77079880D01*
X137839692Y-77079876D01*
X137841800Y-77075142D01*
X137880500Y-76893070D01*
X137880500Y-76706930D01*
X137841800Y-76524858D01*
X137828507Y-76495000D01*
X137768198Y-76359545D01*
X137768197Y-76359543D01*
X137766090Y-76354811D01*
X137656680Y-76204221D01*
X137652831Y-76200755D01*
X137652827Y-76200751D01*
X137522207Y-76083141D01*
X137518351Y-76079669D01*
X137490623Y-76063660D01*
X137361639Y-75989191D01*
X137361637Y-75989190D01*
X137357149Y-75986599D01*
X137352216Y-75984996D01*
X137245887Y-75950448D01*
X137226519Y-75944155D01*
X137177019Y-75908191D01*
X137158112Y-75850000D01*
X137177019Y-75791809D01*
X137226519Y-75755845D01*
X137352219Y-75715003D01*
X137352220Y-75715002D01*
X137357149Y-75713401D01*
X137361637Y-75710810D01*
X137361639Y-75710809D01*
X137513860Y-75622924D01*
X137513861Y-75622923D01*
X137518351Y-75620331D01*
X137559875Y-75582943D01*
X137652827Y-75499249D01*
X137652831Y-75499245D01*
X137656680Y-75495779D01*
X137766090Y-75345189D01*
X137841800Y-75175142D01*
X137880500Y-74993070D01*
X137880500Y-74806930D01*
X137841800Y-74624858D01*
X137779634Y-74485230D01*
X137768198Y-74459545D01*
X137768197Y-74459543D01*
X137766090Y-74454811D01*
X137656680Y-74304221D01*
X137652831Y-74300755D01*
X137652827Y-74300751D01*
X137522207Y-74183141D01*
X137518351Y-74179669D01*
X137513860Y-74177076D01*
X137361639Y-74089191D01*
X137361637Y-74089190D01*
X137357149Y-74086599D01*
X137352219Y-74084997D01*
X137185052Y-74030681D01*
X137185048Y-74030680D01*
X137180120Y-74029079D01*
X137041411Y-74014500D01*
X136948589Y-74014500D01*
X136809880Y-74029079D01*
X136804952Y-74030680D01*
X136804948Y-74030681D01*
X136637781Y-74084997D01*
X136632851Y-74086599D01*
X136628363Y-74089190D01*
X136628361Y-74089191D01*
X136476140Y-74177076D01*
X136471649Y-74179669D01*
X136467793Y-74183141D01*
X136337173Y-74300751D01*
X136337169Y-74300755D01*
X136333320Y-74304221D01*
X136223910Y-74454811D01*
X136221803Y-74459543D01*
X136221802Y-74459545D01*
X136210367Y-74485230D01*
X136148200Y-74624858D01*
X136109500Y-74806930D01*
X136109500Y-74993070D01*
X136148200Y-75175142D01*
X136223910Y-75345189D01*
X136333320Y-75495779D01*
X136337169Y-75499245D01*
X136337173Y-75499249D01*
X136430125Y-75582943D01*
X136471649Y-75620331D01*
X136476139Y-75622923D01*
X136476140Y-75622924D01*
X136628361Y-75710809D01*
X136628363Y-75710810D01*
X136632851Y-75713401D01*
X136637780Y-75715002D01*
X136637781Y-75715003D01*
X136763481Y-75755845D01*
X136812981Y-75791809D01*
X136831888Y-75850000D01*
X136812981Y-75908191D01*
X136763481Y-75944155D01*
X136744113Y-75950448D01*
X136637785Y-75984996D01*
X136632851Y-75986599D01*
X136628363Y-75989190D01*
X136628361Y-75989191D01*
X136499377Y-76063660D01*
X136471649Y-76079669D01*
X136467793Y-76083141D01*
X136337173Y-76200751D01*
X136337169Y-76200755D01*
X136333320Y-76204221D01*
X136223910Y-76354811D01*
X136221803Y-76359543D01*
X136221802Y-76359545D01*
X136161494Y-76495000D01*
X136148200Y-76524858D01*
X136109500Y-76706930D01*
X136109500Y-76893070D01*
X132000000Y-76893070D01*
X132000000Y-69943807D01*
X132720736Y-69943807D01*
X132722978Y-69952174D01*
X132730796Y-69981349D01*
X132732666Y-69989783D01*
X132739412Y-70028045D01*
X132743742Y-70035544D01*
X132745738Y-70041029D01*
X132748204Y-70046316D01*
X132750446Y-70054684D01*
X132764672Y-70075000D01*
X132772732Y-70086511D01*
X132777371Y-70093792D01*
X132796806Y-70127455D01*
X132810467Y-70138918D01*
X132826571Y-70152431D01*
X132832939Y-70158265D01*
X133825499Y-71150825D01*
X133853276Y-71205342D01*
X133848903Y-71253631D01*
X133827481Y-71314632D01*
X133826914Y-71320634D01*
X133826913Y-71320637D01*
X133824719Y-71343852D01*
X133824500Y-71346167D01*
X133824501Y-72453832D01*
X133827481Y-72485368D01*
X133829478Y-72491055D01*
X133829479Y-72491059D01*
X133849477Y-72548004D01*
X133872366Y-72613183D01*
X133952850Y-72722150D01*
X133958807Y-72726550D01*
X134043617Y-72789191D01*
X134061817Y-72802634D01*
X134189632Y-72847519D01*
X134195639Y-72848087D01*
X134195640Y-72848087D01*
X134218856Y-72850282D01*
X134218866Y-72850282D01*
X134221167Y-72850500D01*
X135034650Y-72850500D01*
X135848832Y-72850499D01*
X135880368Y-72847519D01*
X135886055Y-72845522D01*
X135886059Y-72845521D01*
X135943004Y-72825523D01*
X136008183Y-72802634D01*
X136026384Y-72789191D01*
X136111193Y-72726550D01*
X136117150Y-72722150D01*
X136197634Y-72613183D01*
X136242519Y-72485368D01*
X136243087Y-72479360D01*
X136245282Y-72456144D01*
X136245282Y-72456134D01*
X136245500Y-72453833D01*
X136245499Y-71346168D01*
X136242519Y-71314632D01*
X136240522Y-71308945D01*
X136240521Y-71308941D01*
X136204139Y-71205342D01*
X136197634Y-71186817D01*
X136117150Y-71077850D01*
X136008183Y-70997366D01*
X135880368Y-70952481D01*
X135874361Y-70951913D01*
X135874360Y-70951913D01*
X135851144Y-70949718D01*
X135851134Y-70949718D01*
X135848833Y-70949500D01*
X135778868Y-70949500D01*
X134585835Y-70949501D01*
X134527644Y-70930594D01*
X134515831Y-70920505D01*
X133404496Y-69809170D01*
X133376719Y-69754653D01*
X133375500Y-69739166D01*
X133375500Y-68946671D01*
X133820739Y-68946671D01*
X133849614Y-69137599D01*
X133916290Y-69318821D01*
X133918930Y-69323079D01*
X133918931Y-69323081D01*
X133970521Y-69406286D01*
X134018045Y-69482934D01*
X134150721Y-69623235D01*
X134154826Y-69626109D01*
X134154829Y-69626112D01*
X134233594Y-69681263D01*
X134308898Y-69733991D01*
X134313494Y-69735980D01*
X134313496Y-69735981D01*
X134405309Y-69775712D01*
X134486115Y-69810680D01*
X134606779Y-69835888D01*
X134671408Y-69849390D01*
X134671410Y-69849390D01*
X134675133Y-69850168D01*
X134681468Y-69850500D01*
X135343259Y-69850500D01*
X135345747Y-69850247D01*
X135345752Y-69850247D01*
X135482123Y-69836395D01*
X135482127Y-69836394D01*
X135487110Y-69835888D01*
X135630131Y-69791068D01*
X135666590Y-69779643D01*
X135666591Y-69779643D01*
X135671373Y-69778144D01*
X135840261Y-69684528D01*
X135986875Y-69558864D01*
X136049080Y-69478670D01*
X136102156Y-69410246D01*
X136102159Y-69410241D01*
X136105227Y-69406286D01*
X136190481Y-69233026D01*
X136239155Y-69046163D01*
X136249261Y-68853329D01*
X136220386Y-68662401D01*
X136153710Y-68481179D01*
X136134326Y-68449915D01*
X136054599Y-68321330D01*
X136054598Y-68321329D01*
X136051955Y-68317066D01*
X135919279Y-68176765D01*
X135915174Y-68173891D01*
X135915171Y-68173888D01*
X135765208Y-68068884D01*
X135761102Y-68066009D01*
X135756506Y-68064020D01*
X135756504Y-68064019D01*
X135588481Y-67991309D01*
X135588482Y-67991309D01*
X135583885Y-67989320D01*
X135449062Y-67961154D01*
X135398592Y-67950610D01*
X135398590Y-67950610D01*
X135394867Y-67949832D01*
X135388532Y-67949500D01*
X134726741Y-67949500D01*
X134724253Y-67949753D01*
X134724248Y-67949753D01*
X134587877Y-67963605D01*
X134587873Y-67963606D01*
X134582890Y-67964112D01*
X134398627Y-68021856D01*
X134229739Y-68115472D01*
X134225930Y-68118737D01*
X134104749Y-68222602D01*
X134083125Y-68241136D01*
X134080048Y-68245103D01*
X133967844Y-68389754D01*
X133967841Y-68389759D01*
X133964773Y-68393714D01*
X133879519Y-68566974D01*
X133830845Y-68753837D01*
X133820739Y-68946671D01*
X133375500Y-68946671D01*
X133375500Y-68575834D01*
X133394407Y-68517643D01*
X133404496Y-68505830D01*
X134505831Y-67404496D01*
X134560348Y-67376719D01*
X134575835Y-67375500D01*
X147905076Y-67375500D01*
X147963267Y-67394407D01*
X147999231Y-67443907D01*
X147999231Y-67505093D01*
X147963267Y-67554593D01*
X147957902Y-67558228D01*
X147947280Y-67564930D01*
X147942613Y-67570214D01*
X147942611Y-67570216D01*
X147857044Y-67667103D01*
X147857042Y-67667105D01*
X147852377Y-67672388D01*
X147791447Y-67802163D01*
X147769391Y-67943823D01*
X147770306Y-67950820D01*
X147770306Y-67950821D01*
X147775340Y-67989320D01*
X147787980Y-68085979D01*
X147790821Y-68092435D01*
X147790821Y-68092436D01*
X147819112Y-68156731D01*
X147845720Y-68217203D01*
X147875996Y-68253221D01*
X147933431Y-68321549D01*
X147933434Y-68321551D01*
X147937970Y-68326948D01*
X147943841Y-68330856D01*
X147943842Y-68330857D01*
X147948283Y-68333813D01*
X148057313Y-68406390D01*
X148157920Y-68437821D01*
X148187425Y-68447039D01*
X148187426Y-68447039D01*
X148194157Y-68449142D01*
X148265828Y-68450456D01*
X148330445Y-68451641D01*
X148330447Y-68451641D01*
X148337499Y-68451770D01*
X148344302Y-68449915D01*
X148344304Y-68449915D01*
X148419503Y-68429413D01*
X148475817Y-68414060D01*
X148597991Y-68339045D01*
X148602727Y-68333813D01*
X148626035Y-68308063D01*
X148679103Y-68277610D01*
X148699432Y-68275500D01*
X150090622Y-68275500D01*
X150148813Y-68294407D01*
X150160626Y-68304496D01*
X156387115Y-74530985D01*
X156414892Y-74585502D01*
X156405321Y-74645934D01*
X156362056Y-74689199D01*
X156317111Y-74699989D01*
X142868045Y-74699989D01*
X142859416Y-74699612D01*
X142829333Y-74696980D01*
X142820704Y-74696225D01*
X142812337Y-74698467D01*
X142783162Y-74706285D01*
X142774727Y-74708155D01*
X142744994Y-74713397D01*
X142744992Y-74713398D01*
X142736466Y-74714901D01*
X142728967Y-74719231D01*
X142723482Y-74721227D01*
X142718195Y-74723693D01*
X142709827Y-74725935D01*
X142680455Y-74746502D01*
X142678000Y-74748221D01*
X142670719Y-74752860D01*
X142637056Y-74772295D01*
X142631489Y-74778930D01*
X142612080Y-74802060D01*
X142606246Y-74808428D01*
X135594170Y-81820504D01*
X135539653Y-81848281D01*
X135524166Y-81849500D01*
X134293338Y-81849501D01*
X134221168Y-81849501D01*
X134189632Y-81852481D01*
X134183945Y-81854478D01*
X134183941Y-81854479D01*
X134128673Y-81873888D01*
X134061817Y-81897366D01*
X134055866Y-81901761D01*
X134055865Y-81901762D01*
X134025064Y-81924512D01*
X133952850Y-81977850D01*
X133948450Y-81983807D01*
X133881565Y-82074363D01*
X133872366Y-82086817D01*
X133827481Y-82214632D01*
X133826913Y-82220639D01*
X133826913Y-82220640D01*
X133824719Y-82243852D01*
X133824500Y-82246167D01*
X133824501Y-83353832D01*
X133827481Y-83385368D01*
X133829478Y-83391055D01*
X133829479Y-83391059D01*
X133844556Y-83433991D01*
X133872366Y-83513183D01*
X133876761Y-83519134D01*
X133876762Y-83519135D01*
X133918385Y-83575488D01*
X133952850Y-83622150D01*
X133958807Y-83626550D01*
X134034030Y-83682110D01*
X134061817Y-83702634D01*
X134189632Y-83747519D01*
X134195639Y-83748087D01*
X134195640Y-83748087D01*
X134218856Y-83750282D01*
X134218866Y-83750282D01*
X134221167Y-83750500D01*
X135034650Y-83750500D01*
X135848832Y-83750499D01*
X135880368Y-83747519D01*
X135886055Y-83745522D01*
X135886059Y-83745521D01*
X135945917Y-83724500D01*
X136008183Y-83702634D01*
X136035971Y-83682110D01*
X136111193Y-83626550D01*
X136117150Y-83622150D01*
X136151615Y-83575488D01*
X136193238Y-83519135D01*
X136193239Y-83519134D01*
X136197634Y-83513183D01*
X136242519Y-83385368D01*
X136243087Y-83379360D01*
X136245282Y-83356144D01*
X136245282Y-83356134D01*
X136245500Y-83353833D01*
X136245499Y-82246168D01*
X136242519Y-82214632D01*
X136240523Y-82208947D01*
X136240521Y-82208940D01*
X136231494Y-82183237D01*
X136230051Y-82122068D01*
X136254897Y-82080429D01*
X136415578Y-81919748D01*
X151724500Y-81919748D01*
X151725448Y-81924512D01*
X151736133Y-81978231D01*
X151733056Y-81978843D01*
X151736449Y-82021933D01*
X151736604Y-82021964D01*
X151736495Y-82022513D01*
X151736594Y-82023771D01*
X151735693Y-82026544D01*
X151725948Y-82075538D01*
X151725000Y-82085160D01*
X151725000Y-82129320D01*
X151729122Y-82142005D01*
X151733243Y-82145000D01*
X153309320Y-82145000D01*
X153322005Y-82140878D01*
X153325000Y-82136757D01*
X153325000Y-82085160D01*
X153324052Y-82075538D01*
X153313396Y-82021964D01*
X153316849Y-82021277D01*
X153313501Y-81978779D01*
X153313867Y-81978231D01*
X153325500Y-81919748D01*
X153325500Y-81580252D01*
X153313867Y-81521769D01*
X153317164Y-81521113D01*
X153313797Y-81478336D01*
X153313867Y-81478231D01*
X153325500Y-81419748D01*
X153325500Y-81080252D01*
X153313867Y-81021769D01*
X153317164Y-81021113D01*
X153313797Y-80978336D01*
X153313867Y-80978231D01*
X153325500Y-80919748D01*
X153325500Y-80580252D01*
X153313867Y-80521769D01*
X153317164Y-80521113D01*
X153313797Y-80478336D01*
X153313867Y-80478231D01*
X153325500Y-80419748D01*
X153325500Y-80080252D01*
X153313867Y-80021769D01*
X153316944Y-80021157D01*
X153313551Y-79978067D01*
X153313396Y-79978036D01*
X153313505Y-79977487D01*
X153313406Y-79976229D01*
X153314307Y-79973456D01*
X153324052Y-79924462D01*
X153325000Y-79914840D01*
X153325000Y-79870680D01*
X153320878Y-79857995D01*
X153316757Y-79855000D01*
X151740680Y-79855000D01*
X151727995Y-79859122D01*
X151725000Y-79863243D01*
X151725000Y-79914840D01*
X151725948Y-79924462D01*
X151736604Y-79978036D01*
X151733151Y-79978723D01*
X151736499Y-80021221D01*
X151736133Y-80021769D01*
X151724500Y-80080252D01*
X151724500Y-80419748D01*
X151727333Y-80433991D01*
X151736133Y-80478231D01*
X151732836Y-80478887D01*
X151736203Y-80521664D01*
X151736133Y-80521769D01*
X151724500Y-80580252D01*
X151724500Y-80919748D01*
X151725448Y-80924512D01*
X151736133Y-80978231D01*
X151732836Y-80978887D01*
X151736203Y-81021664D01*
X151736133Y-81021769D01*
X151724500Y-81080252D01*
X151724500Y-81419748D01*
X151725448Y-81424512D01*
X151736133Y-81478231D01*
X151732836Y-81478887D01*
X151736203Y-81521664D01*
X151736133Y-81521769D01*
X151724500Y-81580252D01*
X151724500Y-81919748D01*
X136415578Y-81919748D01*
X138706006Y-79629320D01*
X151725000Y-79629320D01*
X151729122Y-79642005D01*
X151733243Y-79645000D01*
X152404320Y-79645000D01*
X152417005Y-79640878D01*
X152420000Y-79636757D01*
X152420000Y-79629320D01*
X152630000Y-79629320D01*
X152634122Y-79642005D01*
X152638243Y-79645000D01*
X153309320Y-79645000D01*
X153322005Y-79640878D01*
X153325000Y-79636757D01*
X153325000Y-79585160D01*
X153324052Y-79575538D01*
X153313396Y-79521964D01*
X153316630Y-79521321D01*
X153313129Y-79476899D01*
X153314401Y-79472985D01*
X153324052Y-79424462D01*
X153325000Y-79414840D01*
X153325000Y-79370680D01*
X153320878Y-79357995D01*
X153316757Y-79355000D01*
X152645680Y-79355000D01*
X152632995Y-79359122D01*
X152630000Y-79363243D01*
X152630000Y-79629320D01*
X152420000Y-79629320D01*
X152420000Y-79370680D01*
X152415878Y-79357995D01*
X152411757Y-79355000D01*
X151740680Y-79355000D01*
X151727995Y-79359122D01*
X151725000Y-79363243D01*
X151725000Y-79414840D01*
X151725948Y-79424462D01*
X151736604Y-79478036D01*
X151733370Y-79478679D01*
X151736871Y-79523101D01*
X151735599Y-79527015D01*
X151725948Y-79575538D01*
X151725000Y-79585160D01*
X151725000Y-79629320D01*
X138706006Y-79629320D01*
X139206006Y-79129320D01*
X151725000Y-79129320D01*
X151729122Y-79142005D01*
X151733243Y-79145000D01*
X152404320Y-79145000D01*
X152417005Y-79140878D01*
X152420000Y-79136757D01*
X152420000Y-79129320D01*
X152630000Y-79129320D01*
X152634122Y-79142005D01*
X152638243Y-79145000D01*
X153309320Y-79145000D01*
X153322005Y-79140878D01*
X153325000Y-79136757D01*
X153325000Y-79085160D01*
X153324052Y-79075538D01*
X153313396Y-79021964D01*
X153316630Y-79021321D01*
X153313129Y-78976899D01*
X153314401Y-78972985D01*
X153324052Y-78924462D01*
X153325000Y-78914840D01*
X153325000Y-78870680D01*
X153320878Y-78857995D01*
X153316757Y-78855000D01*
X152645680Y-78855000D01*
X152632995Y-78859122D01*
X152630000Y-78863243D01*
X152630000Y-79129320D01*
X152420000Y-79129320D01*
X152420000Y-78870680D01*
X152415878Y-78857995D01*
X152411757Y-78855000D01*
X151740680Y-78855000D01*
X151727995Y-78859122D01*
X151725000Y-78863243D01*
X151725000Y-78914840D01*
X151725948Y-78924462D01*
X151736604Y-78978036D01*
X151733370Y-78978679D01*
X151736871Y-79023101D01*
X151735599Y-79027015D01*
X151725948Y-79075538D01*
X151725000Y-79085160D01*
X151725000Y-79129320D01*
X139206006Y-79129320D01*
X139706006Y-78629320D01*
X151725000Y-78629320D01*
X151729122Y-78642005D01*
X151733243Y-78645000D01*
X152404320Y-78645000D01*
X152417005Y-78640878D01*
X152420000Y-78636757D01*
X152420000Y-78629320D01*
X152630000Y-78629320D01*
X152634122Y-78642005D01*
X152638243Y-78645000D01*
X153309320Y-78645000D01*
X153322005Y-78640878D01*
X153325000Y-78636757D01*
X153325000Y-78585160D01*
X153324052Y-78575538D01*
X153315298Y-78531526D01*
X153307979Y-78513858D01*
X153274611Y-78463918D01*
X153261082Y-78450389D01*
X153211142Y-78417021D01*
X153193474Y-78409702D01*
X153149462Y-78400948D01*
X153139840Y-78400000D01*
X152645680Y-78400000D01*
X152632995Y-78404122D01*
X152630000Y-78408243D01*
X152630000Y-78629320D01*
X152420000Y-78629320D01*
X152420000Y-78415680D01*
X152415878Y-78402995D01*
X152411757Y-78400000D01*
X151910160Y-78400000D01*
X151900538Y-78400948D01*
X151856526Y-78409702D01*
X151838858Y-78417021D01*
X151788918Y-78450389D01*
X151775389Y-78463918D01*
X151742021Y-78513858D01*
X151734702Y-78531526D01*
X151725948Y-78575538D01*
X151725000Y-78585160D01*
X151725000Y-78629320D01*
X139706006Y-78629320D01*
X142955341Y-75379985D01*
X143009858Y-75352208D01*
X143025345Y-75350989D01*
X148325500Y-75350989D01*
X148383691Y-75369896D01*
X148419655Y-75419396D01*
X148424500Y-75449989D01*
X148424500Y-77769748D01*
X148436133Y-77828231D01*
X148480448Y-77894552D01*
X148546769Y-77938867D01*
X148556332Y-77940769D01*
X148556334Y-77940770D01*
X148579005Y-77945279D01*
X148605252Y-77950500D01*
X151044748Y-77950500D01*
X151070995Y-77945279D01*
X151093666Y-77940770D01*
X151093668Y-77940769D01*
X151103231Y-77938867D01*
X151169552Y-77894552D01*
X151213867Y-77828231D01*
X151225500Y-77769748D01*
X151225500Y-76130252D01*
X151213867Y-76071769D01*
X151169552Y-76005448D01*
X151103231Y-75961133D01*
X151093668Y-75959231D01*
X151093666Y-75959230D01*
X151070995Y-75954721D01*
X151044748Y-75949500D01*
X150524500Y-75949500D01*
X150466309Y-75930593D01*
X150430345Y-75881093D01*
X150425500Y-75850500D01*
X150425500Y-75449989D01*
X150444407Y-75391798D01*
X150493907Y-75355834D01*
X150524500Y-75350989D01*
X156530393Y-75350989D01*
X156588584Y-75369896D01*
X156600397Y-75379985D01*
X174035229Y-92814817D01*
X174063006Y-92869334D01*
X174053435Y-92929766D01*
X174023415Y-92964914D01*
X174018597Y-92968414D01*
X174011658Y-92971950D01*
X173921950Y-93061658D01*
X173918415Y-93068595D01*
X173918414Y-93068597D01*
X173882820Y-93138454D01*
X173864354Y-93174696D01*
X173863135Y-93182390D01*
X173863135Y-93182391D01*
X173846316Y-93288586D01*
X173844508Y-93300000D01*
X173845727Y-93307697D01*
X173862705Y-93414890D01*
X173864354Y-93425304D01*
X173867890Y-93432243D01*
X173867890Y-93432244D01*
X173913710Y-93522170D01*
X173924500Y-93567115D01*
X173924500Y-93981466D01*
X173924123Y-93990095D01*
X173920736Y-94028807D01*
X173922978Y-94037174D01*
X173930796Y-94066349D01*
X173932666Y-94074784D01*
X173936846Y-94098490D01*
X173939412Y-94113045D01*
X173943742Y-94120544D01*
X173945738Y-94126029D01*
X173948204Y-94131316D01*
X173950446Y-94139684D01*
X173971013Y-94169056D01*
X173972732Y-94171511D01*
X173977371Y-94178792D01*
X173996806Y-94212455D01*
X174024863Y-94235998D01*
X174026571Y-94237431D01*
X174032939Y-94243265D01*
X191806736Y-112017063D01*
X191812571Y-112023431D01*
X191837545Y-112053194D01*
X191845042Y-112057523D01*
X191845044Y-112057524D01*
X191871206Y-112072628D01*
X191878484Y-112077264D01*
X191910316Y-112099553D01*
X191918682Y-112101795D01*
X191923973Y-112104262D01*
X191929450Y-112106255D01*
X191936955Y-112110588D01*
X191966038Y-112115716D01*
X191975231Y-112117337D01*
X191983657Y-112119205D01*
X192021193Y-112129263D01*
X192059896Y-112125877D01*
X192068525Y-112125500D01*
X204182885Y-112125500D01*
X204227830Y-112136290D01*
X204324696Y-112185646D01*
X204332390Y-112186865D01*
X204332391Y-112186865D01*
X204442303Y-112204273D01*
X204450000Y-112205492D01*
X204457697Y-112204273D01*
X204567609Y-112186865D01*
X204567610Y-112186865D01*
X204575304Y-112185646D01*
X204582244Y-112182110D01*
X204681403Y-112131586D01*
X204681405Y-112131585D01*
X204688342Y-112128050D01*
X204778050Y-112038342D01*
X204788893Y-112017063D01*
X204832110Y-111932244D01*
X204832110Y-111932243D01*
X204835646Y-111925304D01*
X204855492Y-111800000D01*
X204844761Y-111732244D01*
X204836865Y-111682391D01*
X204836865Y-111682390D01*
X204835646Y-111674696D01*
X204801508Y-111607697D01*
X204781586Y-111568597D01*
X204781585Y-111568595D01*
X204778050Y-111561658D01*
X204688342Y-111471950D01*
X204681405Y-111468415D01*
X204681403Y-111468414D01*
X204582244Y-111417890D01*
X204582243Y-111417890D01*
X204575304Y-111414354D01*
X204567610Y-111413135D01*
X204567609Y-111413135D01*
X204457697Y-111395727D01*
X204450000Y-111394508D01*
X204442303Y-111395727D01*
X204332391Y-111413135D01*
X204332390Y-111413135D01*
X204324696Y-111414354D01*
X204317757Y-111417890D01*
X204317756Y-111417890D01*
X204227830Y-111463710D01*
X204182885Y-111474500D01*
X192225835Y-111474500D01*
X192167644Y-111455593D01*
X192155831Y-111445504D01*
X185485327Y-104775000D01*
X187319508Y-104775000D01*
X187320727Y-104782697D01*
X187332608Y-104857709D01*
X187339354Y-104900304D01*
X187342890Y-104907243D01*
X187342890Y-104907244D01*
X187386107Y-104992061D01*
X187396950Y-105013342D01*
X187486658Y-105103050D01*
X187493595Y-105106585D01*
X187493597Y-105106586D01*
X187535774Y-105128076D01*
X187599696Y-105160646D01*
X187607390Y-105161865D01*
X187607391Y-105161865D01*
X187717303Y-105179273D01*
X187725000Y-105180492D01*
X187732697Y-105179273D01*
X187842609Y-105161865D01*
X187842610Y-105161865D01*
X187850304Y-105160646D01*
X187947170Y-105111290D01*
X187992115Y-105100500D01*
X203681466Y-105100500D01*
X203690095Y-105100877D01*
X203728807Y-105104264D01*
X203766350Y-105094204D01*
X203774784Y-105092334D01*
X203804517Y-105087092D01*
X203804519Y-105087091D01*
X203813045Y-105085588D01*
X203820544Y-105081258D01*
X203826029Y-105079262D01*
X203831316Y-105076796D01*
X203839684Y-105074554D01*
X203871511Y-105052268D01*
X203878795Y-105047627D01*
X203912455Y-105028194D01*
X203937431Y-104998429D01*
X203943265Y-104992061D01*
X214317057Y-94618269D01*
X214323425Y-94612434D01*
X214353194Y-94587455D01*
X214372629Y-94553792D01*
X214377268Y-94546511D01*
X214386330Y-94533569D01*
X214399554Y-94514684D01*
X214401796Y-94506316D01*
X214404262Y-94501029D01*
X214406258Y-94495544D01*
X214410588Y-94488045D01*
X214412127Y-94479320D01*
X214417334Y-94449784D01*
X214419204Y-94441349D01*
X214427022Y-94412174D01*
X214429264Y-94403807D01*
X214425877Y-94365095D01*
X214425500Y-94356466D01*
X214425500Y-85893070D01*
X215159500Y-85893070D01*
X215198200Y-86075142D01*
X215200308Y-86079876D01*
X215200309Y-86079880D01*
X215213714Y-86109988D01*
X215273910Y-86245189D01*
X215383320Y-86395779D01*
X215387169Y-86399245D01*
X215387173Y-86399249D01*
X215474892Y-86478231D01*
X215521649Y-86520331D01*
X215526139Y-86522923D01*
X215526140Y-86522924D01*
X215678361Y-86610809D01*
X215678363Y-86610810D01*
X215682851Y-86613401D01*
X215687780Y-86615002D01*
X215687781Y-86615003D01*
X215854948Y-86669319D01*
X215854952Y-86669320D01*
X215859880Y-86670921D01*
X215998589Y-86685500D01*
X216091411Y-86685500D01*
X216230120Y-86670921D01*
X216235048Y-86669320D01*
X216235052Y-86669319D01*
X216402219Y-86615003D01*
X216402220Y-86615002D01*
X216407149Y-86613401D01*
X216411637Y-86610810D01*
X216411639Y-86610809D01*
X216563860Y-86522924D01*
X216563861Y-86522923D01*
X216568351Y-86520331D01*
X216615108Y-86478231D01*
X216702827Y-86399249D01*
X216702831Y-86399245D01*
X216706680Y-86395779D01*
X216816090Y-86245189D01*
X216876286Y-86109988D01*
X216889691Y-86079880D01*
X216889692Y-86079876D01*
X216891800Y-86075142D01*
X216930500Y-85893070D01*
X216930500Y-85706930D01*
X216891800Y-85524858D01*
X216880733Y-85500000D01*
X216818198Y-85359545D01*
X216818197Y-85359543D01*
X216816090Y-85354811D01*
X216706680Y-85204221D01*
X216702831Y-85200755D01*
X216702827Y-85200751D01*
X216572207Y-85083141D01*
X216568351Y-85079669D01*
X216563860Y-85077076D01*
X216411639Y-84989191D01*
X216411637Y-84989190D01*
X216407149Y-84986599D01*
X216381395Y-84978231D01*
X216235052Y-84930681D01*
X216235048Y-84930680D01*
X216230120Y-84929079D01*
X216091411Y-84914500D01*
X215998589Y-84914500D01*
X215859880Y-84929079D01*
X215854952Y-84930680D01*
X215854948Y-84930681D01*
X215708605Y-84978231D01*
X215682851Y-84986599D01*
X215678363Y-84989190D01*
X215678361Y-84989191D01*
X215526140Y-85077076D01*
X215521649Y-85079669D01*
X215517793Y-85083141D01*
X215387173Y-85200751D01*
X215387169Y-85200755D01*
X215383320Y-85204221D01*
X215273910Y-85354811D01*
X215271803Y-85359543D01*
X215271802Y-85359545D01*
X215209268Y-85500000D01*
X215198200Y-85524858D01*
X215159500Y-85706930D01*
X215159500Y-85893070D01*
X214425500Y-85893070D01*
X214425500Y-83849499D01*
X214444407Y-83791308D01*
X214493907Y-83755344D01*
X214524500Y-83750499D01*
X214898832Y-83750499D01*
X214930368Y-83747519D01*
X214936055Y-83745522D01*
X214936059Y-83745521D01*
X214995917Y-83724500D01*
X215058183Y-83702634D01*
X215085971Y-83682110D01*
X215161193Y-83626550D01*
X215167150Y-83622150D01*
X215201615Y-83575488D01*
X215243238Y-83519135D01*
X215243239Y-83519134D01*
X215247634Y-83513183D01*
X215292519Y-83385368D01*
X215293087Y-83379360D01*
X215295282Y-83356144D01*
X215295282Y-83356134D01*
X215295500Y-83353833D01*
X215295499Y-82246168D01*
X215292519Y-82214632D01*
X215290522Y-82208945D01*
X215290521Y-82208941D01*
X215266619Y-82140878D01*
X215247634Y-82086817D01*
X215238436Y-82074363D01*
X215171550Y-81983807D01*
X215167150Y-81977850D01*
X215094936Y-81924512D01*
X215064135Y-81901762D01*
X215064134Y-81901761D01*
X215058183Y-81897366D01*
X214930368Y-81852481D01*
X214924361Y-81851913D01*
X214924360Y-81851913D01*
X214901144Y-81849718D01*
X214901134Y-81849718D01*
X214898833Y-81849500D01*
X214085350Y-81849500D01*
X213271168Y-81849501D01*
X213239632Y-81852481D01*
X213233945Y-81854478D01*
X213233941Y-81854479D01*
X213178673Y-81873888D01*
X213111817Y-81897366D01*
X213105866Y-81901761D01*
X213105865Y-81901762D01*
X213075064Y-81924512D01*
X213002850Y-81977850D01*
X212998450Y-81983807D01*
X212931565Y-82074363D01*
X212922366Y-82086817D01*
X212877481Y-82214632D01*
X212876913Y-82220639D01*
X212876913Y-82220640D01*
X212874719Y-82243852D01*
X212874500Y-82246167D01*
X212874501Y-83353832D01*
X212877481Y-83385368D01*
X212879478Y-83391055D01*
X212879479Y-83391059D01*
X212894556Y-83433991D01*
X212922366Y-83513183D01*
X212926761Y-83519134D01*
X212926762Y-83519135D01*
X212968385Y-83575488D01*
X213002850Y-83622150D01*
X213008807Y-83626550D01*
X213084030Y-83682110D01*
X213111817Y-83702634D01*
X213239632Y-83747519D01*
X213245639Y-83748087D01*
X213245640Y-83748087D01*
X213268856Y-83750282D01*
X213268866Y-83750282D01*
X213271167Y-83750500D01*
X213675500Y-83750500D01*
X213733691Y-83769407D01*
X213769655Y-83818907D01*
X213774500Y-83849500D01*
X213774500Y-94199166D01*
X213755593Y-94257357D01*
X213745504Y-94269170D01*
X203594170Y-104420504D01*
X203539653Y-104448281D01*
X203524166Y-104449500D01*
X202497798Y-104449500D01*
X202439607Y-104430593D01*
X202403643Y-104381093D01*
X202403643Y-104319907D01*
X202431554Y-104276929D01*
X202517827Y-104199249D01*
X202517831Y-104199245D01*
X202521680Y-104195779D01*
X202631090Y-104045189D01*
X202633198Y-104040455D01*
X202704691Y-103879880D01*
X202704692Y-103879876D01*
X202706800Y-103875142D01*
X202745500Y-103693070D01*
X202745500Y-103506930D01*
X202706800Y-103324858D01*
X202701993Y-103314060D01*
X202633198Y-103159545D01*
X202633197Y-103159543D01*
X202631090Y-103154811D01*
X202521680Y-103004221D01*
X202517831Y-103000755D01*
X202517827Y-103000751D01*
X202387207Y-102883141D01*
X202383351Y-102879669D01*
X202378860Y-102877076D01*
X202226639Y-102789191D01*
X202226637Y-102789190D01*
X202222149Y-102786599D01*
X202217219Y-102784997D01*
X202050052Y-102730681D01*
X202050048Y-102730680D01*
X202045120Y-102729079D01*
X201906411Y-102714500D01*
X201813589Y-102714500D01*
X201674880Y-102729079D01*
X201669952Y-102730680D01*
X201669948Y-102730681D01*
X201502781Y-102784997D01*
X201497851Y-102786599D01*
X201493363Y-102789190D01*
X201493361Y-102789191D01*
X201341140Y-102877076D01*
X201336649Y-102879669D01*
X201332793Y-102883141D01*
X201202173Y-103000751D01*
X201202169Y-103000755D01*
X201198320Y-103004221D01*
X201088910Y-103154811D01*
X201086803Y-103159543D01*
X201086802Y-103159545D01*
X201018008Y-103314060D01*
X201013200Y-103324858D01*
X200974500Y-103506930D01*
X200974500Y-103693070D01*
X201013200Y-103875142D01*
X201015308Y-103879876D01*
X201015309Y-103879880D01*
X201086802Y-104040455D01*
X201088910Y-104045189D01*
X201198320Y-104195779D01*
X201202169Y-104199245D01*
X201202173Y-104199249D01*
X201288446Y-104276929D01*
X201319039Y-104329917D01*
X201312643Y-104390767D01*
X201271702Y-104436237D01*
X201222202Y-104449500D01*
X187992115Y-104449500D01*
X187947170Y-104438710D01*
X187920860Y-104425304D01*
X187850304Y-104389354D01*
X187842610Y-104388135D01*
X187842609Y-104388135D01*
X187732697Y-104370727D01*
X187725000Y-104369508D01*
X187717303Y-104370727D01*
X187607391Y-104388135D01*
X187607390Y-104388135D01*
X187599696Y-104389354D01*
X187592757Y-104392890D01*
X187592756Y-104392890D01*
X187493597Y-104443414D01*
X187493595Y-104443415D01*
X187486658Y-104446950D01*
X187396950Y-104536658D01*
X187393415Y-104543595D01*
X187393414Y-104543597D01*
X187344506Y-104639585D01*
X187339354Y-104649696D01*
X187338135Y-104657390D01*
X187338135Y-104657391D01*
X187321825Y-104760371D01*
X187319508Y-104775000D01*
X185485327Y-104775000D01*
X180756494Y-100046167D01*
X198689500Y-100046167D01*
X198689501Y-101153832D01*
X198692481Y-101185368D01*
X198694478Y-101191055D01*
X198694479Y-101191059D01*
X198704800Y-101220448D01*
X198737366Y-101313183D01*
X198741761Y-101319134D01*
X198741762Y-101319135D01*
X198753957Y-101335646D01*
X198817850Y-101422150D01*
X198823807Y-101426550D01*
X198901337Y-101483814D01*
X198926817Y-101502634D01*
X199054632Y-101547519D01*
X199060639Y-101548087D01*
X199060640Y-101548087D01*
X199083856Y-101550282D01*
X199083866Y-101550282D01*
X199086167Y-101550500D01*
X199899650Y-101550500D01*
X200713832Y-101550499D01*
X200745368Y-101547519D01*
X200751055Y-101545522D01*
X200751059Y-101545521D01*
X200818694Y-101521769D01*
X200873183Y-101502634D01*
X200898664Y-101483814D01*
X200976193Y-101426550D01*
X200982150Y-101422150D01*
X201046043Y-101335646D01*
X201058238Y-101319135D01*
X201058239Y-101319134D01*
X201062634Y-101313183D01*
X201107519Y-101185368D01*
X201109675Y-101162564D01*
X201110282Y-101156144D01*
X201110282Y-101156134D01*
X201110500Y-101153833D01*
X201110499Y-100046168D01*
X201107519Y-100014632D01*
X201105522Y-100008945D01*
X201105521Y-100008941D01*
X201081284Y-99939924D01*
X201062634Y-99886817D01*
X200982150Y-99777850D01*
X200931873Y-99740715D01*
X200879135Y-99701762D01*
X200879134Y-99701761D01*
X200873183Y-99697366D01*
X200745368Y-99652481D01*
X200739361Y-99651913D01*
X200739360Y-99651913D01*
X200716144Y-99649718D01*
X200716134Y-99649718D01*
X200713833Y-99649500D01*
X199900350Y-99649500D01*
X199086168Y-99649501D01*
X199054632Y-99652481D01*
X199048945Y-99654478D01*
X199048941Y-99654479D01*
X198991996Y-99674477D01*
X198926817Y-99697366D01*
X198920866Y-99701761D01*
X198920865Y-99701762D01*
X198868127Y-99740715D01*
X198817850Y-99777850D01*
X198737366Y-99886817D01*
X198692481Y-100014632D01*
X198691913Y-100020639D01*
X198691913Y-100020640D01*
X198689719Y-100043852D01*
X198689500Y-100046167D01*
X180756494Y-100046167D01*
X174604496Y-93894170D01*
X174576719Y-93839653D01*
X174575500Y-93824166D01*
X174575500Y-93567115D01*
X174586291Y-93522169D01*
X174617440Y-93461037D01*
X174660705Y-93417773D01*
X174721137Y-93408202D01*
X174775653Y-93435979D01*
X175182082Y-93842408D01*
X175209859Y-93896924D01*
X175212705Y-93914890D01*
X175214354Y-93925304D01*
X175217890Y-93932243D01*
X175217890Y-93932244D01*
X175268406Y-94031386D01*
X175271950Y-94038342D01*
X175361658Y-94128050D01*
X175368595Y-94131585D01*
X175368597Y-94131586D01*
X175453908Y-94175054D01*
X175474696Y-94185646D01*
X175482390Y-94186865D01*
X175482391Y-94186865D01*
X175592303Y-94204273D01*
X175600000Y-94205492D01*
X175607697Y-94204273D01*
X175717609Y-94186865D01*
X175717610Y-94186865D01*
X175725304Y-94185646D01*
X175746092Y-94175054D01*
X175831403Y-94131586D01*
X175831405Y-94131585D01*
X175838342Y-94128050D01*
X175928050Y-94038342D01*
X175931595Y-94031386D01*
X175982110Y-93932244D01*
X175982110Y-93932243D01*
X175985646Y-93925304D01*
X175987296Y-93914890D01*
X176004273Y-93807697D01*
X176005492Y-93800000D01*
X175985646Y-93674696D01*
X175982110Y-93667757D01*
X175982109Y-93667753D01*
X175971322Y-93646583D01*
X175961750Y-93586151D01*
X175989527Y-93531634D01*
X176044043Y-93503856D01*
X176104476Y-93513427D01*
X176129535Y-93531633D01*
X181214959Y-98617057D01*
X181220793Y-98623424D01*
X181245773Y-98653194D01*
X181279433Y-98672627D01*
X181286717Y-98677268D01*
X181318544Y-98699554D01*
X181326912Y-98701796D01*
X181332199Y-98704262D01*
X181337684Y-98706258D01*
X181345183Y-98710588D01*
X181353709Y-98712091D01*
X181353711Y-98712092D01*
X181383444Y-98717334D01*
X181391878Y-98719204D01*
X181429421Y-98729264D01*
X181468136Y-98725877D01*
X181476765Y-98725500D01*
X184432885Y-98725500D01*
X184477830Y-98736290D01*
X184564646Y-98780525D01*
X184574696Y-98785646D01*
X184582390Y-98786865D01*
X184582391Y-98786865D01*
X184692303Y-98804273D01*
X184700000Y-98805492D01*
X184707697Y-98804273D01*
X184817609Y-98786865D01*
X184817610Y-98786865D01*
X184825304Y-98785646D01*
X184832244Y-98782110D01*
X184931403Y-98731586D01*
X184931405Y-98731585D01*
X184938342Y-98728050D01*
X185028050Y-98638342D01*
X185038896Y-98617057D01*
X185082110Y-98532244D01*
X185082110Y-98532243D01*
X185085646Y-98525304D01*
X185093116Y-98478144D01*
X185104273Y-98407697D01*
X185105492Y-98400000D01*
X185102524Y-98381263D01*
X185086865Y-98282391D01*
X185086865Y-98282390D01*
X185085646Y-98274696D01*
X185077579Y-98258864D01*
X185031586Y-98168597D01*
X185031585Y-98168595D01*
X185028050Y-98161658D01*
X184938342Y-98071950D01*
X184931405Y-98068415D01*
X184931403Y-98068414D01*
X184832244Y-98017890D01*
X184832243Y-98017890D01*
X184825304Y-98014354D01*
X184817610Y-98013135D01*
X184817609Y-98013135D01*
X184707697Y-97995727D01*
X184700000Y-97994508D01*
X184692303Y-97995727D01*
X184582391Y-98013135D01*
X184582390Y-98013135D01*
X184574696Y-98014354D01*
X184567757Y-98017890D01*
X184567756Y-98017890D01*
X184477830Y-98063710D01*
X184432885Y-98074500D01*
X181634062Y-98074500D01*
X181575871Y-98055593D01*
X181564058Y-98045504D01*
X181165225Y-97646671D01*
X198685739Y-97646671D01*
X198714614Y-97837599D01*
X198781290Y-98018821D01*
X198783930Y-98023079D01*
X198783931Y-98023081D01*
X198878332Y-98175333D01*
X198883045Y-98182934D01*
X199015721Y-98323235D01*
X199019826Y-98326109D01*
X199019829Y-98326112D01*
X199146619Y-98414890D01*
X199173898Y-98433991D01*
X199178494Y-98435980D01*
X199178496Y-98435981D01*
X199270309Y-98475712D01*
X199351115Y-98510680D01*
X199471779Y-98535888D01*
X199536408Y-98549390D01*
X199536410Y-98549390D01*
X199540133Y-98550168D01*
X199546468Y-98550500D01*
X200208259Y-98550500D01*
X200210747Y-98550247D01*
X200210752Y-98550247D01*
X200347123Y-98536395D01*
X200347127Y-98536394D01*
X200352110Y-98535888D01*
X200536373Y-98478144D01*
X200705261Y-98384528D01*
X200841501Y-98267756D01*
X200848065Y-98262130D01*
X200848067Y-98262128D01*
X200851875Y-98258864D01*
X200914080Y-98178670D01*
X200967156Y-98110246D01*
X200967159Y-98110241D01*
X200970227Y-98106286D01*
X201055481Y-97933026D01*
X201104155Y-97746163D01*
X201114261Y-97553329D01*
X201085386Y-97362401D01*
X201018710Y-97181179D01*
X200967266Y-97098208D01*
X200919599Y-97021330D01*
X200919598Y-97021329D01*
X200916955Y-97017066D01*
X200784279Y-96876765D01*
X200780174Y-96873891D01*
X200780171Y-96873888D01*
X200630208Y-96768884D01*
X200626102Y-96766009D01*
X200621506Y-96764020D01*
X200621504Y-96764019D01*
X200507943Y-96714877D01*
X200448885Y-96689320D01*
X200314062Y-96661154D01*
X200263592Y-96650610D01*
X200263590Y-96650610D01*
X200259867Y-96649832D01*
X200253532Y-96649500D01*
X199591741Y-96649500D01*
X199589253Y-96649753D01*
X199589248Y-96649753D01*
X199452877Y-96663605D01*
X199452873Y-96663606D01*
X199447890Y-96664112D01*
X199263627Y-96721856D01*
X199094739Y-96815472D01*
X199044582Y-96858462D01*
X198960118Y-96930857D01*
X198948125Y-96941136D01*
X198945048Y-96945103D01*
X198832844Y-97089754D01*
X198832841Y-97089759D01*
X198829773Y-97093714D01*
X198744519Y-97266974D01*
X198743255Y-97271828D01*
X198703484Y-97424512D01*
X198695845Y-97453837D01*
X198695582Y-97458849D01*
X198695582Y-97458851D01*
X198693478Y-97499004D01*
X198685739Y-97646671D01*
X181165225Y-97646671D01*
X178234965Y-94716411D01*
X198696792Y-94716411D01*
X198714351Y-94832512D01*
X198716834Y-94842184D01*
X198780012Y-95013897D01*
X198784383Y-95022860D01*
X198880799Y-95178363D01*
X198886889Y-95186271D01*
X199012604Y-95319211D01*
X199020157Y-95325731D01*
X199170037Y-95430677D01*
X199178741Y-95435542D01*
X199346671Y-95508212D01*
X199356171Y-95511225D01*
X199536461Y-95548890D01*
X199543990Y-95549867D01*
X199545214Y-95549931D01*
X199547824Y-95550000D01*
X199779320Y-95550000D01*
X199792005Y-95545878D01*
X199795000Y-95541757D01*
X199795000Y-95534320D01*
X200005000Y-95534320D01*
X200009122Y-95547005D01*
X200013243Y-95550000D01*
X200205725Y-95550000D01*
X200210722Y-95549747D01*
X200347022Y-95535902D01*
X200356791Y-95533897D01*
X200531391Y-95479180D01*
X200540558Y-95475251D01*
X200700595Y-95386542D01*
X200708776Y-95380856D01*
X200847701Y-95261783D01*
X200854588Y-95254550D01*
X200966721Y-95109988D01*
X200972019Y-95101510D01*
X201052794Y-94937355D01*
X201056275Y-94927996D01*
X201102393Y-94750944D01*
X201103921Y-94741072D01*
X201104990Y-94720661D01*
X201101537Y-94707774D01*
X201098526Y-94705335D01*
X201096717Y-94705000D01*
X200020680Y-94705000D01*
X200007995Y-94709122D01*
X200005000Y-94713243D01*
X200005000Y-95534320D01*
X199795000Y-95534320D01*
X199795000Y-94720680D01*
X199790878Y-94707995D01*
X199786757Y-94705000D01*
X198710746Y-94705000D01*
X198698061Y-94709122D01*
X198697306Y-94710161D01*
X198696792Y-94716411D01*
X178234965Y-94716411D01*
X177997893Y-94479339D01*
X198695010Y-94479339D01*
X198698463Y-94492226D01*
X198701474Y-94494665D01*
X198703283Y-94495000D01*
X199779320Y-94495000D01*
X199792005Y-94490878D01*
X199795000Y-94486757D01*
X199795000Y-94479320D01*
X200005000Y-94479320D01*
X200009122Y-94492005D01*
X200013243Y-94495000D01*
X201089254Y-94495000D01*
X201101939Y-94490878D01*
X201102694Y-94489839D01*
X201103208Y-94483589D01*
X201085649Y-94367488D01*
X201083166Y-94357816D01*
X201019988Y-94186103D01*
X201015617Y-94177140D01*
X200919201Y-94021637D01*
X200913111Y-94013729D01*
X200787396Y-93880789D01*
X200779843Y-93874269D01*
X200629963Y-93769323D01*
X200621259Y-93764458D01*
X200453329Y-93691788D01*
X200443829Y-93688775D01*
X200263539Y-93651110D01*
X200256010Y-93650133D01*
X200254786Y-93650069D01*
X200252176Y-93650000D01*
X200020680Y-93650000D01*
X200007995Y-93654122D01*
X200005000Y-93658243D01*
X200005000Y-94479320D01*
X199795000Y-94479320D01*
X199795000Y-93665680D01*
X199790878Y-93652995D01*
X199786757Y-93650000D01*
X199594275Y-93650000D01*
X199589278Y-93650253D01*
X199452978Y-93664098D01*
X199443209Y-93666103D01*
X199268609Y-93720820D01*
X199259442Y-93724749D01*
X199099405Y-93813458D01*
X199091224Y-93819144D01*
X198952299Y-93938217D01*
X198945412Y-93945450D01*
X198833279Y-94090012D01*
X198827981Y-94098490D01*
X198747206Y-94262645D01*
X198743725Y-94272004D01*
X198697607Y-94449056D01*
X198696079Y-94458928D01*
X198695010Y-94479339D01*
X177997893Y-94479339D01*
X176403816Y-92885262D01*
X184179520Y-92885262D01*
X184181963Y-92914354D01*
X184194333Y-93061658D01*
X184196759Y-93090553D01*
X184198092Y-93095201D01*
X184198092Y-93095202D01*
X184240224Y-93242132D01*
X184253544Y-93288586D01*
X184347712Y-93471818D01*
X184475677Y-93633270D01*
X184479357Y-93636402D01*
X184479359Y-93636404D01*
X184547387Y-93694300D01*
X184632564Y-93766791D01*
X184636787Y-93769151D01*
X184636791Y-93769154D01*
X184742498Y-93828231D01*
X184812398Y-93867297D01*
X184816996Y-93868791D01*
X185003724Y-93929463D01*
X185003726Y-93929464D01*
X185008329Y-93930959D01*
X185212894Y-93955351D01*
X185217716Y-93954980D01*
X185217719Y-93954980D01*
X185288259Y-93949552D01*
X185418300Y-93939546D01*
X185616725Y-93884145D01*
X185621038Y-93881966D01*
X185621044Y-93881964D01*
X185796289Y-93793441D01*
X185796291Y-93793440D01*
X185800610Y-93791258D01*
X185805003Y-93787826D01*
X185959135Y-93667406D01*
X185959139Y-93667402D01*
X185962951Y-93664424D01*
X185968287Y-93658243D01*
X186053873Y-93559089D01*
X186097564Y-93508472D01*
X186099957Y-93504260D01*
X186196934Y-93333550D01*
X186196935Y-93333547D01*
X186199323Y-93329344D01*
X186209085Y-93300000D01*
X186262824Y-93138454D01*
X186262824Y-93138452D01*
X186264351Y-93133863D01*
X186269948Y-93089562D01*
X186289823Y-92932228D01*
X186290171Y-92929474D01*
X186290241Y-92924512D01*
X186290544Y-92902776D01*
X186290583Y-92900000D01*
X186285800Y-92851220D01*
X186270952Y-92699780D01*
X186270951Y-92699776D01*
X186270480Y-92694970D01*
X186210935Y-92497749D01*
X186114218Y-92315849D01*
X185984011Y-92156200D01*
X185928462Y-92110246D01*
X185829002Y-92027965D01*
X185829000Y-92027964D01*
X185825275Y-92024882D01*
X185663711Y-91937525D01*
X185648309Y-91929197D01*
X185648308Y-91929197D01*
X185644055Y-91926897D01*
X185572758Y-91904827D01*
X185451875Y-91867407D01*
X185451871Y-91867406D01*
X185447254Y-91865977D01*
X185442446Y-91865472D01*
X185442443Y-91865471D01*
X185247185Y-91844949D01*
X185247183Y-91844949D01*
X185242369Y-91844443D01*
X185186800Y-91849500D01*
X185042022Y-91862675D01*
X185042017Y-91862676D01*
X185037203Y-91863114D01*
X184839572Y-91921280D01*
X184835288Y-91923519D01*
X184835287Y-91923520D01*
X184826389Y-91928172D01*
X184657002Y-92016726D01*
X184653231Y-92019758D01*
X184500220Y-92142781D01*
X184500217Y-92142783D01*
X184496447Y-92145815D01*
X184493333Y-92149526D01*
X184493332Y-92149527D01*
X184381846Y-92282391D01*
X184364024Y-92303630D01*
X184361689Y-92307878D01*
X184361688Y-92307879D01*
X184355983Y-92318257D01*
X184264776Y-92484162D01*
X184263313Y-92488775D01*
X184263311Y-92488779D01*
X184224432Y-92611344D01*
X184202484Y-92680532D01*
X184201944Y-92685344D01*
X184201944Y-92685345D01*
X184181307Y-92869334D01*
X184179520Y-92885262D01*
X176403816Y-92885262D01*
X176307675Y-92789121D01*
X176279898Y-92734604D01*
X176289469Y-92674172D01*
X176326098Y-92637545D01*
X176325097Y-92636167D01*
X176331403Y-92631586D01*
X176338342Y-92628050D01*
X176428050Y-92538342D01*
X176431724Y-92531133D01*
X176482110Y-92432244D01*
X176482110Y-92432243D01*
X176485646Y-92425304D01*
X176487296Y-92414890D01*
X176490141Y-92396924D01*
X176517918Y-92342408D01*
X182192057Y-86668269D01*
X182198425Y-86662434D01*
X182228194Y-86637455D01*
X182247629Y-86603792D01*
X182252268Y-86596511D01*
X182260251Y-86585110D01*
X182274554Y-86564684D01*
X182276796Y-86556316D01*
X182279262Y-86551029D01*
X182281258Y-86545544D01*
X182285588Y-86538045D01*
X182287592Y-86526683D01*
X182292334Y-86499784D01*
X182294204Y-86491349D01*
X182302022Y-86462174D01*
X182304264Y-86453807D01*
X182300877Y-86415091D01*
X182300500Y-86406463D01*
X182300500Y-85642115D01*
X182311290Y-85597170D01*
X182357110Y-85507244D01*
X182357110Y-85507243D01*
X182360646Y-85500304D01*
X182361926Y-85492226D01*
X182379273Y-85382697D01*
X182380492Y-85375000D01*
X182377770Y-85357816D01*
X182361865Y-85257391D01*
X182361865Y-85257390D01*
X182360646Y-85249696D01*
X182303050Y-85136658D01*
X182213342Y-85046950D01*
X182206405Y-85043415D01*
X182206403Y-85043414D01*
X182107244Y-84992890D01*
X182107243Y-84992890D01*
X182100304Y-84989354D01*
X182092610Y-84988135D01*
X182092609Y-84988135D01*
X181982697Y-84970727D01*
X181975000Y-84969508D01*
X181967303Y-84970727D01*
X181857391Y-84988135D01*
X181857390Y-84988135D01*
X181849696Y-84989354D01*
X181842757Y-84992890D01*
X181842756Y-84992890D01*
X181743597Y-85043414D01*
X181743595Y-85043415D01*
X181736658Y-85046950D01*
X181646950Y-85136658D01*
X181589354Y-85249696D01*
X181588135Y-85257390D01*
X181588135Y-85257391D01*
X181572230Y-85357816D01*
X181569508Y-85375000D01*
X181570727Y-85382697D01*
X181588075Y-85492226D01*
X181589354Y-85500304D01*
X181592890Y-85507243D01*
X181592890Y-85507244D01*
X181638710Y-85597170D01*
X181649500Y-85642115D01*
X181649500Y-86249166D01*
X181630593Y-86307357D01*
X181620504Y-86319170D01*
X176057592Y-91882082D01*
X176003076Y-91909859D01*
X175982390Y-91913135D01*
X175982388Y-91913136D01*
X175974696Y-91914354D01*
X175967757Y-91917890D01*
X175967756Y-91917890D01*
X175868597Y-91968414D01*
X175868595Y-91968415D01*
X175861658Y-91971950D01*
X175771950Y-92061658D01*
X175768414Y-92068597D01*
X175763833Y-92074903D01*
X175762455Y-92073902D01*
X175725833Y-92110528D01*
X175665402Y-92120103D01*
X175610879Y-92092325D01*
X167817918Y-84299364D01*
X167790141Y-84244848D01*
X167786865Y-84224162D01*
X167786864Y-84224160D01*
X167785646Y-84216468D01*
X167736290Y-84119602D01*
X167725500Y-84074657D01*
X167725500Y-82481900D01*
X167744407Y-82423709D01*
X167754496Y-82411896D01*
X167828050Y-82338342D01*
X167842123Y-82310722D01*
X167885388Y-82267457D01*
X167945820Y-82257886D01*
X168000337Y-82285663D01*
X174370504Y-88655830D01*
X174398281Y-88710347D01*
X174399500Y-88725834D01*
X174399500Y-88957885D01*
X174388710Y-89002830D01*
X174339354Y-89099696D01*
X174338135Y-89107390D01*
X174338135Y-89107391D01*
X174325593Y-89186578D01*
X174319508Y-89225000D01*
X174320727Y-89232697D01*
X174327017Y-89272408D01*
X174339354Y-89350304D01*
X174342890Y-89357243D01*
X174342890Y-89357244D01*
X174383009Y-89435981D01*
X174396950Y-89463342D01*
X174486658Y-89553050D01*
X174493595Y-89556585D01*
X174493597Y-89556586D01*
X174549579Y-89585110D01*
X174599696Y-89610646D01*
X174607390Y-89611865D01*
X174607391Y-89611865D01*
X174717303Y-89629273D01*
X174725000Y-89630492D01*
X174732697Y-89629273D01*
X174842609Y-89611865D01*
X174842610Y-89611865D01*
X174850304Y-89610646D01*
X174900421Y-89585110D01*
X174956403Y-89556586D01*
X174956405Y-89556585D01*
X174963342Y-89553050D01*
X175053050Y-89463342D01*
X175066992Y-89435981D01*
X175107110Y-89357244D01*
X175107110Y-89357243D01*
X175110646Y-89350304D01*
X175122984Y-89272408D01*
X175129273Y-89232697D01*
X175130492Y-89225000D01*
X175124407Y-89186578D01*
X175111865Y-89107391D01*
X175111865Y-89107390D01*
X175110646Y-89099696D01*
X175061290Y-89002830D01*
X175050500Y-88957885D01*
X175050500Y-88568534D01*
X175050877Y-88559905D01*
X175052139Y-88545483D01*
X175054264Y-88521193D01*
X175044204Y-88483650D01*
X175042334Y-88475216D01*
X175037092Y-88445483D01*
X175037091Y-88445481D01*
X175035588Y-88436955D01*
X175031258Y-88429456D01*
X175029262Y-88423971D01*
X175026796Y-88418684D01*
X175024554Y-88410316D01*
X175002268Y-88378489D01*
X174997627Y-88371205D01*
X174982523Y-88345044D01*
X174978194Y-88337545D01*
X174948429Y-88312569D01*
X174942061Y-88306735D01*
X167993758Y-81358432D01*
X167987923Y-81352064D01*
X167962944Y-81322295D01*
X167929281Y-81302860D01*
X167922000Y-81298221D01*
X167919545Y-81296502D01*
X167890173Y-81275935D01*
X167881805Y-81273693D01*
X167876518Y-81271227D01*
X167871033Y-81269231D01*
X167863534Y-81264901D01*
X167855008Y-81263398D01*
X167855006Y-81263397D01*
X167825273Y-81258155D01*
X167816838Y-81256285D01*
X167787663Y-81248467D01*
X167779296Y-81246225D01*
X167770667Y-81246980D01*
X167740584Y-81249612D01*
X167731955Y-81249989D01*
X164067780Y-81249989D01*
X164009589Y-81231082D01*
X163997776Y-81220993D01*
X158576783Y-75800000D01*
X169394508Y-75800000D01*
X169395727Y-75807697D01*
X169412287Y-75912251D01*
X169414354Y-75925304D01*
X169417890Y-75932243D01*
X169417890Y-75932244D01*
X169455190Y-76005448D01*
X169471950Y-76038342D01*
X169561658Y-76128050D01*
X169568595Y-76131585D01*
X169568597Y-76131586D01*
X169658002Y-76177140D01*
X169674696Y-76185646D01*
X169682390Y-76186865D01*
X169682391Y-76186865D01*
X169792303Y-76204273D01*
X169800000Y-76205492D01*
X169807697Y-76204273D01*
X169917609Y-76186865D01*
X169917610Y-76186865D01*
X169925304Y-76185646D01*
X170022170Y-76136290D01*
X170067115Y-76125500D01*
X171099166Y-76125500D01*
X171157357Y-76144407D01*
X171169170Y-76154496D01*
X173830145Y-78815472D01*
X176489259Y-81474586D01*
X176517036Y-81529102D01*
X176524354Y-81575304D01*
X176562725Y-81650610D01*
X176573710Y-81672170D01*
X176584500Y-81717115D01*
X176584500Y-88396466D01*
X176584123Y-88405095D01*
X176580736Y-88443807D01*
X176582978Y-88452174D01*
X176590796Y-88481349D01*
X176592666Y-88489784D01*
X176596729Y-88512826D01*
X176599412Y-88528045D01*
X176603742Y-88535544D01*
X176605738Y-88541029D01*
X176608204Y-88546316D01*
X176610446Y-88554684D01*
X176630729Y-88583651D01*
X176632732Y-88586511D01*
X176637371Y-88593792D01*
X176656806Y-88627455D01*
X176673735Y-88641660D01*
X176686571Y-88652431D01*
X176692939Y-88658265D01*
X177307082Y-89272408D01*
X177334859Y-89326924D01*
X177339354Y-89355304D01*
X177342890Y-89362243D01*
X177342890Y-89362244D01*
X177390867Y-89456403D01*
X177396950Y-89468342D01*
X177486658Y-89558050D01*
X177493595Y-89561585D01*
X177493597Y-89561586D01*
X177582943Y-89607110D01*
X177599696Y-89615646D01*
X177607390Y-89616865D01*
X177607391Y-89616865D01*
X177717303Y-89634273D01*
X177725000Y-89635492D01*
X177732697Y-89634273D01*
X177842609Y-89616865D01*
X177842610Y-89616865D01*
X177850304Y-89615646D01*
X177867057Y-89607110D01*
X177956403Y-89561586D01*
X177956405Y-89561585D01*
X177963342Y-89558050D01*
X178053050Y-89468342D01*
X178059134Y-89456403D01*
X178107110Y-89362244D01*
X178107110Y-89362243D01*
X178110646Y-89355304D01*
X178125921Y-89258864D01*
X178129273Y-89237697D01*
X178130492Y-89230000D01*
X178110646Y-89104696D01*
X178104562Y-89092756D01*
X178056586Y-88998597D01*
X178056585Y-88998595D01*
X178053050Y-88991658D01*
X177963342Y-88901950D01*
X177956405Y-88898415D01*
X177956403Y-88898414D01*
X177857244Y-88847890D01*
X177857243Y-88847890D01*
X177850304Y-88844354D01*
X177842612Y-88843136D01*
X177842610Y-88843135D01*
X177821924Y-88839859D01*
X177767408Y-88812082D01*
X177264496Y-88309170D01*
X177236719Y-88254653D01*
X177235500Y-88239166D01*
X177235500Y-81874500D01*
X177254407Y-81816309D01*
X177303907Y-81780345D01*
X177334500Y-81775500D01*
X180399166Y-81775500D01*
X180457357Y-81794407D01*
X180469170Y-81804496D01*
X187420504Y-88755830D01*
X187448281Y-88810347D01*
X187449500Y-88825834D01*
X187449500Y-91750500D01*
X187430593Y-91808691D01*
X187381093Y-91844655D01*
X187350500Y-91849500D01*
X186905252Y-91849500D01*
X186879005Y-91854721D01*
X186856334Y-91859230D01*
X186856332Y-91859231D01*
X186846769Y-91861133D01*
X186780448Y-91905448D01*
X186736133Y-91971769D01*
X186734231Y-91981332D01*
X186734230Y-91981334D01*
X186729721Y-92004005D01*
X186724500Y-92030252D01*
X186724500Y-93769748D01*
X186729072Y-93792732D01*
X186732049Y-93807697D01*
X186736133Y-93828231D01*
X186780448Y-93894552D01*
X186846769Y-93938867D01*
X186856332Y-93940769D01*
X186856334Y-93940770D01*
X186879005Y-93945279D01*
X186905252Y-93950500D01*
X188644748Y-93950500D01*
X188670995Y-93945279D01*
X188693666Y-93940770D01*
X188693668Y-93940769D01*
X188703231Y-93938867D01*
X188769552Y-93894552D01*
X188813867Y-93828231D01*
X188817952Y-93807697D01*
X188820928Y-93792732D01*
X188825500Y-93769748D01*
X188825500Y-92030252D01*
X188820279Y-92004005D01*
X188815770Y-91981334D01*
X188815769Y-91981332D01*
X188813867Y-91971769D01*
X188769552Y-91905448D01*
X188703231Y-91861133D01*
X188693668Y-91859231D01*
X188693666Y-91859230D01*
X188670995Y-91854721D01*
X188644748Y-91849500D01*
X188199500Y-91849500D01*
X188141309Y-91830593D01*
X188105345Y-91781093D01*
X188100500Y-91750500D01*
X188100500Y-91646671D01*
X198685739Y-91646671D01*
X198714614Y-91837599D01*
X198781290Y-92018821D01*
X198783930Y-92023079D01*
X198783931Y-92023081D01*
X198877937Y-92174696D01*
X198883045Y-92182934D01*
X199015721Y-92323235D01*
X199019826Y-92326109D01*
X199019829Y-92326112D01*
X199160138Y-92424356D01*
X199173898Y-92433991D01*
X199178494Y-92435980D01*
X199178496Y-92435981D01*
X199266300Y-92473977D01*
X199351115Y-92510680D01*
X199471779Y-92535888D01*
X199536408Y-92549390D01*
X199536410Y-92549390D01*
X199540133Y-92550168D01*
X199546468Y-92550500D01*
X200208259Y-92550500D01*
X200210747Y-92550247D01*
X200210752Y-92550247D01*
X200347123Y-92536395D01*
X200347127Y-92536394D01*
X200352110Y-92535888D01*
X200502436Y-92488779D01*
X200531590Y-92479643D01*
X200531591Y-92479643D01*
X200536373Y-92478144D01*
X200705261Y-92384528D01*
X200791558Y-92310562D01*
X200848065Y-92262130D01*
X200848067Y-92262128D01*
X200851875Y-92258864D01*
X200903001Y-92192953D01*
X200967156Y-92110246D01*
X200967159Y-92110241D01*
X200970227Y-92106286D01*
X201055481Y-91933026D01*
X201093611Y-91786643D01*
X201102890Y-91751021D01*
X201102891Y-91751017D01*
X201104155Y-91746163D01*
X201114261Y-91553329D01*
X201085386Y-91362401D01*
X201018710Y-91181179D01*
X200967266Y-91098208D01*
X200919599Y-91021330D01*
X200919598Y-91021329D01*
X200916955Y-91017066D01*
X200784279Y-90876765D01*
X200780174Y-90873891D01*
X200780171Y-90873888D01*
X200630208Y-90768884D01*
X200626102Y-90766009D01*
X200621506Y-90764020D01*
X200621504Y-90764019D01*
X200453481Y-90691309D01*
X200453482Y-90691309D01*
X200448885Y-90689320D01*
X200314062Y-90661154D01*
X200263592Y-90650610D01*
X200263590Y-90650610D01*
X200259867Y-90649832D01*
X200253532Y-90649500D01*
X199591741Y-90649500D01*
X199589253Y-90649753D01*
X199589248Y-90649753D01*
X199452877Y-90663605D01*
X199452873Y-90663606D01*
X199447890Y-90664112D01*
X199263627Y-90721856D01*
X199094739Y-90815472D01*
X199090930Y-90818737D01*
X198973079Y-90919748D01*
X198948125Y-90941136D01*
X198945048Y-90945103D01*
X198832844Y-91089754D01*
X198832841Y-91089759D01*
X198829773Y-91093714D01*
X198744519Y-91266974D01*
X198743255Y-91271828D01*
X198703484Y-91424512D01*
X198695845Y-91453837D01*
X198695582Y-91458849D01*
X198695582Y-91458851D01*
X198694532Y-91478887D01*
X198685739Y-91646671D01*
X188100500Y-91646671D01*
X188100500Y-88668534D01*
X188100877Y-88659905D01*
X188102035Y-88646671D01*
X198685739Y-88646671D01*
X198714614Y-88837599D01*
X198781290Y-89018821D01*
X198783930Y-89023079D01*
X198783931Y-89023081D01*
X198834535Y-89104696D01*
X198883045Y-89182934D01*
X199015721Y-89323235D01*
X199019826Y-89326109D01*
X199019829Y-89326112D01*
X199098594Y-89381263D01*
X199173898Y-89433991D01*
X199178494Y-89435980D01*
X199178496Y-89435981D01*
X199237243Y-89461403D01*
X199351115Y-89510680D01*
X199471779Y-89535888D01*
X199536408Y-89549390D01*
X199536410Y-89549390D01*
X199540133Y-89550168D01*
X199546468Y-89550500D01*
X200208259Y-89550500D01*
X200210747Y-89550247D01*
X200210752Y-89550247D01*
X200347123Y-89536395D01*
X200347127Y-89536394D01*
X200352110Y-89535888D01*
X200536373Y-89478144D01*
X200705261Y-89384528D01*
X200851875Y-89258864D01*
X200914080Y-89178670D01*
X200967156Y-89110246D01*
X200967159Y-89110241D01*
X200970227Y-89106286D01*
X201055481Y-88933026D01*
X201083402Y-88825834D01*
X201102890Y-88751021D01*
X201102891Y-88751017D01*
X201104155Y-88746163D01*
X201105221Y-88725834D01*
X201108676Y-88659905D01*
X201114261Y-88553329D01*
X201113075Y-88545483D01*
X201103003Y-88478887D01*
X201085386Y-88362401D01*
X201018710Y-88181179D01*
X200967266Y-88098208D01*
X200919599Y-88021330D01*
X200919598Y-88021329D01*
X200916955Y-88017066D01*
X200784279Y-87876765D01*
X200780174Y-87873891D01*
X200780171Y-87873888D01*
X200630208Y-87768884D01*
X200626102Y-87766009D01*
X200621506Y-87764020D01*
X200621504Y-87764019D01*
X200453481Y-87691309D01*
X200453482Y-87691309D01*
X200448885Y-87689320D01*
X200314062Y-87661154D01*
X200263592Y-87650610D01*
X200263590Y-87650610D01*
X200259867Y-87649832D01*
X200253532Y-87649500D01*
X199591741Y-87649500D01*
X199589253Y-87649753D01*
X199589248Y-87649753D01*
X199452877Y-87663605D01*
X199452873Y-87663606D01*
X199447890Y-87664112D01*
X199263627Y-87721856D01*
X199094739Y-87815472D01*
X199090930Y-87818737D01*
X198973079Y-87919748D01*
X198948125Y-87941136D01*
X198945048Y-87945103D01*
X198832844Y-88089754D01*
X198832841Y-88089759D01*
X198829773Y-88093714D01*
X198744519Y-88266974D01*
X198727587Y-88331978D01*
X198698458Y-88443807D01*
X198695845Y-88453837D01*
X198695582Y-88458849D01*
X198695582Y-88458851D01*
X198692403Y-88519517D01*
X198685739Y-88646671D01*
X188102035Y-88646671D01*
X188103509Y-88629822D01*
X188104264Y-88621193D01*
X188094204Y-88583650D01*
X188092334Y-88575216D01*
X188087092Y-88545483D01*
X188087091Y-88545481D01*
X188085588Y-88536955D01*
X188081258Y-88529456D01*
X188079262Y-88523971D01*
X188076796Y-88518684D01*
X188074554Y-88510316D01*
X188052268Y-88478489D01*
X188047627Y-88471205D01*
X188028194Y-88437545D01*
X187998429Y-88412569D01*
X187992061Y-88406735D01*
X185301737Y-85716411D01*
X198696792Y-85716411D01*
X198714351Y-85832512D01*
X198716834Y-85842184D01*
X198780012Y-86013897D01*
X198784383Y-86022860D01*
X198880799Y-86178363D01*
X198886889Y-86186271D01*
X199012604Y-86319211D01*
X199020157Y-86325731D01*
X199170037Y-86430677D01*
X199178741Y-86435542D01*
X199346671Y-86508212D01*
X199356171Y-86511225D01*
X199536461Y-86548890D01*
X199543990Y-86549867D01*
X199545214Y-86549931D01*
X199547824Y-86550000D01*
X199779320Y-86550000D01*
X199792005Y-86545878D01*
X199795000Y-86541757D01*
X199795000Y-86534320D01*
X200005000Y-86534320D01*
X200009122Y-86547005D01*
X200013243Y-86550000D01*
X200205725Y-86550000D01*
X200210722Y-86549747D01*
X200347022Y-86535902D01*
X200356791Y-86533897D01*
X200531391Y-86479180D01*
X200540558Y-86475251D01*
X200700595Y-86386542D01*
X200708776Y-86380856D01*
X200847701Y-86261783D01*
X200854588Y-86254550D01*
X200966721Y-86109988D01*
X200972019Y-86101510D01*
X201052794Y-85937355D01*
X201056275Y-85927996D01*
X201102393Y-85750944D01*
X201103921Y-85741072D01*
X201104990Y-85720661D01*
X201101537Y-85707774D01*
X201098526Y-85705335D01*
X201096717Y-85705000D01*
X200020680Y-85705000D01*
X200007995Y-85709122D01*
X200005000Y-85713243D01*
X200005000Y-86534320D01*
X199795000Y-86534320D01*
X199795000Y-85720680D01*
X199790878Y-85707995D01*
X199786757Y-85705000D01*
X198710746Y-85705000D01*
X198698061Y-85709122D01*
X198697306Y-85710161D01*
X198696792Y-85716411D01*
X185301737Y-85716411D01*
X185064665Y-85479339D01*
X198695010Y-85479339D01*
X198698463Y-85492226D01*
X198701474Y-85494665D01*
X198703283Y-85495000D01*
X199779320Y-85495000D01*
X199792005Y-85490878D01*
X199795000Y-85486757D01*
X199795000Y-85479320D01*
X200005000Y-85479320D01*
X200009122Y-85492005D01*
X200013243Y-85495000D01*
X201089254Y-85495000D01*
X201101939Y-85490878D01*
X201102694Y-85489839D01*
X201103208Y-85483589D01*
X201085649Y-85367488D01*
X201083166Y-85357816D01*
X201019988Y-85186103D01*
X201015617Y-85177140D01*
X200919201Y-85021637D01*
X200913111Y-85013729D01*
X200787396Y-84880789D01*
X200779843Y-84874269D01*
X200629963Y-84769323D01*
X200621259Y-84764458D01*
X200453329Y-84691788D01*
X200443829Y-84688775D01*
X200263539Y-84651110D01*
X200256010Y-84650133D01*
X200254786Y-84650069D01*
X200252176Y-84650000D01*
X200020680Y-84650000D01*
X200007995Y-84654122D01*
X200005000Y-84658243D01*
X200005000Y-85479320D01*
X199795000Y-85479320D01*
X199795000Y-84665680D01*
X199790878Y-84652995D01*
X199786757Y-84650000D01*
X199594275Y-84650000D01*
X199589278Y-84650253D01*
X199452978Y-84664098D01*
X199443209Y-84666103D01*
X199268609Y-84720820D01*
X199259442Y-84724749D01*
X199099405Y-84813458D01*
X199091224Y-84819144D01*
X198952299Y-84938217D01*
X198945412Y-84945450D01*
X198833279Y-85090012D01*
X198827981Y-85098490D01*
X198747206Y-85262645D01*
X198743725Y-85272004D01*
X198697607Y-85449056D01*
X198696079Y-85458928D01*
X198695010Y-85479339D01*
X185064665Y-85479339D01*
X180818269Y-81232943D01*
X180812434Y-81226575D01*
X180807750Y-81220993D01*
X180787455Y-81196806D01*
X180753792Y-81177371D01*
X180746511Y-81172732D01*
X180744056Y-81171013D01*
X180714684Y-81150446D01*
X180706316Y-81148204D01*
X180701029Y-81145738D01*
X180695544Y-81143742D01*
X180688045Y-81139412D01*
X180679519Y-81137909D01*
X180679517Y-81137908D01*
X180649784Y-81132666D01*
X180641349Y-81130796D01*
X180612174Y-81122978D01*
X180603807Y-81120736D01*
X180578182Y-81122978D01*
X180565095Y-81124123D01*
X180556466Y-81124500D01*
X177177115Y-81124500D01*
X177132170Y-81113710D01*
X177042244Y-81067890D01*
X177042243Y-81067890D01*
X177035304Y-81064354D01*
X177024747Y-81062682D01*
X177022165Y-81061367D01*
X177020200Y-81060728D01*
X177020301Y-81060417D01*
X176970232Y-81034905D01*
X171518269Y-75582943D01*
X171512434Y-75576575D01*
X171495297Y-75556152D01*
X171487455Y-75546806D01*
X171453792Y-75527371D01*
X171446511Y-75522732D01*
X171444056Y-75521013D01*
X171414684Y-75500446D01*
X171406316Y-75498204D01*
X171401029Y-75495738D01*
X171395544Y-75493742D01*
X171388045Y-75489412D01*
X171379519Y-75487909D01*
X171379517Y-75487908D01*
X171349784Y-75482666D01*
X171341349Y-75480796D01*
X171312174Y-75472978D01*
X171303807Y-75470736D01*
X171278182Y-75472978D01*
X171265095Y-75474123D01*
X171256466Y-75474500D01*
X170067115Y-75474500D01*
X170022170Y-75463710D01*
X169932244Y-75417890D01*
X169932243Y-75417890D01*
X169925304Y-75414354D01*
X169917610Y-75413135D01*
X169917609Y-75413135D01*
X169807697Y-75395727D01*
X169800000Y-75394508D01*
X169792303Y-75395727D01*
X169682391Y-75413135D01*
X169682390Y-75413135D01*
X169674696Y-75414354D01*
X169667757Y-75417890D01*
X169667756Y-75417890D01*
X169568597Y-75468414D01*
X169568595Y-75468415D01*
X169561658Y-75471950D01*
X169471950Y-75561658D01*
X169468415Y-75568595D01*
X169468414Y-75568597D01*
X169426808Y-75650253D01*
X169414354Y-75674696D01*
X169413135Y-75682390D01*
X169413135Y-75682391D01*
X169396448Y-75787749D01*
X169394508Y-75800000D01*
X158576783Y-75800000D01*
X156370786Y-73594003D01*
X156343009Y-73539487D01*
X156352580Y-73479055D01*
X156395845Y-73435790D01*
X156440790Y-73425000D01*
X158179320Y-73425000D01*
X158192005Y-73420878D01*
X158195000Y-73416757D01*
X158195000Y-73409320D01*
X158405000Y-73409320D01*
X158409122Y-73422005D01*
X158413243Y-73425000D01*
X160564840Y-73425000D01*
X160574462Y-73424052D01*
X160618474Y-73415298D01*
X160636142Y-73407979D01*
X160686082Y-73374611D01*
X160699611Y-73361082D01*
X160732979Y-73311142D01*
X160740298Y-73293474D01*
X160749052Y-73249462D01*
X160750000Y-73239840D01*
X160750000Y-71870680D01*
X160745878Y-71857995D01*
X160741757Y-71855000D01*
X158420680Y-71855000D01*
X158407995Y-71859122D01*
X158405000Y-71863243D01*
X158405000Y-73409320D01*
X158195000Y-73409320D01*
X158195000Y-71870680D01*
X158190878Y-71857995D01*
X158186757Y-71855000D01*
X155865680Y-71855000D01*
X155852995Y-71859122D01*
X155850000Y-71863243D01*
X155850000Y-72834210D01*
X155831093Y-72892401D01*
X155781593Y-72928365D01*
X155720407Y-72928365D01*
X155680996Y-72904214D01*
X154406102Y-71629320D01*
X155850000Y-71629320D01*
X155854122Y-71642005D01*
X155858243Y-71645000D01*
X158179320Y-71645000D01*
X158192005Y-71640878D01*
X158195000Y-71636757D01*
X158195000Y-71629320D01*
X158405000Y-71629320D01*
X158409122Y-71642005D01*
X158413243Y-71645000D01*
X160734320Y-71645000D01*
X160747005Y-71640878D01*
X160750000Y-71636757D01*
X160750000Y-70260160D01*
X160749052Y-70250538D01*
X160740298Y-70206526D01*
X160732979Y-70188858D01*
X160699611Y-70138918D01*
X160686082Y-70125389D01*
X160636142Y-70092021D01*
X160618474Y-70084702D01*
X160574462Y-70075948D01*
X160564840Y-70075000D01*
X158420680Y-70075000D01*
X158407995Y-70079122D01*
X158405000Y-70083243D01*
X158405000Y-71629320D01*
X158195000Y-71629320D01*
X158195000Y-70090680D01*
X158190878Y-70077995D01*
X158186757Y-70075000D01*
X156035160Y-70075000D01*
X156025538Y-70075948D01*
X155981526Y-70084702D01*
X155963858Y-70092021D01*
X155913918Y-70125389D01*
X155900389Y-70138918D01*
X155867021Y-70188858D01*
X155859702Y-70206526D01*
X155850948Y-70250538D01*
X155850000Y-70260160D01*
X155850000Y-71629320D01*
X154406102Y-71629320D01*
X150509725Y-67732943D01*
X150503890Y-67726575D01*
X150478911Y-67696806D01*
X150445248Y-67677371D01*
X150437967Y-67672732D01*
X150429928Y-67667103D01*
X150406140Y-67650446D01*
X150397772Y-67648204D01*
X150392485Y-67645738D01*
X150387000Y-67643742D01*
X150379501Y-67639412D01*
X150370975Y-67637909D01*
X150370973Y-67637908D01*
X150341240Y-67632666D01*
X150332805Y-67630796D01*
X150303630Y-67622978D01*
X150295263Y-67620736D01*
X150286634Y-67621491D01*
X150256551Y-67624123D01*
X150247922Y-67624500D01*
X148700632Y-67624500D01*
X148642441Y-67605593D01*
X148625634Y-67590124D01*
X148612006Y-67574308D01*
X148612004Y-67574306D01*
X148607400Y-67568963D01*
X148589829Y-67557574D01*
X148551284Y-67510058D01*
X148548029Y-67448959D01*
X148581309Y-67397616D01*
X148643678Y-67375500D01*
X158522656Y-67375500D01*
X158580847Y-67394407D01*
X158610866Y-67429556D01*
X158634450Y-67475842D01*
X158724158Y-67565550D01*
X158731095Y-67569085D01*
X158731097Y-67569086D01*
X158802746Y-67605593D01*
X158837196Y-67623146D01*
X158844890Y-67624365D01*
X158844891Y-67624365D01*
X158954803Y-67641773D01*
X158962500Y-67642992D01*
X158970197Y-67641773D01*
X159080109Y-67624365D01*
X159080110Y-67624365D01*
X159087804Y-67623146D01*
X159184670Y-67573790D01*
X159229615Y-67563000D01*
X183736666Y-67563000D01*
X183794857Y-67581907D01*
X183806670Y-67591996D01*
X185331731Y-69117057D01*
X185337565Y-69123424D01*
X185362545Y-69153194D01*
X185370047Y-69157525D01*
X185376680Y-69163091D01*
X185376323Y-69163517D01*
X185384354Y-69169680D01*
X198663317Y-82448643D01*
X198691094Y-82503160D01*
X198692177Y-82523828D01*
X198685739Y-82646671D01*
X198714614Y-82837599D01*
X198781290Y-83018821D01*
X198783930Y-83023079D01*
X198783931Y-83023081D01*
X198835521Y-83106286D01*
X198883045Y-83182934D01*
X199015721Y-83323235D01*
X199019826Y-83326109D01*
X199019829Y-83326112D01*
X199146619Y-83414890D01*
X199173898Y-83433991D01*
X199178494Y-83435980D01*
X199178496Y-83435981D01*
X199270309Y-83475712D01*
X199351115Y-83510680D01*
X199471779Y-83535888D01*
X199536408Y-83549390D01*
X199536410Y-83549390D01*
X199540133Y-83550168D01*
X199546468Y-83550500D01*
X200208259Y-83550500D01*
X200210747Y-83550247D01*
X200210752Y-83550247D01*
X200347123Y-83536395D01*
X200347127Y-83536394D01*
X200352110Y-83535888D01*
X200536373Y-83478144D01*
X200705261Y-83384528D01*
X200803881Y-83300000D01*
X200848065Y-83262130D01*
X200848067Y-83262128D01*
X200851875Y-83258864D01*
X200922546Y-83167756D01*
X200967156Y-83110246D01*
X200967159Y-83110241D01*
X200970227Y-83106286D01*
X201055481Y-82933026D01*
X201104155Y-82746163D01*
X201114261Y-82553329D01*
X201109396Y-82521157D01*
X201094658Y-82423709D01*
X201085386Y-82362401D01*
X201018710Y-82181179D01*
X201012519Y-82171193D01*
X200919599Y-82021330D01*
X200919598Y-82021329D01*
X200916955Y-82017066D01*
X200784279Y-81876765D01*
X200780174Y-81873891D01*
X200780171Y-81873888D01*
X200630208Y-81768884D01*
X200626102Y-81766009D01*
X200621506Y-81764020D01*
X200621504Y-81764019D01*
X200453481Y-81691309D01*
X200453482Y-81691309D01*
X200448885Y-81689320D01*
X200314062Y-81661154D01*
X200263592Y-81650610D01*
X200263590Y-81650610D01*
X200259867Y-81649832D01*
X200253532Y-81649500D01*
X199591741Y-81649500D01*
X199589253Y-81649753D01*
X199589248Y-81649753D01*
X199452877Y-81663605D01*
X199452873Y-81663606D01*
X199447890Y-81664112D01*
X199304869Y-81708932D01*
X199278756Y-81717115D01*
X199263627Y-81721856D01*
X199094739Y-81815472D01*
X199090927Y-81818739D01*
X199090926Y-81818740D01*
X199086832Y-81822248D01*
X199030344Y-81845758D01*
X198970825Y-81831574D01*
X198952406Y-81817080D01*
X196781997Y-79646671D01*
X198685739Y-79646671D01*
X198714614Y-79837599D01*
X198781290Y-80018821D01*
X198783930Y-80023079D01*
X198783931Y-80023081D01*
X198880401Y-80178670D01*
X198883045Y-80182934D01*
X199015721Y-80323235D01*
X199019826Y-80326109D01*
X199019829Y-80326112D01*
X199094452Y-80378363D01*
X199173898Y-80433991D01*
X199178494Y-80435980D01*
X199178496Y-80435981D01*
X199270309Y-80475712D01*
X199351115Y-80510680D01*
X199471779Y-80535888D01*
X199536408Y-80549390D01*
X199536410Y-80549390D01*
X199540133Y-80550168D01*
X199546468Y-80550500D01*
X200208259Y-80550500D01*
X200210747Y-80550247D01*
X200210752Y-80550247D01*
X200347123Y-80536395D01*
X200347127Y-80536394D01*
X200352110Y-80535888D01*
X200536373Y-80478144D01*
X200705261Y-80384528D01*
X200792228Y-80309988D01*
X200848065Y-80262130D01*
X200848067Y-80262128D01*
X200851875Y-80258864D01*
X200914080Y-80178670D01*
X200967156Y-80110246D01*
X200967159Y-80110241D01*
X200970227Y-80106286D01*
X201055481Y-79933026D01*
X201059809Y-79916411D01*
X212881792Y-79916411D01*
X212899351Y-80032512D01*
X212901834Y-80042184D01*
X212965012Y-80213897D01*
X212969383Y-80222860D01*
X213065799Y-80378363D01*
X213071889Y-80386271D01*
X213197604Y-80519211D01*
X213205157Y-80525731D01*
X213355037Y-80630677D01*
X213363741Y-80635542D01*
X213531671Y-80708212D01*
X213541171Y-80711225D01*
X213721461Y-80748890D01*
X213728990Y-80749867D01*
X213730214Y-80749931D01*
X213732824Y-80750000D01*
X213964320Y-80750000D01*
X213977005Y-80745878D01*
X213980000Y-80741757D01*
X213980000Y-80734320D01*
X214190000Y-80734320D01*
X214194122Y-80747005D01*
X214198243Y-80750000D01*
X214390725Y-80750000D01*
X214395722Y-80749747D01*
X214532022Y-80735902D01*
X214541791Y-80733897D01*
X214716391Y-80679180D01*
X214725558Y-80675251D01*
X214885595Y-80586542D01*
X214893776Y-80580856D01*
X215032701Y-80461783D01*
X215039588Y-80454550D01*
X215151721Y-80309988D01*
X215157019Y-80301510D01*
X215237794Y-80137355D01*
X215241275Y-80127996D01*
X215287393Y-79950944D01*
X215288921Y-79941072D01*
X215289990Y-79920661D01*
X215286537Y-79907774D01*
X215283526Y-79905335D01*
X215281717Y-79905000D01*
X214205680Y-79905000D01*
X214192995Y-79909122D01*
X214190000Y-79913243D01*
X214190000Y-80734320D01*
X213980000Y-80734320D01*
X213980000Y-79920680D01*
X213975878Y-79907995D01*
X213971757Y-79905000D01*
X212895746Y-79905000D01*
X212883061Y-79909122D01*
X212882306Y-79910161D01*
X212881792Y-79916411D01*
X201059809Y-79916411D01*
X201104155Y-79746163D01*
X201107657Y-79679339D01*
X212880010Y-79679339D01*
X212883463Y-79692226D01*
X212886474Y-79694665D01*
X212888283Y-79695000D01*
X213964320Y-79695000D01*
X213977005Y-79690878D01*
X213980000Y-79686757D01*
X213980000Y-79679320D01*
X214190000Y-79679320D01*
X214194122Y-79692005D01*
X214198243Y-79695000D01*
X215274254Y-79695000D01*
X215286939Y-79690878D01*
X215287694Y-79689839D01*
X215288208Y-79683589D01*
X215270649Y-79567488D01*
X215268166Y-79557816D01*
X215204988Y-79386103D01*
X215200617Y-79377140D01*
X215104201Y-79221637D01*
X215098111Y-79213729D01*
X214972396Y-79080789D01*
X214964843Y-79074269D01*
X214814963Y-78969323D01*
X214806259Y-78964458D01*
X214638329Y-78891788D01*
X214628829Y-78888775D01*
X214448539Y-78851110D01*
X214441010Y-78850133D01*
X214439786Y-78850069D01*
X214437176Y-78850000D01*
X214205680Y-78850000D01*
X214192995Y-78854122D01*
X214190000Y-78858243D01*
X214190000Y-79679320D01*
X213980000Y-79679320D01*
X213980000Y-78865680D01*
X213975878Y-78852995D01*
X213971757Y-78850000D01*
X213779275Y-78850000D01*
X213774278Y-78850253D01*
X213637978Y-78864098D01*
X213628209Y-78866103D01*
X213453609Y-78920820D01*
X213444442Y-78924749D01*
X213284405Y-79013458D01*
X213276224Y-79019144D01*
X213137299Y-79138217D01*
X213130412Y-79145450D01*
X213018279Y-79290012D01*
X213012981Y-79298490D01*
X212932206Y-79462645D01*
X212928725Y-79472004D01*
X212882607Y-79649056D01*
X212881079Y-79658928D01*
X212880010Y-79679339D01*
X201107657Y-79679339D01*
X201114261Y-79553329D01*
X201109690Y-79523101D01*
X201100546Y-79462645D01*
X201085386Y-79362401D01*
X201018710Y-79181179D01*
X200992073Y-79138217D01*
X200919599Y-79021330D01*
X200919598Y-79021329D01*
X200916955Y-79017066D01*
X200784279Y-78876765D01*
X200780174Y-78873891D01*
X200780171Y-78873888D01*
X200630208Y-78768884D01*
X200626102Y-78766009D01*
X200621506Y-78764020D01*
X200621504Y-78764019D01*
X200453481Y-78691309D01*
X200453482Y-78691309D01*
X200448885Y-78689320D01*
X200314062Y-78661154D01*
X200263592Y-78650610D01*
X200263590Y-78650610D01*
X200259867Y-78649832D01*
X200253532Y-78649500D01*
X199591741Y-78649500D01*
X199589253Y-78649753D01*
X199589248Y-78649753D01*
X199452877Y-78663605D01*
X199452873Y-78663606D01*
X199447890Y-78664112D01*
X199263627Y-78721856D01*
X199094739Y-78815472D01*
X199043812Y-78859122D01*
X198967579Y-78924462D01*
X198948125Y-78941136D01*
X198945048Y-78945103D01*
X198832844Y-79089754D01*
X198832841Y-79089759D01*
X198829773Y-79093714D01*
X198744519Y-79266974D01*
X198743255Y-79271828D01*
X198703497Y-79424462D01*
X198695845Y-79453837D01*
X198685739Y-79646671D01*
X196781997Y-79646671D01*
X193851737Y-76716411D01*
X198696792Y-76716411D01*
X198714351Y-76832512D01*
X198716834Y-76842184D01*
X198780012Y-77013897D01*
X198784383Y-77022860D01*
X198880799Y-77178363D01*
X198886889Y-77186271D01*
X199012604Y-77319211D01*
X199020157Y-77325731D01*
X199170037Y-77430677D01*
X199178741Y-77435542D01*
X199346671Y-77508212D01*
X199356171Y-77511225D01*
X199536461Y-77548890D01*
X199543990Y-77549867D01*
X199545214Y-77549931D01*
X199547824Y-77550000D01*
X199779320Y-77550000D01*
X199792005Y-77545878D01*
X199795000Y-77541757D01*
X199795000Y-77534320D01*
X200005000Y-77534320D01*
X200009122Y-77547005D01*
X200013243Y-77550000D01*
X200205725Y-77550000D01*
X200210722Y-77549747D01*
X200347022Y-77535902D01*
X200356791Y-77533897D01*
X200531391Y-77479180D01*
X200540558Y-77475251D01*
X200700595Y-77386542D01*
X200708776Y-77380856D01*
X200847701Y-77261783D01*
X200854588Y-77254550D01*
X200966721Y-77109988D01*
X200972019Y-77101510D01*
X201052794Y-76937355D01*
X201056275Y-76927996D01*
X201102393Y-76750944D01*
X201103921Y-76741072D01*
X201104990Y-76720661D01*
X201101537Y-76707774D01*
X201098526Y-76705335D01*
X201096717Y-76705000D01*
X200020680Y-76705000D01*
X200007995Y-76709122D01*
X200005000Y-76713243D01*
X200005000Y-77534320D01*
X199795000Y-77534320D01*
X199795000Y-76720680D01*
X199790878Y-76707995D01*
X199786757Y-76705000D01*
X198710746Y-76705000D01*
X198698061Y-76709122D01*
X198697306Y-76710161D01*
X198696792Y-76716411D01*
X193851737Y-76716411D01*
X193614665Y-76479339D01*
X198695010Y-76479339D01*
X198698463Y-76492226D01*
X198701474Y-76494665D01*
X198703283Y-76495000D01*
X199779320Y-76495000D01*
X199792005Y-76490878D01*
X199795000Y-76486757D01*
X199795000Y-76479320D01*
X200005000Y-76479320D01*
X200009122Y-76492005D01*
X200013243Y-76495000D01*
X201089254Y-76495000D01*
X201101939Y-76490878D01*
X201102694Y-76489839D01*
X201103208Y-76483589D01*
X201085649Y-76367488D01*
X201083166Y-76357816D01*
X201019988Y-76186103D01*
X201015617Y-76177140D01*
X200919201Y-76021637D01*
X200913111Y-76013729D01*
X200787396Y-75880789D01*
X200779843Y-75874269D01*
X200629963Y-75769323D01*
X200621259Y-75764458D01*
X200453329Y-75691788D01*
X200443829Y-75688775D01*
X200263539Y-75651110D01*
X200256010Y-75650133D01*
X200254786Y-75650069D01*
X200252176Y-75650000D01*
X200020680Y-75650000D01*
X200007995Y-75654122D01*
X200005000Y-75658243D01*
X200005000Y-76479320D01*
X199795000Y-76479320D01*
X199795000Y-75665680D01*
X199790878Y-75652995D01*
X199786757Y-75650000D01*
X199594275Y-75650000D01*
X199589278Y-75650253D01*
X199452978Y-75664098D01*
X199443209Y-75666103D01*
X199268609Y-75720820D01*
X199259442Y-75724749D01*
X199099405Y-75813458D01*
X199091224Y-75819144D01*
X198952299Y-75938217D01*
X198945412Y-75945450D01*
X198833279Y-76090012D01*
X198827981Y-76098490D01*
X198747206Y-76262645D01*
X198743725Y-76272004D01*
X198697607Y-76449056D01*
X198696079Y-76458928D01*
X198695010Y-76479339D01*
X193614665Y-76479339D01*
X192128396Y-74993070D01*
X215134500Y-74993070D01*
X215173200Y-75175142D01*
X215248910Y-75345189D01*
X215358320Y-75495779D01*
X215362169Y-75499245D01*
X215362173Y-75499249D01*
X215455125Y-75582943D01*
X215496649Y-75620331D01*
X215501139Y-75622923D01*
X215501140Y-75622924D01*
X215653361Y-75710809D01*
X215653363Y-75710810D01*
X215657851Y-75713401D01*
X215662783Y-75715003D01*
X215662784Y-75715004D01*
X215718457Y-75733093D01*
X215800981Y-75759906D01*
X215850480Y-75795870D01*
X215869388Y-75854061D01*
X215850481Y-75912251D01*
X215800981Y-75948216D01*
X215687781Y-75984997D01*
X215682851Y-75986599D01*
X215678363Y-75989190D01*
X215678361Y-75989191D01*
X215549377Y-76063660D01*
X215521649Y-76079669D01*
X215517793Y-76083141D01*
X215387173Y-76200751D01*
X215387169Y-76200755D01*
X215383320Y-76204221D01*
X215273910Y-76354811D01*
X215271803Y-76359543D01*
X215271802Y-76359545D01*
X215211494Y-76495000D01*
X215198200Y-76524858D01*
X215159500Y-76706930D01*
X215159500Y-76893070D01*
X215198200Y-77075142D01*
X215200308Y-77079876D01*
X215200309Y-77079880D01*
X215213714Y-77109988D01*
X215273910Y-77245189D01*
X215383320Y-77395779D01*
X215387169Y-77399245D01*
X215387173Y-77399249D01*
X215475946Y-77479180D01*
X215521649Y-77520331D01*
X215526139Y-77522923D01*
X215526140Y-77522924D01*
X215678361Y-77610809D01*
X215678363Y-77610810D01*
X215682851Y-77613401D01*
X215687780Y-77615002D01*
X215687781Y-77615003D01*
X215854948Y-77669319D01*
X215854952Y-77669320D01*
X215859880Y-77670921D01*
X215998589Y-77685500D01*
X216091411Y-77685500D01*
X216230120Y-77670921D01*
X216235048Y-77669320D01*
X216235052Y-77669319D01*
X216402219Y-77615003D01*
X216402220Y-77615002D01*
X216407149Y-77613401D01*
X216411637Y-77610810D01*
X216411639Y-77610809D01*
X216563860Y-77522924D01*
X216563861Y-77522923D01*
X216568351Y-77520331D01*
X216614054Y-77479180D01*
X216702827Y-77399249D01*
X216702831Y-77399245D01*
X216706680Y-77395779D01*
X216816090Y-77245189D01*
X216876286Y-77109988D01*
X216889691Y-77079880D01*
X216889692Y-77079876D01*
X216891800Y-77075142D01*
X216930500Y-76893070D01*
X216930500Y-76706930D01*
X216891800Y-76524858D01*
X216878507Y-76495000D01*
X216818198Y-76359545D01*
X216818197Y-76359543D01*
X216816090Y-76354811D01*
X216706680Y-76204221D01*
X216702831Y-76200755D01*
X216702827Y-76200751D01*
X216572207Y-76083141D01*
X216568351Y-76079669D01*
X216540623Y-76063660D01*
X216411639Y-75989191D01*
X216411637Y-75989190D01*
X216407149Y-75986599D01*
X216402217Y-75984997D01*
X216402216Y-75984996D01*
X216328772Y-75961133D01*
X216264019Y-75940094D01*
X216214520Y-75904130D01*
X216195612Y-75845939D01*
X216214519Y-75787749D01*
X216264019Y-75751784D01*
X216377219Y-75715003D01*
X216377220Y-75715002D01*
X216382149Y-75713401D01*
X216386637Y-75710810D01*
X216386639Y-75710809D01*
X216538860Y-75622924D01*
X216538861Y-75622923D01*
X216543351Y-75620331D01*
X216584875Y-75582943D01*
X216677827Y-75499249D01*
X216677831Y-75499245D01*
X216681680Y-75495779D01*
X216791090Y-75345189D01*
X216866800Y-75175142D01*
X216905500Y-74993070D01*
X216905500Y-74806930D01*
X216866800Y-74624858D01*
X216804634Y-74485230D01*
X216793198Y-74459545D01*
X216793197Y-74459543D01*
X216791090Y-74454811D01*
X216681680Y-74304221D01*
X216677831Y-74300755D01*
X216677827Y-74300751D01*
X216547207Y-74183141D01*
X216543351Y-74179669D01*
X216538860Y-74177076D01*
X216386639Y-74089191D01*
X216386637Y-74089190D01*
X216382149Y-74086599D01*
X216377219Y-74084997D01*
X216210052Y-74030681D01*
X216210048Y-74030680D01*
X216205120Y-74029079D01*
X216066411Y-74014500D01*
X215973589Y-74014500D01*
X215834880Y-74029079D01*
X215829952Y-74030680D01*
X215829948Y-74030681D01*
X215662781Y-74084997D01*
X215657851Y-74086599D01*
X215653363Y-74089190D01*
X215653361Y-74089191D01*
X215501140Y-74177076D01*
X215496649Y-74179669D01*
X215492793Y-74183141D01*
X215362173Y-74300751D01*
X215362169Y-74300755D01*
X215358320Y-74304221D01*
X215248910Y-74454811D01*
X215246803Y-74459543D01*
X215246802Y-74459545D01*
X215235367Y-74485230D01*
X215173200Y-74624858D01*
X215134500Y-74806930D01*
X215134500Y-74993070D01*
X192128396Y-74993070D01*
X190828396Y-73693070D01*
X200974500Y-73693070D01*
X201013200Y-73875142D01*
X201015308Y-73879876D01*
X201015309Y-73879880D01*
X201086802Y-74040455D01*
X201088910Y-74045189D01*
X201198320Y-74195779D01*
X201202169Y-74199245D01*
X201202173Y-74199249D01*
X201314903Y-74300751D01*
X201336649Y-74320331D01*
X201341139Y-74322923D01*
X201341140Y-74322924D01*
X201493361Y-74410809D01*
X201493363Y-74410810D01*
X201497851Y-74413401D01*
X201502780Y-74415002D01*
X201502781Y-74415003D01*
X201669948Y-74469319D01*
X201669952Y-74469320D01*
X201674880Y-74470921D01*
X201813589Y-74485500D01*
X201906411Y-74485500D01*
X202045120Y-74470921D01*
X202050048Y-74469320D01*
X202050052Y-74469319D01*
X202217219Y-74415003D01*
X202217220Y-74415002D01*
X202222149Y-74413401D01*
X202226637Y-74410810D01*
X202226639Y-74410809D01*
X202378860Y-74322924D01*
X202378861Y-74322923D01*
X202383351Y-74320331D01*
X202405097Y-74300751D01*
X202517827Y-74199249D01*
X202517831Y-74199245D01*
X202521680Y-74195779D01*
X202631090Y-74045189D01*
X202633198Y-74040455D01*
X202704691Y-73879880D01*
X202704692Y-73879876D01*
X202706800Y-73875142D01*
X202745500Y-73693070D01*
X202745500Y-73506930D01*
X202706800Y-73324858D01*
X202700694Y-73311142D01*
X202633198Y-73159545D01*
X202633197Y-73159543D01*
X202631090Y-73154811D01*
X202521680Y-73004221D01*
X202517831Y-73000755D01*
X202517827Y-73000751D01*
X202387207Y-72883141D01*
X202383351Y-72879669D01*
X202332827Y-72850499D01*
X202226639Y-72789191D01*
X202226637Y-72789190D01*
X202222149Y-72786599D01*
X202217219Y-72784997D01*
X202050052Y-72730681D01*
X202050048Y-72730680D01*
X202045120Y-72729079D01*
X201906411Y-72714500D01*
X201813589Y-72714500D01*
X201674880Y-72729079D01*
X201669952Y-72730680D01*
X201669948Y-72730681D01*
X201502781Y-72784997D01*
X201497851Y-72786599D01*
X201493363Y-72789190D01*
X201493361Y-72789191D01*
X201387173Y-72850499D01*
X201336649Y-72879669D01*
X201332793Y-72883141D01*
X201202173Y-73000751D01*
X201202169Y-73000755D01*
X201198320Y-73004221D01*
X201088910Y-73154811D01*
X201086803Y-73159543D01*
X201086802Y-73159545D01*
X201019307Y-73311142D01*
X201013200Y-73324858D01*
X200974500Y-73506930D01*
X200974500Y-73693070D01*
X190828396Y-73693070D01*
X186529830Y-69394504D01*
X186502053Y-69339987D01*
X186511624Y-69279555D01*
X186554889Y-69236290D01*
X186599834Y-69225500D01*
X210884166Y-69225500D01*
X210942357Y-69244407D01*
X210954170Y-69254496D01*
X212850499Y-71150825D01*
X212878276Y-71205342D01*
X212873903Y-71253631D01*
X212852481Y-71314632D01*
X212851914Y-71320634D01*
X212851913Y-71320637D01*
X212849719Y-71343852D01*
X212849500Y-71346167D01*
X212849501Y-72453832D01*
X212852481Y-72485368D01*
X212854478Y-72491055D01*
X212854479Y-72491059D01*
X212874477Y-72548004D01*
X212897366Y-72613183D01*
X212977850Y-72722150D01*
X212983807Y-72726550D01*
X213068617Y-72789191D01*
X213086817Y-72802634D01*
X213214632Y-72847519D01*
X213220639Y-72848087D01*
X213220640Y-72848087D01*
X213243856Y-72850282D01*
X213243866Y-72850282D01*
X213246167Y-72850500D01*
X214059650Y-72850500D01*
X214873832Y-72850499D01*
X214905368Y-72847519D01*
X214911055Y-72845522D01*
X214911059Y-72845521D01*
X214968004Y-72825523D01*
X215033183Y-72802634D01*
X215051384Y-72789191D01*
X215136193Y-72726550D01*
X215142150Y-72722150D01*
X215222634Y-72613183D01*
X215267519Y-72485368D01*
X215268087Y-72479360D01*
X215270282Y-72456144D01*
X215270282Y-72456134D01*
X215270500Y-72453833D01*
X215270499Y-71346168D01*
X215267519Y-71314632D01*
X215265522Y-71308945D01*
X215265521Y-71308941D01*
X215229139Y-71205342D01*
X215222634Y-71186817D01*
X215142150Y-71077850D01*
X215033183Y-70997366D01*
X214905368Y-70952481D01*
X214899361Y-70951913D01*
X214899360Y-70951913D01*
X214876144Y-70949718D01*
X214876134Y-70949718D01*
X214873833Y-70949500D01*
X214803868Y-70949500D01*
X213610835Y-70949501D01*
X213552644Y-70930594D01*
X213540831Y-70920505D01*
X211566997Y-68946671D01*
X212845739Y-68946671D01*
X212874614Y-69137599D01*
X212941290Y-69318821D01*
X212943930Y-69323079D01*
X212943931Y-69323081D01*
X212995521Y-69406286D01*
X213043045Y-69482934D01*
X213175721Y-69623235D01*
X213179826Y-69626109D01*
X213179829Y-69626112D01*
X213258594Y-69681263D01*
X213333898Y-69733991D01*
X213338494Y-69735980D01*
X213338496Y-69735981D01*
X213430309Y-69775712D01*
X213511115Y-69810680D01*
X213631779Y-69835888D01*
X213696408Y-69849390D01*
X213696410Y-69849390D01*
X213700133Y-69850168D01*
X213706468Y-69850500D01*
X214368259Y-69850500D01*
X214370747Y-69850247D01*
X214370752Y-69850247D01*
X214507123Y-69836395D01*
X214507127Y-69836394D01*
X214512110Y-69835888D01*
X214655131Y-69791068D01*
X214691590Y-69779643D01*
X214691591Y-69779643D01*
X214696373Y-69778144D01*
X214865261Y-69684528D01*
X215011875Y-69558864D01*
X215074080Y-69478670D01*
X215127156Y-69410246D01*
X215127159Y-69410241D01*
X215130227Y-69406286D01*
X215215481Y-69233026D01*
X215264155Y-69046163D01*
X215274261Y-68853329D01*
X215245386Y-68662401D01*
X215178710Y-68481179D01*
X215159326Y-68449915D01*
X215079599Y-68321330D01*
X215079598Y-68321329D01*
X215076955Y-68317066D01*
X214944279Y-68176765D01*
X214940174Y-68173891D01*
X214940171Y-68173888D01*
X214790208Y-68068884D01*
X214786102Y-68066009D01*
X214781506Y-68064020D01*
X214781504Y-68064019D01*
X214613481Y-67991309D01*
X214613482Y-67991309D01*
X214608885Y-67989320D01*
X214474062Y-67961154D01*
X214423592Y-67950610D01*
X214423590Y-67950610D01*
X214419867Y-67949832D01*
X214413532Y-67949500D01*
X213751741Y-67949500D01*
X213749253Y-67949753D01*
X213749248Y-67949753D01*
X213612877Y-67963605D01*
X213612873Y-67963606D01*
X213607890Y-67964112D01*
X213423627Y-68021856D01*
X213254739Y-68115472D01*
X213250930Y-68118737D01*
X213129749Y-68222602D01*
X213108125Y-68241136D01*
X213105048Y-68245103D01*
X212992844Y-68389754D01*
X212992841Y-68389759D01*
X212989773Y-68393714D01*
X212904519Y-68566974D01*
X212855845Y-68753837D01*
X212845739Y-68946671D01*
X211566997Y-68946671D01*
X211303269Y-68682943D01*
X211297434Y-68676575D01*
X211289704Y-68667363D01*
X211272455Y-68646806D01*
X211238792Y-68627371D01*
X211231511Y-68622732D01*
X211229056Y-68621013D01*
X211199684Y-68600446D01*
X211191316Y-68598204D01*
X211186029Y-68595738D01*
X211180544Y-68593742D01*
X211173045Y-68589412D01*
X211164519Y-68587909D01*
X211164517Y-68587908D01*
X211134784Y-68582666D01*
X211126349Y-68580796D01*
X211097174Y-68572978D01*
X211088807Y-68570736D01*
X211080178Y-68571491D01*
X211050095Y-68574123D01*
X211041466Y-68574500D01*
X185750834Y-68574500D01*
X185692643Y-68555593D01*
X185680830Y-68545504D01*
X184155769Y-67020443D01*
X184149934Y-67014075D01*
X184124955Y-66984306D01*
X184091292Y-66964871D01*
X184084011Y-66960232D01*
X184081556Y-66958513D01*
X184052184Y-66937946D01*
X184043816Y-66935704D01*
X184038529Y-66933238D01*
X184033044Y-66931242D01*
X184025545Y-66926912D01*
X184017019Y-66925409D01*
X184017017Y-66925408D01*
X183987284Y-66920166D01*
X183978849Y-66918296D01*
X183949674Y-66910478D01*
X183941307Y-66908236D01*
X183915682Y-66910478D01*
X183902595Y-66911623D01*
X183893966Y-66912000D01*
X159229615Y-66912000D01*
X159184670Y-66901210D01*
X159094744Y-66855390D01*
X159094743Y-66855390D01*
X159087804Y-66851854D01*
X159080110Y-66850635D01*
X159080109Y-66850635D01*
X159061905Y-66847752D01*
X159007388Y-66819975D01*
X159001554Y-66813608D01*
X158993022Y-66803441D01*
X158987455Y-66796806D01*
X158953792Y-66777371D01*
X158946511Y-66772732D01*
X158941637Y-66769319D01*
X158914684Y-66750446D01*
X158906316Y-66748204D01*
X158901029Y-66745738D01*
X158895544Y-66743742D01*
X158888045Y-66739412D01*
X158879519Y-66737909D01*
X158879517Y-66737908D01*
X158849784Y-66732666D01*
X158841349Y-66730796D01*
X158812174Y-66722978D01*
X158803807Y-66720736D01*
X158778182Y-66722978D01*
X158765095Y-66724123D01*
X158756466Y-66724500D01*
X137660563Y-66724500D01*
X137602372Y-66705593D01*
X137566408Y-66656093D01*
X137566408Y-66594907D01*
X137594319Y-66551929D01*
X137652827Y-66499249D01*
X137652831Y-66499245D01*
X137656680Y-66495779D01*
X137766090Y-66345189D01*
X137841800Y-66175142D01*
X137880500Y-65993070D01*
X215134500Y-65993070D01*
X215173200Y-66175142D01*
X215248910Y-66345189D01*
X215358320Y-66495779D01*
X215362169Y-66499245D01*
X215362173Y-66499249D01*
X215468413Y-66594907D01*
X215496649Y-66620331D01*
X215501139Y-66622923D01*
X215501140Y-66622924D01*
X215653361Y-66710809D01*
X215653363Y-66710810D01*
X215657851Y-66713401D01*
X215662780Y-66715002D01*
X215662781Y-66715003D01*
X215829948Y-66769319D01*
X215829952Y-66769320D01*
X215834880Y-66770921D01*
X215973589Y-66785500D01*
X216066411Y-66785500D01*
X216205120Y-66770921D01*
X216210048Y-66769320D01*
X216210052Y-66769319D01*
X216377219Y-66715003D01*
X216377220Y-66715002D01*
X216382149Y-66713401D01*
X216386637Y-66710810D01*
X216386639Y-66710809D01*
X216538860Y-66622924D01*
X216538861Y-66622923D01*
X216543351Y-66620331D01*
X216571587Y-66594907D01*
X216677827Y-66499249D01*
X216677831Y-66499245D01*
X216681680Y-66495779D01*
X216791090Y-66345189D01*
X216866800Y-66175142D01*
X216905500Y-65993070D01*
X216905500Y-65806930D01*
X216866800Y-65624858D01*
X216791090Y-65454811D01*
X216681680Y-65304221D01*
X216677831Y-65300755D01*
X216677827Y-65300751D01*
X216547207Y-65183141D01*
X216543351Y-65179669D01*
X216538860Y-65177076D01*
X216386639Y-65089191D01*
X216386637Y-65089190D01*
X216382149Y-65086599D01*
X216377219Y-65084997D01*
X216210052Y-65030681D01*
X216210048Y-65030680D01*
X216205120Y-65029079D01*
X216066411Y-65014500D01*
X215973589Y-65014500D01*
X215834880Y-65029079D01*
X215829952Y-65030680D01*
X215829948Y-65030681D01*
X215662781Y-65084997D01*
X215657851Y-65086599D01*
X215653363Y-65089190D01*
X215653361Y-65089191D01*
X215501140Y-65177076D01*
X215496649Y-65179669D01*
X215492793Y-65183141D01*
X215362173Y-65300751D01*
X215362169Y-65300755D01*
X215358320Y-65304221D01*
X215248910Y-65454811D01*
X215173200Y-65624858D01*
X215134500Y-65806930D01*
X215134500Y-65993070D01*
X137880500Y-65993070D01*
X137880500Y-65806930D01*
X137841800Y-65624858D01*
X137766090Y-65454811D01*
X137656680Y-65304221D01*
X137652831Y-65300755D01*
X137652827Y-65300751D01*
X137522207Y-65183141D01*
X137518351Y-65179669D01*
X137513860Y-65177076D01*
X137361639Y-65089191D01*
X137361637Y-65089190D01*
X137357149Y-65086599D01*
X137352219Y-65084997D01*
X137185052Y-65030681D01*
X137185048Y-65030680D01*
X137180120Y-65029079D01*
X137041411Y-65014500D01*
X136948589Y-65014500D01*
X136809880Y-65029079D01*
X136804952Y-65030680D01*
X136804948Y-65030681D01*
X136637781Y-65084997D01*
X136632851Y-65086599D01*
X136628363Y-65089190D01*
X136628361Y-65089191D01*
X136476140Y-65177076D01*
X136471649Y-65179669D01*
X136467793Y-65183141D01*
X136337173Y-65300751D01*
X136337169Y-65300755D01*
X136333320Y-65304221D01*
X136223910Y-65454811D01*
X136148200Y-65624858D01*
X136109500Y-65806930D01*
X136109500Y-65993070D01*
X136148200Y-66175142D01*
X136223910Y-66345189D01*
X136333320Y-66495779D01*
X136337169Y-66499245D01*
X136337173Y-66499249D01*
X136395681Y-66551929D01*
X136426274Y-66604917D01*
X136419878Y-66665767D01*
X136378937Y-66711236D01*
X136329437Y-66724500D01*
X134418523Y-66724500D01*
X134409894Y-66724123D01*
X134409884Y-66724122D01*
X134371193Y-66720737D01*
X134362830Y-66722978D01*
X134362827Y-66722978D01*
X134333656Y-66730794D01*
X134325229Y-66732663D01*
X134286955Y-66739412D01*
X134279454Y-66743743D01*
X134273960Y-66745742D01*
X134268678Y-66748205D01*
X134260316Y-66750446D01*
X134253223Y-66755413D01*
X134253222Y-66755413D01*
X134228478Y-66772739D01*
X134221219Y-66777364D01*
X134187545Y-66796806D01*
X134181975Y-66803444D01*
X134162574Y-66826565D01*
X134156740Y-66832933D01*
X132832943Y-68156731D01*
X132826576Y-68162565D01*
X132796806Y-68187545D01*
X132777373Y-68221205D01*
X132772732Y-68228489D01*
X132750446Y-68260316D01*
X132748204Y-68268684D01*
X132745738Y-68273971D01*
X132743742Y-68279456D01*
X132739412Y-68286955D01*
X132733313Y-68321549D01*
X132732666Y-68325216D01*
X132730796Y-68333650D01*
X132720736Y-68371193D01*
X132721491Y-68379822D01*
X132724123Y-68409905D01*
X132724500Y-68418534D01*
X132724500Y-69896466D01*
X132724123Y-69905095D01*
X132720736Y-69943807D01*
X132000000Y-69943807D01*
X132000000Y-64799000D01*
X132018907Y-64740809D01*
X132068407Y-64704845D01*
X132099000Y-64700000D01*
X218501000Y-64700000D01*
X218559191Y-64718907D01*
G37*
%TD.AperFunction*%
%TA.AperFunction,Conductor*%
G36*
X153494504Y-91774830D02*
G01*
X159975170Y-98255496D01*
X160002947Y-98310013D01*
X159993376Y-98370445D01*
X159950111Y-98413710D01*
X159905166Y-98424500D01*
X153424500Y-98424500D01*
X153366309Y-98405593D01*
X153330345Y-98356093D01*
X153325500Y-98325500D01*
X153325500Y-98080252D01*
X153313867Y-98021769D01*
X153317164Y-98021113D01*
X153313797Y-97978336D01*
X153313867Y-97978231D01*
X153325500Y-97919748D01*
X153325500Y-97580252D01*
X153313867Y-97521769D01*
X153317164Y-97521113D01*
X153313797Y-97478336D01*
X153313867Y-97478231D01*
X153325500Y-97419748D01*
X153325500Y-97080252D01*
X153313867Y-97021769D01*
X153317164Y-97021113D01*
X153313797Y-96978336D01*
X153313867Y-96978231D01*
X153325500Y-96919748D01*
X153325500Y-96580252D01*
X153313867Y-96521769D01*
X153317164Y-96521113D01*
X153313797Y-96478336D01*
X153313867Y-96478231D01*
X153325500Y-96419748D01*
X153325500Y-96080252D01*
X153313867Y-96021769D01*
X153317164Y-96021113D01*
X153313797Y-95978336D01*
X153313867Y-95978231D01*
X153325500Y-95919748D01*
X153325500Y-95580252D01*
X153313867Y-95521769D01*
X153317164Y-95521113D01*
X153313797Y-95478336D01*
X153313867Y-95478231D01*
X153325500Y-95419748D01*
X153325500Y-95080252D01*
X153313867Y-95021769D01*
X153317164Y-95021113D01*
X153313797Y-94978336D01*
X153313867Y-94978231D01*
X153325500Y-94919748D01*
X153325500Y-94580252D01*
X153313867Y-94521769D01*
X153317164Y-94521113D01*
X153313797Y-94478336D01*
X153313867Y-94478231D01*
X153325500Y-94419748D01*
X153325500Y-94080252D01*
X153313867Y-94021769D01*
X153317164Y-94021113D01*
X153313797Y-93978336D01*
X153313867Y-93978231D01*
X153325500Y-93919748D01*
X153325500Y-93580252D01*
X153313867Y-93521769D01*
X153317164Y-93521113D01*
X153313797Y-93478336D01*
X153313867Y-93478231D01*
X153325500Y-93419748D01*
X153325500Y-93080252D01*
X153313867Y-93021769D01*
X153317164Y-93021113D01*
X153313797Y-92978336D01*
X153313867Y-92978231D01*
X153325500Y-92919748D01*
X153325500Y-92580252D01*
X153313867Y-92521769D01*
X153317164Y-92521113D01*
X153313797Y-92478336D01*
X153313867Y-92478231D01*
X153325500Y-92419748D01*
X153325500Y-92080252D01*
X153313867Y-92021769D01*
X153317164Y-92021113D01*
X153313797Y-91978336D01*
X153313867Y-91978231D01*
X153325500Y-91919748D01*
X153325500Y-91844834D01*
X153344407Y-91786643D01*
X153393907Y-91750679D01*
X153455093Y-91750679D01*
X153494504Y-91774830D01*
G37*
%TD.AperFunction*%
%TD*%
M02*
