M48
; DRILL file {KiCad (6.0.2)} date Wed Apr  6 15:05:21 2022
; FORMAT={-:-/ absolute / inch / decimal}
; #@! TF.CreationDate,2022-04-06T15:05:21-04:00
; #@! TF.GenerationSoftware,Kicad,Pcbnew,(6.0.2)
; #@! TF.FileFunction,Plated,1,2,PTH
FMAT,2
INCH
; #@! TA.AperFunction,Plated,PTH,ViaDrill
T1C0.0079
; #@! TA.AperFunction,Plated,PTH,ViaDrill
T2C0.0118
; #@! TA.AperFunction,Plated,PTH,ComponentDrill
T3C0.0118
; #@! TA.AperFunction,Plated,PTH,ComponentDrill
T4C0.0394
; #@! TA.AperFunction,Plated,PTH,ComponentDrill
T5C0.0402
%
G90
G05
T1
X5.6181Y-4.3278
X5.6417Y-2.8898
X5.6949Y-4.5443
X5.7559Y-4.3268
X5.7589Y-4.3937
X5.7992Y-2.8917
X5.813Y-4.5482
X5.9144Y-2.8976
X6.063Y-3.2795
X6.2352Y-4.1063
X6.2584Y-2.6471
X6.3258Y-3.4006
X6.3458Y-3.9269
X6.3506Y-3.9026
X6.3571Y-3.8799
X6.3622Y-3.8558
X6.3648Y-3.8292
X6.3691Y-3.8042
X6.3748Y-3.7808
X6.3759Y-4.1531
X6.3776Y-3.7544
X6.3804Y-3.7279
X6.3857Y-3.7041
X6.3908Y-3.6799
X6.3956Y-3.6556
X6.3989Y-3.6296
X6.4498Y-3.9203
X6.4577Y-3.5965
X6.5161Y-3.9205
X6.5167Y-3.6535
X6.5344Y-4.003
X6.5543Y-3.9205
X6.5551Y-3.6516
X6.56Y-3.4518
X6.5906Y-3.3205
X6.5945Y-3.2323
X6.6437Y-3.5354
X6.685Y-2.9843
X6.7028Y-3.6378
X6.703Y-3.749
X6.706Y-3.686
X6.7087Y-4.1122
X6.7215Y-4.1801
X6.7287Y-3.6924
X6.749Y-4.2116
X6.7726Y-4.1081
X6.7726Y-4.1457
X6.7751Y-3.7059
X6.7756Y-3.2323
X6.8337Y-4.2077
X6.8602Y-3.6732
X6.8671Y-4.0807
X6.8711Y-3.3307
X6.8789Y-3.5128
X6.8839Y-4.1427
X6.9134Y-3.6929
X6.9331Y-3.6339
X6.938Y-3.9744
X6.965Y-3.2067
X6.9961Y-3.4764
X6.997Y-3.513
X7.1644Y-3.3612
X7.2707Y-3.9252
X7.2717Y-3.874
X7.3907Y-4.125
X8.0492Y-4.4016
X8.0492Y-4.4449
X8.1053Y-4.5541
T2
X5.5748Y-3.2549
X5.7776Y-3.8012
X5.7776Y-3.9035
X5.7776Y-4.0059
X5.7776Y-4.1083
X5.8376Y-2.6752
X5.878Y-3.7323
X5.9341Y-3.2972
X5.936Y-3.3691
X6.1112Y-4.2776
X6.1565Y-3.8268
X6.1703Y-3.9173
X6.1703Y-3.9803
X6.1703Y-4.0433
X6.1703Y-4.1063
X6.3701Y-4.0128
X6.499Y-4.2795
X6.81Y-4.498
X6.8297Y-3.8819
X6.936Y-3.9242
X7.0886Y-4.0492
X7.1535Y-3.5659
X7.1604Y-4.2913
X7.1693Y-2.939
X7.186Y-3.752
X7.2195Y-4.0118
X7.3435Y-3.1624
X7.5413Y-2.6467
X7.624Y-3.4616
X8.1339Y-3.7008
X8.1594Y-3.561
X8.2343Y-4.3317
T3
X6.1614Y-2.8012
X6.1614Y-2.8484
X6.2047Y-2.8012
X6.2047Y-2.8484
X6.2559Y-2.8012
X6.2559Y-2.8484
X6.3031Y-2.8012
X6.3031Y-2.8484
T4
X7.2927Y-3.6575
X7.3927Y-3.6575
T5
X5.3163Y-2.7126
X5.3163Y-2.8307
X5.3163Y-3.1417
X5.3163Y-3.2598
X7.8701Y-3.0157
X7.8701Y-3.1339
X7.8701Y-3.252
X7.8701Y-3.3701
X7.8701Y-3.4882
X7.8701Y-3.6063
X7.8701Y-3.7244
X7.8701Y-3.8425
X7.8701Y-3.9606
X8.4276Y-2.7126
X8.4276Y-2.8307
X8.4285Y-3.1417
X8.4285Y-3.2598
T0
M30
