%TF.GenerationSoftware,KiCad,Pcbnew,(6.0.1)*%
%TF.CreationDate,2022-01-27T11:52:20-05:00*%
%TF.ProjectId,SteeringHardware,53746565-7269-46e6-9748-617264776172,rev?*%
%TF.SameCoordinates,Original*%
%TF.FileFunction,Soldermask,Top*%
%TF.FilePolarity,Negative*%
%FSLAX46Y46*%
G04 Gerber Fmt 4.6, Leading zero omitted, Abs format (unit mm)*
G04 Created by KiCad (PCBNEW (6.0.1)) date 2022-01-27 11:52:20*
%MOMM*%
%LPD*%
G01*
G04 APERTURE LIST*
G04 Aperture macros list*
%AMRoundRect*
0 Rectangle with rounded corners*
0 $1 Rounding radius*
0 $2 $3 $4 $5 $6 $7 $8 $9 X,Y pos of 4 corners*
0 Add a 4 corners polygon primitive as box body*
4,1,4,$2,$3,$4,$5,$6,$7,$8,$9,$2,$3,0*
0 Add four circle primitives for the rounded corners*
1,1,$1+$1,$2,$3*
1,1,$1+$1,$4,$5*
1,1,$1+$1,$6,$7*
1,1,$1+$1,$8,$9*
0 Add four rect primitives between the rounded corners*
20,1,$1+$1,$2,$3,$4,$5,0*
20,1,$1+$1,$4,$5,$6,$7,0*
20,1,$1+$1,$6,$7,$8,$9,0*
20,1,$1+$1,$8,$9,$2,$3,0*%
G04 Aperture macros list end*
%ADD10R,1.524000X1.524000*%
%ADD11C,1.524000*%
%ADD12C,1.270000*%
%ADD13RoundRect,0.250001X0.499999X0.759999X-0.499999X0.759999X-0.499999X-0.759999X0.499999X-0.759999X0*%
%ADD14O,1.500000X2.020000*%
%ADD15RoundRect,0.250001X-0.499999X-0.759999X0.499999X-0.759999X0.499999X0.759999X-0.499999X0.759999X0*%
%ADD16RoundRect,0.250001X-0.759999X0.499999X-0.759999X-0.499999X0.759999X-0.499999X0.759999X0.499999X0*%
%ADD17O,2.020000X1.500000*%
%ADD18RoundRect,0.250001X0.759999X-0.499999X0.759999X0.499999X-0.759999X0.499999X-0.759999X-0.499999X0*%
%ADD19R,1.700000X1.700000*%
%ADD20O,1.700000X1.700000*%
G04 APERTURE END LIST*
D10*
%TO.C,U7*%
X131800000Y-71400000D03*
D11*
X131800000Y-73400000D03*
X131800000Y-75400000D03*
X131800000Y-77400000D03*
X131800000Y-79400000D03*
X131800000Y-81400000D03*
X131800000Y-83400000D03*
X131800000Y-85400000D03*
X131800000Y-87400000D03*
X131800000Y-89400000D03*
X131800000Y-91400000D03*
X131800000Y-93400000D03*
X131800000Y-95400000D03*
X131800000Y-97400000D03*
X131800000Y-99400000D03*
X131800000Y-101400000D03*
X131800000Y-103400000D03*
X131800000Y-105400000D03*
X131800000Y-107400000D03*
X131800000Y-109400000D03*
X205800000Y-109400000D03*
X205800000Y-107400000D03*
X205800000Y-105400000D03*
X205800000Y-103400000D03*
X205800000Y-101400000D03*
X205800000Y-99400000D03*
X205800000Y-97400000D03*
X205800000Y-95400000D03*
X205800000Y-93400000D03*
X205800000Y-91400000D03*
X205800000Y-89400000D03*
X205800000Y-87400000D03*
X205800000Y-85400000D03*
X205800000Y-83400000D03*
X205800000Y-81400000D03*
X205800000Y-79400000D03*
X205800000Y-77400000D03*
X205800000Y-75400000D03*
X205800000Y-73400000D03*
D10*
X205800000Y-71400000D03*
%TD*%
D12*
%TO.C,J3*%
X198000000Y-70140000D03*
X168000000Y-70140000D03*
D13*
X195000000Y-72100000D03*
D14*
X192000000Y-72100000D03*
X189000000Y-72100000D03*
X186000000Y-72100000D03*
X183000000Y-72100000D03*
X180000000Y-72100000D03*
X177000000Y-72100000D03*
X174000000Y-72100000D03*
X171000000Y-72100000D03*
%TD*%
D12*
%TO.C,J10*%
X197000000Y-117760000D03*
X206000000Y-117760000D03*
D15*
X200000000Y-115800000D03*
D14*
X203000000Y-115800000D03*
%TD*%
D12*
%TO.C,J15*%
X150600000Y-117760000D03*
X141600000Y-117760000D03*
D15*
X144600000Y-115800000D03*
D14*
X147600000Y-115800000D03*
%TD*%
D12*
%TO.C,J19*%
X130800000Y-117760000D03*
X139800000Y-117760000D03*
D15*
X133800000Y-115800000D03*
D14*
X136800000Y-115800000D03*
%TD*%
D12*
%TO.C,J20*%
X195200000Y-117760000D03*
X186200000Y-117760000D03*
D15*
X189200000Y-115800000D03*
D14*
X192200000Y-115800000D03*
%TD*%
D12*
%TO.C,J14*%
X124040000Y-107200000D03*
X124040000Y-98200000D03*
D16*
X126000000Y-101200000D03*
D17*
X126000000Y-104200000D03*
%TD*%
D12*
%TO.C,J13*%
X124040000Y-96400000D03*
X124040000Y-87400000D03*
D16*
X126000000Y-90400000D03*
D17*
X126000000Y-93400000D03*
%TD*%
D12*
%TO.C,J12*%
X129000000Y-113040000D03*
X120000000Y-113040000D03*
D13*
X126000000Y-115000000D03*
D14*
X123000000Y-115000000D03*
%TD*%
D12*
%TO.C,J4*%
X124040000Y-85600000D03*
X124040000Y-76600000D03*
D16*
X126000000Y-79600000D03*
D17*
X126000000Y-82600000D03*
%TD*%
D12*
%TO.C,J11*%
X212660000Y-96400000D03*
X212660000Y-87400000D03*
D18*
X210700000Y-93400000D03*
D17*
X210700000Y-90400000D03*
%TD*%
D12*
%TO.C,J9*%
X207800000Y-113040000D03*
X216800000Y-113040000D03*
D13*
X213800000Y-115000000D03*
D14*
X210800000Y-115000000D03*
%TD*%
D12*
%TO.C,J7*%
X212660000Y-85600000D03*
X212660000Y-76600000D03*
D18*
X210700000Y-82600000D03*
D17*
X210700000Y-79600000D03*
%TD*%
D12*
%TO.C,J8*%
X161400000Y-117760000D03*
X152400000Y-117760000D03*
D15*
X155400000Y-115800000D03*
D14*
X158400000Y-115800000D03*
%TD*%
D12*
%TO.C,J17*%
X184400000Y-117760000D03*
X175400000Y-117760000D03*
D15*
X178400000Y-115800000D03*
D14*
X181400000Y-115800000D03*
%TD*%
D12*
%TO.C,J6*%
X212660000Y-74800000D03*
X212660000Y-65800000D03*
D18*
X210700000Y-71800000D03*
D17*
X210700000Y-68800000D03*
%TD*%
D12*
%TO.C,J5*%
X124040000Y-74800000D03*
X124040000Y-65800000D03*
D16*
X126000000Y-68800000D03*
D17*
X126000000Y-71800000D03*
%TD*%
D12*
%TO.C,J16*%
X212660000Y-107200000D03*
X212660000Y-98200000D03*
D18*
X210700000Y-104200000D03*
D17*
X210700000Y-101200000D03*
%TD*%
D12*
%TO.C,J18*%
X173660000Y-85800000D03*
X173660000Y-76800000D03*
D18*
X171700000Y-82800000D03*
D17*
X171700000Y-79800000D03*
%TD*%
D19*
%TO.C,JP301*%
X181910000Y-84100000D03*
D20*
X184450000Y-84100000D03*
%TD*%
M02*
