%TF.GenerationSoftware,KiCad,Pcbnew,(6.0.2)*%
%TF.CreationDate,2022-04-06T15:05:21-04:00*%
%TF.ProjectId,SteeringHardware,53746565-7269-46e6-9748-617264776172,rev?*%
%TF.SameCoordinates,Original*%
%TF.FileFunction,Legend,Bot*%
%TF.FilePolarity,Positive*%
%FSLAX46Y46*%
G04 Gerber Fmt 4.6, Leading zero omitted, Abs format (unit mm)*
G04 Created by KiCad (PCBNEW (6.0.2)) date 2022-04-06 15:05:21*
%MOMM*%
%LPD*%
G01*
G04 APERTURE LIST*
%ADD10C,0.150000*%
%ADD11C,0.120000*%
G04 APERTURE END LIST*
D10*
%TO.C,R11*%
X195092857Y-96452380D02*
X195426190Y-95976190D01*
X195664285Y-96452380D02*
X195664285Y-95452380D01*
X195283333Y-95452380D01*
X195188095Y-95500000D01*
X195140476Y-95547619D01*
X195092857Y-95642857D01*
X195092857Y-95785714D01*
X195140476Y-95880952D01*
X195188095Y-95928571D01*
X195283333Y-95976190D01*
X195664285Y-95976190D01*
X194140476Y-96452380D02*
X194711904Y-96452380D01*
X194426190Y-96452380D02*
X194426190Y-95452380D01*
X194521428Y-95595238D01*
X194616666Y-95690476D01*
X194711904Y-95738095D01*
X193188095Y-96452380D02*
X193759523Y-96452380D01*
X193473809Y-96452380D02*
X193473809Y-95452380D01*
X193569047Y-95595238D01*
X193664285Y-95690476D01*
X193759523Y-95738095D01*
%TO.C,C1*%
X190841666Y-94632142D02*
X190889285Y-94679761D01*
X191032142Y-94727380D01*
X191127380Y-94727380D01*
X191270238Y-94679761D01*
X191365476Y-94584523D01*
X191413095Y-94489285D01*
X191460714Y-94298809D01*
X191460714Y-94155952D01*
X191413095Y-93965476D01*
X191365476Y-93870238D01*
X191270238Y-93775000D01*
X191127380Y-93727380D01*
X191032142Y-93727380D01*
X190889285Y-93775000D01*
X190841666Y-93822619D01*
X189889285Y-94727380D02*
X190460714Y-94727380D01*
X190175000Y-94727380D02*
X190175000Y-93727380D01*
X190270238Y-93870238D01*
X190365476Y-93965476D01*
X190460714Y-94013095D01*
%TO.C,C2*%
X184826666Y-95917142D02*
X184874285Y-95964761D01*
X185017142Y-96012380D01*
X185112380Y-96012380D01*
X185255238Y-95964761D01*
X185350476Y-95869523D01*
X185398095Y-95774285D01*
X185445714Y-95583809D01*
X185445714Y-95440952D01*
X185398095Y-95250476D01*
X185350476Y-95155238D01*
X185255238Y-95060000D01*
X185112380Y-95012380D01*
X185017142Y-95012380D01*
X184874285Y-95060000D01*
X184826666Y-95107619D01*
X184445714Y-95107619D02*
X184398095Y-95060000D01*
X184302857Y-95012380D01*
X184064761Y-95012380D01*
X183969523Y-95060000D01*
X183921904Y-95107619D01*
X183874285Y-95202857D01*
X183874285Y-95298095D01*
X183921904Y-95440952D01*
X184493333Y-96012380D01*
X183874285Y-96012380D01*
%TO.C,J2*%
X176633333Y-70352380D02*
X176633333Y-71066666D01*
X176680952Y-71209523D01*
X176776190Y-71304761D01*
X176919047Y-71352380D01*
X177014285Y-71352380D01*
X176204761Y-70447619D02*
X176157142Y-70400000D01*
X176061904Y-70352380D01*
X175823809Y-70352380D01*
X175728571Y-70400000D01*
X175680952Y-70447619D01*
X175633333Y-70542857D01*
X175633333Y-70638095D01*
X175680952Y-70780952D01*
X176252380Y-71352380D01*
X175633333Y-71352380D01*
%TO.C,J3*%
X200283333Y-104677380D02*
X200283333Y-105391666D01*
X200330952Y-105534523D01*
X200426190Y-105629761D01*
X200569047Y-105677380D01*
X200664285Y-105677380D01*
X199902380Y-104677380D02*
X199283333Y-104677380D01*
X199616666Y-105058333D01*
X199473809Y-105058333D01*
X199378571Y-105105952D01*
X199330952Y-105153571D01*
X199283333Y-105248809D01*
X199283333Y-105486904D01*
X199330952Y-105582142D01*
X199378571Y-105629761D01*
X199473809Y-105677380D01*
X199759523Y-105677380D01*
X199854761Y-105629761D01*
X199902380Y-105582142D01*
%TO.C,Q1*%
X143845238Y-67047619D02*
X143940476Y-67000000D01*
X144035714Y-66904761D01*
X144178571Y-66761904D01*
X144273809Y-66714285D01*
X144369047Y-66714285D01*
X144321428Y-66952380D02*
X144416666Y-66904761D01*
X144511904Y-66809523D01*
X144559523Y-66619047D01*
X144559523Y-66285714D01*
X144511904Y-66095238D01*
X144416666Y-66000000D01*
X144321428Y-65952380D01*
X144130952Y-65952380D01*
X144035714Y-66000000D01*
X143940476Y-66095238D01*
X143892857Y-66285714D01*
X143892857Y-66619047D01*
X143940476Y-66809523D01*
X144035714Y-66904761D01*
X144130952Y-66952380D01*
X144321428Y-66952380D01*
X142940476Y-66952380D02*
X143511904Y-66952380D01*
X143226190Y-66952380D02*
X143226190Y-65952380D01*
X143321428Y-66095238D01*
X143416666Y-66190476D01*
X143511904Y-66238095D01*
%TO.C,Q2*%
X206820238Y-71997619D02*
X206915476Y-71950000D01*
X207010714Y-71854761D01*
X207153571Y-71711904D01*
X207248809Y-71664285D01*
X207344047Y-71664285D01*
X207296428Y-71902380D02*
X207391666Y-71854761D01*
X207486904Y-71759523D01*
X207534523Y-71569047D01*
X207534523Y-71235714D01*
X207486904Y-71045238D01*
X207391666Y-70950000D01*
X207296428Y-70902380D01*
X207105952Y-70902380D01*
X207010714Y-70950000D01*
X206915476Y-71045238D01*
X206867857Y-71235714D01*
X206867857Y-71569047D01*
X206915476Y-71759523D01*
X207010714Y-71854761D01*
X207105952Y-71902380D01*
X207296428Y-71902380D01*
X206486904Y-70997619D02*
X206439285Y-70950000D01*
X206344047Y-70902380D01*
X206105952Y-70902380D01*
X206010714Y-70950000D01*
X205963095Y-70997619D01*
X205915476Y-71092857D01*
X205915476Y-71188095D01*
X205963095Y-71330952D01*
X206534523Y-71902380D01*
X205915476Y-71902380D01*
%TO.C,Q3*%
X206045238Y-108697619D02*
X206140476Y-108650000D01*
X206235714Y-108554761D01*
X206378571Y-108411904D01*
X206473809Y-108364285D01*
X206569047Y-108364285D01*
X206521428Y-108602380D02*
X206616666Y-108554761D01*
X206711904Y-108459523D01*
X206759523Y-108269047D01*
X206759523Y-107935714D01*
X206711904Y-107745238D01*
X206616666Y-107650000D01*
X206521428Y-107602380D01*
X206330952Y-107602380D01*
X206235714Y-107650000D01*
X206140476Y-107745238D01*
X206092857Y-107935714D01*
X206092857Y-108269047D01*
X206140476Y-108459523D01*
X206235714Y-108554761D01*
X206330952Y-108602380D01*
X206521428Y-108602380D01*
X205759523Y-107602380D02*
X205140476Y-107602380D01*
X205473809Y-107983333D01*
X205330952Y-107983333D01*
X205235714Y-108030952D01*
X205188095Y-108078571D01*
X205140476Y-108173809D01*
X205140476Y-108411904D01*
X205188095Y-108507142D01*
X205235714Y-108554761D01*
X205330952Y-108602380D01*
X205616666Y-108602380D01*
X205711904Y-108554761D01*
X205759523Y-108507142D01*
%TO.C,Q4*%
X147245238Y-108747619D02*
X147340476Y-108700000D01*
X147435714Y-108604761D01*
X147578571Y-108461904D01*
X147673809Y-108414285D01*
X147769047Y-108414285D01*
X147721428Y-108652380D02*
X147816666Y-108604761D01*
X147911904Y-108509523D01*
X147959523Y-108319047D01*
X147959523Y-107985714D01*
X147911904Y-107795238D01*
X147816666Y-107700000D01*
X147721428Y-107652380D01*
X147530952Y-107652380D01*
X147435714Y-107700000D01*
X147340476Y-107795238D01*
X147292857Y-107985714D01*
X147292857Y-108319047D01*
X147340476Y-108509523D01*
X147435714Y-108604761D01*
X147530952Y-108652380D01*
X147721428Y-108652380D01*
X146435714Y-107985714D02*
X146435714Y-108652380D01*
X146673809Y-107604761D02*
X146911904Y-108319047D01*
X146292857Y-108319047D01*
%TO.C,Q5*%
X143745238Y-108747619D02*
X143840476Y-108700000D01*
X143935714Y-108604761D01*
X144078571Y-108461904D01*
X144173809Y-108414285D01*
X144269047Y-108414285D01*
X144221428Y-108652380D02*
X144316666Y-108604761D01*
X144411904Y-108509523D01*
X144459523Y-108319047D01*
X144459523Y-107985714D01*
X144411904Y-107795238D01*
X144316666Y-107700000D01*
X144221428Y-107652380D01*
X144030952Y-107652380D01*
X143935714Y-107700000D01*
X143840476Y-107795238D01*
X143792857Y-107985714D01*
X143792857Y-108319047D01*
X143840476Y-108509523D01*
X143935714Y-108604761D01*
X144030952Y-108652380D01*
X144221428Y-108652380D01*
X142888095Y-107652380D02*
X143364285Y-107652380D01*
X143411904Y-108128571D01*
X143364285Y-108080952D01*
X143269047Y-108033333D01*
X143030952Y-108033333D01*
X142935714Y-108080952D01*
X142888095Y-108128571D01*
X142840476Y-108223809D01*
X142840476Y-108461904D01*
X142888095Y-108557142D01*
X142935714Y-108604761D01*
X143030952Y-108652380D01*
X143269047Y-108652380D01*
X143364285Y-108604761D01*
X143411904Y-108557142D01*
%TO.C,Q6*%
X201895238Y-108597619D02*
X201990476Y-108550000D01*
X202085714Y-108454761D01*
X202228571Y-108311904D01*
X202323809Y-108264285D01*
X202419047Y-108264285D01*
X202371428Y-108502380D02*
X202466666Y-108454761D01*
X202561904Y-108359523D01*
X202609523Y-108169047D01*
X202609523Y-107835714D01*
X202561904Y-107645238D01*
X202466666Y-107550000D01*
X202371428Y-107502380D01*
X202180952Y-107502380D01*
X202085714Y-107550000D01*
X201990476Y-107645238D01*
X201942857Y-107835714D01*
X201942857Y-108169047D01*
X201990476Y-108359523D01*
X202085714Y-108454761D01*
X202180952Y-108502380D01*
X202371428Y-108502380D01*
X201085714Y-107502380D02*
X201276190Y-107502380D01*
X201371428Y-107550000D01*
X201419047Y-107597619D01*
X201514285Y-107740476D01*
X201561904Y-107930952D01*
X201561904Y-108311904D01*
X201514285Y-108407142D01*
X201466666Y-108454761D01*
X201371428Y-108502380D01*
X201180952Y-108502380D01*
X201085714Y-108454761D01*
X201038095Y-108407142D01*
X200990476Y-108311904D01*
X200990476Y-108073809D01*
X201038095Y-107978571D01*
X201085714Y-107930952D01*
X201180952Y-107883333D01*
X201371428Y-107883333D01*
X201466666Y-107930952D01*
X201514285Y-107978571D01*
X201561904Y-108073809D01*
%TO.C,R1*%
X210916666Y-98277380D02*
X211250000Y-97801190D01*
X211488095Y-98277380D02*
X211488095Y-97277380D01*
X211107142Y-97277380D01*
X211011904Y-97325000D01*
X210964285Y-97372619D01*
X210916666Y-97467857D01*
X210916666Y-97610714D01*
X210964285Y-97705952D01*
X211011904Y-97753571D01*
X211107142Y-97801190D01*
X211488095Y-97801190D01*
X209964285Y-98277380D02*
X210535714Y-98277380D01*
X210250000Y-98277380D02*
X210250000Y-97277380D01*
X210345238Y-97420238D01*
X210440476Y-97515476D01*
X210535714Y-97563095D01*
%TO.C,R9*%
X150029166Y-93532380D02*
X150362500Y-93056190D01*
X150600595Y-93532380D02*
X150600595Y-92532380D01*
X150219642Y-92532380D01*
X150124404Y-92580000D01*
X150076785Y-92627619D01*
X150029166Y-92722857D01*
X150029166Y-92865714D01*
X150076785Y-92960952D01*
X150124404Y-93008571D01*
X150219642Y-93056190D01*
X150600595Y-93056190D01*
X149552976Y-93532380D02*
X149362500Y-93532380D01*
X149267261Y-93484761D01*
X149219642Y-93437142D01*
X149124404Y-93294285D01*
X149076785Y-93103809D01*
X149076785Y-92722857D01*
X149124404Y-92627619D01*
X149172023Y-92580000D01*
X149267261Y-92532380D01*
X149457738Y-92532380D01*
X149552976Y-92580000D01*
X149600595Y-92627619D01*
X149648214Y-92722857D01*
X149648214Y-92960952D01*
X149600595Y-93056190D01*
X149552976Y-93103809D01*
X149457738Y-93151428D01*
X149267261Y-93151428D01*
X149172023Y-93103809D01*
X149124404Y-93056190D01*
X149076785Y-92960952D01*
%TO.C,R10*%
X145192857Y-87602380D02*
X145526190Y-87126190D01*
X145764285Y-87602380D02*
X145764285Y-86602380D01*
X145383333Y-86602380D01*
X145288095Y-86650000D01*
X145240476Y-86697619D01*
X145192857Y-86792857D01*
X145192857Y-86935714D01*
X145240476Y-87030952D01*
X145288095Y-87078571D01*
X145383333Y-87126190D01*
X145764285Y-87126190D01*
X144240476Y-87602380D02*
X144811904Y-87602380D01*
X144526190Y-87602380D02*
X144526190Y-86602380D01*
X144621428Y-86745238D01*
X144716666Y-86840476D01*
X144811904Y-86888095D01*
X143621428Y-86602380D02*
X143526190Y-86602380D01*
X143430952Y-86650000D01*
X143383333Y-86697619D01*
X143335714Y-86792857D01*
X143288095Y-86983333D01*
X143288095Y-87221428D01*
X143335714Y-87411904D01*
X143383333Y-87507142D01*
X143430952Y-87554761D01*
X143526190Y-87602380D01*
X143621428Y-87602380D01*
X143716666Y-87554761D01*
X143764285Y-87507142D01*
X143811904Y-87411904D01*
X143859523Y-87221428D01*
X143859523Y-86983333D01*
X143811904Y-86792857D01*
X143764285Y-86697619D01*
X143716666Y-86650000D01*
X143621428Y-86602380D01*
%TO.C,R13*%
X147292857Y-86102380D02*
X147626190Y-85626190D01*
X147864285Y-86102380D02*
X147864285Y-85102380D01*
X147483333Y-85102380D01*
X147388095Y-85150000D01*
X147340476Y-85197619D01*
X147292857Y-85292857D01*
X147292857Y-85435714D01*
X147340476Y-85530952D01*
X147388095Y-85578571D01*
X147483333Y-85626190D01*
X147864285Y-85626190D01*
X146340476Y-86102380D02*
X146911904Y-86102380D01*
X146626190Y-86102380D02*
X146626190Y-85102380D01*
X146721428Y-85245238D01*
X146816666Y-85340476D01*
X146911904Y-85388095D01*
X146007142Y-85102380D02*
X145388095Y-85102380D01*
X145721428Y-85483333D01*
X145578571Y-85483333D01*
X145483333Y-85530952D01*
X145435714Y-85578571D01*
X145388095Y-85673809D01*
X145388095Y-85911904D01*
X145435714Y-86007142D01*
X145483333Y-86054761D01*
X145578571Y-86102380D01*
X145864285Y-86102380D01*
X145959523Y-86054761D01*
X146007142Y-86007142D01*
%TO.C,R14*%
X150592857Y-84502380D02*
X150926190Y-84026190D01*
X151164285Y-84502380D02*
X151164285Y-83502380D01*
X150783333Y-83502380D01*
X150688095Y-83550000D01*
X150640476Y-83597619D01*
X150592857Y-83692857D01*
X150592857Y-83835714D01*
X150640476Y-83930952D01*
X150688095Y-83978571D01*
X150783333Y-84026190D01*
X151164285Y-84026190D01*
X149640476Y-84502380D02*
X150211904Y-84502380D01*
X149926190Y-84502380D02*
X149926190Y-83502380D01*
X150021428Y-83645238D01*
X150116666Y-83740476D01*
X150211904Y-83788095D01*
X148783333Y-83835714D02*
X148783333Y-84502380D01*
X149021428Y-83454761D02*
X149259523Y-84169047D01*
X148640476Y-84169047D01*
%TO.C,U3*%
X154001904Y-90832380D02*
X154001904Y-91641904D01*
X153954285Y-91737142D01*
X153906666Y-91784761D01*
X153811428Y-91832380D01*
X153620952Y-91832380D01*
X153525714Y-91784761D01*
X153478095Y-91737142D01*
X153430476Y-91641904D01*
X153430476Y-90832380D01*
X153049523Y-90832380D02*
X152430476Y-90832380D01*
X152763809Y-91213333D01*
X152620952Y-91213333D01*
X152525714Y-91260952D01*
X152478095Y-91308571D01*
X152430476Y-91403809D01*
X152430476Y-91641904D01*
X152478095Y-91737142D01*
X152525714Y-91784761D01*
X152620952Y-91832380D01*
X152906666Y-91832380D01*
X153001904Y-91784761D01*
X153049523Y-91737142D01*
%TO.C,U4*%
X185361904Y-102052380D02*
X185361904Y-102861904D01*
X185314285Y-102957142D01*
X185266666Y-103004761D01*
X185171428Y-103052380D01*
X184980952Y-103052380D01*
X184885714Y-103004761D01*
X184838095Y-102957142D01*
X184790476Y-102861904D01*
X184790476Y-102052380D01*
X183885714Y-102385714D02*
X183885714Y-103052380D01*
X184123809Y-102004761D02*
X184361904Y-102719047D01*
X183742857Y-102719047D01*
%TO.C,D1*%
X211488095Y-106402380D02*
X211488095Y-105402380D01*
X211250000Y-105402380D01*
X211107142Y-105450000D01*
X211011904Y-105545238D01*
X210964285Y-105640476D01*
X210916666Y-105830952D01*
X210916666Y-105973809D01*
X210964285Y-106164285D01*
X211011904Y-106259523D01*
X211107142Y-106354761D01*
X211250000Y-106402380D01*
X211488095Y-106402380D01*
X209964285Y-106402380D02*
X210535714Y-106402380D01*
X210250000Y-106402380D02*
X210250000Y-105402380D01*
X210345238Y-105545238D01*
X210440476Y-105640476D01*
X210535714Y-105688095D01*
%TO.C,D2*%
X209363095Y-106377380D02*
X209363095Y-105377380D01*
X209125000Y-105377380D01*
X208982142Y-105425000D01*
X208886904Y-105520238D01*
X208839285Y-105615476D01*
X208791666Y-105805952D01*
X208791666Y-105948809D01*
X208839285Y-106139285D01*
X208886904Y-106234523D01*
X208982142Y-106329761D01*
X209125000Y-106377380D01*
X209363095Y-106377380D01*
X208410714Y-105472619D02*
X208363095Y-105425000D01*
X208267857Y-105377380D01*
X208029761Y-105377380D01*
X207934523Y-105425000D01*
X207886904Y-105472619D01*
X207839285Y-105567857D01*
X207839285Y-105663095D01*
X207886904Y-105805952D01*
X208458333Y-106377380D01*
X207839285Y-106377380D01*
%TO.C,R2*%
X208791666Y-98277380D02*
X209125000Y-97801190D01*
X209363095Y-98277380D02*
X209363095Y-97277380D01*
X208982142Y-97277380D01*
X208886904Y-97325000D01*
X208839285Y-97372619D01*
X208791666Y-97467857D01*
X208791666Y-97610714D01*
X208839285Y-97705952D01*
X208886904Y-97753571D01*
X208982142Y-97801190D01*
X209363095Y-97801190D01*
X208410714Y-97372619D02*
X208363095Y-97325000D01*
X208267857Y-97277380D01*
X208029761Y-97277380D01*
X207934523Y-97325000D01*
X207886904Y-97372619D01*
X207839285Y-97467857D01*
X207839285Y-97563095D01*
X207886904Y-97705952D01*
X208458333Y-98277380D01*
X207839285Y-98277380D01*
%TO.C,Q7*%
X191420238Y-77047619D02*
X191515476Y-77000000D01*
X191610714Y-76904761D01*
X191753571Y-76761904D01*
X191848809Y-76714285D01*
X191944047Y-76714285D01*
X191896428Y-76952380D02*
X191991666Y-76904761D01*
X192086904Y-76809523D01*
X192134523Y-76619047D01*
X192134523Y-76285714D01*
X192086904Y-76095238D01*
X191991666Y-76000000D01*
X191896428Y-75952380D01*
X191705952Y-75952380D01*
X191610714Y-76000000D01*
X191515476Y-76095238D01*
X191467857Y-76285714D01*
X191467857Y-76619047D01*
X191515476Y-76809523D01*
X191610714Y-76904761D01*
X191705952Y-76952380D01*
X191896428Y-76952380D01*
X191134523Y-75952380D02*
X190467857Y-75952380D01*
X190896428Y-76952380D01*
%TO.C,R6*%
X160216666Y-99952380D02*
X160550000Y-99476190D01*
X160788095Y-99952380D02*
X160788095Y-98952380D01*
X160407142Y-98952380D01*
X160311904Y-99000000D01*
X160264285Y-99047619D01*
X160216666Y-99142857D01*
X160216666Y-99285714D01*
X160264285Y-99380952D01*
X160311904Y-99428571D01*
X160407142Y-99476190D01*
X160788095Y-99476190D01*
X159359523Y-98952380D02*
X159550000Y-98952380D01*
X159645238Y-99000000D01*
X159692857Y-99047619D01*
X159788095Y-99190476D01*
X159835714Y-99380952D01*
X159835714Y-99761904D01*
X159788095Y-99857142D01*
X159740476Y-99904761D01*
X159645238Y-99952380D01*
X159454761Y-99952380D01*
X159359523Y-99904761D01*
X159311904Y-99857142D01*
X159264285Y-99761904D01*
X159264285Y-99523809D01*
X159311904Y-99428571D01*
X159359523Y-99380952D01*
X159454761Y-99333333D01*
X159645238Y-99333333D01*
X159740476Y-99380952D01*
X159788095Y-99428571D01*
X159835714Y-99523809D01*
%TO.C,C101*%
X167999047Y-85857142D02*
X168046666Y-85904761D01*
X168189523Y-85952380D01*
X168284761Y-85952380D01*
X168427619Y-85904761D01*
X168522857Y-85809523D01*
X168570476Y-85714285D01*
X168618095Y-85523809D01*
X168618095Y-85380952D01*
X168570476Y-85190476D01*
X168522857Y-85095238D01*
X168427619Y-85000000D01*
X168284761Y-84952380D01*
X168189523Y-84952380D01*
X168046666Y-85000000D01*
X167999047Y-85047619D01*
X167046666Y-85952380D02*
X167618095Y-85952380D01*
X167332380Y-85952380D02*
X167332380Y-84952380D01*
X167427619Y-85095238D01*
X167522857Y-85190476D01*
X167618095Y-85238095D01*
X166427619Y-84952380D02*
X166332380Y-84952380D01*
X166237142Y-85000000D01*
X166189523Y-85047619D01*
X166141904Y-85142857D01*
X166094285Y-85333333D01*
X166094285Y-85571428D01*
X166141904Y-85761904D01*
X166189523Y-85857142D01*
X166237142Y-85904761D01*
X166332380Y-85952380D01*
X166427619Y-85952380D01*
X166522857Y-85904761D01*
X166570476Y-85857142D01*
X166618095Y-85761904D01*
X166665714Y-85571428D01*
X166665714Y-85333333D01*
X166618095Y-85142857D01*
X166570476Y-85047619D01*
X166522857Y-85000000D01*
X166427619Y-84952380D01*
X165141904Y-85952380D02*
X165713333Y-85952380D01*
X165427619Y-85952380D02*
X165427619Y-84952380D01*
X165522857Y-85095238D01*
X165618095Y-85190476D01*
X165713333Y-85238095D01*
%TO.C,C305*%
X182744047Y-104932142D02*
X182791666Y-104979761D01*
X182934523Y-105027380D01*
X183029761Y-105027380D01*
X183172619Y-104979761D01*
X183267857Y-104884523D01*
X183315476Y-104789285D01*
X183363095Y-104598809D01*
X183363095Y-104455952D01*
X183315476Y-104265476D01*
X183267857Y-104170238D01*
X183172619Y-104075000D01*
X183029761Y-104027380D01*
X182934523Y-104027380D01*
X182791666Y-104075000D01*
X182744047Y-104122619D01*
X182410714Y-104027380D02*
X181791666Y-104027380D01*
X182125000Y-104408333D01*
X181982142Y-104408333D01*
X181886904Y-104455952D01*
X181839285Y-104503571D01*
X181791666Y-104598809D01*
X181791666Y-104836904D01*
X181839285Y-104932142D01*
X181886904Y-104979761D01*
X181982142Y-105027380D01*
X182267857Y-105027380D01*
X182363095Y-104979761D01*
X182410714Y-104932142D01*
X181172619Y-104027380D02*
X181077380Y-104027380D01*
X180982142Y-104075000D01*
X180934523Y-104122619D01*
X180886904Y-104217857D01*
X180839285Y-104408333D01*
X180839285Y-104646428D01*
X180886904Y-104836904D01*
X180934523Y-104932142D01*
X180982142Y-104979761D01*
X181077380Y-105027380D01*
X181172619Y-105027380D01*
X181267857Y-104979761D01*
X181315476Y-104932142D01*
X181363095Y-104836904D01*
X181410714Y-104646428D01*
X181410714Y-104408333D01*
X181363095Y-104217857D01*
X181315476Y-104122619D01*
X181267857Y-104075000D01*
X181172619Y-104027380D01*
X179934523Y-104027380D02*
X180410714Y-104027380D01*
X180458333Y-104503571D01*
X180410714Y-104455952D01*
X180315476Y-104408333D01*
X180077380Y-104408333D01*
X179982142Y-104455952D01*
X179934523Y-104503571D01*
X179886904Y-104598809D01*
X179886904Y-104836904D01*
X179934523Y-104932142D01*
X179982142Y-104979761D01*
X180077380Y-105027380D01*
X180315476Y-105027380D01*
X180410714Y-104979761D01*
X180458333Y-104932142D01*
%TO.C,C302*%
X167119047Y-91832142D02*
X167166666Y-91879761D01*
X167309523Y-91927380D01*
X167404761Y-91927380D01*
X167547619Y-91879761D01*
X167642857Y-91784523D01*
X167690476Y-91689285D01*
X167738095Y-91498809D01*
X167738095Y-91355952D01*
X167690476Y-91165476D01*
X167642857Y-91070238D01*
X167547619Y-90975000D01*
X167404761Y-90927380D01*
X167309523Y-90927380D01*
X167166666Y-90975000D01*
X167119047Y-91022619D01*
X166785714Y-90927380D02*
X166166666Y-90927380D01*
X166500000Y-91308333D01*
X166357142Y-91308333D01*
X166261904Y-91355952D01*
X166214285Y-91403571D01*
X166166666Y-91498809D01*
X166166666Y-91736904D01*
X166214285Y-91832142D01*
X166261904Y-91879761D01*
X166357142Y-91927380D01*
X166642857Y-91927380D01*
X166738095Y-91879761D01*
X166785714Y-91832142D01*
X165547619Y-90927380D02*
X165452380Y-90927380D01*
X165357142Y-90975000D01*
X165309523Y-91022619D01*
X165261904Y-91117857D01*
X165214285Y-91308333D01*
X165214285Y-91546428D01*
X165261904Y-91736904D01*
X165309523Y-91832142D01*
X165357142Y-91879761D01*
X165452380Y-91927380D01*
X165547619Y-91927380D01*
X165642857Y-91879761D01*
X165690476Y-91832142D01*
X165738095Y-91736904D01*
X165785714Y-91546428D01*
X165785714Y-91308333D01*
X165738095Y-91117857D01*
X165690476Y-91022619D01*
X165642857Y-90975000D01*
X165547619Y-90927380D01*
X164833333Y-91022619D02*
X164785714Y-90975000D01*
X164690476Y-90927380D01*
X164452380Y-90927380D01*
X164357142Y-90975000D01*
X164309523Y-91022619D01*
X164261904Y-91117857D01*
X164261904Y-91213095D01*
X164309523Y-91355952D01*
X164880952Y-91927380D01*
X164261904Y-91927380D01*
%TO.C,U301*%
X175714285Y-88552380D02*
X175714285Y-89361904D01*
X175666666Y-89457142D01*
X175619047Y-89504761D01*
X175523809Y-89552380D01*
X175333333Y-89552380D01*
X175238095Y-89504761D01*
X175190476Y-89457142D01*
X175142857Y-89361904D01*
X175142857Y-88552380D01*
X174761904Y-88552380D02*
X174142857Y-88552380D01*
X174476190Y-88933333D01*
X174333333Y-88933333D01*
X174238095Y-88980952D01*
X174190476Y-89028571D01*
X174142857Y-89123809D01*
X174142857Y-89361904D01*
X174190476Y-89457142D01*
X174238095Y-89504761D01*
X174333333Y-89552380D01*
X174619047Y-89552380D01*
X174714285Y-89504761D01*
X174761904Y-89457142D01*
X173523809Y-88552380D02*
X173428571Y-88552380D01*
X173333333Y-88600000D01*
X173285714Y-88647619D01*
X173238095Y-88742857D01*
X173190476Y-88933333D01*
X173190476Y-89171428D01*
X173238095Y-89361904D01*
X173285714Y-89457142D01*
X173333333Y-89504761D01*
X173428571Y-89552380D01*
X173523809Y-89552380D01*
X173619047Y-89504761D01*
X173666666Y-89457142D01*
X173714285Y-89361904D01*
X173761904Y-89171428D01*
X173761904Y-88933333D01*
X173714285Y-88742857D01*
X173666666Y-88647619D01*
X173619047Y-88600000D01*
X173523809Y-88552380D01*
X172238095Y-89552380D02*
X172809523Y-89552380D01*
X172523809Y-89552380D02*
X172523809Y-88552380D01*
X172619047Y-88695238D01*
X172714285Y-88790476D01*
X172809523Y-88838095D01*
%TO.C,R301*%
X189194047Y-89327380D02*
X189527380Y-88851190D01*
X189765476Y-89327380D02*
X189765476Y-88327380D01*
X189384523Y-88327380D01*
X189289285Y-88375000D01*
X189241666Y-88422619D01*
X189194047Y-88517857D01*
X189194047Y-88660714D01*
X189241666Y-88755952D01*
X189289285Y-88803571D01*
X189384523Y-88851190D01*
X189765476Y-88851190D01*
X188860714Y-88327380D02*
X188241666Y-88327380D01*
X188575000Y-88708333D01*
X188432142Y-88708333D01*
X188336904Y-88755952D01*
X188289285Y-88803571D01*
X188241666Y-88898809D01*
X188241666Y-89136904D01*
X188289285Y-89232142D01*
X188336904Y-89279761D01*
X188432142Y-89327380D01*
X188717857Y-89327380D01*
X188813095Y-89279761D01*
X188860714Y-89232142D01*
X187622619Y-88327380D02*
X187527380Y-88327380D01*
X187432142Y-88375000D01*
X187384523Y-88422619D01*
X187336904Y-88517857D01*
X187289285Y-88708333D01*
X187289285Y-88946428D01*
X187336904Y-89136904D01*
X187384523Y-89232142D01*
X187432142Y-89279761D01*
X187527380Y-89327380D01*
X187622619Y-89327380D01*
X187717857Y-89279761D01*
X187765476Y-89232142D01*
X187813095Y-89136904D01*
X187860714Y-88946428D01*
X187860714Y-88708333D01*
X187813095Y-88517857D01*
X187765476Y-88422619D01*
X187717857Y-88375000D01*
X187622619Y-88327380D01*
X186336904Y-89327380D02*
X186908333Y-89327380D01*
X186622619Y-89327380D02*
X186622619Y-88327380D01*
X186717857Y-88470238D01*
X186813095Y-88565476D01*
X186908333Y-88613095D01*
%TO.C,R3*%
X160216666Y-104752380D02*
X160550000Y-104276190D01*
X160788095Y-104752380D02*
X160788095Y-103752380D01*
X160407142Y-103752380D01*
X160311904Y-103800000D01*
X160264285Y-103847619D01*
X160216666Y-103942857D01*
X160216666Y-104085714D01*
X160264285Y-104180952D01*
X160311904Y-104228571D01*
X160407142Y-104276190D01*
X160788095Y-104276190D01*
X159883333Y-103752380D02*
X159264285Y-103752380D01*
X159597619Y-104133333D01*
X159454761Y-104133333D01*
X159359523Y-104180952D01*
X159311904Y-104228571D01*
X159264285Y-104323809D01*
X159264285Y-104561904D01*
X159311904Y-104657142D01*
X159359523Y-104704761D01*
X159454761Y-104752380D01*
X159740476Y-104752380D01*
X159835714Y-104704761D01*
X159883333Y-104657142D01*
%TO.C,JP301*%
X193735714Y-92327380D02*
X193735714Y-93041666D01*
X193783333Y-93184523D01*
X193878571Y-93279761D01*
X194021428Y-93327380D01*
X194116666Y-93327380D01*
X193259523Y-93327380D02*
X193259523Y-92327380D01*
X192878571Y-92327380D01*
X192783333Y-92375000D01*
X192735714Y-92422619D01*
X192688095Y-92517857D01*
X192688095Y-92660714D01*
X192735714Y-92755952D01*
X192783333Y-92803571D01*
X192878571Y-92851190D01*
X193259523Y-92851190D01*
X192354761Y-92327380D02*
X191735714Y-92327380D01*
X192069047Y-92708333D01*
X191926190Y-92708333D01*
X191830952Y-92755952D01*
X191783333Y-92803571D01*
X191735714Y-92898809D01*
X191735714Y-93136904D01*
X191783333Y-93232142D01*
X191830952Y-93279761D01*
X191926190Y-93327380D01*
X192211904Y-93327380D01*
X192307142Y-93279761D01*
X192354761Y-93232142D01*
X191116666Y-92327380D02*
X191021428Y-92327380D01*
X190926190Y-92375000D01*
X190878571Y-92422619D01*
X190830952Y-92517857D01*
X190783333Y-92708333D01*
X190783333Y-92946428D01*
X190830952Y-93136904D01*
X190878571Y-93232142D01*
X190926190Y-93279761D01*
X191021428Y-93327380D01*
X191116666Y-93327380D01*
X191211904Y-93279761D01*
X191259523Y-93232142D01*
X191307142Y-93136904D01*
X191354761Y-92946428D01*
X191354761Y-92708333D01*
X191307142Y-92517857D01*
X191259523Y-92422619D01*
X191211904Y-92375000D01*
X191116666Y-92327380D01*
X189830952Y-93327380D02*
X190402380Y-93327380D01*
X190116666Y-93327380D02*
X190116666Y-92327380D01*
X190211904Y-92470238D01*
X190307142Y-92565476D01*
X190402380Y-92613095D01*
%TO.C,JP1*%
X143933333Y-103802380D02*
X143933333Y-104516666D01*
X143980952Y-104659523D01*
X144076190Y-104754761D01*
X144219047Y-104802380D01*
X144314285Y-104802380D01*
X143457142Y-104802380D02*
X143457142Y-103802380D01*
X143076190Y-103802380D01*
X142980952Y-103850000D01*
X142933333Y-103897619D01*
X142885714Y-103992857D01*
X142885714Y-104135714D01*
X142933333Y-104230952D01*
X142980952Y-104278571D01*
X143076190Y-104326190D01*
X143457142Y-104326190D01*
X141933333Y-104802380D02*
X142504761Y-104802380D01*
X142219047Y-104802380D02*
X142219047Y-103802380D01*
X142314285Y-103945238D01*
X142409523Y-104040476D01*
X142504761Y-104088095D01*
%TO.C,C301*%
X166239047Y-101217142D02*
X166286666Y-101264761D01*
X166429523Y-101312380D01*
X166524761Y-101312380D01*
X166667619Y-101264761D01*
X166762857Y-101169523D01*
X166810476Y-101074285D01*
X166858095Y-100883809D01*
X166858095Y-100740952D01*
X166810476Y-100550476D01*
X166762857Y-100455238D01*
X166667619Y-100360000D01*
X166524761Y-100312380D01*
X166429523Y-100312380D01*
X166286666Y-100360000D01*
X166239047Y-100407619D01*
X165905714Y-100312380D02*
X165286666Y-100312380D01*
X165620000Y-100693333D01*
X165477142Y-100693333D01*
X165381904Y-100740952D01*
X165334285Y-100788571D01*
X165286666Y-100883809D01*
X165286666Y-101121904D01*
X165334285Y-101217142D01*
X165381904Y-101264761D01*
X165477142Y-101312380D01*
X165762857Y-101312380D01*
X165858095Y-101264761D01*
X165905714Y-101217142D01*
X164667619Y-100312380D02*
X164572380Y-100312380D01*
X164477142Y-100360000D01*
X164429523Y-100407619D01*
X164381904Y-100502857D01*
X164334285Y-100693333D01*
X164334285Y-100931428D01*
X164381904Y-101121904D01*
X164429523Y-101217142D01*
X164477142Y-101264761D01*
X164572380Y-101312380D01*
X164667619Y-101312380D01*
X164762857Y-101264761D01*
X164810476Y-101217142D01*
X164858095Y-101121904D01*
X164905714Y-100931428D01*
X164905714Y-100693333D01*
X164858095Y-100502857D01*
X164810476Y-100407619D01*
X164762857Y-100360000D01*
X164667619Y-100312380D01*
X163381904Y-101312380D02*
X163953333Y-101312380D01*
X163667619Y-101312380D02*
X163667619Y-100312380D01*
X163762857Y-100455238D01*
X163858095Y-100550476D01*
X163953333Y-100598095D01*
%TO.C,U102*%
X171514285Y-83502380D02*
X171514285Y-84311904D01*
X171466666Y-84407142D01*
X171419047Y-84454761D01*
X171323809Y-84502380D01*
X171133333Y-84502380D01*
X171038095Y-84454761D01*
X170990476Y-84407142D01*
X170942857Y-84311904D01*
X170942857Y-83502380D01*
X169942857Y-84502380D02*
X170514285Y-84502380D01*
X170228571Y-84502380D02*
X170228571Y-83502380D01*
X170323809Y-83645238D01*
X170419047Y-83740476D01*
X170514285Y-83788095D01*
X169323809Y-83502380D02*
X169228571Y-83502380D01*
X169133333Y-83550000D01*
X169085714Y-83597619D01*
X169038095Y-83692857D01*
X168990476Y-83883333D01*
X168990476Y-84121428D01*
X169038095Y-84311904D01*
X169085714Y-84407142D01*
X169133333Y-84454761D01*
X169228571Y-84502380D01*
X169323809Y-84502380D01*
X169419047Y-84454761D01*
X169466666Y-84407142D01*
X169514285Y-84311904D01*
X169561904Y-84121428D01*
X169561904Y-83883333D01*
X169514285Y-83692857D01*
X169466666Y-83597619D01*
X169419047Y-83550000D01*
X169323809Y-83502380D01*
X168609523Y-83597619D02*
X168561904Y-83550000D01*
X168466666Y-83502380D01*
X168228571Y-83502380D01*
X168133333Y-83550000D01*
X168085714Y-83597619D01*
X168038095Y-83692857D01*
X168038095Y-83788095D01*
X168085714Y-83930952D01*
X168657142Y-84502380D01*
X168038095Y-84502380D01*
%TO.C,C304*%
X181469047Y-89107142D02*
X181516666Y-89154761D01*
X181659523Y-89202380D01*
X181754761Y-89202380D01*
X181897619Y-89154761D01*
X181992857Y-89059523D01*
X182040476Y-88964285D01*
X182088095Y-88773809D01*
X182088095Y-88630952D01*
X182040476Y-88440476D01*
X181992857Y-88345238D01*
X181897619Y-88250000D01*
X181754761Y-88202380D01*
X181659523Y-88202380D01*
X181516666Y-88250000D01*
X181469047Y-88297619D01*
X181135714Y-88202380D02*
X180516666Y-88202380D01*
X180850000Y-88583333D01*
X180707142Y-88583333D01*
X180611904Y-88630952D01*
X180564285Y-88678571D01*
X180516666Y-88773809D01*
X180516666Y-89011904D01*
X180564285Y-89107142D01*
X180611904Y-89154761D01*
X180707142Y-89202380D01*
X180992857Y-89202380D01*
X181088095Y-89154761D01*
X181135714Y-89107142D01*
X179897619Y-88202380D02*
X179802380Y-88202380D01*
X179707142Y-88250000D01*
X179659523Y-88297619D01*
X179611904Y-88392857D01*
X179564285Y-88583333D01*
X179564285Y-88821428D01*
X179611904Y-89011904D01*
X179659523Y-89107142D01*
X179707142Y-89154761D01*
X179802380Y-89202380D01*
X179897619Y-89202380D01*
X179992857Y-89154761D01*
X180040476Y-89107142D01*
X180088095Y-89011904D01*
X180135714Y-88821428D01*
X180135714Y-88583333D01*
X180088095Y-88392857D01*
X180040476Y-88297619D01*
X179992857Y-88250000D01*
X179897619Y-88202380D01*
X178707142Y-88535714D02*
X178707142Y-89202380D01*
X178945238Y-88154761D02*
X179183333Y-88869047D01*
X178564285Y-88869047D01*
%TO.C,R201*%
X154894047Y-77932380D02*
X155227380Y-77456190D01*
X155465476Y-77932380D02*
X155465476Y-76932380D01*
X155084523Y-76932380D01*
X154989285Y-76980000D01*
X154941666Y-77027619D01*
X154894047Y-77122857D01*
X154894047Y-77265714D01*
X154941666Y-77360952D01*
X154989285Y-77408571D01*
X155084523Y-77456190D01*
X155465476Y-77456190D01*
X154513095Y-77027619D02*
X154465476Y-76980000D01*
X154370238Y-76932380D01*
X154132142Y-76932380D01*
X154036904Y-76980000D01*
X153989285Y-77027619D01*
X153941666Y-77122857D01*
X153941666Y-77218095D01*
X153989285Y-77360952D01*
X154560714Y-77932380D01*
X153941666Y-77932380D01*
X153322619Y-76932380D02*
X153227380Y-76932380D01*
X153132142Y-76980000D01*
X153084523Y-77027619D01*
X153036904Y-77122857D01*
X152989285Y-77313333D01*
X152989285Y-77551428D01*
X153036904Y-77741904D01*
X153084523Y-77837142D01*
X153132142Y-77884761D01*
X153227380Y-77932380D01*
X153322619Y-77932380D01*
X153417857Y-77884761D01*
X153465476Y-77837142D01*
X153513095Y-77741904D01*
X153560714Y-77551428D01*
X153560714Y-77313333D01*
X153513095Y-77122857D01*
X153465476Y-77027619D01*
X153417857Y-76980000D01*
X153322619Y-76932380D01*
X152036904Y-77932380D02*
X152608333Y-77932380D01*
X152322619Y-77932380D02*
X152322619Y-76932380D01*
X152417857Y-77075238D01*
X152513095Y-77170476D01*
X152608333Y-77218095D01*
%TO.C,R102*%
X170094047Y-65972380D02*
X170427380Y-65496190D01*
X170665476Y-65972380D02*
X170665476Y-64972380D01*
X170284523Y-64972380D01*
X170189285Y-65020000D01*
X170141666Y-65067619D01*
X170094047Y-65162857D01*
X170094047Y-65305714D01*
X170141666Y-65400952D01*
X170189285Y-65448571D01*
X170284523Y-65496190D01*
X170665476Y-65496190D01*
X169141666Y-65972380D02*
X169713095Y-65972380D01*
X169427380Y-65972380D02*
X169427380Y-64972380D01*
X169522619Y-65115238D01*
X169617857Y-65210476D01*
X169713095Y-65258095D01*
X168522619Y-64972380D02*
X168427380Y-64972380D01*
X168332142Y-65020000D01*
X168284523Y-65067619D01*
X168236904Y-65162857D01*
X168189285Y-65353333D01*
X168189285Y-65591428D01*
X168236904Y-65781904D01*
X168284523Y-65877142D01*
X168332142Y-65924761D01*
X168427380Y-65972380D01*
X168522619Y-65972380D01*
X168617857Y-65924761D01*
X168665476Y-65877142D01*
X168713095Y-65781904D01*
X168760714Y-65591428D01*
X168760714Y-65353333D01*
X168713095Y-65162857D01*
X168665476Y-65067619D01*
X168617857Y-65020000D01*
X168522619Y-64972380D01*
X167808333Y-65067619D02*
X167760714Y-65020000D01*
X167665476Y-64972380D01*
X167427380Y-64972380D01*
X167332142Y-65020000D01*
X167284523Y-65067619D01*
X167236904Y-65162857D01*
X167236904Y-65258095D01*
X167284523Y-65400952D01*
X167855952Y-65972380D01*
X167236904Y-65972380D01*
%TO.C,JP2*%
X143933333Y-101202380D02*
X143933333Y-101916666D01*
X143980952Y-102059523D01*
X144076190Y-102154761D01*
X144219047Y-102202380D01*
X144314285Y-102202380D01*
X143457142Y-102202380D02*
X143457142Y-101202380D01*
X143076190Y-101202380D01*
X142980952Y-101250000D01*
X142933333Y-101297619D01*
X142885714Y-101392857D01*
X142885714Y-101535714D01*
X142933333Y-101630952D01*
X142980952Y-101678571D01*
X143076190Y-101726190D01*
X143457142Y-101726190D01*
X142504761Y-101297619D02*
X142457142Y-101250000D01*
X142361904Y-101202380D01*
X142123809Y-101202380D01*
X142028571Y-101250000D01*
X141980952Y-101297619D01*
X141933333Y-101392857D01*
X141933333Y-101488095D01*
X141980952Y-101630952D01*
X142552380Y-102202380D01*
X141933333Y-102202380D01*
%TO.C,R202*%
X153019047Y-74077380D02*
X153352380Y-73601190D01*
X153590476Y-74077380D02*
X153590476Y-73077380D01*
X153209523Y-73077380D01*
X153114285Y-73125000D01*
X153066666Y-73172619D01*
X153019047Y-73267857D01*
X153019047Y-73410714D01*
X153066666Y-73505952D01*
X153114285Y-73553571D01*
X153209523Y-73601190D01*
X153590476Y-73601190D01*
X152638095Y-73172619D02*
X152590476Y-73125000D01*
X152495238Y-73077380D01*
X152257142Y-73077380D01*
X152161904Y-73125000D01*
X152114285Y-73172619D01*
X152066666Y-73267857D01*
X152066666Y-73363095D01*
X152114285Y-73505952D01*
X152685714Y-74077380D01*
X152066666Y-74077380D01*
X151447619Y-73077380D02*
X151352380Y-73077380D01*
X151257142Y-73125000D01*
X151209523Y-73172619D01*
X151161904Y-73267857D01*
X151114285Y-73458333D01*
X151114285Y-73696428D01*
X151161904Y-73886904D01*
X151209523Y-73982142D01*
X151257142Y-74029761D01*
X151352380Y-74077380D01*
X151447619Y-74077380D01*
X151542857Y-74029761D01*
X151590476Y-73982142D01*
X151638095Y-73886904D01*
X151685714Y-73696428D01*
X151685714Y-73458333D01*
X151638095Y-73267857D01*
X151590476Y-73172619D01*
X151542857Y-73125000D01*
X151447619Y-73077380D01*
X150733333Y-73172619D02*
X150685714Y-73125000D01*
X150590476Y-73077380D01*
X150352380Y-73077380D01*
X150257142Y-73125000D01*
X150209523Y-73172619D01*
X150161904Y-73267857D01*
X150161904Y-73363095D01*
X150209523Y-73505952D01*
X150780952Y-74077380D01*
X150161904Y-74077380D01*
%TO.C,J102*%
X205985714Y-115552380D02*
X205985714Y-116266666D01*
X206033333Y-116409523D01*
X206128571Y-116504761D01*
X206271428Y-116552380D01*
X206366666Y-116552380D01*
X204985714Y-116552380D02*
X205557142Y-116552380D01*
X205271428Y-116552380D02*
X205271428Y-115552380D01*
X205366666Y-115695238D01*
X205461904Y-115790476D01*
X205557142Y-115838095D01*
X204366666Y-115552380D02*
X204271428Y-115552380D01*
X204176190Y-115600000D01*
X204128571Y-115647619D01*
X204080952Y-115742857D01*
X204033333Y-115933333D01*
X204033333Y-116171428D01*
X204080952Y-116361904D01*
X204128571Y-116457142D01*
X204176190Y-116504761D01*
X204271428Y-116552380D01*
X204366666Y-116552380D01*
X204461904Y-116504761D01*
X204509523Y-116457142D01*
X204557142Y-116361904D01*
X204604761Y-116171428D01*
X204604761Y-115933333D01*
X204557142Y-115742857D01*
X204509523Y-115647619D01*
X204461904Y-115600000D01*
X204366666Y-115552380D01*
X203652380Y-115647619D02*
X203604761Y-115600000D01*
X203509523Y-115552380D01*
X203271428Y-115552380D01*
X203176190Y-115600000D01*
X203128571Y-115647619D01*
X203080952Y-115742857D01*
X203080952Y-115838095D01*
X203128571Y-115980952D01*
X203700000Y-116552380D01*
X203080952Y-116552380D01*
%TO.C,J101*%
X147185714Y-115552380D02*
X147185714Y-116266666D01*
X147233333Y-116409523D01*
X147328571Y-116504761D01*
X147471428Y-116552380D01*
X147566666Y-116552380D01*
X146185714Y-116552380D02*
X146757142Y-116552380D01*
X146471428Y-116552380D02*
X146471428Y-115552380D01*
X146566666Y-115695238D01*
X146661904Y-115790476D01*
X146757142Y-115838095D01*
X145566666Y-115552380D02*
X145471428Y-115552380D01*
X145376190Y-115600000D01*
X145328571Y-115647619D01*
X145280952Y-115742857D01*
X145233333Y-115933333D01*
X145233333Y-116171428D01*
X145280952Y-116361904D01*
X145328571Y-116457142D01*
X145376190Y-116504761D01*
X145471428Y-116552380D01*
X145566666Y-116552380D01*
X145661904Y-116504761D01*
X145709523Y-116457142D01*
X145757142Y-116361904D01*
X145804761Y-116171428D01*
X145804761Y-115933333D01*
X145757142Y-115742857D01*
X145709523Y-115647619D01*
X145661904Y-115600000D01*
X145566666Y-115552380D01*
X144280952Y-116552380D02*
X144852380Y-116552380D01*
X144566666Y-116552380D02*
X144566666Y-115552380D01*
X144661904Y-115695238D01*
X144757142Y-115790476D01*
X144852380Y-115838095D01*
%TO.C,U201*%
X156714285Y-66602380D02*
X156714285Y-67411904D01*
X156666666Y-67507142D01*
X156619047Y-67554761D01*
X156523809Y-67602380D01*
X156333333Y-67602380D01*
X156238095Y-67554761D01*
X156190476Y-67507142D01*
X156142857Y-67411904D01*
X156142857Y-66602380D01*
X155714285Y-66697619D02*
X155666666Y-66650000D01*
X155571428Y-66602380D01*
X155333333Y-66602380D01*
X155238095Y-66650000D01*
X155190476Y-66697619D01*
X155142857Y-66792857D01*
X155142857Y-66888095D01*
X155190476Y-67030952D01*
X155761904Y-67602380D01*
X155142857Y-67602380D01*
X154523809Y-66602380D02*
X154428571Y-66602380D01*
X154333333Y-66650000D01*
X154285714Y-66697619D01*
X154238095Y-66792857D01*
X154190476Y-66983333D01*
X154190476Y-67221428D01*
X154238095Y-67411904D01*
X154285714Y-67507142D01*
X154333333Y-67554761D01*
X154428571Y-67602380D01*
X154523809Y-67602380D01*
X154619047Y-67554761D01*
X154666666Y-67507142D01*
X154714285Y-67411904D01*
X154761904Y-67221428D01*
X154761904Y-66983333D01*
X154714285Y-66792857D01*
X154666666Y-66697619D01*
X154619047Y-66650000D01*
X154523809Y-66602380D01*
X153238095Y-67602380D02*
X153809523Y-67602380D01*
X153523809Y-67602380D02*
X153523809Y-66602380D01*
X153619047Y-66745238D01*
X153714285Y-66840476D01*
X153809523Y-66888095D01*
%TO.C,C201*%
X160069047Y-66407142D02*
X160116666Y-66454761D01*
X160259523Y-66502380D01*
X160354761Y-66502380D01*
X160497619Y-66454761D01*
X160592857Y-66359523D01*
X160640476Y-66264285D01*
X160688095Y-66073809D01*
X160688095Y-65930952D01*
X160640476Y-65740476D01*
X160592857Y-65645238D01*
X160497619Y-65550000D01*
X160354761Y-65502380D01*
X160259523Y-65502380D01*
X160116666Y-65550000D01*
X160069047Y-65597619D01*
X159688095Y-65597619D02*
X159640476Y-65550000D01*
X159545238Y-65502380D01*
X159307142Y-65502380D01*
X159211904Y-65550000D01*
X159164285Y-65597619D01*
X159116666Y-65692857D01*
X159116666Y-65788095D01*
X159164285Y-65930952D01*
X159735714Y-66502380D01*
X159116666Y-66502380D01*
X158497619Y-65502380D02*
X158402380Y-65502380D01*
X158307142Y-65550000D01*
X158259523Y-65597619D01*
X158211904Y-65692857D01*
X158164285Y-65883333D01*
X158164285Y-66121428D01*
X158211904Y-66311904D01*
X158259523Y-66407142D01*
X158307142Y-66454761D01*
X158402380Y-66502380D01*
X158497619Y-66502380D01*
X158592857Y-66454761D01*
X158640476Y-66407142D01*
X158688095Y-66311904D01*
X158735714Y-66121428D01*
X158735714Y-65883333D01*
X158688095Y-65692857D01*
X158640476Y-65597619D01*
X158592857Y-65550000D01*
X158497619Y-65502380D01*
X157211904Y-66502380D02*
X157783333Y-66502380D01*
X157497619Y-66502380D02*
X157497619Y-65502380D01*
X157592857Y-65645238D01*
X157688095Y-65740476D01*
X157783333Y-65788095D01*
%TO.C,D101*%
X171490476Y-69402380D02*
X171490476Y-68402380D01*
X171252380Y-68402380D01*
X171109523Y-68450000D01*
X171014285Y-68545238D01*
X170966666Y-68640476D01*
X170919047Y-68830952D01*
X170919047Y-68973809D01*
X170966666Y-69164285D01*
X171014285Y-69259523D01*
X171109523Y-69354761D01*
X171252380Y-69402380D01*
X171490476Y-69402380D01*
X169966666Y-69402380D02*
X170538095Y-69402380D01*
X170252380Y-69402380D02*
X170252380Y-68402380D01*
X170347619Y-68545238D01*
X170442857Y-68640476D01*
X170538095Y-68688095D01*
X169347619Y-68402380D02*
X169252380Y-68402380D01*
X169157142Y-68450000D01*
X169109523Y-68497619D01*
X169061904Y-68592857D01*
X169014285Y-68783333D01*
X169014285Y-69021428D01*
X169061904Y-69211904D01*
X169109523Y-69307142D01*
X169157142Y-69354761D01*
X169252380Y-69402380D01*
X169347619Y-69402380D01*
X169442857Y-69354761D01*
X169490476Y-69307142D01*
X169538095Y-69211904D01*
X169585714Y-69021428D01*
X169585714Y-68783333D01*
X169538095Y-68592857D01*
X169490476Y-68497619D01*
X169442857Y-68450000D01*
X169347619Y-68402380D01*
X168061904Y-69402380D02*
X168633333Y-69402380D01*
X168347619Y-69402380D02*
X168347619Y-68402380D01*
X168442857Y-68545238D01*
X168538095Y-68640476D01*
X168633333Y-68688095D01*
%TO.C,R101*%
X167819047Y-106477380D02*
X168152380Y-106001190D01*
X168390476Y-106477380D02*
X168390476Y-105477380D01*
X168009523Y-105477380D01*
X167914285Y-105525000D01*
X167866666Y-105572619D01*
X167819047Y-105667857D01*
X167819047Y-105810714D01*
X167866666Y-105905952D01*
X167914285Y-105953571D01*
X168009523Y-106001190D01*
X168390476Y-106001190D01*
X166866666Y-106477380D02*
X167438095Y-106477380D01*
X167152380Y-106477380D02*
X167152380Y-105477380D01*
X167247619Y-105620238D01*
X167342857Y-105715476D01*
X167438095Y-105763095D01*
X166247619Y-105477380D02*
X166152380Y-105477380D01*
X166057142Y-105525000D01*
X166009523Y-105572619D01*
X165961904Y-105667857D01*
X165914285Y-105858333D01*
X165914285Y-106096428D01*
X165961904Y-106286904D01*
X166009523Y-106382142D01*
X166057142Y-106429761D01*
X166152380Y-106477380D01*
X166247619Y-106477380D01*
X166342857Y-106429761D01*
X166390476Y-106382142D01*
X166438095Y-106286904D01*
X166485714Y-106096428D01*
X166485714Y-105858333D01*
X166438095Y-105667857D01*
X166390476Y-105572619D01*
X166342857Y-105525000D01*
X166247619Y-105477380D01*
X164961904Y-106477380D02*
X165533333Y-106477380D01*
X165247619Y-106477380D02*
X165247619Y-105477380D01*
X165342857Y-105620238D01*
X165438095Y-105715476D01*
X165533333Y-105763095D01*
%TO.C,C303*%
X173144047Y-106802142D02*
X173191666Y-106849761D01*
X173334523Y-106897380D01*
X173429761Y-106897380D01*
X173572619Y-106849761D01*
X173667857Y-106754523D01*
X173715476Y-106659285D01*
X173763095Y-106468809D01*
X173763095Y-106325952D01*
X173715476Y-106135476D01*
X173667857Y-106040238D01*
X173572619Y-105945000D01*
X173429761Y-105897380D01*
X173334523Y-105897380D01*
X173191666Y-105945000D01*
X173144047Y-105992619D01*
X172810714Y-105897380D02*
X172191666Y-105897380D01*
X172525000Y-106278333D01*
X172382142Y-106278333D01*
X172286904Y-106325952D01*
X172239285Y-106373571D01*
X172191666Y-106468809D01*
X172191666Y-106706904D01*
X172239285Y-106802142D01*
X172286904Y-106849761D01*
X172382142Y-106897380D01*
X172667857Y-106897380D01*
X172763095Y-106849761D01*
X172810714Y-106802142D01*
X171572619Y-105897380D02*
X171477380Y-105897380D01*
X171382142Y-105945000D01*
X171334523Y-105992619D01*
X171286904Y-106087857D01*
X171239285Y-106278333D01*
X171239285Y-106516428D01*
X171286904Y-106706904D01*
X171334523Y-106802142D01*
X171382142Y-106849761D01*
X171477380Y-106897380D01*
X171572619Y-106897380D01*
X171667857Y-106849761D01*
X171715476Y-106802142D01*
X171763095Y-106706904D01*
X171810714Y-106516428D01*
X171810714Y-106278333D01*
X171763095Y-106087857D01*
X171715476Y-105992619D01*
X171667857Y-105945000D01*
X171572619Y-105897380D01*
X170905952Y-105897380D02*
X170286904Y-105897380D01*
X170620238Y-106278333D01*
X170477380Y-106278333D01*
X170382142Y-106325952D01*
X170334523Y-106373571D01*
X170286904Y-106468809D01*
X170286904Y-106706904D01*
X170334523Y-106802142D01*
X170382142Y-106849761D01*
X170477380Y-106897380D01*
X170763095Y-106897380D01*
X170858333Y-106849761D01*
X170905952Y-106802142D01*
%TO.C,D201*%
X164690476Y-65902380D02*
X164690476Y-64902380D01*
X164452380Y-64902380D01*
X164309523Y-64950000D01*
X164214285Y-65045238D01*
X164166666Y-65140476D01*
X164119047Y-65330952D01*
X164119047Y-65473809D01*
X164166666Y-65664285D01*
X164214285Y-65759523D01*
X164309523Y-65854761D01*
X164452380Y-65902380D01*
X164690476Y-65902380D01*
X163738095Y-64997619D02*
X163690476Y-64950000D01*
X163595238Y-64902380D01*
X163357142Y-64902380D01*
X163261904Y-64950000D01*
X163214285Y-64997619D01*
X163166666Y-65092857D01*
X163166666Y-65188095D01*
X163214285Y-65330952D01*
X163785714Y-65902380D01*
X163166666Y-65902380D01*
X162547619Y-64902380D02*
X162452380Y-64902380D01*
X162357142Y-64950000D01*
X162309523Y-64997619D01*
X162261904Y-65092857D01*
X162214285Y-65283333D01*
X162214285Y-65521428D01*
X162261904Y-65711904D01*
X162309523Y-65807142D01*
X162357142Y-65854761D01*
X162452380Y-65902380D01*
X162547619Y-65902380D01*
X162642857Y-65854761D01*
X162690476Y-65807142D01*
X162738095Y-65711904D01*
X162785714Y-65521428D01*
X162785714Y-65283333D01*
X162738095Y-65092857D01*
X162690476Y-64997619D01*
X162642857Y-64950000D01*
X162547619Y-64902380D01*
X161261904Y-65902380D02*
X161833333Y-65902380D01*
X161547619Y-65902380D02*
X161547619Y-64902380D01*
X161642857Y-65045238D01*
X161738095Y-65140476D01*
X161833333Y-65188095D01*
%TO.C,J104*%
X210685714Y-85252380D02*
X210685714Y-85966666D01*
X210733333Y-86109523D01*
X210828571Y-86204761D01*
X210971428Y-86252380D01*
X211066666Y-86252380D01*
X209685714Y-86252380D02*
X210257142Y-86252380D01*
X209971428Y-86252380D02*
X209971428Y-85252380D01*
X210066666Y-85395238D01*
X210161904Y-85490476D01*
X210257142Y-85538095D01*
X209066666Y-85252380D02*
X208971428Y-85252380D01*
X208876190Y-85300000D01*
X208828571Y-85347619D01*
X208780952Y-85442857D01*
X208733333Y-85633333D01*
X208733333Y-85871428D01*
X208780952Y-86061904D01*
X208828571Y-86157142D01*
X208876190Y-86204761D01*
X208971428Y-86252380D01*
X209066666Y-86252380D01*
X209161904Y-86204761D01*
X209209523Y-86157142D01*
X209257142Y-86061904D01*
X209304761Y-85871428D01*
X209304761Y-85633333D01*
X209257142Y-85442857D01*
X209209523Y-85347619D01*
X209161904Y-85300000D01*
X209066666Y-85252380D01*
X207876190Y-85585714D02*
X207876190Y-86252380D01*
X208114285Y-85204761D02*
X208352380Y-85919047D01*
X207733333Y-85919047D01*
X210037380Y-79442857D02*
X209561190Y-79109523D01*
X210037380Y-78871428D02*
X209037380Y-78871428D01*
X209037380Y-79252380D01*
X209085000Y-79347619D01*
X209132619Y-79395238D01*
X209227857Y-79442857D01*
X209370714Y-79442857D01*
X209465952Y-79395238D01*
X209513571Y-79347619D01*
X209561190Y-79252380D01*
X209561190Y-78871428D01*
X209037380Y-79728571D02*
X209037380Y-80300000D01*
X210037380Y-80014285D02*
X209037380Y-80014285D01*
X210132619Y-80395238D02*
X210132619Y-81157142D01*
X209513571Y-81728571D02*
X209561190Y-81871428D01*
X209608809Y-81919047D01*
X209704047Y-81966666D01*
X209846904Y-81966666D01*
X209942142Y-81919047D01*
X209989761Y-81871428D01*
X210037380Y-81776190D01*
X210037380Y-81395238D01*
X209037380Y-81395238D01*
X209037380Y-81728571D01*
X209085000Y-81823809D01*
X209132619Y-81871428D01*
X209227857Y-81919047D01*
X209323095Y-81919047D01*
X209418333Y-81871428D01*
X209465952Y-81823809D01*
X209513571Y-81728571D01*
X209513571Y-81395238D01*
X209037380Y-82252380D02*
X209037380Y-82823809D01*
X210037380Y-82538095D02*
X209037380Y-82538095D01*
X210037380Y-83157142D02*
X209037380Y-83157142D01*
X210037380Y-83728571D01*
X209037380Y-83728571D01*
%TO.C,Q101*%
X163932619Y-108437619D02*
X164027857Y-108390000D01*
X164123095Y-108294761D01*
X164265952Y-108151904D01*
X164361190Y-108104285D01*
X164456428Y-108104285D01*
X164408809Y-108342380D02*
X164504047Y-108294761D01*
X164599285Y-108199523D01*
X164646904Y-108009047D01*
X164646904Y-107675714D01*
X164599285Y-107485238D01*
X164504047Y-107390000D01*
X164408809Y-107342380D01*
X164218333Y-107342380D01*
X164123095Y-107390000D01*
X164027857Y-107485238D01*
X163980238Y-107675714D01*
X163980238Y-108009047D01*
X164027857Y-108199523D01*
X164123095Y-108294761D01*
X164218333Y-108342380D01*
X164408809Y-108342380D01*
X163027857Y-108342380D02*
X163599285Y-108342380D01*
X163313571Y-108342380D02*
X163313571Y-107342380D01*
X163408809Y-107485238D01*
X163504047Y-107580476D01*
X163599285Y-107628095D01*
X162408809Y-107342380D02*
X162313571Y-107342380D01*
X162218333Y-107390000D01*
X162170714Y-107437619D01*
X162123095Y-107532857D01*
X162075476Y-107723333D01*
X162075476Y-107961428D01*
X162123095Y-108151904D01*
X162170714Y-108247142D01*
X162218333Y-108294761D01*
X162313571Y-108342380D01*
X162408809Y-108342380D01*
X162504047Y-108294761D01*
X162551666Y-108247142D01*
X162599285Y-108151904D01*
X162646904Y-107961428D01*
X162646904Y-107723333D01*
X162599285Y-107532857D01*
X162551666Y-107437619D01*
X162504047Y-107390000D01*
X162408809Y-107342380D01*
X161123095Y-108342380D02*
X161694523Y-108342380D01*
X161408809Y-108342380D02*
X161408809Y-107342380D01*
X161504047Y-107485238D01*
X161599285Y-107580476D01*
X161694523Y-107628095D01*
%TO.C,C203*%
X148419047Y-70807142D02*
X148466666Y-70854761D01*
X148609523Y-70902380D01*
X148704761Y-70902380D01*
X148847619Y-70854761D01*
X148942857Y-70759523D01*
X148990476Y-70664285D01*
X149038095Y-70473809D01*
X149038095Y-70330952D01*
X148990476Y-70140476D01*
X148942857Y-70045238D01*
X148847619Y-69950000D01*
X148704761Y-69902380D01*
X148609523Y-69902380D01*
X148466666Y-69950000D01*
X148419047Y-69997619D01*
X148038095Y-69997619D02*
X147990476Y-69950000D01*
X147895238Y-69902380D01*
X147657142Y-69902380D01*
X147561904Y-69950000D01*
X147514285Y-69997619D01*
X147466666Y-70092857D01*
X147466666Y-70188095D01*
X147514285Y-70330952D01*
X148085714Y-70902380D01*
X147466666Y-70902380D01*
X146847619Y-69902380D02*
X146752380Y-69902380D01*
X146657142Y-69950000D01*
X146609523Y-69997619D01*
X146561904Y-70092857D01*
X146514285Y-70283333D01*
X146514285Y-70521428D01*
X146561904Y-70711904D01*
X146609523Y-70807142D01*
X146657142Y-70854761D01*
X146752380Y-70902380D01*
X146847619Y-70902380D01*
X146942857Y-70854761D01*
X146990476Y-70807142D01*
X147038095Y-70711904D01*
X147085714Y-70521428D01*
X147085714Y-70283333D01*
X147038095Y-70092857D01*
X146990476Y-69997619D01*
X146942857Y-69950000D01*
X146847619Y-69902380D01*
X146180952Y-69902380D02*
X145561904Y-69902380D01*
X145895238Y-70283333D01*
X145752380Y-70283333D01*
X145657142Y-70330952D01*
X145609523Y-70378571D01*
X145561904Y-70473809D01*
X145561904Y-70711904D01*
X145609523Y-70807142D01*
X145657142Y-70854761D01*
X145752380Y-70902380D01*
X146038095Y-70902380D01*
X146133333Y-70854761D01*
X146180952Y-70807142D01*
%TO.C,J106*%
X141560714Y-85202380D02*
X141560714Y-85916666D01*
X141608333Y-86059523D01*
X141703571Y-86154761D01*
X141846428Y-86202380D01*
X141941666Y-86202380D01*
X140560714Y-86202380D02*
X141132142Y-86202380D01*
X140846428Y-86202380D02*
X140846428Y-85202380D01*
X140941666Y-85345238D01*
X141036904Y-85440476D01*
X141132142Y-85488095D01*
X139941666Y-85202380D02*
X139846428Y-85202380D01*
X139751190Y-85250000D01*
X139703571Y-85297619D01*
X139655952Y-85392857D01*
X139608333Y-85583333D01*
X139608333Y-85821428D01*
X139655952Y-86011904D01*
X139703571Y-86107142D01*
X139751190Y-86154761D01*
X139846428Y-86202380D01*
X139941666Y-86202380D01*
X140036904Y-86154761D01*
X140084523Y-86107142D01*
X140132142Y-86011904D01*
X140179761Y-85821428D01*
X140179761Y-85583333D01*
X140132142Y-85392857D01*
X140084523Y-85297619D01*
X140036904Y-85250000D01*
X139941666Y-85202380D01*
X138751190Y-85202380D02*
X138941666Y-85202380D01*
X139036904Y-85250000D01*
X139084523Y-85297619D01*
X139179761Y-85440476D01*
X139227380Y-85630952D01*
X139227380Y-86011904D01*
X139179761Y-86107142D01*
X139132142Y-86154761D01*
X139036904Y-86202380D01*
X138846428Y-86202380D01*
X138751190Y-86154761D01*
X138703571Y-86107142D01*
X138655952Y-86011904D01*
X138655952Y-85773809D01*
X138703571Y-85678571D01*
X138751190Y-85630952D01*
X138846428Y-85583333D01*
X139036904Y-85583333D01*
X139132142Y-85630952D01*
X139179761Y-85678571D01*
X139227380Y-85773809D01*
X139377380Y-79442857D02*
X139377380Y-78966666D01*
X138377380Y-78966666D01*
X138377380Y-79633333D02*
X138377380Y-80204761D01*
X139377380Y-79919047D02*
X138377380Y-79919047D01*
X139472619Y-80300000D02*
X139472619Y-81061904D01*
X138853571Y-81633333D02*
X138901190Y-81776190D01*
X138948809Y-81823809D01*
X139044047Y-81871428D01*
X139186904Y-81871428D01*
X139282142Y-81823809D01*
X139329761Y-81776190D01*
X139377380Y-81680952D01*
X139377380Y-81300000D01*
X138377380Y-81300000D01*
X138377380Y-81633333D01*
X138425000Y-81728571D01*
X138472619Y-81776190D01*
X138567857Y-81823809D01*
X138663095Y-81823809D01*
X138758333Y-81776190D01*
X138805952Y-81728571D01*
X138853571Y-81633333D01*
X138853571Y-81300000D01*
X138377380Y-82157142D02*
X138377380Y-82728571D01*
X139377380Y-82442857D02*
X138377380Y-82442857D01*
X139377380Y-83061904D02*
X138377380Y-83061904D01*
X139377380Y-83633333D01*
X138377380Y-83633333D01*
%TO.C,R5*%
X160216666Y-101552380D02*
X160550000Y-101076190D01*
X160788095Y-101552380D02*
X160788095Y-100552380D01*
X160407142Y-100552380D01*
X160311904Y-100600000D01*
X160264285Y-100647619D01*
X160216666Y-100742857D01*
X160216666Y-100885714D01*
X160264285Y-100980952D01*
X160311904Y-101028571D01*
X160407142Y-101076190D01*
X160788095Y-101076190D01*
X159311904Y-100552380D02*
X159788095Y-100552380D01*
X159835714Y-101028571D01*
X159788095Y-100980952D01*
X159692857Y-100933333D01*
X159454761Y-100933333D01*
X159359523Y-100980952D01*
X159311904Y-101028571D01*
X159264285Y-101123809D01*
X159264285Y-101361904D01*
X159311904Y-101457142D01*
X159359523Y-101504761D01*
X159454761Y-101552380D01*
X159692857Y-101552380D01*
X159788095Y-101504761D01*
X159835714Y-101457142D01*
%TO.C,R203*%
X154894047Y-70147380D02*
X155227380Y-69671190D01*
X155465476Y-70147380D02*
X155465476Y-69147380D01*
X155084523Y-69147380D01*
X154989285Y-69195000D01*
X154941666Y-69242619D01*
X154894047Y-69337857D01*
X154894047Y-69480714D01*
X154941666Y-69575952D01*
X154989285Y-69623571D01*
X155084523Y-69671190D01*
X155465476Y-69671190D01*
X154513095Y-69242619D02*
X154465476Y-69195000D01*
X154370238Y-69147380D01*
X154132142Y-69147380D01*
X154036904Y-69195000D01*
X153989285Y-69242619D01*
X153941666Y-69337857D01*
X153941666Y-69433095D01*
X153989285Y-69575952D01*
X154560714Y-70147380D01*
X153941666Y-70147380D01*
X153322619Y-69147380D02*
X153227380Y-69147380D01*
X153132142Y-69195000D01*
X153084523Y-69242619D01*
X153036904Y-69337857D01*
X152989285Y-69528333D01*
X152989285Y-69766428D01*
X153036904Y-69956904D01*
X153084523Y-70052142D01*
X153132142Y-70099761D01*
X153227380Y-70147380D01*
X153322619Y-70147380D01*
X153417857Y-70099761D01*
X153465476Y-70052142D01*
X153513095Y-69956904D01*
X153560714Y-69766428D01*
X153560714Y-69528333D01*
X153513095Y-69337857D01*
X153465476Y-69242619D01*
X153417857Y-69195000D01*
X153322619Y-69147380D01*
X152655952Y-69147380D02*
X152036904Y-69147380D01*
X152370238Y-69528333D01*
X152227380Y-69528333D01*
X152132142Y-69575952D01*
X152084523Y-69623571D01*
X152036904Y-69718809D01*
X152036904Y-69956904D01*
X152084523Y-70052142D01*
X152132142Y-70099761D01*
X152227380Y-70147380D01*
X152513095Y-70147380D01*
X152608333Y-70099761D01*
X152655952Y-70052142D01*
%TO.C,C102*%
X175519047Y-72807142D02*
X175566666Y-72854761D01*
X175709523Y-72902380D01*
X175804761Y-72902380D01*
X175947619Y-72854761D01*
X176042857Y-72759523D01*
X176090476Y-72664285D01*
X176138095Y-72473809D01*
X176138095Y-72330952D01*
X176090476Y-72140476D01*
X176042857Y-72045238D01*
X175947619Y-71950000D01*
X175804761Y-71902380D01*
X175709523Y-71902380D01*
X175566666Y-71950000D01*
X175519047Y-71997619D01*
X174566666Y-72902380D02*
X175138095Y-72902380D01*
X174852380Y-72902380D02*
X174852380Y-71902380D01*
X174947619Y-72045238D01*
X175042857Y-72140476D01*
X175138095Y-72188095D01*
X173947619Y-71902380D02*
X173852380Y-71902380D01*
X173757142Y-71950000D01*
X173709523Y-71997619D01*
X173661904Y-72092857D01*
X173614285Y-72283333D01*
X173614285Y-72521428D01*
X173661904Y-72711904D01*
X173709523Y-72807142D01*
X173757142Y-72854761D01*
X173852380Y-72902380D01*
X173947619Y-72902380D01*
X174042857Y-72854761D01*
X174090476Y-72807142D01*
X174138095Y-72711904D01*
X174185714Y-72521428D01*
X174185714Y-72283333D01*
X174138095Y-72092857D01*
X174090476Y-71997619D01*
X174042857Y-71950000D01*
X173947619Y-71902380D01*
X173233333Y-71997619D02*
X173185714Y-71950000D01*
X173090476Y-71902380D01*
X172852380Y-71902380D01*
X172757142Y-71950000D01*
X172709523Y-71997619D01*
X172661904Y-72092857D01*
X172661904Y-72188095D01*
X172709523Y-72330952D01*
X173280952Y-72902380D01*
X172661904Y-72902380D01*
%TO.C,JP3*%
X143933333Y-98602380D02*
X143933333Y-99316666D01*
X143980952Y-99459523D01*
X144076190Y-99554761D01*
X144219047Y-99602380D01*
X144314285Y-99602380D01*
X143457142Y-99602380D02*
X143457142Y-98602380D01*
X143076190Y-98602380D01*
X142980952Y-98650000D01*
X142933333Y-98697619D01*
X142885714Y-98792857D01*
X142885714Y-98935714D01*
X142933333Y-99030952D01*
X142980952Y-99078571D01*
X143076190Y-99126190D01*
X143457142Y-99126190D01*
X142552380Y-98602380D02*
X141933333Y-98602380D01*
X142266666Y-98983333D01*
X142123809Y-98983333D01*
X142028571Y-99030952D01*
X141980952Y-99078571D01*
X141933333Y-99173809D01*
X141933333Y-99411904D01*
X141980952Y-99507142D01*
X142028571Y-99554761D01*
X142123809Y-99602380D01*
X142409523Y-99602380D01*
X142504761Y-99554761D01*
X142552380Y-99507142D01*
%TO.C,JP4*%
X143933333Y-96002380D02*
X143933333Y-96716666D01*
X143980952Y-96859523D01*
X144076190Y-96954761D01*
X144219047Y-97002380D01*
X144314285Y-97002380D01*
X143457142Y-97002380D02*
X143457142Y-96002380D01*
X143076190Y-96002380D01*
X142980952Y-96050000D01*
X142933333Y-96097619D01*
X142885714Y-96192857D01*
X142885714Y-96335714D01*
X142933333Y-96430952D01*
X142980952Y-96478571D01*
X143076190Y-96526190D01*
X143457142Y-96526190D01*
X142028571Y-96335714D02*
X142028571Y-97002380D01*
X142266666Y-95954761D02*
X142504761Y-96669047D01*
X141885714Y-96669047D01*
%TO.C,J105*%
X141610714Y-74377380D02*
X141610714Y-75091666D01*
X141658333Y-75234523D01*
X141753571Y-75329761D01*
X141896428Y-75377380D01*
X141991666Y-75377380D01*
X140610714Y-75377380D02*
X141182142Y-75377380D01*
X140896428Y-75377380D02*
X140896428Y-74377380D01*
X140991666Y-74520238D01*
X141086904Y-74615476D01*
X141182142Y-74663095D01*
X139991666Y-74377380D02*
X139896428Y-74377380D01*
X139801190Y-74425000D01*
X139753571Y-74472619D01*
X139705952Y-74567857D01*
X139658333Y-74758333D01*
X139658333Y-74996428D01*
X139705952Y-75186904D01*
X139753571Y-75282142D01*
X139801190Y-75329761D01*
X139896428Y-75377380D01*
X139991666Y-75377380D01*
X140086904Y-75329761D01*
X140134523Y-75282142D01*
X140182142Y-75186904D01*
X140229761Y-74996428D01*
X140229761Y-74758333D01*
X140182142Y-74567857D01*
X140134523Y-74472619D01*
X140086904Y-74425000D01*
X139991666Y-74377380D01*
X138753571Y-74377380D02*
X139229761Y-74377380D01*
X139277380Y-74853571D01*
X139229761Y-74805952D01*
X139134523Y-74758333D01*
X138896428Y-74758333D01*
X138801190Y-74805952D01*
X138753571Y-74853571D01*
X138705952Y-74948809D01*
X138705952Y-75186904D01*
X138753571Y-75282142D01*
X138801190Y-75329761D01*
X138896428Y-75377380D01*
X139134523Y-75377380D01*
X139229761Y-75329761D01*
X139277380Y-75282142D01*
X139377380Y-68590476D02*
X139377380Y-68114285D01*
X138377380Y-68114285D01*
X138377380Y-68780952D02*
X138377380Y-69352380D01*
X139377380Y-69066666D02*
X138377380Y-69066666D01*
X139472619Y-69447619D02*
X139472619Y-70209523D01*
X139377380Y-70923809D02*
X139377380Y-70447619D01*
X138377380Y-70447619D01*
X138853571Y-71257142D02*
X138853571Y-71590476D01*
X139377380Y-71733333D02*
X139377380Y-71257142D01*
X138377380Y-71257142D01*
X138377380Y-71733333D01*
X139377380Y-72161904D02*
X138377380Y-72161904D01*
X138377380Y-72400000D01*
X138425000Y-72542857D01*
X138520238Y-72638095D01*
X138615476Y-72685714D01*
X138805952Y-72733333D01*
X138948809Y-72733333D01*
X139139285Y-72685714D01*
X139234523Y-72638095D01*
X139329761Y-72542857D01*
X139377380Y-72400000D01*
X139377380Y-72161904D01*
%TO.C,R4*%
X160216666Y-103152380D02*
X160550000Y-102676190D01*
X160788095Y-103152380D02*
X160788095Y-102152380D01*
X160407142Y-102152380D01*
X160311904Y-102200000D01*
X160264285Y-102247619D01*
X160216666Y-102342857D01*
X160216666Y-102485714D01*
X160264285Y-102580952D01*
X160311904Y-102628571D01*
X160407142Y-102676190D01*
X160788095Y-102676190D01*
X159359523Y-102485714D02*
X159359523Y-103152380D01*
X159597619Y-102104761D02*
X159835714Y-102819047D01*
X159216666Y-102819047D01*
%TO.C,L201*%
X160844047Y-84227380D02*
X161320238Y-84227380D01*
X161320238Y-83227380D01*
X160558333Y-83322619D02*
X160510714Y-83275000D01*
X160415476Y-83227380D01*
X160177380Y-83227380D01*
X160082142Y-83275000D01*
X160034523Y-83322619D01*
X159986904Y-83417857D01*
X159986904Y-83513095D01*
X160034523Y-83655952D01*
X160605952Y-84227380D01*
X159986904Y-84227380D01*
X159367857Y-83227380D02*
X159272619Y-83227380D01*
X159177380Y-83275000D01*
X159129761Y-83322619D01*
X159082142Y-83417857D01*
X159034523Y-83608333D01*
X159034523Y-83846428D01*
X159082142Y-84036904D01*
X159129761Y-84132142D01*
X159177380Y-84179761D01*
X159272619Y-84227380D01*
X159367857Y-84227380D01*
X159463095Y-84179761D01*
X159510714Y-84132142D01*
X159558333Y-84036904D01*
X159605952Y-83846428D01*
X159605952Y-83608333D01*
X159558333Y-83417857D01*
X159510714Y-83322619D01*
X159463095Y-83275000D01*
X159367857Y-83227380D01*
X158082142Y-84227380D02*
X158653571Y-84227380D01*
X158367857Y-84227380D02*
X158367857Y-83227380D01*
X158463095Y-83370238D01*
X158558333Y-83465476D01*
X158653571Y-83513095D01*
%TO.C,J103*%
X210635714Y-74352380D02*
X210635714Y-75066666D01*
X210683333Y-75209523D01*
X210778571Y-75304761D01*
X210921428Y-75352380D01*
X211016666Y-75352380D01*
X209635714Y-75352380D02*
X210207142Y-75352380D01*
X209921428Y-75352380D02*
X209921428Y-74352380D01*
X210016666Y-74495238D01*
X210111904Y-74590476D01*
X210207142Y-74638095D01*
X209016666Y-74352380D02*
X208921428Y-74352380D01*
X208826190Y-74400000D01*
X208778571Y-74447619D01*
X208730952Y-74542857D01*
X208683333Y-74733333D01*
X208683333Y-74971428D01*
X208730952Y-75161904D01*
X208778571Y-75257142D01*
X208826190Y-75304761D01*
X208921428Y-75352380D01*
X209016666Y-75352380D01*
X209111904Y-75304761D01*
X209159523Y-75257142D01*
X209207142Y-75161904D01*
X209254761Y-74971428D01*
X209254761Y-74733333D01*
X209207142Y-74542857D01*
X209159523Y-74447619D01*
X209111904Y-74400000D01*
X209016666Y-74352380D01*
X208350000Y-74352380D02*
X207730952Y-74352380D01*
X208064285Y-74733333D01*
X207921428Y-74733333D01*
X207826190Y-74780952D01*
X207778571Y-74828571D01*
X207730952Y-74923809D01*
X207730952Y-75161904D01*
X207778571Y-75257142D01*
X207826190Y-75304761D01*
X207921428Y-75352380D01*
X208207142Y-75352380D01*
X208302380Y-75304761D01*
X208350000Y-75257142D01*
X210012380Y-68590476D02*
X209536190Y-68257142D01*
X210012380Y-68019047D02*
X209012380Y-68019047D01*
X209012380Y-68400000D01*
X209060000Y-68495238D01*
X209107619Y-68542857D01*
X209202857Y-68590476D01*
X209345714Y-68590476D01*
X209440952Y-68542857D01*
X209488571Y-68495238D01*
X209536190Y-68400000D01*
X209536190Y-68019047D01*
X209012380Y-68876190D02*
X209012380Y-69447619D01*
X210012380Y-69161904D02*
X209012380Y-69161904D01*
X210107619Y-69542857D02*
X210107619Y-70304761D01*
X210012380Y-71019047D02*
X210012380Y-70542857D01*
X209012380Y-70542857D01*
X209488571Y-71352380D02*
X209488571Y-71685714D01*
X210012380Y-71828571D02*
X210012380Y-71352380D01*
X209012380Y-71352380D01*
X209012380Y-71828571D01*
X210012380Y-72257142D02*
X209012380Y-72257142D01*
X209012380Y-72495238D01*
X209060000Y-72638095D01*
X209155238Y-72733333D01*
X209250476Y-72780952D01*
X209440952Y-72828571D01*
X209583809Y-72828571D01*
X209774285Y-72780952D01*
X209869523Y-72733333D01*
X209964761Y-72638095D01*
X210012380Y-72495238D01*
X210012380Y-72257142D01*
%TO.C,C202*%
X164369047Y-76107142D02*
X164416666Y-76154761D01*
X164559523Y-76202380D01*
X164654761Y-76202380D01*
X164797619Y-76154761D01*
X164892857Y-76059523D01*
X164940476Y-75964285D01*
X164988095Y-75773809D01*
X164988095Y-75630952D01*
X164940476Y-75440476D01*
X164892857Y-75345238D01*
X164797619Y-75250000D01*
X164654761Y-75202380D01*
X164559523Y-75202380D01*
X164416666Y-75250000D01*
X164369047Y-75297619D01*
X163988095Y-75297619D02*
X163940476Y-75250000D01*
X163845238Y-75202380D01*
X163607142Y-75202380D01*
X163511904Y-75250000D01*
X163464285Y-75297619D01*
X163416666Y-75392857D01*
X163416666Y-75488095D01*
X163464285Y-75630952D01*
X164035714Y-76202380D01*
X163416666Y-76202380D01*
X162797619Y-75202380D02*
X162702380Y-75202380D01*
X162607142Y-75250000D01*
X162559523Y-75297619D01*
X162511904Y-75392857D01*
X162464285Y-75583333D01*
X162464285Y-75821428D01*
X162511904Y-76011904D01*
X162559523Y-76107142D01*
X162607142Y-76154761D01*
X162702380Y-76202380D01*
X162797619Y-76202380D01*
X162892857Y-76154761D01*
X162940476Y-76107142D01*
X162988095Y-76011904D01*
X163035714Y-75821428D01*
X163035714Y-75583333D01*
X162988095Y-75392857D01*
X162940476Y-75297619D01*
X162892857Y-75250000D01*
X162797619Y-75202380D01*
X162083333Y-75297619D02*
X162035714Y-75250000D01*
X161940476Y-75202380D01*
X161702380Y-75202380D01*
X161607142Y-75250000D01*
X161559523Y-75297619D01*
X161511904Y-75392857D01*
X161511904Y-75488095D01*
X161559523Y-75630952D01*
X162130952Y-76202380D01*
X161511904Y-76202380D01*
%TO.C,J301*%
X180735714Y-77902380D02*
X180735714Y-78616666D01*
X180783333Y-78759523D01*
X180878571Y-78854761D01*
X181021428Y-78902380D01*
X181116666Y-78902380D01*
X180354761Y-77902380D02*
X179735714Y-77902380D01*
X180069047Y-78283333D01*
X179926190Y-78283333D01*
X179830952Y-78330952D01*
X179783333Y-78378571D01*
X179735714Y-78473809D01*
X179735714Y-78711904D01*
X179783333Y-78807142D01*
X179830952Y-78854761D01*
X179926190Y-78902380D01*
X180211904Y-78902380D01*
X180307142Y-78854761D01*
X180354761Y-78807142D01*
X179116666Y-77902380D02*
X179021428Y-77902380D01*
X178926190Y-77950000D01*
X178878571Y-77997619D01*
X178830952Y-78092857D01*
X178783333Y-78283333D01*
X178783333Y-78521428D01*
X178830952Y-78711904D01*
X178878571Y-78807142D01*
X178926190Y-78854761D01*
X179021428Y-78902380D01*
X179116666Y-78902380D01*
X179211904Y-78854761D01*
X179259523Y-78807142D01*
X179307142Y-78711904D01*
X179354761Y-78521428D01*
X179354761Y-78283333D01*
X179307142Y-78092857D01*
X179259523Y-77997619D01*
X179211904Y-77950000D01*
X179116666Y-77902380D01*
X177830952Y-78902380D02*
X178402380Y-78902380D01*
X178116666Y-78902380D02*
X178116666Y-77902380D01*
X178211904Y-78045238D01*
X178307142Y-78140476D01*
X178402380Y-78188095D01*
D11*
%TO.C,R11*%
X195360000Y-98322936D02*
X195360000Y-99777064D01*
X193540000Y-98322936D02*
X193540000Y-99777064D01*
%TO.C,C1*%
X190552164Y-95155000D02*
X190767836Y-95155000D01*
X190552164Y-95875000D02*
X190767836Y-95875000D01*
%TO.C,C2*%
X186487164Y-95190000D02*
X186702836Y-95190000D01*
X186487164Y-95910000D02*
X186702836Y-95910000D01*
%TO.C,J2*%
X172490000Y-65000000D02*
X172490000Y-65260000D01*
X172490000Y-67540000D02*
X172490000Y-69310000D01*
X172490000Y-69310000D02*
X172870000Y-69310000D01*
X180110000Y-69310000D02*
X179730000Y-69310000D01*
X180110000Y-69310000D02*
X180110000Y-67540000D01*
X180110000Y-65260000D02*
X180110000Y-65000000D01*
%TO.C,J3*%
X202480000Y-74585000D02*
X202480000Y-74605000D01*
X202480000Y-102595000D02*
X202480000Y-102615000D01*
X200965000Y-104035000D02*
X197890000Y-104035000D01*
X201980000Y-102615000D02*
X201980000Y-74585000D01*
X202480000Y-102615000D02*
X201980000Y-102615000D01*
X201980000Y-74585000D02*
X202480000Y-74585000D01*
X197890000Y-104035000D02*
X197890000Y-73165000D01*
X197890000Y-73165000D02*
X200965000Y-73165000D01*
%TO.C,Q1*%
X143750000Y-67340000D02*
X143100000Y-67340000D01*
X143750000Y-67340000D02*
X145425000Y-67340000D01*
X143750000Y-70460000D02*
X143100000Y-70460000D01*
X143750000Y-70460000D02*
X144400000Y-70460000D01*
%TO.C,Q2*%
X206725000Y-67340000D02*
X206075000Y-67340000D01*
X206725000Y-70460000D02*
X205050000Y-70460000D01*
X206725000Y-70460000D02*
X207375000Y-70460000D01*
X206725000Y-67340000D02*
X207375000Y-67340000D01*
%TO.C,Q3*%
X204390000Y-110850000D02*
X204390000Y-109175000D01*
X207510000Y-110850000D02*
X207510000Y-110200000D01*
X204390000Y-110850000D02*
X204390000Y-111500000D01*
X207510000Y-110850000D02*
X207510000Y-111500000D01*
%TO.C,Q4*%
X148710000Y-110850000D02*
X148710000Y-111500000D01*
X145590000Y-110850000D02*
X145590000Y-111500000D01*
X145590000Y-110850000D02*
X145590000Y-109175000D01*
X148710000Y-110850000D02*
X148710000Y-110200000D01*
%TO.C,Q5*%
X142090000Y-110850000D02*
X142090000Y-111500000D01*
X145210000Y-110850000D02*
X145210000Y-111500000D01*
X142090000Y-110850000D02*
X142090000Y-109175000D01*
X145210000Y-110850000D02*
X145210000Y-110200000D01*
%TO.C,Q6*%
X200240000Y-110850000D02*
X200240000Y-109175000D01*
X200240000Y-110850000D02*
X200240000Y-111500000D01*
X203360000Y-110850000D02*
X203360000Y-111500000D01*
X203360000Y-110850000D02*
X203360000Y-110200000D01*
%TO.C,R1*%
X210227500Y-99662742D02*
X210227500Y-100137258D01*
X211272500Y-99662742D02*
X211272500Y-100137258D01*
%TO.C,R9*%
X149625242Y-91127500D02*
X150099758Y-91127500D01*
X149625242Y-92172500D02*
X150099758Y-92172500D01*
%TO.C,R10*%
X145672500Y-89574758D02*
X145672500Y-89100242D01*
X144627500Y-89574758D02*
X144627500Y-89100242D01*
%TO.C,R13*%
X147272500Y-87999758D02*
X147272500Y-87525242D01*
X146227500Y-87999758D02*
X146227500Y-87525242D01*
%TO.C,R14*%
X149700242Y-86072500D02*
X150174758Y-86072500D01*
X149700242Y-85027500D02*
X150174758Y-85027500D01*
%TO.C,U3*%
X152050000Y-90460000D02*
X148450000Y-90460000D01*
X152050000Y-90460000D02*
X154250000Y-90460000D01*
X152050000Y-87240000D02*
X154250000Y-87240000D01*
X152050000Y-87240000D02*
X149850000Y-87240000D01*
%TO.C,U4*%
X191375000Y-101755000D02*
X191375000Y-96345000D01*
X191375000Y-96345000D02*
X183475000Y-96345000D01*
X183475000Y-100955000D02*
X184275000Y-101755000D01*
X184275000Y-101755000D02*
X191375000Y-101755000D01*
X183475000Y-96345000D02*
X183475000Y-100955000D01*
%TO.C,D1*%
X209790000Y-104525000D02*
X209790000Y-101840000D01*
X211710000Y-101840000D02*
X211710000Y-104525000D01*
X209790000Y-101840000D02*
X211710000Y-101840000D01*
%TO.C,D2*%
X209360000Y-102065000D02*
X209360000Y-104350000D01*
X207890000Y-102065000D02*
X209360000Y-102065000D01*
X207890000Y-104350000D02*
X207890000Y-102065000D01*
%TO.C,R2*%
X209147500Y-99925242D02*
X209147500Y-100399758D01*
X208102500Y-99925242D02*
X208102500Y-100399758D01*
%TO.C,Q7*%
X189765000Y-73765000D02*
X189765000Y-74415000D01*
X189765000Y-73765000D02*
X189765000Y-73115000D01*
X192885000Y-73765000D02*
X192885000Y-73115000D01*
X192885000Y-73765000D02*
X192885000Y-75440000D01*
%TO.C,R6*%
X157787258Y-100022500D02*
X157312742Y-100022500D01*
X157787258Y-98977500D02*
X157312742Y-98977500D01*
%TO.C,C101*%
X167007836Y-84660000D02*
X166792164Y-84660000D01*
X167007836Y-83940000D02*
X166792164Y-83940000D01*
%TO.C,C305*%
X180738748Y-102115000D02*
X181261252Y-102115000D01*
X180738748Y-103585000D02*
X181261252Y-103585000D01*
%TO.C,C302*%
X166107836Y-93160000D02*
X165892164Y-93160000D01*
X166107836Y-92440000D02*
X165892164Y-92440000D01*
%TO.C,U301*%
X179090000Y-100720000D02*
X179090000Y-101670000D01*
X179090000Y-92400000D02*
X179090000Y-91450000D01*
X168870000Y-100720000D02*
X168870000Y-101670000D01*
X168870000Y-91450000D02*
X169820000Y-91450000D01*
X168870000Y-101670000D02*
X169820000Y-101670000D01*
X168870000Y-92400000D02*
X168870000Y-91450000D01*
X178140000Y-101670000D02*
X178140000Y-103010000D01*
X179090000Y-91450000D02*
X178140000Y-91450000D01*
X179090000Y-101670000D02*
X178140000Y-101670000D01*
%TO.C,R301*%
X187837742Y-90747500D02*
X188312258Y-90747500D01*
X187837742Y-89702500D02*
X188312258Y-89702500D01*
%TO.C,R3*%
X157787258Y-103777500D02*
X157312742Y-103777500D01*
X157787258Y-104822500D02*
X157312742Y-104822500D01*
%TO.C,JP301*%
X189105000Y-94230000D02*
X189105000Y-92900000D01*
X186505000Y-94230000D02*
X183905000Y-94230000D01*
X186505000Y-91570000D02*
X183905000Y-91570000D01*
X183905000Y-94230000D02*
X183905000Y-91570000D01*
X187775000Y-94230000D02*
X189105000Y-94230000D01*
X186505000Y-94230000D02*
X186505000Y-91570000D01*
%TO.C,JP1*%
X146800000Y-103350000D02*
X145400000Y-103350000D01*
X147500000Y-104650000D02*
X147500000Y-104050000D01*
X145400000Y-105350000D02*
X146800000Y-105350000D01*
X144700000Y-104050000D02*
X144700000Y-104650000D01*
X147500000Y-104050000D02*
G75*
G03*
X146800000Y-103350000I-699999J1D01*
G01*
X145400000Y-103350000D02*
G75*
G03*
X144700000Y-104050000I-1J-699999D01*
G01*
X144700000Y-104650000D02*
G75*
G03*
X145400000Y-105350000I699999J-1D01*
G01*
X146800000Y-105350000D02*
G75*
G03*
X147500000Y-104650000I1J699999D01*
G01*
%TO.C,C301*%
X166107836Y-99940000D02*
X165892164Y-99940000D01*
X166107836Y-99220000D02*
X165892164Y-99220000D01*
%TO.C,U102*%
X173210000Y-77040000D02*
X171950000Y-77040000D01*
X173210000Y-83050000D02*
X173210000Y-77040000D01*
X166390000Y-77040000D02*
X167650000Y-77040000D01*
X166390000Y-80800000D02*
X166390000Y-77040000D01*
%TO.C,C304*%
X178085000Y-88857836D02*
X178085000Y-88642164D01*
X177365000Y-88857836D02*
X177365000Y-88642164D01*
%TO.C,R201*%
X153537742Y-76572500D02*
X154012258Y-76572500D01*
X153537742Y-75527500D02*
X154012258Y-75527500D01*
%TO.C,R102*%
X169212258Y-66427500D02*
X168737742Y-66427500D01*
X169212258Y-67472500D02*
X168737742Y-67472500D01*
%TO.C,JP2*%
X147500000Y-102050000D02*
X147500000Y-101450000D01*
X144700000Y-101450000D02*
X144700000Y-102050000D01*
X145400000Y-102750000D02*
X146800000Y-102750000D01*
X146800000Y-100750000D02*
X145400000Y-100750000D01*
X144700000Y-102050000D02*
G75*
G03*
X145400000Y-102750000I699999J-1D01*
G01*
X145400000Y-100750000D02*
G75*
G03*
X144700000Y-101450000I-1J-699999D01*
G01*
X146800000Y-102750000D02*
G75*
G03*
X147500000Y-102050000I1J699999D01*
G01*
X147500000Y-101450000D02*
G75*
G03*
X146800000Y-100750000I-699999J1D01*
G01*
%TO.C,R202*%
X155122500Y-73862258D02*
X155122500Y-73387742D01*
X154077500Y-73862258D02*
X154077500Y-73387742D01*
%TO.C,J102*%
X207200000Y-115130000D02*
X202200000Y-115130000D01*
X196690000Y-119120000D02*
X196690000Y-116760000D01*
X207200000Y-116760000D02*
X207200000Y-113570000D01*
X207200000Y-119120000D02*
X212710000Y-119120000D01*
X207200000Y-113570000D02*
X202200000Y-113570000D01*
X212710000Y-119120000D02*
X212710000Y-116760000D01*
X196690000Y-116760000D02*
X202200000Y-116760000D01*
X212710000Y-116760000D02*
X207200000Y-116760000D01*
X207200000Y-115130000D02*
X207200000Y-119120000D01*
X202200000Y-116760000D02*
X202200000Y-113570000D01*
X202200000Y-115130000D02*
X202200000Y-119120000D01*
X202200000Y-119120000D02*
X196690000Y-119120000D01*
%TO.C,J101*%
X148400000Y-116760000D02*
X148400000Y-113570000D01*
X143400000Y-115130000D02*
X143400000Y-119120000D01*
X137890000Y-116760000D02*
X143400000Y-116760000D01*
X153910000Y-116760000D02*
X148400000Y-116760000D01*
X148400000Y-119120000D02*
X153910000Y-119120000D01*
X148400000Y-113570000D02*
X143400000Y-113570000D01*
X153910000Y-119120000D02*
X153910000Y-116760000D01*
X143400000Y-116760000D02*
X143400000Y-113570000D01*
X148400000Y-115130000D02*
X148400000Y-119120000D01*
X137890000Y-119120000D02*
X137890000Y-116760000D01*
X143400000Y-119120000D02*
X137890000Y-119120000D01*
X148400000Y-115130000D02*
X143400000Y-115130000D01*
D10*
%TO.C,U201*%
X160875000Y-73825000D02*
X160875000Y-69675000D01*
X155725000Y-73825000D02*
X155725000Y-69675000D01*
X160875000Y-73825000D02*
X160825000Y-73825000D01*
X155725000Y-73825000D02*
X155870000Y-73825000D01*
X160825000Y-73825000D02*
X160825000Y-75225000D01*
X160875000Y-69675000D02*
X160730000Y-69675000D01*
X155725000Y-69675000D02*
X155870000Y-69675000D01*
D11*
%TO.C,C201*%
X158557836Y-66890000D02*
X158342164Y-66890000D01*
X158557836Y-67610000D02*
X158342164Y-67610000D01*
%TO.C,D101*%
X168840000Y-70265000D02*
X170760000Y-70265000D01*
X168840000Y-72950000D02*
X168840000Y-70265000D01*
X170760000Y-70265000D02*
X170760000Y-72950000D01*
%TO.C,R101*%
X166647258Y-104017500D02*
X166172742Y-104017500D01*
X166647258Y-105062500D02*
X166172742Y-105062500D01*
%TO.C,C303*%
X172385000Y-104717164D02*
X172385000Y-104932836D01*
X171665000Y-104717164D02*
X171665000Y-104932836D01*
%TO.C,D201*%
X161450000Y-66350000D02*
X161450000Y-71750000D01*
X164750000Y-66350000D02*
X164750000Y-71750000D01*
X161450000Y-66350000D02*
X164750000Y-66350000D01*
%TO.C,J104*%
X216665000Y-84815000D02*
X216165000Y-84815000D01*
X216665000Y-84795000D02*
X216665000Y-84815000D01*
X212075000Y-86235000D02*
X212075000Y-76365000D01*
X216165000Y-84815000D02*
X216165000Y-77785000D01*
X215150000Y-86235000D02*
X212075000Y-86235000D01*
X216665000Y-77785000D02*
X216665000Y-77805000D01*
X216165000Y-77785000D02*
X216665000Y-77785000D01*
X212075000Y-76365000D02*
X215150000Y-76365000D01*
%TO.C,Q101*%
X162885000Y-107050000D02*
X162235000Y-107050000D01*
X162885000Y-103930000D02*
X164560000Y-103930000D01*
X162885000Y-103930000D02*
X162235000Y-103930000D01*
X162885000Y-107050000D02*
X163535000Y-107050000D01*
%TO.C,C203*%
X151560000Y-72240000D02*
X148810000Y-72240000D01*
X144104437Y-80760000D02*
X145790000Y-80760000D01*
X144104437Y-80760000D02*
X143040000Y-79695563D01*
X151560000Y-79695563D02*
X151560000Y-72240000D01*
X149810000Y-82000000D02*
X149810000Y-81000000D01*
X150310000Y-81500000D02*
X149310000Y-81500000D01*
X143040000Y-79695563D02*
X143040000Y-72240000D01*
X150495563Y-80760000D02*
X151560000Y-79695563D01*
X143040000Y-72240000D02*
X145790000Y-72240000D01*
X150495563Y-80760000D02*
X148810000Y-80760000D01*
%TO.C,J106*%
X137115000Y-77785000D02*
X137615000Y-77785000D01*
X137115000Y-84815000D02*
X137115000Y-77785000D01*
X136100000Y-86235000D02*
X133025000Y-86235000D01*
X137615000Y-84795000D02*
X137615000Y-84815000D01*
X133025000Y-86235000D02*
X133025000Y-76365000D01*
X137615000Y-84815000D02*
X137115000Y-84815000D01*
X137615000Y-77785000D02*
X137615000Y-77805000D01*
X133025000Y-76365000D02*
X136100000Y-76365000D01*
%TO.C,R5*%
X157787258Y-100577500D02*
X157312742Y-100577500D01*
X157787258Y-101622500D02*
X157312742Y-101622500D01*
%TO.C,R203*%
X154012258Y-70602500D02*
X153537742Y-70602500D01*
X154012258Y-71647500D02*
X153537742Y-71647500D01*
%TO.C,C102*%
X171540000Y-72557836D02*
X171540000Y-72342164D01*
X172260000Y-72557836D02*
X172260000Y-72342164D01*
%TO.C,JP3*%
X144700000Y-98850000D02*
X144700000Y-99450000D01*
X147500000Y-99450000D02*
X147500000Y-98850000D01*
X145400000Y-100150000D02*
X146800000Y-100150000D01*
X146800000Y-98150000D02*
X145400000Y-98150000D01*
X146800000Y-100150000D02*
G75*
G03*
X147500000Y-99450000I1J699999D01*
G01*
X147500000Y-98850000D02*
G75*
G03*
X146800000Y-98150000I-699999J1D01*
G01*
X144700000Y-99450000D02*
G75*
G03*
X145400000Y-100150000I699999J-1D01*
G01*
X145400000Y-98150000D02*
G75*
G03*
X144700000Y-98850000I-1J-699999D01*
G01*
%TO.C,JP4*%
X146800000Y-95550000D02*
X145400000Y-95550000D01*
X144700000Y-96250000D02*
X144700000Y-96850000D01*
X145400000Y-97550000D02*
X146800000Y-97550000D01*
X147500000Y-96850000D02*
X147500000Y-96250000D01*
X144700000Y-96850000D02*
G75*
G03*
X145400000Y-97550000I699999J-1D01*
G01*
X147500000Y-96250000D02*
G75*
G03*
X146800000Y-95550000I-699999J1D01*
G01*
X145400000Y-95550000D02*
G75*
G03*
X144700000Y-96250000I-1J-699999D01*
G01*
X146800000Y-97550000D02*
G75*
G03*
X147500000Y-96850000I1J699999D01*
G01*
%TO.C,J105*%
X133025000Y-65465000D02*
X136100000Y-65465000D01*
X137115000Y-73915000D02*
X137115000Y-66885000D01*
X137615000Y-66885000D02*
X137615000Y-66905000D01*
X133025000Y-75335000D02*
X133025000Y-65465000D01*
X137615000Y-73895000D02*
X137615000Y-73915000D01*
X137615000Y-73915000D02*
X137115000Y-73915000D01*
X136100000Y-75335000D02*
X133025000Y-75335000D01*
X137115000Y-66885000D02*
X137615000Y-66885000D01*
%TO.C,R4*%
X157787258Y-102177500D02*
X157312742Y-102177500D01*
X157787258Y-103222500D02*
X157312742Y-103222500D01*
%TO.C,L201*%
X162650000Y-82850000D02*
X162650000Y-76850000D01*
X156550000Y-82850000D02*
X162650000Y-82850000D01*
X156550000Y-76850000D02*
X156550000Y-82850000D01*
X162650000Y-76850000D02*
X156550000Y-76850000D01*
%TO.C,J103*%
X212050000Y-75335000D02*
X212050000Y-65465000D01*
X216640000Y-73915000D02*
X216140000Y-73915000D01*
X216140000Y-66885000D02*
X216640000Y-66885000D01*
X216640000Y-66885000D02*
X216640000Y-66905000D01*
X216640000Y-73895000D02*
X216640000Y-73915000D01*
X216140000Y-73915000D02*
X216140000Y-66885000D01*
X215125000Y-75335000D02*
X212050000Y-75335000D01*
X212050000Y-65465000D02*
X215125000Y-65465000D01*
%TO.C,C202*%
X162657836Y-74090000D02*
X162442164Y-74090000D01*
X162657836Y-74810000D02*
X162442164Y-74810000D01*
%TO.C,J301*%
X176215000Y-81635000D02*
X176215000Y-85165000D01*
X176215000Y-81635000D02*
X176280000Y-81635000D01*
X182620000Y-85165000D02*
X182685000Y-85165000D01*
X176280000Y-80310000D02*
X176280000Y-81635000D01*
X182620000Y-81635000D02*
X182685000Y-81635000D01*
X182685000Y-81635000D02*
X182685000Y-85165000D01*
X176215000Y-85165000D02*
X176280000Y-85165000D01*
%TD*%
M02*
