M48
; DRILL file {KiCad (6.0.1)} date Thu Jan 27 11:52:20 2022
; FORMAT={-:-/ absolute / inch / decimal}
; #@! TF.CreationDate,2022-01-27T11:52:20-05:00
; #@! TF.GenerationSoftware,Kicad,Pcbnew,(6.0.1)
; #@! TF.FileFunction,Plated,1,2,PTH
FMAT,2
INCH
; #@! TA.AperFunction,Plated,PTH,ViaDrill
T1C0.0079
; #@! TA.AperFunction,Plated,PTH,ViaDrill
T2C0.0118
; #@! TA.AperFunction,Plated,PTH,ComponentDrill
T3C0.0118
; #@! TA.AperFunction,Plated,PTH,ViaDrill
T4C0.0157
; #@! TA.AperFunction,Plated,PTH,ComponentDrill
T5C0.0300
; #@! TA.AperFunction,Plated,PTH,ComponentDrill
T6C0.0394
; #@! TA.AperFunction,Plated,PTH,ComponentDrill
T7C0.0402
%
G90
G05
T1
X6.3006Y-2.7526
T2
X6.185Y-3.9921
X6.2598Y-3.9843
X6.3189Y-4.0709
X6.4016Y-3.811
X6.4567Y-2.9291
X6.4606Y-3.6181
X6.6732Y-4.31
X6.811Y-4.0945
X6.815Y-4.1299
X6.9469Y-3.7063
X7.0551Y-4.0118
X7.1004Y-3.5063
X7.1374Y-3.8012
X7.1732Y-3.8258
X7.185Y-3.7402
X7.2717Y-3.7008
X7.2795Y-4.1142
X7.3228Y-4.1772
X7.3425Y-3.437
X7.4646Y-3.9055
X7.4764Y-3.1969
X7.4862Y-3.8583
X7.5276Y-3.7175
X7.5394Y-3.5984
X7.5906Y-2.9921
X7.5906Y-3.3898
X7.6181Y-2.9843
X7.6181Y-3.0236
X7.6299Y-4.2598
X7.6457Y-2.9921
X7.6693Y-3.9606
X7.6929Y-3.3307
X7.7362Y-4.1142
X7.878Y-4.0472
X7.9213Y-2.8268
X8.0315Y-3.1929
T3
X6.2047Y-2.9055
X6.2047Y-2.9528
X6.248Y-2.9055
X6.248Y-2.9528
X6.2992Y-2.9055
X6.2992Y-2.9528
X6.3465Y-2.9055
X6.3465Y-2.9528
T4
X5.063Y-4.2008
X7.4606Y-3.5866
X7.5108Y-4.0118
X7.5236Y-3.563
X7.5394Y-4.0591
X7.5687Y-4.0071
X7.5748Y-3.5984
X7.9921Y-3.248
X8.2402Y-2.937
T5
X5.189Y-2.811
X5.189Y-2.8898
X5.189Y-2.9685
X5.189Y-3.0472
X5.189Y-3.126
X5.189Y-3.2047
X5.189Y-3.2835
X5.189Y-3.3622
X5.189Y-3.4409
X5.189Y-3.5197
X5.189Y-3.5984
X5.189Y-3.6772
X5.189Y-3.7559
X5.189Y-3.8346
X5.189Y-3.9134
X5.189Y-3.9921
X5.189Y-4.0709
X5.189Y-4.1496
X5.189Y-4.2283
X5.189Y-4.3071
X8.1024Y-2.811
X8.1024Y-2.8898
X8.1024Y-2.9685
X8.1024Y-3.0472
X8.1024Y-3.126
X8.1024Y-3.2047
X8.1024Y-3.2835
X8.1024Y-3.3622
X8.1024Y-3.4409
X8.1024Y-3.5197
X8.1024Y-3.5984
X8.1024Y-3.6772
X8.1024Y-3.7559
X8.1024Y-3.8346
X8.1024Y-3.9134
X8.1024Y-3.9921
X8.1024Y-4.0709
X8.1024Y-4.1496
X8.1024Y-4.2283
X8.1024Y-4.3071
T6
X7.1618Y-3.311
X7.2618Y-3.311
T7
X4.8425Y-4.5276
X4.9606Y-2.7087
X4.9606Y-2.8268
X4.9606Y-3.1339
X4.9606Y-3.252
X4.9606Y-3.5591
X4.9606Y-3.6772
X4.9606Y-3.9843
X4.9606Y-4.1024
X4.9606Y-4.5276
X5.2677Y-4.5591
X5.3858Y-4.5591
X5.6929Y-4.5591
X5.811Y-4.5591
X6.1181Y-4.5591
X6.2362Y-4.5591
X6.7323Y-2.8386
X6.7598Y-3.1417
X6.7598Y-3.2598
X6.8504Y-2.8386
X6.9685Y-2.8386
X7.0236Y-4.5591
X7.0866Y-2.8386
X7.1417Y-4.5591
X7.2047Y-2.8386
X7.3228Y-2.8386
X7.4409Y-2.8386
X7.4488Y-4.5591
X7.5591Y-2.8386
X7.5669Y-4.5591
X7.6772Y-2.8386
X7.874Y-4.5591
X7.9921Y-4.5591
X8.2953Y-2.7087
X8.2953Y-2.8268
X8.2953Y-3.1339
X8.2953Y-3.252
X8.2953Y-3.5591
X8.2953Y-3.6772
X8.2953Y-3.9843
X8.2953Y-4.1024
X8.2992Y-4.5276
X8.4173Y-4.5276
T0
M30
