M48
; DRILL file {KiCad (6.0.1)} date Thu Jan 27 11:52:20 2022
; FORMAT={-:-/ absolute / inch / decimal}
; #@! TF.CreationDate,2022-01-27T11:52:20-05:00
; #@! TF.GenerationSoftware,Kicad,Pcbnew,(6.0.1)
; #@! TF.FileFunction,NonPlated,1,2,NPTH
FMAT,2
INCH
; #@! TA.AperFunction,NonPlated,NPTH,ComponentDrill
T1C0.0500
%
G90
G05
T1
X4.7244Y-4.4504
X4.8835Y-2.5906
X4.8835Y-2.9449
X4.8835Y-3.0157
X4.8835Y-3.3701
X4.8835Y-3.4409
X4.8835Y-3.7953
X4.8835Y-3.8661
X4.8835Y-4.2205
X5.0787Y-4.4504
X5.1496Y-4.6362
X5.5039Y-4.6362
X5.5748Y-4.6362
X5.9291Y-4.6362
X6.0Y-4.6362
X6.3543Y-4.6362
X6.6142Y-2.7614
X6.837Y-3.0236
X6.837Y-3.378
X6.9055Y-4.6362
X7.2598Y-4.6362
X7.3307Y-4.6362
X7.685Y-4.6362
X7.7559Y-4.6362
X7.7953Y-2.7614
X8.1102Y-4.6362
X8.1811Y-4.4504
X8.3724Y-2.5906
X8.3724Y-2.9449
X8.3724Y-3.0157
X8.3724Y-3.3701
X8.3724Y-3.4409
X8.3724Y-3.7953
X8.3724Y-3.8661
X8.3724Y-4.2205
X8.5354Y-4.4504
T0
M30
