%TF.GenerationSoftware,KiCad,Pcbnew,(6.0.1)*%
%TF.CreationDate,2022-01-27T11:52:20-05:00*%
%TF.ProjectId,SteeringHardware,53746565-7269-46e6-9748-617264776172,rev?*%
%TF.SameCoordinates,Original*%
%TF.FileFunction,Soldermask,Bot*%
%TF.FilePolarity,Negative*%
%FSLAX46Y46*%
G04 Gerber Fmt 4.6, Leading zero omitted, Abs format (unit mm)*
G04 Created by KiCad (PCBNEW (6.0.1)) date 2022-01-27 11:52:20*
%MOMM*%
%LPD*%
G01*
G04 APERTURE LIST*
G04 Aperture macros list*
%AMRoundRect*
0 Rectangle with rounded corners*
0 $1 Rounding radius*
0 $2 $3 $4 $5 $6 $7 $8 $9 X,Y pos of 4 corners*
0 Add a 4 corners polygon primitive as box body*
4,1,4,$2,$3,$4,$5,$6,$7,$8,$9,$2,$3,0*
0 Add four circle primitives for the rounded corners*
1,1,$1+$1,$2,$3*
1,1,$1+$1,$4,$5*
1,1,$1+$1,$6,$7*
1,1,$1+$1,$8,$9*
0 Add four rect primitives between the rounded corners*
20,1,$1+$1,$2,$3,$4,$5,0*
20,1,$1+$1,$4,$5,$6,$7,0*
20,1,$1+$1,$6,$7,$8,$9,0*
20,1,$1+$1,$8,$9,$2,$3,0*%
G04 Aperture macros list end*
%ADD10R,1.800000X2.500000*%
%ADD11R,1.524000X1.524000*%
%ADD12C,1.524000*%
%ADD13RoundRect,0.140000X0.170000X-0.140000X0.170000X0.140000X-0.170000X0.140000X-0.170000X-0.140000X0*%
%ADD14R,0.450000X1.380000*%
%ADD15R,1.800000X1.900000*%
%ADD16R,1.425000X1.550000*%
%ADD17R,1.650000X1.300000*%
%ADD18R,1.000000X1.900000*%
%ADD19C,1.270000*%
%ADD20RoundRect,0.250001X0.499999X0.759999X-0.499999X0.759999X-0.499999X-0.759999X0.499999X-0.759999X0*%
%ADD21O,1.500000X2.020000*%
%ADD22RoundRect,0.250001X-0.499999X-0.759999X0.499999X-0.759999X0.499999X0.759999X-0.499999X0.759999X0*%
%ADD23RoundRect,0.150000X0.150000X-0.587500X0.150000X0.587500X-0.150000X0.587500X-0.150000X-0.587500X0*%
%ADD24RoundRect,0.150000X-0.150000X0.587500X-0.150000X-0.587500X0.150000X-0.587500X0.150000X0.587500X0*%
%ADD25RoundRect,0.150000X0.587500X0.150000X-0.587500X0.150000X-0.587500X-0.150000X0.587500X-0.150000X0*%
%ADD26RoundRect,0.200000X-0.200000X-0.275000X0.200000X-0.275000X0.200000X0.275000X-0.200000X0.275000X0*%
%ADD27RoundRect,0.200000X0.275000X-0.200000X0.275000X0.200000X-0.275000X0.200000X-0.275000X-0.200000X0*%
%ADD28RoundRect,0.100000X-0.637500X-0.100000X0.637500X-0.100000X0.637500X0.100000X-0.637500X0.100000X0*%
%ADD29R,0.600000X1.400000*%
%ADD30RoundRect,0.250001X-0.759999X0.499999X-0.759999X-0.499999X0.759999X-0.499999X0.759999X0.499999X0*%
%ADD31O,2.020000X1.500000*%
%ADD32RoundRect,0.250001X0.759999X-0.499999X0.759999X0.499999X-0.759999X0.499999X-0.759999X-0.499999X0*%
%ADD33RoundRect,0.243750X-0.243750X-0.456250X0.243750X-0.456250X0.243750X0.456250X-0.243750X0.456250X0*%
%ADD34RoundRect,0.218750X-0.218750X-0.256250X0.218750X-0.256250X0.218750X0.256250X-0.218750X0.256250X0*%
%ADD35RoundRect,0.250000X-0.250000X-0.475000X0.250000X-0.475000X0.250000X0.475000X-0.250000X0.475000X0*%
%ADD36RoundRect,0.140000X-0.219203X-0.021213X-0.021213X-0.219203X0.219203X0.021213X0.021213X0.219203X0*%
%ADD37RoundRect,0.075000X0.700000X0.075000X-0.700000X0.075000X-0.700000X-0.075000X0.700000X-0.075000X0*%
%ADD38RoundRect,0.075000X0.075000X0.700000X-0.075000X0.700000X-0.075000X-0.700000X0.075000X-0.700000X0*%
%ADD39RoundRect,0.200000X0.200000X0.275000X-0.200000X0.275000X-0.200000X-0.275000X0.200000X-0.275000X0*%
%ADD40R,1.700000X1.700000*%
%ADD41O,1.700000X1.700000*%
%ADD42RoundRect,0.140000X-0.170000X0.140000X-0.170000X-0.140000X0.170000X-0.140000X0.170000X0.140000X0*%
%ADD43R,0.600000X1.550000*%
%ADD44R,3.100000X2.600000*%
%ADD45RoundRect,0.140000X0.140000X0.170000X-0.140000X0.170000X-0.140000X-0.170000X0.140000X-0.170000X0*%
%ADD46RoundRect,0.140000X-0.140000X-0.170000X0.140000X-0.170000X0.140000X0.170000X-0.140000X0.170000X0*%
%ADD47RoundRect,0.250000X1.000000X-1.750000X1.000000X1.750000X-1.000000X1.750000X-1.000000X-1.750000X0*%
%ADD48R,2.500000X3.600000*%
%ADD49R,2.400000X0.740000*%
G04 APERTURE END LIST*
D10*
%TO.C,D201*%
X164200000Y-70400000D03*
X164200000Y-74400000D03*
%TD*%
D11*
%TO.C,U7*%
X131800000Y-71400000D03*
D12*
X131800000Y-73400000D03*
X131800000Y-75400000D03*
X131800000Y-77400000D03*
X131800000Y-79400000D03*
X131800000Y-81400000D03*
X131800000Y-83400000D03*
X131800000Y-85400000D03*
X131800000Y-87400000D03*
X131800000Y-89400000D03*
X131800000Y-91400000D03*
X131800000Y-93400000D03*
X131800000Y-95400000D03*
X131800000Y-97400000D03*
X131800000Y-99400000D03*
X131800000Y-101400000D03*
X131800000Y-103400000D03*
X131800000Y-105400000D03*
X131800000Y-107400000D03*
X131800000Y-109400000D03*
X205800000Y-109400000D03*
X205800000Y-107400000D03*
X205800000Y-105400000D03*
X205800000Y-103400000D03*
X205800000Y-101400000D03*
X205800000Y-99400000D03*
X205800000Y-97400000D03*
X205800000Y-95400000D03*
X205800000Y-93400000D03*
X205800000Y-91400000D03*
X205800000Y-89400000D03*
X205800000Y-87400000D03*
X205800000Y-85400000D03*
X205800000Y-83400000D03*
X205800000Y-81400000D03*
X205800000Y-79400000D03*
X205800000Y-77400000D03*
X205800000Y-75400000D03*
X205800000Y-73400000D03*
D11*
X205800000Y-71400000D03*
%TD*%
D13*
%TO.C,C1*%
X189900000Y-82195000D03*
X189900000Y-81235000D03*
%TD*%
%TO.C,C2*%
X193500000Y-77795000D03*
X193500000Y-76835000D03*
%TD*%
D14*
%TO.C,J2*%
X169500000Y-116340000D03*
X168850000Y-116340000D03*
X168200000Y-116340000D03*
X167550000Y-116340000D03*
X166900000Y-116340000D03*
D15*
X169350000Y-119000000D03*
D16*
X165712500Y-116425000D03*
D17*
X164825000Y-119000000D03*
D18*
X166650000Y-119000000D03*
D16*
X170687500Y-116425000D03*
D17*
X171575000Y-119000000D03*
%TD*%
D19*
%TO.C,J3*%
X198000000Y-70140000D03*
X168000000Y-70140000D03*
D20*
X195000000Y-72100000D03*
D21*
X192000000Y-72100000D03*
X189000000Y-72100000D03*
X186000000Y-72100000D03*
X183000000Y-72100000D03*
X180000000Y-72100000D03*
X177000000Y-72100000D03*
X174000000Y-72100000D03*
X171000000Y-72100000D03*
%TD*%
D19*
%TO.C,J10*%
X197000000Y-117760000D03*
X206000000Y-117760000D03*
D22*
X200000000Y-115800000D03*
D21*
X203000000Y-115800000D03*
%TD*%
D19*
%TO.C,J15*%
X150600000Y-117760000D03*
X141600000Y-117760000D03*
D22*
X144600000Y-115800000D03*
D21*
X147600000Y-115800000D03*
%TD*%
D19*
%TO.C,J19*%
X130800000Y-117760000D03*
X139800000Y-117760000D03*
D22*
X133800000Y-115800000D03*
D21*
X136800000Y-115800000D03*
%TD*%
D19*
%TO.C,J20*%
X195200000Y-117760000D03*
X186200000Y-117760000D03*
D22*
X189200000Y-115800000D03*
D21*
X192200000Y-115800000D03*
%TD*%
D23*
%TO.C,Q1*%
X133950000Y-68737500D03*
X132050000Y-68737500D03*
X133000000Y-66862500D03*
%TD*%
%TO.C,Q2*%
X203050000Y-71837500D03*
X201150000Y-71837500D03*
X202100000Y-69962500D03*
%TD*%
D24*
%TO.C,Q3*%
X199050000Y-108962500D03*
X200950000Y-108962500D03*
X200000000Y-110837500D03*
%TD*%
D25*
%TO.C,Q4*%
X142637500Y-109150000D03*
X142637500Y-111050000D03*
X140762500Y-110100000D03*
%TD*%
%TO.C,Q5*%
X150137500Y-109150000D03*
X150137500Y-111050000D03*
X148262500Y-110100000D03*
%TD*%
%TO.C,Q6*%
X186437500Y-109150000D03*
X186437500Y-111050000D03*
X184562500Y-110100000D03*
%TD*%
D26*
%TO.C,R1*%
X176387500Y-105000000D03*
X178037500Y-105000000D03*
%TD*%
%TO.C,R9*%
X156587500Y-94400000D03*
X158237500Y-94400000D03*
%TD*%
D27*
%TO.C,R10*%
X152700000Y-92912500D03*
X152700000Y-91262500D03*
%TD*%
%TO.C,R11*%
X192000000Y-79437500D03*
X192000000Y-77787500D03*
%TD*%
%TO.C,R12*%
X195000000Y-79412500D03*
X195000000Y-77762500D03*
%TD*%
%TO.C,R13*%
X154300000Y-91337500D03*
X154300000Y-89687500D03*
%TD*%
D26*
%TO.C,R14*%
X156662500Y-88300000D03*
X158312500Y-88300000D03*
%TD*%
D28*
%TO.C,U3*%
X156737500Y-92575000D03*
X156737500Y-91925000D03*
X156737500Y-91275000D03*
X156737500Y-90625000D03*
X162462500Y-90625000D03*
X162462500Y-91275000D03*
X162462500Y-91925000D03*
X162462500Y-92575000D03*
%TD*%
D29*
%TO.C,U4*%
X195340000Y-87700000D03*
X194070000Y-87700000D03*
X192800000Y-87700000D03*
X191530000Y-87700000D03*
X191530000Y-82200000D03*
X192800000Y-82200000D03*
X194070000Y-82200000D03*
X195340000Y-82200000D03*
%TD*%
D19*
%TO.C,J14*%
X124040000Y-107200000D03*
X124040000Y-98200000D03*
D30*
X126000000Y-101200000D03*
D31*
X126000000Y-104200000D03*
%TD*%
D19*
%TO.C,J13*%
X124040000Y-96400000D03*
X124040000Y-87400000D03*
D30*
X126000000Y-90400000D03*
D31*
X126000000Y-93400000D03*
%TD*%
D19*
%TO.C,J12*%
X129000000Y-113040000D03*
X120000000Y-113040000D03*
D20*
X126000000Y-115000000D03*
D21*
X123000000Y-115000000D03*
%TD*%
D19*
%TO.C,J4*%
X124040000Y-85600000D03*
X124040000Y-76600000D03*
D30*
X126000000Y-79600000D03*
D31*
X126000000Y-82600000D03*
%TD*%
D19*
%TO.C,J11*%
X212660000Y-96400000D03*
X212660000Y-87400000D03*
D32*
X210700000Y-93400000D03*
D31*
X210700000Y-90400000D03*
%TD*%
D19*
%TO.C,J9*%
X207800000Y-113040000D03*
X216800000Y-113040000D03*
D20*
X213800000Y-115000000D03*
D21*
X210800000Y-115000000D03*
%TD*%
D19*
%TO.C,J7*%
X212660000Y-85600000D03*
X212660000Y-76600000D03*
D32*
X210700000Y-82600000D03*
D31*
X210700000Y-79600000D03*
%TD*%
D19*
%TO.C,J8*%
X161400000Y-117760000D03*
X152400000Y-117760000D03*
D22*
X155400000Y-115800000D03*
D21*
X158400000Y-115800000D03*
%TD*%
D19*
%TO.C,J17*%
X184400000Y-117760000D03*
X175400000Y-117760000D03*
D22*
X178400000Y-115800000D03*
D21*
X181400000Y-115800000D03*
%TD*%
D19*
%TO.C,J6*%
X212660000Y-74800000D03*
X212660000Y-65800000D03*
D32*
X210700000Y-71800000D03*
D31*
X210700000Y-68800000D03*
%TD*%
D33*
%TO.C,D1*%
X179900000Y-105000000D03*
X181775000Y-105000000D03*
%TD*%
D34*
%TO.C,D2*%
X180312500Y-107100000D03*
X181887500Y-107100000D03*
%TD*%
D26*
%TO.C,R2*%
X176887500Y-107100000D03*
X178537500Y-107100000D03*
%TD*%
D19*
%TO.C,J5*%
X124040000Y-74800000D03*
X124040000Y-65800000D03*
D30*
X126000000Y-68800000D03*
D31*
X126000000Y-71800000D03*
%TD*%
D19*
%TO.C,J16*%
X212660000Y-107200000D03*
X212660000Y-98200000D03*
D32*
X210700000Y-104200000D03*
D31*
X210700000Y-101200000D03*
%TD*%
D19*
%TO.C,J18*%
X173660000Y-85800000D03*
X173660000Y-76800000D03*
D32*
X171700000Y-82800000D03*
D31*
X171700000Y-79800000D03*
%TD*%
D23*
%TO.C,Q7*%
X177925000Y-81550000D03*
X176025000Y-81550000D03*
X176975000Y-79675000D03*
%TD*%
D35*
%TO.C,C305*%
X196250000Y-91400000D03*
X198150000Y-91400000D03*
%TD*%
D36*
%TO.C,C302*%
X198760589Y-101460589D03*
X199439411Y-102139411D03*
%TD*%
D37*
%TO.C,U301*%
X196725000Y-95050000D03*
X196725000Y-95550000D03*
X196725000Y-96050000D03*
X196725000Y-96550000D03*
X196725000Y-97050000D03*
X196725000Y-97550000D03*
X196725000Y-98050000D03*
X196725000Y-98550000D03*
X196725000Y-99050000D03*
X196725000Y-99550000D03*
X196725000Y-100050000D03*
X196725000Y-100550000D03*
X196725000Y-101050000D03*
X196725000Y-101550000D03*
X196725000Y-102050000D03*
X196725000Y-102550000D03*
D38*
X194800000Y-104475000D03*
X194300000Y-104475000D03*
X193800000Y-104475000D03*
X193300000Y-104475000D03*
X192800000Y-104475000D03*
X192300000Y-104475000D03*
X191800000Y-104475000D03*
X191300000Y-104475000D03*
X190800000Y-104475000D03*
X190300000Y-104475000D03*
X189800000Y-104475000D03*
X189300000Y-104475000D03*
X188800000Y-104475000D03*
X188300000Y-104475000D03*
X187800000Y-104475000D03*
X187300000Y-104475000D03*
D37*
X185375000Y-102550000D03*
X185375000Y-102050000D03*
X185375000Y-101550000D03*
X185375000Y-101050000D03*
X185375000Y-100550000D03*
X185375000Y-100050000D03*
X185375000Y-99550000D03*
X185375000Y-99050000D03*
X185375000Y-98550000D03*
X185375000Y-98050000D03*
X185375000Y-97550000D03*
X185375000Y-97050000D03*
X185375000Y-96550000D03*
X185375000Y-96050000D03*
X185375000Y-95550000D03*
X185375000Y-95050000D03*
D38*
X187300000Y-93125000D03*
X187800000Y-93125000D03*
X188300000Y-93125000D03*
X188800000Y-93125000D03*
X189300000Y-93125000D03*
X189800000Y-93125000D03*
X190300000Y-93125000D03*
X190800000Y-93125000D03*
X191300000Y-93125000D03*
X191800000Y-93125000D03*
X192300000Y-93125000D03*
X192800000Y-93125000D03*
X193300000Y-93125000D03*
X193800000Y-93125000D03*
X194300000Y-93125000D03*
X194800000Y-93125000D03*
%TD*%
D39*
%TO.C,R301*%
X186650000Y-87300000D03*
X185000000Y-87300000D03*
%TD*%
D40*
%TO.C,JP301*%
X181910000Y-84100000D03*
D41*
X184450000Y-84100000D03*
%TD*%
D42*
%TO.C,C301*%
X184900000Y-104520000D03*
X184900000Y-105480000D03*
%TD*%
D13*
%TO.C,C304*%
X183500000Y-95000000D03*
X183500000Y-94040000D03*
%TD*%
D26*
%TO.C,R201*%
X154075000Y-78700000D03*
X155725000Y-78700000D03*
%TD*%
D27*
%TO.C,R202*%
X155700000Y-77100000D03*
X155700000Y-75450000D03*
%TD*%
D43*
%TO.C,U201*%
X161305000Y-77100000D03*
X160035000Y-77100000D03*
X158765000Y-77100000D03*
X157495000Y-77100000D03*
X157495000Y-71700000D03*
X158765000Y-71700000D03*
X160035000Y-71700000D03*
X161305000Y-71700000D03*
D44*
X159400000Y-74400000D03*
%TD*%
D45*
%TO.C,C201*%
X160030000Y-69900000D03*
X159070000Y-69900000D03*
%TD*%
D46*
%TO.C,C303*%
X193820000Y-106300000D03*
X194780000Y-106300000D03*
%TD*%
D47*
%TO.C,C203*%
X148400000Y-82200000D03*
X148400000Y-76100000D03*
%TD*%
D39*
%TO.C,R203*%
X155675000Y-73800000D03*
X154025000Y-73800000D03*
%TD*%
D48*
%TO.C,L201*%
X158350000Y-82500000D03*
X163050000Y-82500000D03*
%TD*%
D45*
%TO.C,C202*%
X164130000Y-77100000D03*
X163170000Y-77100000D03*
%TD*%
D49*
%TO.C,J301*%
X176450000Y-94140000D03*
X180350000Y-94140000D03*
X176450000Y-92870000D03*
X180350000Y-92870000D03*
X176450000Y-91600000D03*
X180350000Y-91600000D03*
X176450000Y-90330000D03*
X180350000Y-90330000D03*
X176450000Y-89060000D03*
X180350000Y-89060000D03*
%TD*%
M02*
